<?xml version="1.0" encoding="utf-8" standalone="no"?>
<!DOCTYPE svg PUBLIC "-//W3C//DTD SVG 1.1//EN"
  "http://www.w3.org/Graphics/SVG/1.1/DTD/svg11.dtd">
<svg xmlns:xlink="http://www.w3.org/1999/xlink" width="460.8pt" height="345.6pt" viewBox="0 0 460.8 345.6" xmlns="http://www.w3.org/2000/svg" version="1.1">
 <metadata>
  <rdf:RDF xmlns:dc="http://purl.org/dc/elements/1.1/" xmlns:cc="http://creativecommons.org/ns#" xmlns:rdf="http://www.w3.org/1999/02/22-rdf-syntax-ns#">
   <cc:Work>
    <dc:type rdf:resource="http://purl.org/dc/dcmitype/StillImage"/>
    <dc:date>2024-12-22T21:06:51.309891</dc:date>
    <dc:format>image/svg+xml</dc:format>
    <dc:creator>
     <cc:Agent>
      <dc:title>Matplotlib v3.9.4, https://matplotlib.org/</dc:title>
     </cc:Agent>
    </dc:creator>
   </cc:Work>
  </rdf:RDF>
 </metadata>
 <defs>
  <style type="text/css">*{stroke-linejoin: round; stroke-linecap: butt}</style>
 </defs>
 <g id="figure_1">
  <g id="patch_1">
   <path d="M 0 345.6 
L 460.8 345.6 
L 460.8 0 
L 0 0 
z
" style="fill: #ffffff"/>
  </g>
  <g id="axes_1">
   <g id="patch_2">
    <path d="M 57.6 307.584 
L 414.72 307.584 
L 414.72 41.472 
L 57.6 41.472 
z
" style="fill: #ffffff"/>
   </g>
   <g id="PolyCollection_1">
    <path d="M 97.423798 196.008153 
L 96.620878 196.008153 
L 96.591968 195.139192 
L 96.55961 194.270231 
L 96.520117 193.40127 
L 96.469171 192.532309 
L 96.402167 191.663348 
L 96.314649 190.794388 
L 96.202753 189.925427 
L 96.063644 189.056466 
L 95.895871 188.187505 
L 95.699603 187.318544 
L 95.476727 186.449583 
L 95.230753 185.580623 
L 94.966562 184.711662 
L 94.689975 183.842701 
L 94.407205 182.97374 
L 94.124226 182.104779 
L 93.846141 181.235818 
L 93.576625 180.366857 
L 93.317507 179.497897 
L 93.06855 178.628936 
L 92.827463 177.759975 
L 92.590125 176.891014 
L 92.350981 176.022053 
L 92.103557 175.153092 
L 91.840987 174.284132 
L 91.556479 173.415171 
L 91.243666 172.54621 
L 90.896777 171.677249 
L 90.510661 170.808288 
L 90.080669 169.939327 
L 89.602481 169.070367 
L 89.071947 168.201406 
L 88.485047 167.332445 
L 87.838017 166.463484 
L 87.12771 165.594523 
L 86.352173 164.725562 
L 85.511406 163.856602 
L 84.608201 162.987641 
L 83.648924 162.11868 
L 82.644097 161.249719 
L 81.608616 160.380758 
L 80.561481 159.511797 
L 79.524982 158.642837 
L 78.523347 157.773876 
L 77.580963 156.904915 
L 76.720387 156.035954 
L 75.960394 155.166993 
L 75.314394 154.298032 
L 74.789462 153.429072 
L 74.386177 152.560111 
L 74.099339 151.69115 
L 73.919428 150.822189 
L 73.834582 149.953228 
L 73.832727 149.084267 
L 73.903483 148.215307 
L 74.03949 147.346346 
L 74.236964 146.477385 
L 74.495383 145.608424 
L 74.81646 144.739463 
L 75.202613 143.870502 
L 75.655299 143.001542 
L 76.173557 142.132581 
L 76.753037 141.26362 
L 77.385734 140.394659 
L 78.060435 139.525698 
L 78.763823 138.656737 
L 79.482007 137.787776 
L 80.202209 136.918816 
L 80.914306 136.049855 
L 81.611953 135.180894 
L 82.293105 134.311933 
L 82.959844 133.442972 
L 83.617555 132.574011 
L 84.27359 131.705051 
L 84.935669 130.83609 
L 85.610253 129.967129 
L 86.30118 129.098168 
L 87.008736 128.229207 
L 87.729291 127.360246 
L 88.455508 126.491286 
L 89.177047 125.622325 
L 89.88162 124.753364 
L 90.556218 123.884403 
L 91.188343 123.015442 
L 91.767103 122.146481 
L 92.284075 121.277521 
L 92.733906 120.40856 
L 93.114634 119.539599 
L 93.427766 118.670638 
L 93.678131 117.801677 
L 93.873519 116.932716 
L 94.024146 116.063756 
L 94.141923 115.194795 
L 94.239589 114.325834 
L 94.329727 113.456873 
L 94.423761 112.587912 
L 94.531023 111.718951 
L 94.658017 110.849991 
L 94.807971 109.98103 
L 99.236704 109.98103 
L 99.236704 109.98103 
L 99.386658 110.849991 
L 99.513652 111.718951 
L 99.620914 112.587912 
L 99.714948 113.456873 
L 99.805086 114.325834 
L 99.902752 115.194795 
L 100.020529 116.063756 
L 100.171156 116.932716 
L 100.366545 117.801677 
L 100.616909 118.670638 
L 100.930042 119.539599 
L 101.310769 120.40856 
L 101.7606 121.277521 
L 102.277572 122.146481 
L 102.856332 123.015442 
L 103.488457 123.884403 
L 104.163055 124.753364 
L 104.867628 125.622325 
L 105.589167 126.491286 
L 106.315384 127.360246 
L 107.035939 128.229207 
L 107.743495 129.098168 
L 108.434422 129.967129 
L 109.109007 130.83609 
L 109.771085 131.705051 
L 110.427121 132.574011 
L 111.084831 133.442972 
L 111.75157 134.311933 
L 112.432723 135.180894 
L 113.13037 136.049855 
L 113.842466 136.918816 
L 114.562668 137.787776 
L 115.280852 138.656737 
L 115.98424 139.525698 
L 116.658941 140.394659 
L 117.291638 141.26362 
L 117.871119 142.132581 
L 118.389376 143.001542 
L 118.842063 143.870502 
L 119.228215 144.739463 
L 119.549292 145.608424 
L 119.807712 146.477385 
L 120.005185 147.346346 
L 120.141193 148.215307 
L 120.211948 149.084267 
L 120.210094 149.953228 
L 120.125247 150.822189 
L 119.945336 151.69115 
L 119.658498 152.560111 
L 119.255214 153.429072 
L 118.730281 154.298032 
L 118.084281 155.166993 
L 117.324289 156.035954 
L 116.463712 156.904915 
L 115.521328 157.773876 
L 114.519693 158.642837 
L 113.483194 159.511797 
L 112.43606 160.380758 
L 111.400579 161.249719 
L 110.395752 162.11868 
L 109.436474 162.987641 
L 108.533269 163.856602 
L 107.692502 164.725562 
L 106.916965 165.594523 
L 106.206658 166.463484 
L 105.559628 167.332445 
L 104.972728 168.201406 
L 104.442195 169.070367 
L 103.964006 169.939327 
L 103.534014 170.808288 
L 103.147898 171.677249 
L 102.801009 172.54621 
L 102.488196 173.415171 
L 102.203689 174.284132 
L 101.941118 175.153092 
L 101.693694 176.022053 
L 101.454551 176.891014 
L 101.217212 177.759975 
L 100.976125 178.628936 
L 100.727169 179.497897 
L 100.46805 180.366857 
L 100.198534 181.235818 
L 99.920449 182.104779 
L 99.63747 182.97374 
L 99.3547 183.842701 
L 99.078114 184.711662 
L 98.813922 185.580623 
L 98.567949 186.449583 
L 98.345072 187.318544 
L 98.148805 188.187505 
L 97.981031 189.056466 
L 97.841922 189.925427 
L 97.730026 190.794388 
L 97.642508 191.663348 
L 97.575505 192.532309 
L 97.524558 193.40127 
L 97.485066 194.270231 
L 97.452708 195.139192 
L 97.423798 196.008153 
z
" clip-path="url(#pcd75406d2b)" style="fill: #1f77b4; fill-opacity: 0.3"/>
   </g>
   <g id="PolyCollection_2">
    <path d="M 190.979216 294.035749 
L 188.582343 294.035749 
L 188.390108 291.606782 
L 188.18041 289.177815 
L 187.952558 286.748848 
L 187.705778 284.31988 
L 187.439332 281.890913 
L 187.152686 279.461946 
L 186.845706 277.032979 
L 186.518829 274.604012 
L 186.173167 272.175045 
L 185.810491 269.746077 
L 185.433061 267.31711 
L 185.043312 264.888143 
L 184.643422 262.459176 
L 184.234855 260.030209 
L 183.817975 257.601242 
L 183.391857 255.172274 
L 182.954358 252.743307 
L 182.502521 250.31434 
L 182.033242 247.885373 
L 181.544138 245.456406 
L 181.034423 243.027439 
L 180.505635 240.598471 
L 179.962033 238.169504 
L 179.410536 235.740537 
L 178.86018 233.31157 
L 178.321132 230.882603 
L 177.803386 228.453636 
L 177.315366 226.024668 
L 176.862616 223.595701 
L 176.446819 221.166734 
L 176.065273 218.737767 
L 175.710916 216.3088 
L 175.372897 213.879833 
L 175.037612 211.450866 
L 174.690081 209.021898 
L 174.315485 206.592931 
L 173.90071 204.163964 
L 173.435748 201.734997 
L 172.914841 199.30603 
L 172.337297 196.877063 
L 171.707937 194.448095 
L 171.037154 192.019128 
L 170.340585 189.590161 
L 169.638399 187.161194 
L 168.954217 184.732227 
L 168.313704 182.30326 
L 167.742908 179.874292 
L 167.266444 177.445325 
L 166.905683 175.016358 
L 166.677133 172.587391 
L 166.591169 170.158424 
L 166.6513 167.729457 
L 166.85405 165.300489 
L 167.189483 162.871522 
L 167.642316 160.442555 
L 168.193477 158.013588 
L 168.821921 155.584621 
L 169.506505 153.155654 
L 170.227707 150.726686 
L 170.969031 148.297719 
L 171.717978 145.868752 
L 172.466512 143.439785 
L 173.211015 141.010818 
L 173.951758 138.581851 
L 174.691971 136.152884 
L 175.436627 133.723916 
L 176.191076 131.294949 
L 176.95971 128.865982 
L 177.7448 126.437015 
L 178.545681 124.008048 
L 179.358374 121.579081 
L 180.175704 119.150113 
L 180.987885 116.721146 
L 181.783479 114.292179 
L 182.550573 111.863212 
L 183.277989 109.434245 
L 183.956349 107.005278 
L 184.578846 104.57631 
L 185.141642 102.147343 
L 185.643865 99.718376 
L 186.087274 97.289409 
L 186.475687 94.860442 
L 186.814288 92.431475 
L 187.10895 90.002507 
L 187.365648 87.57354 
L 187.590042 85.144573 
L 187.787212 82.715606 
L 187.961563 80.286639 
L 188.11683 77.857672 
L 188.256149 75.428704 
L 188.382166 72.999737 
L 188.497122 70.57077 
L 188.602941 68.141803 
L 188.701275 65.712836 
L 188.793532 63.283869 
L 188.880884 60.854901 
L 188.964259 58.425934 
L 189.044331 55.996967 
L 189.1215 53.568 
L 190.440058 53.568 
L 190.440058 53.568 
L 190.517228 55.996967 
L 190.597299 58.425934 
L 190.680675 60.854901 
L 190.768027 63.283869 
L 190.860283 65.712836 
L 190.958617 68.141803 
L 191.064436 70.57077 
L 191.179393 72.999737 
L 191.305409 75.428704 
L 191.444729 77.857672 
L 191.599995 80.286639 
L 191.774347 82.715606 
L 191.971517 85.144573 
L 192.19591 87.57354 
L 192.452609 90.002507 
L 192.747271 92.431475 
L 193.085872 94.860442 
L 193.474285 97.289409 
L 193.917694 99.718376 
L 194.419916 102.147343 
L 194.982712 104.57631 
L 195.60521 107.005278 
L 196.28357 109.434245 
L 197.010986 111.863212 
L 197.77808 114.292179 
L 198.573674 116.721146 
L 199.385855 119.150113 
L 200.203185 121.579081 
L 201.015878 124.008048 
L 201.816759 126.437015 
L 202.601849 128.865982 
L 203.370482 131.294949 
L 204.124932 133.723916 
L 204.869587 136.152884 
L 205.6098 138.581851 
L 206.350543 141.010818 
L 207.095046 143.439785 
L 207.84358 145.868752 
L 208.592527 148.297719 
L 209.333851 150.726686 
L 210.055053 153.155654 
L 210.739637 155.584621 
L 211.368082 158.013588 
L 211.919242 160.442555 
L 212.372075 162.871522 
L 212.707508 165.300489 
L 212.910258 167.729457 
L 212.97039 170.158424 
L 212.884426 172.587391 
L 212.655875 175.016358 
L 212.295115 177.445325 
L 211.81865 179.874292 
L 211.247854 182.30326 
L 210.607342 184.732227 
L 209.923159 187.161194 
L 209.220973 189.590161 
L 208.524405 192.019128 
L 207.853622 194.448095 
L 207.224261 196.877063 
L 206.646717 199.30603 
L 206.12581 201.734997 
L 205.660848 204.163964 
L 205.246073 206.592931 
L 204.871477 209.021898 
L 204.523947 211.450866 
L 204.188662 213.879833 
L 203.850642 216.3088 
L 203.496285 218.737767 
L 203.114739 221.166734 
L 202.698943 223.595701 
L 202.246193 226.024668 
L 201.758172 228.453636 
L 201.240427 230.882603 
L 200.701378 233.31157 
L 200.151023 235.740537 
L 199.599526 238.169504 
L 199.055923 240.598471 
L 198.527136 243.027439 
L 198.01742 245.456406 
L 197.528316 247.885373 
L 197.059038 250.31434 
L 196.6072 252.743307 
L 196.169702 255.172274 
L 195.743583 257.601242 
L 195.326704 260.030209 
L 194.918136 262.459176 
L 194.518246 264.888143 
L 194.128497 267.31711 
L 193.751067 269.746077 
L 193.388391 272.175045 
L 193.04273 274.604012 
L 192.715853 277.032979 
L 192.408873 279.461946 
L 192.122227 281.890913 
L 191.85578 284.31988 
L 191.609 286.748848 
L 191.381148 289.177815 
L 191.171451 291.606782 
L 190.979216 294.035749 
z
" clip-path="url(#pcd75406d2b)" style="fill: #1f77b4; fill-opacity: 0.3"/>
   </g>
   <g id="PolyCollection_3">
    <path d="M 283.070733 265.957575 
L 282.007708 265.957575 
L 281.97344 264.082835 
L 281.949628 262.208094 
L 281.936975 260.333353 
L 281.935343 258.458612 
L 281.943679 256.583871 
L 281.959967 254.70913 
L 281.981204 252.83439 
L 282.003433 250.959649 
L 282.021859 249.084908 
L 282.031042 247.210167 
L 282.025174 245.335426 
L 281.998381 243.460685 
L 281.945017 241.585944 
L 281.859874 239.711204 
L 281.738305 237.836463 
L 281.576227 235.961722 
L 281.370045 234.086981 
L 281.116541 232.21224 
L 280.812768 230.337499 
L 280.456003 228.462759 
L 280.04377 226.588018 
L 279.573932 224.713277 
L 279.044837 222.838536 
L 278.455483 220.963795 
L 277.805656 219.089054 
L 277.096017 217.214314 
L 276.328109 215.339573 
L 275.504283 213.464832 
L 274.627586 211.590091 
L 273.701663 209.71535 
L 272.730755 207.840609 
L 271.719873 205.965869 
L 270.675171 204.091128 
L 269.604482 202.216387 
L 268.517873 200.341646 
L 267.428046 198.466905 
L 266.350367 196.592164 
L 265.302381 194.717423 
L 264.302782 192.842683 
L 263.36995 190.967942 
L 262.52031 189.093201 
L 261.766811 187.21846 
L 261.117856 185.343719 
L 260.576883 183.468978 
L 260.142687 181.594238 
L 259.810378 179.719497 
L 259.572749 177.844756 
L 259.421735 175.970015 
L 259.34961 174.095274 
L 259.349685 172.220533 
L 259.416353 170.345793 
L 259.544589 168.471052 
L 259.729136 166.596311 
L 259.96378 164.72157 
L 260.241105 162.846829 
L 260.552985 160.972088 
L 260.891842 159.097348 
L 261.252365 157.222607 
L 261.633182 155.347866 
L 262.037851 153.473125 
L 262.474706 151.598384 
L 262.955358 149.723643 
L 263.492085 147.848902 
L 264.094693 145.974162 
L 264.767633 144.099421 
L 265.508119 142.22468 
L 266.305745 140.349939 
L 267.14373 138.475198 
L 268.001493 136.600457 
L 268.858007 134.725717 
L 269.695186 132.850976 
L 270.500619 130.976235 
L 271.269117 129.101494 
L 272.002812 127.226753 
L 272.70981 125.352012 
L 273.401695 123.477272 
L 274.090397 121.602531 
L 274.785046 119.72779 
L 275.489437 117.853049 
L 276.200633 115.978308 
L 276.908963 114.103567 
L 277.5994 112.228827 
L 278.254007 110.354086 
L 278.854924 108.479345 
L 279.387261 106.604604 
L 279.841347 104.729863 
L 280.213946 102.855122 
L 280.508307 100.980381 
L 280.73319 99.105641 
L 280.901154 97.2309 
L 281.026556 95.356159 
L 281.123631 93.481418 
L 281.204972 91.606677 
L 281.28056 89.731936 
L 281.357375 87.857196 
L 281.439477 85.982455 
L 281.528411 84.107714 
L 281.62378 82.232973 
L 281.72384 80.358232 
L 283.354601 80.358232 
L 283.354601 80.358232 
L 283.454662 82.232973 
L 283.550031 84.107714 
L 283.638965 85.982455 
L 283.721066 87.857196 
L 283.797881 89.731936 
L 283.87347 91.606677 
L 283.95481 93.481418 
L 284.051886 95.356159 
L 284.177288 97.2309 
L 284.345252 99.105641 
L 284.570134 100.980381 
L 284.864496 102.855122 
L 285.237094 104.729863 
L 285.69118 106.604604 
L 286.223518 108.479345 
L 286.824435 110.354086 
L 287.479042 112.228827 
L 288.169478 114.103567 
L 288.877808 115.978308 
L 289.589005 117.853049 
L 290.293396 119.72779 
L 290.988044 121.602531 
L 291.676747 123.477272 
L 292.368632 125.352012 
L 293.075629 127.226753 
L 293.809325 129.101494 
L 294.577823 130.976235 
L 295.383255 132.850976 
L 296.220434 134.725717 
L 297.076949 136.600457 
L 297.934712 138.475198 
L 298.772696 140.349939 
L 299.570323 142.22468 
L 300.310809 144.099421 
L 300.983749 145.974162 
L 301.586357 147.848902 
L 302.123084 149.723643 
L 302.603736 151.598384 
L 303.040591 153.473125 
L 303.44526 155.347866 
L 303.826076 157.222607 
L 304.1866 159.097348 
L 304.525456 160.972088 
L 304.837337 162.846829 
L 305.114661 164.72157 
L 305.349305 166.596311 
L 305.533852 168.471052 
L 305.662088 170.345793 
L 305.728757 172.220533 
L 305.728831 174.095274 
L 305.656707 175.970015 
L 305.505692 177.844756 
L 305.268064 179.719497 
L 304.935754 181.594238 
L 304.501558 183.468978 
L 303.960586 185.343719 
L 303.31163 187.21846 
L 302.558131 189.093201 
L 301.708491 190.967942 
L 300.77566 192.842683 
L 299.77606 194.717423 
L 298.728074 196.592164 
L 297.650396 198.466905 
L 296.560569 200.341646 
L 295.47396 202.216387 
L 294.40327 204.091128 
L 293.358569 205.965869 
L 292.347686 207.840609 
L 291.376778 209.71535 
L 290.450855 211.590091 
L 289.574159 213.464832 
L 288.750333 215.339573 
L 287.982424 217.214314 
L 287.272786 219.089054 
L 286.622959 220.963795 
L 286.033605 222.838536 
L 285.50451 224.713277 
L 285.034671 226.588018 
L 284.622438 228.462759 
L 284.265674 230.337499 
L 283.961901 232.21224 
L 283.708396 234.086981 
L 283.502214 235.961722 
L 283.340136 237.836463 
L 283.218568 239.711204 
L 283.133425 241.585944 
L 283.08006 243.460685 
L 283.053268 245.335426 
L 283.047399 247.210167 
L 283.056583 249.084908 
L 283.075008 250.959649 
L 283.097238 252.83439 
L 283.118475 254.70913 
L 283.134763 256.583871 
L 283.143099 258.458612 
L 283.141466 260.333353 
L 283.128813 262.208094 
L 283.105001 264.082835 
L 283.070733 265.957575 
z
" clip-path="url(#pcd75406d2b)" style="fill: #1f77b4; fill-opacity: 0.3"/>
   </g>
   <g id="PolyCollection_4">
    <path d="M 376.067801 295.488 
L 374.527523 295.488 
L 374.389366 293.424553 
L 374.228423 291.361105 
L 374.042348 289.297658 
L 373.829664 287.23421 
L 373.59003 285.170763 
L 373.324345 283.107315 
L 373.034636 281.043868 
L 372.723723 278.98042 
L 372.394681 276.916973 
L 372.050198 274.853526 
L 371.691936 272.790078 
L 371.320014 270.726631 
L 370.932753 268.663183 
L 370.526732 266.599736 
L 370.0972 264.536288 
L 369.638776 262.472841 
L 369.146351 260.409393 
L 368.616026 258.345946 
L 368.045921 256.282499 
L 367.436709 254.219051 
L 366.791755 252.155604 
L 366.116827 250.092156 
L 365.419414 248.028709 
L 364.707759 245.965261 
L 363.98978 243.901814 
L 363.272055 241.838366 
L 362.559054 239.774919 
L 361.852753 237.711472 
L 361.152684 235.648024 
L 360.456411 233.584577 
L 359.760356 231.521129 
L 359.060837 229.457682 
L 358.355175 227.394234 
L 357.642725 225.330787 
L 356.925714 223.26734 
L 356.209787 221.203892 
L 355.504232 219.140445 
L 354.821822 217.076997 
L 354.178299 215.01355 
L 353.59148 212.950102 
L 353.080051 210.886655 
L 352.6621 208.823207 
L 352.353529 206.75976 
L 352.16649 204.696313 
L 352.108052 202.632865 
L 352.179277 200.569418 
L 352.374873 198.50597 
L 352.683495 196.442523 
L 353.088693 194.379075 
L 353.570391 192.315628 
L 354.106694 190.25218 
L 354.675802 188.188733 
L 355.257751 186.125286 
L 355.835808 184.061838 
L 356.39738 181.998391 
L 356.934394 179.934943 
L 357.443209 177.871496 
L 357.924156 175.808048 
L 358.380855 173.744601 
L 358.81943 171.681153 
L 359.247728 169.617706 
L 359.674598 167.554259 
L 360.10924 165.490811 
L 360.560604 163.427364 
L 361.036817 161.363916 
L 361.544611 159.300469 
L 362.08876 157.237021 
L 362.671563 155.173574 
L 363.292412 153.110126 
L 363.947537 151.046679 
L 364.629977 148.983232 
L 365.329825 146.919784 
L 366.034785 144.856337 
L 366.730994 142.792889 
L 367.404079 140.729442 
L 368.040332 138.665994 
L 368.627898 136.602547 
L 369.15784 134.539099 
L 369.624943 132.475652 
L 370.02817 130.412205 
L 370.370687 128.348757 
L 370.659451 126.28531 
L 370.904403 124.221862 
L 371.117366 122.158415 
L 371.31077 120.094967 
L 371.496381 118.03152 
L 371.684176 115.968072 
L 371.881503 113.904625 
L 372.092605 111.841178 
L 372.318555 109.77773 
L 372.557564 107.714283 
L 372.805596 105.650835 
L 373.05717 103.587388 
L 373.306221 101.52394 
L 373.546907 99.460493 
L 373.774234 97.397046 
L 373.984472 95.333598 
L 374.175314 93.270151 
L 374.345826 91.206703 
L 376.249499 91.206703 
L 376.249499 91.206703 
L 376.42001 93.270151 
L 376.610853 95.333598 
L 376.82109 97.397046 
L 377.048418 99.460493 
L 377.289103 101.52394 
L 377.538155 103.587388 
L 377.789728 105.650835 
L 378.03776 107.714283 
L 378.27677 109.77773 
L 378.50272 111.841178 
L 378.713822 113.904625 
L 378.911149 115.968072 
L 379.098944 118.03152 
L 379.284555 120.094967 
L 379.477959 122.158415 
L 379.690921 124.221862 
L 379.935874 126.28531 
L 380.224638 128.348757 
L 380.567155 130.412205 
L 380.970382 132.475652 
L 381.437485 134.539099 
L 381.967426 136.602547 
L 382.554993 138.665994 
L 383.191245 140.729442 
L 383.86433 142.792889 
L 384.56054 144.856337 
L 385.265499 146.919784 
L 385.965348 148.983232 
L 386.647787 151.046679 
L 387.302913 153.110126 
L 387.923762 155.173574 
L 388.506564 157.237021 
L 389.050714 159.300469 
L 389.558507 161.363916 
L 390.03472 163.427364 
L 390.486085 165.490811 
L 390.920726 167.554259 
L 391.347597 169.617706 
L 391.775895 171.681153 
L 392.214469 173.744601 
L 392.671169 175.808048 
L 393.152116 177.871496 
L 393.660931 179.934943 
L 394.197945 181.998391 
L 394.759517 184.061838 
L 395.337574 186.125286 
L 395.919523 188.188733 
L 396.48863 190.25218 
L 397.024934 192.315628 
L 397.506631 194.379075 
L 397.911829 196.442523 
L 398.220452 198.50597 
L 398.416048 200.569418 
L 398.487273 202.632865 
L 398.428834 204.696313 
L 398.241795 206.75976 
L 397.933224 208.823207 
L 397.515274 210.886655 
L 397.003845 212.950102 
L 396.417026 215.01355 
L 395.773503 217.076997 
L 395.091093 219.140445 
L 394.385537 221.203892 
L 393.669611 223.26734 
L 392.952599 225.330787 
L 392.24015 227.394234 
L 391.534488 229.457682 
L 390.834969 231.521129 
L 390.138914 233.584577 
L 389.442641 235.648024 
L 388.742572 237.711472 
L 388.036271 239.774919 
L 387.32327 241.838366 
L 386.605544 243.901814 
L 385.887566 245.965261 
L 385.175911 248.028709 
L 384.478498 250.092156 
L 383.803569 252.155604 
L 383.158615 254.219051 
L 382.549404 256.282499 
L 381.979299 258.345946 
L 381.448974 260.409393 
L 380.956549 262.472841 
L 380.498125 264.536288 
L 380.068592 266.599736 
L 379.662572 268.663183 
L 379.275311 270.726631 
L 378.903389 272.790078 
L 378.545126 274.853526 
L 378.200644 276.916973 
L 377.871602 278.98042 
L 377.560688 281.043868 
L 377.27098 283.107315 
L 377.005294 285.170763 
L 376.76566 287.23421 
L 376.552977 289.297658 
L 376.366902 291.361105 
L 376.205958 293.424553 
L 376.067801 295.488 
z
" clip-path="url(#pcd75406d2b)" style="fill: #1f77b4; fill-opacity: 0.3"/>
   </g>
   <g id="matplotlib.axis_1">
    <g id="xtick_1">
     <g id="line2d_1">
      <defs>
       <path id="m6d3a23a967" d="M 0 0 
L 0 3.5 
" style="stroke: #000000; stroke-width: 0.8"/>
      </defs>
      <g>
       <use xlink:href="#m6d3a23a967" x="97.022338" y="307.584" style="stroke: #000000; stroke-width: 0.8"/>
      </g>
     </g>
     <g id="text_1">
      <!-- China -->
      <g transform="translate(82.740306 322.182437) scale(0.1 -0.1)">
       <defs>
        <path id="DejaVuSans-43" d="M 4122 4306 
L 4122 3641 
Q 3803 3938 3442 4084 
Q 3081 4231 2675 4231 
Q 1875 4231 1450 3742 
Q 1025 3253 1025 2328 
Q 1025 1406 1450 917 
Q 1875 428 2675 428 
Q 3081 428 3442 575 
Q 3803 722 4122 1019 
L 4122 359 
Q 3791 134 3420 21 
Q 3050 -91 2638 -91 
Q 1578 -91 968 557 
Q 359 1206 359 2328 
Q 359 3453 968 4101 
Q 1578 4750 2638 4750 
Q 3056 4750 3426 4639 
Q 3797 4528 4122 4306 
z
" transform="scale(0.015625)"/>
        <path id="DejaVuSans-68" d="M 3513 2113 
L 3513 0 
L 2938 0 
L 2938 2094 
Q 2938 2591 2744 2837 
Q 2550 3084 2163 3084 
Q 1697 3084 1428 2787 
Q 1159 2491 1159 1978 
L 1159 0 
L 581 0 
L 581 4863 
L 1159 4863 
L 1159 2956 
Q 1366 3272 1645 3428 
Q 1925 3584 2291 3584 
Q 2894 3584 3203 3211 
Q 3513 2838 3513 2113 
z
" transform="scale(0.015625)"/>
        <path id="DejaVuSans-69" d="M 603 3500 
L 1178 3500 
L 1178 0 
L 603 0 
L 603 3500 
z
M 603 4863 
L 1178 4863 
L 1178 4134 
L 603 4134 
L 603 4863 
z
" transform="scale(0.015625)"/>
        <path id="DejaVuSans-6e" d="M 3513 2113 
L 3513 0 
L 2938 0 
L 2938 2094 
Q 2938 2591 2744 2837 
Q 2550 3084 2163 3084 
Q 1697 3084 1428 2787 
Q 1159 2491 1159 1978 
L 1159 0 
L 581 0 
L 581 3500 
L 1159 3500 
L 1159 2956 
Q 1366 3272 1645 3428 
Q 1925 3584 2291 3584 
Q 2894 3584 3203 3211 
Q 3513 2838 3513 2113 
z
" transform="scale(0.015625)"/>
        <path id="DejaVuSans-61" d="M 2194 1759 
Q 1497 1759 1228 1600 
Q 959 1441 959 1056 
Q 959 750 1161 570 
Q 1363 391 1709 391 
Q 2188 391 2477 730 
Q 2766 1069 2766 1631 
L 2766 1759 
L 2194 1759 
z
M 3341 1997 
L 3341 0 
L 2766 0 
L 2766 531 
Q 2569 213 2275 61 
Q 1981 -91 1556 -91 
Q 1019 -91 701 211 
Q 384 513 384 1019 
Q 384 1609 779 1909 
Q 1175 2209 1959 2209 
L 2766 2209 
L 2766 2266 
Q 2766 2663 2505 2880 
Q 2244 3097 1772 3097 
Q 1472 3097 1187 3025 
Q 903 2953 641 2809 
L 641 3341 
Q 956 3463 1253 3523 
Q 1550 3584 1831 3584 
Q 2591 3584 2966 3190 
Q 3341 2797 3341 1997 
z
" transform="scale(0.015625)"/>
       </defs>
       <use xlink:href="#DejaVuSans-43"/>
       <use xlink:href="#DejaVuSans-68" x="69.824219"/>
       <use xlink:href="#DejaVuSans-69" x="133.203125"/>
       <use xlink:href="#DejaVuSans-6e" x="160.986328"/>
       <use xlink:href="#DejaVuSans-61" x="224.365234"/>
      </g>
     </g>
    </g>
    <g id="xtick_2">
     <g id="line2d_2">
      <g>
       <use xlink:href="#m6d3a23a967" x="189.780779" y="307.584" style="stroke: #000000; stroke-width: 0.8"/>
      </g>
     </g>
     <g id="text_2">
      <!-- US -->
      <g transform="translate(182.947185 322.182437) scale(0.1 -0.1)">
       <defs>
        <path id="DejaVuSans-55" d="M 556 4666 
L 1191 4666 
L 1191 1831 
Q 1191 1081 1462 751 
Q 1734 422 2344 422 
Q 2950 422 3222 751 
Q 3494 1081 3494 1831 
L 3494 4666 
L 4128 4666 
L 4128 1753 
Q 4128 841 3676 375 
Q 3225 -91 2344 -91 
Q 1459 -91 1007 375 
Q 556 841 556 1753 
L 556 4666 
z
" transform="scale(0.015625)"/>
        <path id="DejaVuSans-53" d="M 3425 4513 
L 3425 3897 
Q 3066 4069 2747 4153 
Q 2428 4238 2131 4238 
Q 1616 4238 1336 4038 
Q 1056 3838 1056 3469 
Q 1056 3159 1242 3001 
Q 1428 2844 1947 2747 
L 2328 2669 
Q 3034 2534 3370 2195 
Q 3706 1856 3706 1288 
Q 3706 609 3251 259 
Q 2797 -91 1919 -91 
Q 1588 -91 1214 -16 
Q 841 59 441 206 
L 441 856 
Q 825 641 1194 531 
Q 1563 422 1919 422 
Q 2459 422 2753 634 
Q 3047 847 3047 1241 
Q 3047 1584 2836 1778 
Q 2625 1972 2144 2069 
L 1759 2144 
Q 1053 2284 737 2584 
Q 422 2884 422 3419 
Q 422 4038 858 4394 
Q 1294 4750 2059 4750 
Q 2388 4750 2728 4690 
Q 3069 4631 3425 4513 
z
" transform="scale(0.015625)"/>
       </defs>
       <use xlink:href="#DejaVuSans-55"/>
       <use xlink:href="#DejaVuSans-53" x="73.193359"/>
      </g>
     </g>
    </g>
    <g id="xtick_3">
     <g id="line2d_3">
      <g>
       <use xlink:href="#m6d3a23a967" x="282.539221" y="307.584" style="stroke: #000000; stroke-width: 0.8"/>
      </g>
     </g>
     <g id="text_3">
      <!-- UK -->
      <g transform="translate(275.60094 322.182437) scale(0.1 -0.1)">
       <defs>
        <path id="DejaVuSans-4b" d="M 628 4666 
L 1259 4666 
L 1259 2694 
L 3353 4666 
L 4166 4666 
L 1850 2491 
L 4331 0 
L 3500 0 
L 1259 2247 
L 1259 0 
L 628 0 
L 628 4666 
z
" transform="scale(0.015625)"/>
       </defs>
       <use xlink:href="#DejaVuSans-55"/>
       <use xlink:href="#DejaVuSans-4b" x="73.193359"/>
      </g>
     </g>
    </g>
    <g id="xtick_4">
     <g id="line2d_4">
      <g>
       <use xlink:href="#m6d3a23a967" x="375.297662" y="307.584" style="stroke: #000000; stroke-width: 0.8"/>
      </g>
     </g>
     <g id="text_4">
      <!-- Russia -->
      <g transform="translate(359.217194 322.182437) scale(0.1 -0.1)">
       <defs>
        <path id="DejaVuSans-52" d="M 2841 2188 
Q 3044 2119 3236 1894 
Q 3428 1669 3622 1275 
L 4263 0 
L 3584 0 
L 2988 1197 
Q 2756 1666 2539 1819 
Q 2322 1972 1947 1972 
L 1259 1972 
L 1259 0 
L 628 0 
L 628 4666 
L 2053 4666 
Q 2853 4666 3247 4331 
Q 3641 3997 3641 3322 
Q 3641 2881 3436 2590 
Q 3231 2300 2841 2188 
z
M 1259 4147 
L 1259 2491 
L 2053 2491 
Q 2509 2491 2742 2702 
Q 2975 2913 2975 3322 
Q 2975 3731 2742 3939 
Q 2509 4147 2053 4147 
L 1259 4147 
z
" transform="scale(0.015625)"/>
        <path id="DejaVuSans-75" d="M 544 1381 
L 544 3500 
L 1119 3500 
L 1119 1403 
Q 1119 906 1312 657 
Q 1506 409 1894 409 
Q 2359 409 2629 706 
Q 2900 1003 2900 1516 
L 2900 3500 
L 3475 3500 
L 3475 0 
L 2900 0 
L 2900 538 
Q 2691 219 2414 64 
Q 2138 -91 1772 -91 
Q 1169 -91 856 284 
Q 544 659 544 1381 
z
M 1991 3584 
L 1991 3584 
z
" transform="scale(0.015625)"/>
        <path id="DejaVuSans-73" d="M 2834 3397 
L 2834 2853 
Q 2591 2978 2328 3040 
Q 2066 3103 1784 3103 
Q 1356 3103 1142 2972 
Q 928 2841 928 2578 
Q 928 2378 1081 2264 
Q 1234 2150 1697 2047 
L 1894 2003 
Q 2506 1872 2764 1633 
Q 3022 1394 3022 966 
Q 3022 478 2636 193 
Q 2250 -91 1575 -91 
Q 1294 -91 989 -36 
Q 684 19 347 128 
L 347 722 
Q 666 556 975 473 
Q 1284 391 1588 391 
Q 1994 391 2212 530 
Q 2431 669 2431 922 
Q 2431 1156 2273 1281 
Q 2116 1406 1581 1522 
L 1381 1569 
Q 847 1681 609 1914 
Q 372 2147 372 2553 
Q 372 3047 722 3315 
Q 1072 3584 1716 3584 
Q 2034 3584 2315 3537 
Q 2597 3491 2834 3397 
z
" transform="scale(0.015625)"/>
       </defs>
       <use xlink:href="#DejaVuSans-52"/>
       <use xlink:href="#DejaVuSans-75" x="64.982422"/>
       <use xlink:href="#DejaVuSans-73" x="128.361328"/>
       <use xlink:href="#DejaVuSans-73" x="180.460938"/>
       <use xlink:href="#DejaVuSans-69" x="232.560547"/>
       <use xlink:href="#DejaVuSans-61" x="260.34375"/>
      </g>
     </g>
    </g>
   </g>
   <g id="matplotlib.axis_2">
    <g id="ytick_1">
     <g id="line2d_5">
      <defs>
       <path id="m1f08f45cd5" d="M 0 0 
L -3.5 0 
" style="stroke: #000000; stroke-width: 0.8"/>
      </defs>
      <g>
       <use xlink:href="#m1f08f45cd5" x="57.6" y="306.879754" style="stroke: #000000; stroke-width: 0.8"/>
      </g>
     </g>
     <g id="text_5">
      <!-- 0 -->
      <g transform="translate(44.2375 310.678973) scale(0.1 -0.1)">
       <defs>
        <path id="DejaVuSans-30" d="M 2034 4250 
Q 1547 4250 1301 3770 
Q 1056 3291 1056 2328 
Q 1056 1369 1301 889 
Q 1547 409 2034 409 
Q 2525 409 2770 889 
Q 3016 1369 3016 2328 
Q 3016 3291 2770 3770 
Q 2525 4250 2034 4250 
z
M 2034 4750 
Q 2819 4750 3233 4129 
Q 3647 3509 3647 2328 
Q 3647 1150 3233 529 
Q 2819 -91 2034 -91 
Q 1250 -91 836 529 
Q 422 1150 422 2328 
Q 422 3509 836 4129 
Q 1250 4750 2034 4750 
z
" transform="scale(0.015625)"/>
       </defs>
       <use xlink:href="#DejaVuSans-30"/>
      </g>
     </g>
    </g>
    <g id="ytick_2">
     <g id="line2d_6">
      <g>
       <use xlink:href="#m1f08f45cd5" x="57.6" y="275.294218" style="stroke: #000000; stroke-width: 0.8"/>
      </g>
     </g>
     <g id="text_6">
      <!-- 20 -->
      <g transform="translate(37.875 279.093436) scale(0.1 -0.1)">
       <defs>
        <path id="DejaVuSans-32" d="M 1228 531 
L 3431 531 
L 3431 0 
L 469 0 
L 469 531 
Q 828 903 1448 1529 
Q 2069 2156 2228 2338 
Q 2531 2678 2651 2914 
Q 2772 3150 2772 3378 
Q 2772 3750 2511 3984 
Q 2250 4219 1831 4219 
Q 1534 4219 1204 4116 
Q 875 4013 500 3803 
L 500 4441 
Q 881 4594 1212 4672 
Q 1544 4750 1819 4750 
Q 2544 4750 2975 4387 
Q 3406 4025 3406 3419 
Q 3406 3131 3298 2873 
Q 3191 2616 2906 2266 
Q 2828 2175 2409 1742 
Q 1991 1309 1228 531 
z
" transform="scale(0.015625)"/>
       </defs>
       <use xlink:href="#DejaVuSans-32"/>
       <use xlink:href="#DejaVuSans-30" x="63.623047"/>
      </g>
     </g>
    </g>
    <g id="ytick_3">
     <g id="line2d_7">
      <g>
       <use xlink:href="#m1f08f45cd5" x="57.6" y="243.708681" style="stroke: #000000; stroke-width: 0.8"/>
      </g>
     </g>
     <g id="text_7">
      <!-- 40 -->
      <g transform="translate(37.875 247.5079) scale(0.1 -0.1)">
       <defs>
        <path id="DejaVuSans-34" d="M 2419 4116 
L 825 1625 
L 2419 1625 
L 2419 4116 
z
M 2253 4666 
L 3047 4666 
L 3047 1625 
L 3713 1625 
L 3713 1100 
L 3047 1100 
L 3047 0 
L 2419 0 
L 2419 1100 
L 313 1100 
L 313 1709 
L 2253 4666 
z
" transform="scale(0.015625)"/>
       </defs>
       <use xlink:href="#DejaVuSans-34"/>
       <use xlink:href="#DejaVuSans-30" x="63.623047"/>
      </g>
     </g>
    </g>
    <g id="ytick_4">
     <g id="line2d_8">
      <g>
       <use xlink:href="#m1f08f45cd5" x="57.6" y="212.123144" style="stroke: #000000; stroke-width: 0.8"/>
      </g>
     </g>
     <g id="text_8">
      <!-- 60 -->
      <g transform="translate(37.875 215.922363) scale(0.1 -0.1)">
       <defs>
        <path id="DejaVuSans-36" d="M 2113 2584 
Q 1688 2584 1439 2293 
Q 1191 2003 1191 1497 
Q 1191 994 1439 701 
Q 1688 409 2113 409 
Q 2538 409 2786 701 
Q 3034 994 3034 1497 
Q 3034 2003 2786 2293 
Q 2538 2584 2113 2584 
z
M 3366 4563 
L 3366 3988 
Q 3128 4100 2886 4159 
Q 2644 4219 2406 4219 
Q 1781 4219 1451 3797 
Q 1122 3375 1075 2522 
Q 1259 2794 1537 2939 
Q 1816 3084 2150 3084 
Q 2853 3084 3261 2657 
Q 3669 2231 3669 1497 
Q 3669 778 3244 343 
Q 2819 -91 2113 -91 
Q 1303 -91 875 529 
Q 447 1150 447 2328 
Q 447 3434 972 4092 
Q 1497 4750 2381 4750 
Q 2619 4750 2861 4703 
Q 3103 4656 3366 4563 
z
" transform="scale(0.015625)"/>
       </defs>
       <use xlink:href="#DejaVuSans-36"/>
       <use xlink:href="#DejaVuSans-30" x="63.623047"/>
      </g>
     </g>
    </g>
    <g id="ytick_5">
     <g id="line2d_9">
      <g>
       <use xlink:href="#m1f08f45cd5" x="57.6" y="180.537608" style="stroke: #000000; stroke-width: 0.8"/>
      </g>
     </g>
     <g id="text_9">
      <!-- 80 -->
      <g transform="translate(37.875 184.336826) scale(0.1 -0.1)">
       <defs>
        <path id="DejaVuSans-38" d="M 2034 2216 
Q 1584 2216 1326 1975 
Q 1069 1734 1069 1313 
Q 1069 891 1326 650 
Q 1584 409 2034 409 
Q 2484 409 2743 651 
Q 3003 894 3003 1313 
Q 3003 1734 2745 1975 
Q 2488 2216 2034 2216 
z
M 1403 2484 
Q 997 2584 770 2862 
Q 544 3141 544 3541 
Q 544 4100 942 4425 
Q 1341 4750 2034 4750 
Q 2731 4750 3128 4425 
Q 3525 4100 3525 3541 
Q 3525 3141 3298 2862 
Q 3072 2584 2669 2484 
Q 3125 2378 3379 2068 
Q 3634 1759 3634 1313 
Q 3634 634 3220 271 
Q 2806 -91 2034 -91 
Q 1263 -91 848 271 
Q 434 634 434 1313 
Q 434 1759 690 2068 
Q 947 2378 1403 2484 
z
M 1172 3481 
Q 1172 3119 1398 2916 
Q 1625 2713 2034 2713 
Q 2441 2713 2670 2916 
Q 2900 3119 2900 3481 
Q 2900 3844 2670 4047 
Q 2441 4250 2034 4250 
Q 1625 4250 1398 4047 
Q 1172 3844 1172 3481 
z
" transform="scale(0.015625)"/>
       </defs>
       <use xlink:href="#DejaVuSans-38"/>
       <use xlink:href="#DejaVuSans-30" x="63.623047"/>
      </g>
     </g>
    </g>
    <g id="ytick_6">
     <g id="line2d_10">
      <g>
       <use xlink:href="#m1f08f45cd5" x="57.6" y="148.952071" style="stroke: #000000; stroke-width: 0.8"/>
      </g>
     </g>
     <g id="text_10">
      <!-- 100 -->
      <g transform="translate(31.5125 152.75129) scale(0.1 -0.1)">
       <defs>
        <path id="DejaVuSans-31" d="M 794 531 
L 1825 531 
L 1825 4091 
L 703 3866 
L 703 4441 
L 1819 4666 
L 2450 4666 
L 2450 531 
L 3481 531 
L 3481 0 
L 794 0 
L 794 531 
z
" transform="scale(0.015625)"/>
       </defs>
       <use xlink:href="#DejaVuSans-31"/>
       <use xlink:href="#DejaVuSans-30" x="63.623047"/>
       <use xlink:href="#DejaVuSans-30" x="127.246094"/>
      </g>
     </g>
    </g>
    <g id="ytick_7">
     <g id="line2d_11">
      <g>
       <use xlink:href="#m1f08f45cd5" x="57.6" y="117.366534" style="stroke: #000000; stroke-width: 0.8"/>
      </g>
     </g>
     <g id="text_11">
      <!-- 120 -->
      <g transform="translate(31.5125 121.165753) scale(0.1 -0.1)">
       <use xlink:href="#DejaVuSans-31"/>
       <use xlink:href="#DejaVuSans-32" x="63.623047"/>
       <use xlink:href="#DejaVuSans-30" x="127.246094"/>
      </g>
     </g>
    </g>
    <g id="ytick_8">
     <g id="line2d_12">
      <g>
       <use xlink:href="#m1f08f45cd5" x="57.6" y="85.780998" style="stroke: #000000; stroke-width: 0.8"/>
      </g>
     </g>
     <g id="text_12">
      <!-- 140 -->
      <g transform="translate(31.5125 89.580217) scale(0.1 -0.1)">
       <use xlink:href="#DejaVuSans-31"/>
       <use xlink:href="#DejaVuSans-34" x="63.623047"/>
       <use xlink:href="#DejaVuSans-30" x="127.246094"/>
      </g>
     </g>
    </g>
    <g id="ytick_9">
     <g id="line2d_13">
      <g>
       <use xlink:href="#m1f08f45cd5" x="57.6" y="54.195461" style="stroke: #000000; stroke-width: 0.8"/>
      </g>
     </g>
     <g id="text_13">
      <!-- 160 -->
      <g transform="translate(31.5125 57.99468) scale(0.1 -0.1)">
       <use xlink:href="#DejaVuSans-31"/>
       <use xlink:href="#DejaVuSans-36" x="63.623047"/>
       <use xlink:href="#DejaVuSans-30" x="127.246094"/>
      </g>
     </g>
    </g>
   </g>
   <g id="LineCollection_1">
    <path d="M 85.427532 109.98103 
L 108.617143 109.98103 
" clip-path="url(#pcd75406d2b)" style="fill: none; stroke: #1f77b4; stroke-width: 1.5"/>
    <path d="M 178.185974 53.568 
L 201.375584 53.568 
" clip-path="url(#pcd75406d2b)" style="fill: none; stroke: #1f77b4; stroke-width: 1.5"/>
    <path d="M 270.944416 80.358232 
L 294.134026 80.358232 
" clip-path="url(#pcd75406d2b)" style="fill: none; stroke: #1f77b4; stroke-width: 1.5"/>
    <path d="M 363.702857 91.206703 
L 386.892468 91.206703 
" clip-path="url(#pcd75406d2b)" style="fill: none; stroke: #1f77b4; stroke-width: 1.5"/>
   </g>
   <g id="LineCollection_2">
    <path d="M 85.427532 196.008153 
L 108.617143 196.008153 
" clip-path="url(#pcd75406d2b)" style="fill: none; stroke: #1f77b4; stroke-width: 1.5"/>
    <path d="M 178.185974 294.035749 
L 201.375584 294.035749 
" clip-path="url(#pcd75406d2b)" style="fill: none; stroke: #1f77b4; stroke-width: 1.5"/>
    <path d="M 270.944416 265.957575 
L 294.134026 265.957575 
" clip-path="url(#pcd75406d2b)" style="fill: none; stroke: #1f77b4; stroke-width: 1.5"/>
    <path d="M 363.702857 295.488 
L 386.892468 295.488 
" clip-path="url(#pcd75406d2b)" style="fill: none; stroke: #1f77b4; stroke-width: 1.5"/>
   </g>
   <g id="LineCollection_3">
    <path d="M 97.022338 196.008153 
L 97.022338 109.98103 
" clip-path="url(#pcd75406d2b)" style="fill: none; stroke: #1f77b4; stroke-width: 1.5"/>
    <path d="M 189.780779 294.035749 
L 189.780779 53.568 
" clip-path="url(#pcd75406d2b)" style="fill: none; stroke: #1f77b4; stroke-width: 1.5"/>
    <path d="M 282.539221 265.957575 
L 282.539221 80.358232 
" clip-path="url(#pcd75406d2b)" style="fill: none; stroke: #1f77b4; stroke-width: 1.5"/>
    <path d="M 375.297662 295.488 
L 375.297662 91.206703 
" clip-path="url(#pcd75406d2b)" style="fill: none; stroke: #1f77b4; stroke-width: 1.5"/>
   </g>
   <g id="patch_3">
    <path d="M 57.6 307.584 
L 57.6 41.472 
" style="fill: none; stroke: #000000; stroke-width: 0.8; stroke-linejoin: miter; stroke-linecap: square"/>
   </g>
   <g id="patch_4">
    <path d="M 414.72 307.584 
L 414.72 41.472 
" style="fill: none; stroke: #000000; stroke-width: 0.8; stroke-linejoin: miter; stroke-linecap: square"/>
   </g>
   <g id="patch_5">
    <path d="M 57.6 307.584 
L 414.72 307.584 
" style="fill: none; stroke: #000000; stroke-width: 0.8; stroke-linejoin: miter; stroke-linecap: square"/>
   </g>
   <g id="patch_6">
    <path d="M 57.6 41.472 
L 414.72 41.472 
" style="fill: none; stroke: #000000; stroke-width: 0.8; stroke-linejoin: miter; stroke-linecap: square"/>
   </g>
  </g>
 </g>
 <defs>
  <clipPath id="pcd75406d2b">
   <rect x="57.6" y="41.472" width="357.12" height="266.112"/>
  </clipPath>
 </defs>
</svg>
