<?xml version="1.0" encoding="utf-8" standalone="no"?>
<!DOCTYPE svg PUBLIC "-//W3C//DTD SVG 1.1//EN"
  "http://www.w3.org/Graphics/SVG/1.1/DTD/svg11.dtd">
<svg xmlns:xlink="http://www.w3.org/1999/xlink" width="460.8pt" height="345.6pt" viewBox="0 0 460.8 345.6" xmlns="http://www.w3.org/2000/svg" version="1.1">
 <metadata>
  <rdf:RDF xmlns:dc="http://purl.org/dc/elements/1.1/" xmlns:cc="http://creativecommons.org/ns#" xmlns:rdf="http://www.w3.org/1999/02/22-rdf-syntax-ns#">
   <cc:Work>
    <dc:type rdf:resource="http://purl.org/dc/dcmitype/StillImage"/>
    <dc:date>2024-12-22T21:07:11.674991</dc:date>
    <dc:format>image/svg+xml</dc:format>
    <dc:creator>
     <cc:Agent>
      <dc:title>Matplotlib v3.9.4, https://matplotlib.org/</dc:title>
     </cc:Agent>
    </dc:creator>
   </cc:Work>
  </rdf:RDF>
 </metadata>
 <defs>
  <style type="text/css">*{stroke-linejoin: round; stroke-linecap: butt}</style>
 </defs>
 <g id="figure_1">
  <g id="patch_1">
   <path d="M 0 345.6 
L 460.8 345.6 
L 460.8 0 
L 0 0 
z
" style="fill: #ffffff"/>
  </g>
  <g id="axes_1">
   <g id="patch_2">
    <path d="M 369.216 174.528 
C 369.216 157.055246 365.774248 139.752393 359.087715 123.609673 
C 352.401182 107.466954 342.599903 92.798303 330.2448 80.4432 
C 317.889697 68.088097 303.221046 58.286818 287.078327 51.600285 
C 270.935607 44.913752 253.632754 41.472 236.16 41.472 
C 218.687246 41.472 201.384393 44.913752 185.241673 51.600285 
C 169.098954 58.286818 154.430303 68.088097 142.0752 80.4432 
C 129.720097 92.798303 119.918818 107.466954 113.232285 123.609673 
C 106.545752 139.752393 103.104 157.055246 103.104 174.528 
C 103.104 192.000754 106.545752 209.303607 113.232285 225.446327 
C 119.918818 241.589046 129.720097 256.257697 142.0752 268.6128 
C 154.430303 280.967903 169.098954 290.769182 185.241673 297.455715 
C 201.384393 304.142248 218.687246 307.584 236.16 307.584 
C 253.632754 307.584 270.935607 304.142248 287.078327 297.455715 
C 303.221046 290.769182 317.889697 280.967903 330.2448 268.6128 
C 342.599903 256.257697 352.401182 241.589046 359.087715 225.446327 
C 365.774248 209.303607 369.216 192.000754 369.216 174.528 
M 236.16 174.528 
C 236.16 174.528 236.16 174.528 236.16 174.528 
C 236.16 174.528 236.16 174.528 236.16 174.528 
C 236.16 174.528 236.16 174.528 236.16 174.528 
C 236.16 174.528 236.16 174.528 236.16 174.528 
C 236.16 174.528 236.16 174.528 236.16 174.528 
C 236.16 174.528 236.16 174.528 236.16 174.528 
C 236.16 174.528 236.16 174.528 236.16 174.528 
C 236.16 174.528 236.16 174.528 236.16 174.528 
C 236.16 174.528 236.16 174.528 236.16 174.528 
C 236.16 174.528 236.16 174.528 236.16 174.528 
C 236.16 174.528 236.16 174.528 236.16 174.528 
C 236.16 174.528 236.16 174.528 236.16 174.528 
C 236.16 174.528 236.16 174.528 236.16 174.528 
C 236.16 174.528 236.16 174.528 236.16 174.528 
C 236.16 174.528 236.16 174.528 236.16 174.528 
C 236.16 174.528 236.16 174.528 236.16 174.528 
z
" style="fill: #ffffff"/>
   </g>
   <g id="matplotlib.axis_1">
    <g id="xtick_1">
     <g id="line2d_1">
      <path d="M 236.16 174.528 
L 369.216 174.528 
" clip-path="url(#p18dd7ef279)" style="fill: none; stroke: #b0b0b0; stroke-width: 0.8; stroke-linecap: square"/>
     </g>
     <g id="text_1">
      <!-- 0° -->
      <g transform="translate(377.53475 177.287375) scale(0.1 -0.1)">
       <defs>
        <path id="DejaVuSans-30" d="M 2034 4250 
Q 1547 4250 1301 3770 
Q 1056 3291 1056 2328 
Q 1056 1369 1301 889 
Q 1547 409 2034 409 
Q 2525 409 2770 889 
Q 3016 1369 3016 2328 
Q 3016 3291 2770 3770 
Q 2525 4250 2034 4250 
z
M 2034 4750 
Q 2819 4750 3233 4129 
Q 3647 3509 3647 2328 
Q 3647 1150 3233 529 
Q 2819 -91 2034 -91 
Q 1250 -91 836 529 
Q 422 1150 422 2328 
Q 422 3509 836 4129 
Q 1250 4750 2034 4750 
z
" transform="scale(0.015625)"/>
        <path id="DejaVuSans-b0" d="M 1600 4347 
Q 1350 4347 1178 4173 
Q 1006 4000 1006 3750 
Q 1006 3503 1178 3333 
Q 1350 3163 1600 3163 
Q 1850 3163 2022 3333 
Q 2194 3503 2194 3750 
Q 2194 3997 2020 4172 
Q 1847 4347 1600 4347 
z
M 1600 4750 
Q 1800 4750 1984 4673 
Q 2169 4597 2303 4453 
Q 2447 4313 2519 4134 
Q 2591 3956 2591 3750 
Q 2591 3338 2302 3052 
Q 2013 2766 1594 2766 
Q 1172 2766 890 3047 
Q 609 3328 609 3750 
Q 609 4169 896 4459 
Q 1184 4750 1600 4750 
z
" transform="scale(0.015625)"/>
       </defs>
       <use xlink:href="#DejaVuSans-30"/>
       <use xlink:href="#DejaVuSans-b0" x="63.623047"/>
      </g>
     </g>
    </g>
    <g id="xtick_2">
     <g id="line2d_2">
      <path d="M 236.16 174.528 
L 330.2448 80.4432 
" clip-path="url(#p18dd7ef279)" style="fill: none; stroke: #b0b0b0; stroke-width: 0.8; stroke-linecap: square"/>
     </g>
     <g id="text_2">
      <!-- 45° -->
      <g transform="translate(331.281795 73.30308) scale(0.1 -0.1)">
       <defs>
        <path id="DejaVuSans-34" d="M 2419 4116 
L 825 1625 
L 2419 1625 
L 2419 4116 
z
M 2253 4666 
L 3047 4666 
L 3047 1625 
L 3713 1625 
L 3713 1100 
L 3047 1100 
L 3047 0 
L 2419 0 
L 2419 1100 
L 313 1100 
L 313 1709 
L 2253 4666 
z
" transform="scale(0.015625)"/>
        <path id="DejaVuSans-35" d="M 691 4666 
L 3169 4666 
L 3169 4134 
L 1269 4134 
L 1269 2991 
Q 1406 3038 1543 3061 
Q 1681 3084 1819 3084 
Q 2600 3084 3056 2656 
Q 3513 2228 3513 1497 
Q 3513 744 3044 326 
Q 2575 -91 1722 -91 
Q 1428 -91 1123 -41 
Q 819 9 494 109 
L 494 744 
Q 775 591 1075 516 
Q 1375 441 1709 441 
Q 2250 441 2565 725 
Q 2881 1009 2881 1497 
Q 2881 1984 2565 2268 
Q 2250 2553 1709 2553 
Q 1456 2553 1204 2497 
Q 953 2441 691 2322 
L 691 4666 
z
" transform="scale(0.015625)"/>
       </defs>
       <use xlink:href="#DejaVuSans-34"/>
       <use xlink:href="#DejaVuSans-35" x="63.623047"/>
       <use xlink:href="#DejaVuSans-b0" x="127.246094"/>
      </g>
     </g>
    </g>
    <g id="xtick_3">
     <g id="line2d_3">
      <path d="M 236.16 174.528 
L 236.16 41.472 
" clip-path="url(#p18dd7ef279)" style="fill: none; stroke: #b0b0b0; stroke-width: 0.8; stroke-linecap: square"/>
     </g>
     <g id="text_3">
      <!-- 90° -->
      <g transform="translate(227.2975 30.231375) scale(0.1 -0.1)">
       <defs>
        <path id="DejaVuSans-39" d="M 703 97 
L 703 672 
Q 941 559 1184 500 
Q 1428 441 1663 441 
Q 2288 441 2617 861 
Q 2947 1281 2994 2138 
Q 2813 1869 2534 1725 
Q 2256 1581 1919 1581 
Q 1219 1581 811 2004 
Q 403 2428 403 3163 
Q 403 3881 828 4315 
Q 1253 4750 1959 4750 
Q 2769 4750 3195 4129 
Q 3622 3509 3622 2328 
Q 3622 1225 3098 567 
Q 2575 -91 1691 -91 
Q 1453 -91 1209 -44 
Q 966 3 703 97 
z
M 1959 2075 
Q 2384 2075 2632 2365 
Q 2881 2656 2881 3163 
Q 2881 3666 2632 3958 
Q 2384 4250 1959 4250 
Q 1534 4250 1286 3958 
Q 1038 3666 1038 3163 
Q 1038 2656 1286 2365 
Q 1534 2075 1959 2075 
z
" transform="scale(0.015625)"/>
       </defs>
       <use xlink:href="#DejaVuSans-39"/>
       <use xlink:href="#DejaVuSans-30" x="63.623047"/>
       <use xlink:href="#DejaVuSans-b0" x="127.246094"/>
      </g>
     </g>
    </g>
    <g id="xtick_4">
     <g id="line2d_4">
      <path d="M 236.16 174.528 
L 142.0752 80.4432 
" clip-path="url(#p18dd7ef279)" style="fill: none; stroke: #b0b0b0; stroke-width: 0.8; stroke-linecap: square"/>
     </g>
     <g id="text_4">
      <!-- 135° -->
      <g transform="translate(120.131955 73.30308) scale(0.1 -0.1)">
       <defs>
        <path id="DejaVuSans-31" d="M 794 531 
L 1825 531 
L 1825 4091 
L 703 3866 
L 703 4441 
L 1819 4666 
L 2450 4666 
L 2450 531 
L 3481 531 
L 3481 0 
L 794 0 
L 794 531 
z
" transform="scale(0.015625)"/>
        <path id="DejaVuSans-33" d="M 2597 2516 
Q 3050 2419 3304 2112 
Q 3559 1806 3559 1356 
Q 3559 666 3084 287 
Q 2609 -91 1734 -91 
Q 1441 -91 1130 -33 
Q 819 25 488 141 
L 488 750 
Q 750 597 1062 519 
Q 1375 441 1716 441 
Q 2309 441 2620 675 
Q 2931 909 2931 1356 
Q 2931 1769 2642 2001 
Q 2353 2234 1838 2234 
L 1294 2234 
L 1294 2753 
L 1863 2753 
Q 2328 2753 2575 2939 
Q 2822 3125 2822 3475 
Q 2822 3834 2567 4026 
Q 2313 4219 1838 4219 
Q 1578 4219 1281 4162 
Q 984 4106 628 3988 
L 628 4550 
Q 988 4650 1302 4700 
Q 1616 4750 1894 4750 
Q 2613 4750 3031 4423 
Q 3450 4097 3450 3541 
Q 3450 3153 3228 2886 
Q 3006 2619 2597 2516 
z
" transform="scale(0.015625)"/>
       </defs>
       <use xlink:href="#DejaVuSans-31"/>
       <use xlink:href="#DejaVuSans-33" x="63.623047"/>
       <use xlink:href="#DejaVuSans-35" x="127.246094"/>
       <use xlink:href="#DejaVuSans-b0" x="190.869141"/>
      </g>
     </g>
    </g>
    <g id="xtick_5">
     <g id="line2d_5">
      <path d="M 236.16 174.528 
L 103.104 174.528 
" clip-path="url(#p18dd7ef279)" style="fill: none; stroke: #b0b0b0; stroke-width: 0.8; stroke-linecap: square"/>
     </g>
     <g id="text_5">
      <!-- 180° -->
      <g transform="translate(77.06025 177.287375) scale(0.1 -0.1)">
       <defs>
        <path id="DejaVuSans-38" d="M 2034 2216 
Q 1584 2216 1326 1975 
Q 1069 1734 1069 1313 
Q 1069 891 1326 650 
Q 1584 409 2034 409 
Q 2484 409 2743 651 
Q 3003 894 3003 1313 
Q 3003 1734 2745 1975 
Q 2488 2216 2034 2216 
z
M 1403 2484 
Q 997 2584 770 2862 
Q 544 3141 544 3541 
Q 544 4100 942 4425 
Q 1341 4750 2034 4750 
Q 2731 4750 3128 4425 
Q 3525 4100 3525 3541 
Q 3525 3141 3298 2862 
Q 3072 2584 2669 2484 
Q 3125 2378 3379 2068 
Q 3634 1759 3634 1313 
Q 3634 634 3220 271 
Q 2806 -91 2034 -91 
Q 1263 -91 848 271 
Q 434 634 434 1313 
Q 434 1759 690 2068 
Q 947 2378 1403 2484 
z
M 1172 3481 
Q 1172 3119 1398 2916 
Q 1625 2713 2034 2713 
Q 2441 2713 2670 2916 
Q 2900 3119 2900 3481 
Q 2900 3844 2670 4047 
Q 2441 4250 2034 4250 
Q 1625 4250 1398 4047 
Q 1172 3844 1172 3481 
z
" transform="scale(0.015625)"/>
       </defs>
       <use xlink:href="#DejaVuSans-31"/>
       <use xlink:href="#DejaVuSans-38" x="63.623047"/>
       <use xlink:href="#DejaVuSans-30" x="127.246094"/>
       <use xlink:href="#DejaVuSans-b0" x="190.869141"/>
      </g>
     </g>
    </g>
    <g id="xtick_6">
     <g id="line2d_6">
      <path d="M 236.16 174.528 
L 142.0752 268.6128 
" clip-path="url(#p18dd7ef279)" style="fill: none; stroke: #b0b0b0; stroke-width: 0.8; stroke-linecap: square"/>
     </g>
     <g id="text_6">
      <!-- 225° -->
      <g transform="translate(120.131955 281.27167) scale(0.1 -0.1)">
       <defs>
        <path id="DejaVuSans-32" d="M 1228 531 
L 3431 531 
L 3431 0 
L 469 0 
L 469 531 
Q 828 903 1448 1529 
Q 2069 2156 2228 2338 
Q 2531 2678 2651 2914 
Q 2772 3150 2772 3378 
Q 2772 3750 2511 3984 
Q 2250 4219 1831 4219 
Q 1534 4219 1204 4116 
Q 875 4013 500 3803 
L 500 4441 
Q 881 4594 1212 4672 
Q 1544 4750 1819 4750 
Q 2544 4750 2975 4387 
Q 3406 4025 3406 3419 
Q 3406 3131 3298 2873 
Q 3191 2616 2906 2266 
Q 2828 2175 2409 1742 
Q 1991 1309 1228 531 
z
" transform="scale(0.015625)"/>
       </defs>
       <use xlink:href="#DejaVuSans-32"/>
       <use xlink:href="#DejaVuSans-32" x="63.623047"/>
       <use xlink:href="#DejaVuSans-35" x="127.246094"/>
       <use xlink:href="#DejaVuSans-b0" x="190.869141"/>
      </g>
     </g>
    </g>
    <g id="xtick_7">
     <g id="line2d_7">
      <path d="M 236.16 174.528 
L 236.16 307.584 
" clip-path="url(#p18dd7ef279)" style="fill: none; stroke: #b0b0b0; stroke-width: 0.8; stroke-linecap: square"/>
     </g>
     <g id="text_7">
      <!-- 270° -->
      <g transform="translate(224.11625 324.343375) scale(0.1 -0.1)">
       <defs>
        <path id="DejaVuSans-37" d="M 525 4666 
L 3525 4666 
L 3525 4397 
L 1831 0 
L 1172 0 
L 2766 4134 
L 525 4134 
L 525 4666 
z
" transform="scale(0.015625)"/>
       </defs>
       <use xlink:href="#DejaVuSans-32"/>
       <use xlink:href="#DejaVuSans-37" x="63.623047"/>
       <use xlink:href="#DejaVuSans-30" x="127.246094"/>
       <use xlink:href="#DejaVuSans-b0" x="190.869141"/>
      </g>
     </g>
    </g>
    <g id="xtick_8">
     <g id="line2d_8">
      <path d="M 236.16 174.528 
L 330.2448 268.6128 
" clip-path="url(#p18dd7ef279)" style="fill: none; stroke: #b0b0b0; stroke-width: 0.8; stroke-linecap: square"/>
     </g>
     <g id="text_8">
      <!-- 315° -->
      <g transform="translate(328.100545 281.27167) scale(0.1 -0.1)">
       <use xlink:href="#DejaVuSans-33"/>
       <use xlink:href="#DejaVuSans-31" x="63.623047"/>
       <use xlink:href="#DejaVuSans-35" x="127.246094"/>
       <use xlink:href="#DejaVuSans-b0" x="190.869141"/>
      </g>
     </g>
    </g>
   </g>
   <g id="matplotlib.axis_2">
    <g id="ytick_1">
     <g id="line2d_9">
      <path d="M 251.206091 174.528 
C 251.206091 172.552165 250.816894 170.595543 250.060775 168.77011 
C 249.304656 166.944677 248.196319 165.285933 246.799193 163.888807 
C 245.402067 162.491681 243.743323 161.383344 241.91789 160.627225 
C 240.092457 159.871106 238.135835 159.481909 236.16 159.481909 
C 234.184165 159.481909 232.227543 159.871106 230.40211 160.627225 
C 228.576677 161.383344 226.917933 162.491681 225.520807 163.888807 
C 224.123681 165.285933 223.015344 166.944677 222.259225 168.77011 
C 221.503106 170.595543 221.113909 172.552165 221.113909 174.528 
C 221.113909 176.503835 221.503106 178.460457 222.259225 180.28589 
C 223.015344 182.111323 224.123681 183.770067 225.520807 185.167193 
C 226.917933 186.564319 228.576677 187.672656 230.40211 188.428775 
C 232.227543 189.184894 234.184165 189.574091 236.16 189.574091 
C 238.135835 189.574091 240.092457 189.184894 241.91789 188.428775 
C 243.743323 187.672656 245.402067 186.564319 246.799193 185.167193 
C 248.196319 183.770067 249.304656 182.111323 250.060775 180.28589 
C 250.816894 178.460457 251.206091 176.503835 251.206091 174.528 
" clip-path="url(#p18dd7ef279)" style="fill: none; stroke: #b0b0b0; stroke-width: 0.8; stroke-linecap: square"/>
     </g>
     <g id="text_9">
      <!-- 2.5 -->
      <g transform="translate(250.060775 166.690423) scale(0.1 -0.1)">
       <defs>
        <path id="DejaVuSans-2e" d="M 684 794 
L 1344 794 
L 1344 0 
L 684 0 
L 684 794 
z
" transform="scale(0.015625)"/>
       </defs>
       <use xlink:href="#DejaVuSans-32"/>
       <use xlink:href="#DejaVuSans-2e" x="63.623047"/>
       <use xlink:href="#DejaVuSans-35" x="95.410156"/>
      </g>
     </g>
    </g>
    <g id="ytick_2">
     <g id="line2d_10">
      <path d="M 266.252181 174.528 
C 266.252181 170.576331 265.473788 166.663087 263.96155 163.012221 
C 262.449312 159.361355 260.232637 156.043867 257.438385 153.249615 
C 254.644133 150.455363 251.326645 148.238688 247.675779 146.72645 
C 244.024913 145.214212 240.111669 144.435819 236.16 144.435819 
C 232.208331 144.435819 228.295087 145.214212 224.644221 146.72645 
C 220.993355 148.238688 217.675867 150.455363 214.881615 153.249615 
C 212.087363 156.043867 209.870688 159.361355 208.35845 163.012221 
C 206.846212 166.663087 206.067819 170.576331 206.067819 174.528 
C 206.067819 178.479669 206.846212 182.392913 208.35845 186.043779 
C 209.870688 189.694645 212.087363 193.012133 214.881615 195.806385 
C 217.675867 198.600637 220.993355 200.817312 224.644221 202.32955 
C 228.295087 203.841788 232.208331 204.620181 236.16 204.620181 
C 240.111669 204.620181 244.024913 203.841788 247.675779 202.32955 
C 251.326645 200.817312 254.644133 198.600637 257.438385 195.806385 
C 260.232637 193.012133 262.449312 189.694645 263.96155 186.043779 
C 265.473788 182.392913 266.252181 178.479669 266.252181 174.528 
" clip-path="url(#p18dd7ef279)" style="fill: none; stroke: #b0b0b0; stroke-width: 0.8; stroke-linecap: square"/>
     </g>
     <g id="text_10">
      <!-- 5.0 -->
      <g transform="translate(263.96155 160.932533) scale(0.1 -0.1)">
       <use xlink:href="#DejaVuSans-35"/>
       <use xlink:href="#DejaVuSans-2e" x="63.623047"/>
       <use xlink:href="#DejaVuSans-30" x="95.410156"/>
      </g>
     </g>
    </g>
    <g id="ytick_3">
     <g id="line2d_11">
      <path d="M 281.298272 174.528 
C 281.298272 168.600496 280.130683 162.73063 277.862325 157.254331 
C 275.593968 151.778032 272.268956 146.8018 268.077578 142.610422 
C 263.8862 138.419044 258.909968 135.094032 253.433669 132.825675 
C 247.95737 130.557317 242.087504 129.389728 236.16 129.389728 
C 230.232496 129.389728 224.36263 130.557317 218.886331 132.825675 
C 213.410032 135.094032 208.4338 138.419044 204.242422 142.610422 
C 200.051044 146.8018 196.726032 151.778032 194.457675 157.254331 
C 192.189317 162.73063 191.021728 168.600496 191.021728 174.528 
C 191.021728 180.455504 192.189317 186.32537 194.457675 191.801669 
C 196.726032 197.277968 200.051044 202.2542 204.242422 206.445578 
C 208.4338 210.636956 213.410032 213.961968 218.886331 216.230325 
C 224.36263 218.498683 230.232496 219.666272 236.16 219.666272 
C 242.087504 219.666272 247.95737 218.498683 253.433669 216.230325 
C 258.909968 213.961968 263.8862 210.636956 268.077578 206.445578 
C 272.268956 202.2542 275.593968 197.277968 277.862325 191.801669 
C 280.130683 186.32537 281.298272 180.455504 281.298272 174.528 
" clip-path="url(#p18dd7ef279)" style="fill: none; stroke: #b0b0b0; stroke-width: 0.8; stroke-linecap: square"/>
     </g>
     <g id="text_11">
      <!-- 7.5 -->
      <g transform="translate(277.862325 155.174644) scale(0.1 -0.1)">
       <use xlink:href="#DejaVuSans-37"/>
       <use xlink:href="#DejaVuSans-2e" x="63.623047"/>
       <use xlink:href="#DejaVuSans-35" x="95.410156"/>
      </g>
     </g>
    </g>
    <g id="ytick_4">
     <g id="line2d_12">
      <path d="M 296.344362 174.528 
C 296.344362 166.624662 294.787577 158.798174 291.7631 151.496442 
C 288.738624 144.194709 284.305275 137.559733 278.716771 131.971229 
C 273.128267 126.382725 266.493291 121.949376 259.191558 118.9249 
C 251.889826 115.900423 244.063338 114.343638 236.16 114.343638 
C 228.256662 114.343638 220.430174 115.900423 213.128442 118.9249 
C 205.826709 121.949376 199.191733 126.382725 193.603229 131.971229 
C 188.014725 137.559733 183.581376 144.194709 180.5569 151.496442 
C 177.532423 158.798174 175.975638 166.624662 175.975638 174.528 
C 175.975638 182.431338 177.532423 190.257826 180.5569 197.559558 
C 183.581376 204.861291 188.014725 211.496267 193.603229 217.084771 
C 199.191733 222.673275 205.826709 227.106624 213.128442 230.1311 
C 220.430174 233.155577 228.256662 234.712362 236.16 234.712362 
C 244.063338 234.712362 251.889826 233.155577 259.191558 230.1311 
C 266.493291 227.106624 273.128267 222.673275 278.716771 217.084771 
C 284.305275 211.496267 288.738624 204.861291 291.7631 197.559558 
C 294.787577 190.257826 296.344362 182.431338 296.344362 174.528 
" clip-path="url(#p18dd7ef279)" style="fill: none; stroke: #b0b0b0; stroke-width: 0.8; stroke-linecap: square"/>
     </g>
     <g id="text_12">
      <!-- 10.0 -->
      <g transform="translate(291.7631 149.416754) scale(0.1 -0.1)">
       <use xlink:href="#DejaVuSans-31"/>
       <use xlink:href="#DejaVuSans-30" x="63.623047"/>
       <use xlink:href="#DejaVuSans-2e" x="127.246094"/>
       <use xlink:href="#DejaVuSans-30" x="159.033203"/>
      </g>
     </g>
    </g>
    <g id="ytick_5">
     <g id="line2d_13">
      <path d="M 311.390453 174.528 
C 311.390453 164.648827 309.444471 154.865717 305.663875 145.738552 
C 301.88328 136.611387 296.341593 128.317667 289.355963 121.332037 
C 282.370333 114.346407 274.076613 108.80472 264.949448 105.024125 
C 255.822283 101.243529 246.039173 99.297547 236.16 99.297547 
C 226.280827 99.297547 216.497717 101.243529 207.370552 105.024125 
C 198.243387 108.80472 189.949667 114.346407 182.964037 121.332037 
C 175.978407 128.317667 170.43672 136.611387 166.656125 145.738552 
C 162.875529 154.865717 160.929547 164.648827 160.929547 174.528 
C 160.929547 184.407173 162.875529 194.190283 166.656125 203.317448 
C 170.43672 212.444613 175.978407 220.738333 182.964037 227.723963 
C 189.949667 234.709593 198.243387 240.25128 207.370552 244.031875 
C 216.497717 247.812471 226.280827 249.758453 236.16 249.758453 
C 246.039173 249.758453 255.822283 247.812471 264.949448 244.031875 
C 274.076613 240.25128 282.370333 234.709593 289.355963 227.723963 
C 296.341593 220.738333 301.88328 212.444613 305.663875 203.317448 
C 309.444471 194.190283 311.390453 184.407173 311.390453 174.528 
" clip-path="url(#p18dd7ef279)" style="fill: none; stroke: #b0b0b0; stroke-width: 0.8; stroke-linecap: square"/>
     </g>
     <g id="text_13">
      <!-- 12.5 -->
      <g transform="translate(305.663875 143.658865) scale(0.1 -0.1)">
       <use xlink:href="#DejaVuSans-31"/>
       <use xlink:href="#DejaVuSans-32" x="63.623047"/>
       <use xlink:href="#DejaVuSans-2e" x="127.246094"/>
       <use xlink:href="#DejaVuSans-35" x="159.033203"/>
      </g>
     </g>
    </g>
    <g id="ytick_6">
     <g id="line2d_14">
      <path d="M 326.436543 174.528 
C 326.436543 162.672993 324.101365 150.933261 319.564651 139.980663 
C 315.027936 129.028064 308.377912 119.0756 299.995156 110.692844 
C 291.6124 102.310088 281.659936 95.660064 270.707337 91.123349 
C 259.754739 86.586635 248.015007 84.251457 236.16 84.251457 
C 224.304993 84.251457 212.565261 86.586635 201.612663 91.123349 
C 190.660064 95.660064 180.7076 102.310088 172.324844 110.692844 
C 163.942088 119.0756 157.292064 129.028064 152.755349 139.980663 
C 148.218635 150.933261 145.883457 162.672993 145.883457 174.528 
C 145.883457 186.383007 148.218635 198.122739 152.755349 209.075337 
C 157.292064 220.027936 163.942088 229.9804 172.324844 238.363156 
C 180.7076 246.745912 190.660064 253.395936 201.612663 257.932651 
C 212.565261 262.469365 224.304993 264.804543 236.16 264.804543 
C 248.015007 264.804543 259.754739 262.469365 270.707337 257.932651 
C 281.659936 253.395936 291.6124 246.745912 299.995156 238.363156 
C 308.377912 229.9804 315.027936 220.027936 319.564651 209.075337 
C 324.101365 198.122739 326.436543 186.383007 326.436543 174.528 
" clip-path="url(#p18dd7ef279)" style="fill: none; stroke: #b0b0b0; stroke-width: 0.8; stroke-linecap: square"/>
     </g>
     <g id="text_14">
      <!-- 15.0 -->
      <g transform="translate(319.564651 137.900975) scale(0.1 -0.1)">
       <use xlink:href="#DejaVuSans-31"/>
       <use xlink:href="#DejaVuSans-35" x="63.623047"/>
       <use xlink:href="#DejaVuSans-2e" x="127.246094"/>
       <use xlink:href="#DejaVuSans-30" x="159.033203"/>
      </g>
     </g>
    </g>
    <g id="ytick_7">
     <g id="line2d_15">
      <path d="M 341.482634 174.528 
C 341.482634 160.697158 338.75826 147.000804 333.465426 134.222773 
C 328.172592 121.444742 320.41423 109.833533 310.634349 100.053651 
C 300.854467 90.27377 289.243258 82.515408 276.465227 77.222574 
C 263.687196 71.92974 249.990842 69.205366 236.16 69.205366 
C 222.329158 69.205366 208.632804 71.92974 195.854773 77.222574 
C 183.076742 82.515408 171.465533 90.27377 161.685651 100.053651 
C 151.90577 109.833533 144.147408 121.444742 138.854574 134.222773 
C 133.56174 147.000804 130.837366 160.697158 130.837366 174.528 
C 130.837366 188.358842 133.56174 202.055196 138.854574 214.833227 
C 144.147408 227.611258 151.90577 239.222467 161.685651 249.002349 
C 171.465533 258.78223 183.076742 266.540592 195.854773 271.833426 
C 208.632804 277.12626 222.329158 279.850634 236.16 279.850634 
C 249.990842 279.850634 263.687196 277.12626 276.465227 271.833426 
C 289.243258 266.540592 300.854467 258.78223 310.634349 249.002349 
C 320.41423 239.222467 328.172592 227.611258 333.465426 214.833227 
C 338.75826 202.055196 341.482634 188.358842 341.482634 174.528 
" clip-path="url(#p18dd7ef279)" style="fill: none; stroke: #b0b0b0; stroke-width: 0.8; stroke-linecap: square"/>
     </g>
     <g id="text_15">
      <!-- 17.5 -->
      <g transform="translate(333.465426 132.143085) scale(0.1 -0.1)">
       <use xlink:href="#DejaVuSans-31"/>
       <use xlink:href="#DejaVuSans-37" x="63.623047"/>
       <use xlink:href="#DejaVuSans-2e" x="127.246094"/>
       <use xlink:href="#DejaVuSans-35" x="159.033203"/>
      </g>
     </g>
    </g>
    <g id="ytick_8">
     <g id="line2d_16">
      <path d="M 356.528724 174.528 
C 356.528724 158.721324 353.415154 143.068348 347.366201 128.464883 
C 341.317248 113.861419 332.450549 100.591467 321.273541 89.414459 
C 310.096533 78.237451 296.826581 69.370752 282.223117 63.321799 
C 267.619652 57.272846 251.966676 54.159276 236.16 54.159276 
C 220.353324 54.159276 204.700348 57.272846 190.096883 63.321799 
C 175.493419 69.370752 162.223467 78.237451 151.046459 89.414459 
C 139.869451 100.591467 131.002752 113.861419 124.953799 128.464883 
C 118.904846 143.068348 115.791276 158.721324 115.791276 174.528 
C 115.791276 190.334676 118.904846 205.987652 124.953799 220.591117 
C 131.002752 235.194581 139.869451 248.464533 151.046459 259.641541 
C 162.223467 270.818549 175.493419 279.685248 190.096883 285.734201 
C 204.700348 291.783154 220.353324 294.896724 236.16 294.896724 
C 251.966676 294.896724 267.619652 291.783154 282.223117 285.734201 
C 296.826581 279.685248 310.096533 270.818549 321.273541 259.641541 
C 332.450549 248.464533 341.317248 235.194581 347.366201 220.591117 
C 353.415154 205.987652 356.528724 190.334676 356.528724 174.528 
" clip-path="url(#p18dd7ef279)" style="fill: none; stroke: #b0b0b0; stroke-width: 0.8; stroke-linecap: square"/>
     </g>
     <g id="text_16">
      <!-- 20.0 -->
      <g transform="translate(347.366201 126.385196) scale(0.1 -0.1)">
       <use xlink:href="#DejaVuSans-32"/>
       <use xlink:href="#DejaVuSans-30" x="63.623047"/>
       <use xlink:href="#DejaVuSans-2e" x="127.246094"/>
       <use xlink:href="#DejaVuSans-30" x="159.033203"/>
      </g>
     </g>
    </g>
   </g>
   <g id="line2d_17">
    <path d="M 295.74394 174.528 
L 273.771911 152.812753 
L 291.044284 79.465631 
L 236.16 135.894222 
L 192.494748 98.897565 
L 166.722293 134.438121 
L 170.294604 174.528 
L 179.386883 207.305974 
L 216.83635 207.997543 
L 236.16 240.993118 
L 250.081527 198.640793 
L 347.050967 238.55093 
" clip-path="url(#p18dd7ef279)" style="fill: none; stroke: #7fff00; stroke-width: 2; stroke-linecap: square"/>
    <defs>
     <path id="m6f988340bf" d="M 0 -5 
L -1.12257 -1.545085 
L -4.755283 -1.545085 
L -1.816356 0.59017 
L -2.938926 4.045085 
L -0 1.90983 
L 2.938926 4.045085 
L 1.816356 0.59017 
L 4.755283 -1.545085 
L 1.12257 -1.545085 
z
" style="stroke: #7fff00; stroke-linejoin: bevel"/>
    </defs>
    <g clip-path="url(#p18dd7ef279)">
     <use xlink:href="#m6f988340bf" x="295.74394" y="174.528" style="fill: #0000ff; stroke: #7fff00; stroke-linejoin: bevel"/>
     <use xlink:href="#m6f988340bf" x="273.771911" y="152.812753" style="fill: #0000ff; stroke: #7fff00; stroke-linejoin: bevel"/>
     <use xlink:href="#m6f988340bf" x="291.044284" y="79.465631" style="fill: #0000ff; stroke: #7fff00; stroke-linejoin: bevel"/>
     <use xlink:href="#m6f988340bf" x="236.16" y="135.894222" style="fill: #0000ff; stroke: #7fff00; stroke-linejoin: bevel"/>
     <use xlink:href="#m6f988340bf" x="192.494748" y="98.897565" style="fill: #0000ff; stroke: #7fff00; stroke-linejoin: bevel"/>
     <use xlink:href="#m6f988340bf" x="166.722293" y="134.438121" style="fill: #0000ff; stroke: #7fff00; stroke-linejoin: bevel"/>
     <use xlink:href="#m6f988340bf" x="170.294604" y="174.528" style="fill: #0000ff; stroke: #7fff00; stroke-linejoin: bevel"/>
     <use xlink:href="#m6f988340bf" x="179.386883" y="207.305974" style="fill: #0000ff; stroke: #7fff00; stroke-linejoin: bevel"/>
     <use xlink:href="#m6f988340bf" x="216.83635" y="207.997543" style="fill: #0000ff; stroke: #7fff00; stroke-linejoin: bevel"/>
     <use xlink:href="#m6f988340bf" x="236.16" y="240.993118" style="fill: #0000ff; stroke: #7fff00; stroke-linejoin: bevel"/>
     <use xlink:href="#m6f988340bf" x="250.081527" y="198.640793" style="fill: #0000ff; stroke: #7fff00; stroke-linejoin: bevel"/>
     <use xlink:href="#m6f988340bf" x="347.050967" y="238.55093" style="fill: #0000ff; stroke: #7fff00; stroke-linejoin: bevel"/>
    </g>
   </g>
   <g id="patch_3">
    <path d="M 369.216 174.528 
C 369.216 157.055246 365.774248 139.752393 359.087715 123.609673 
C 352.401182 107.466954 342.599903 92.798303 330.2448 80.4432 
C 317.889697 68.088097 303.221046 58.286818 287.078327 51.600285 
C 270.935607 44.913752 253.632754 41.472 236.16 41.472 
C 218.687246 41.472 201.384393 44.913752 185.241673 51.600285 
C 169.098954 58.286818 154.430303 68.088097 142.0752 80.4432 
C 129.720097 92.798303 119.918818 107.466954 113.232285 123.609673 
C 106.545752 139.752393 103.104 157.055246 103.104 174.528 
C 103.104 192.000754 106.545752 209.303607 113.232285 225.446327 
C 119.918818 241.589046 129.720097 256.257697 142.0752 268.6128 
C 154.430303 280.967903 169.098954 290.769182 185.241673 297.455715 
C 201.384393 304.142248 218.687246 307.584 236.16 307.584 
C 253.632754 307.584 270.935607 304.142248 287.078327 297.455715 
C 303.221046 290.769182 317.889697 280.967903 330.2448 268.6128 
C 342.599903 256.257697 352.401182 241.589046 359.087715 225.446327 
C 365.774248 209.303607 369.216 192.000754 369.216 174.528 
" style="fill: none; stroke: #000000; stroke-width: 0.8; stroke-linejoin: miter; stroke-linecap: square"/>
   </g>
  </g>
 </g>
 <defs>
  <clipPath id="p18dd7ef279">
   <path d="M 369.216 174.528 
C 369.216 157.055246 365.774248 139.752393 359.087715 123.609673 
C 352.401182 107.466954 342.599903 92.798303 330.2448 80.4432 
C 317.889697 68.088097 303.221046 58.286818 287.078327 51.600285 
C 270.935607 44.913752 253.632754 41.472 236.16 41.472 
C 218.687246 41.472 201.384393 44.913752 185.241673 51.600285 
C 169.098954 58.286818 154.430303 68.088097 142.0752 80.4432 
C 129.720097 92.798303 119.918818 107.466954 113.232285 123.609673 
C 106.545752 139.752393 103.104 157.055246 103.104 174.528 
C 103.104 192.000754 106.545752 209.303607 113.232285 225.446327 
C 119.918818 241.589046 129.720097 256.257697 142.0752 268.6128 
C 154.430303 280.967903 169.098954 290.769182 185.241673 297.455715 
C 201.384393 304.142248 218.687246 307.584 236.16 307.584 
C 253.632754 307.584 270.935607 304.142248 287.078327 297.455715 
C 303.221046 290.769182 317.889697 280.967903 330.2448 268.6128 
C 342.599903 256.257697 352.401182 241.589046 359.087715 225.446327 
C 365.774248 209.303607 369.216 192.000754 369.216 174.528 
M 236.16 174.528 
C 236.16 174.528 236.16 174.528 236.16 174.528 
C 236.16 174.528 236.16 174.528 236.16 174.528 
C 236.16 174.528 236.16 174.528 236.16 174.528 
C 236.16 174.528 236.16 174.528 236.16 174.528 
C 236.16 174.528 236.16 174.528 236.16 174.528 
C 236.16 174.528 236.16 174.528 236.16 174.528 
C 236.16 174.528 236.16 174.528 236.16 174.528 
C 236.16 174.528 236.16 174.528 236.16 174.528 
C 236.16 174.528 236.16 174.528 236.16 174.528 
C 236.16 174.528 236.16 174.528 236.16 174.528 
C 236.16 174.528 236.16 174.528 236.16 174.528 
C 236.16 174.528 236.16 174.528 236.16 174.528 
C 236.16 174.528 236.16 174.528 236.16 174.528 
C 236.16 174.528 236.16 174.528 236.16 174.528 
C 236.16 174.528 236.16 174.528 236.16 174.528 
C 236.16 174.528 236.16 174.528 236.16 174.528 
z
"/>
  </clipPath>
 </defs>
</svg>
