<?xml version="1.0" encoding="utf-8" standalone="no"?>
<!DOCTYPE svg PUBLIC "-//W3C//DTD SVG 1.1//EN"
  "http://www.w3.org/Graphics/SVG/1.1/DTD/svg11.dtd">
<svg xmlns:xlink="http://www.w3.org/1999/xlink" width="460.8pt" height="345.6pt" viewBox="0 0 460.8 345.6" xmlns="http://www.w3.org/2000/svg" version="1.1">
 <metadata>
  <rdf:RDF xmlns:dc="http://purl.org/dc/elements/1.1/" xmlns:cc="http://creativecommons.org/ns#" xmlns:rdf="http://www.w3.org/1999/02/22-rdf-syntax-ns#">
   <cc:Work>
    <dc:type rdf:resource="http://purl.org/dc/dcmitype/StillImage"/>
    <dc:date>2024-12-22T21:14:07.161055</dc:date>
    <dc:format>image/svg+xml</dc:format>
    <dc:creator>
     <cc:Agent>
      <dc:title>Matplotlib v3.9.4, https://matplotlib.org/</dc:title>
     </cc:Agent>
    </dc:creator>
   </cc:Work>
  </rdf:RDF>
 </metadata>
 <defs>
  <style type="text/css">*{stroke-linejoin: round; stroke-linecap: butt}</style>
 </defs>
 <g id="figure_1">
  <g id="patch_1">
   <path d="M 0 345.6 
L 460.8 345.6 
L 460.8 0 
L 0 0 
z
" style="fill: #ffffff"/>
  </g>
  <g id="axes_1">
   <g id="patch_2">
    <path d="M 57.6 307.584 
L 414.72 307.584 
L 414.72 41.472 
L 57.6 41.472 
z
" style="fill: #ffffff"/>
   </g>
   <g id="matplotlib.axis_1">
    <g id="xtick_1">
     <g id="line2d_1">
      <defs>
       <path id="m0061d06f6d" d="M 0 0 
L 0 3.5 
" style="stroke: #000000; stroke-width: 0.8"/>
      </defs>
      <g>
       <use xlink:href="#m0061d06f6d" x="57.6" y="307.584" style="stroke: #000000; stroke-width: 0.8"/>
      </g>
     </g>
     <g id="text_1">
      <!-- 0 -->
      <g transform="translate(55.1 321.459) scale(0.1 -0.1)">
       <defs>
        <path id="SimHei-30" d="M 225 2537 
Q 250 3200 412 3587 
Q 575 3975 875 4225 
Q 1175 4475 1612 4475 
Q 2050 4475 2375 4112 
Q 2700 3750 2800 3200 
Q 2900 2650 2862 1937 
Q 2825 1225 2612 775 
Q 2400 325 1975 150 
Q 1550 -25 1125 187 
Q 700 400 525 750 
Q 350 1100 275 1487 
Q 200 1875 225 2537 
z
M 750 2687 
Q 675 2000 800 1462 
Q 925 925 1212 700 
Q 1500 475 1800 612 
Q 2100 750 2237 1162 
Q 2375 1575 2375 2062 
Q 2375 2550 2337 2950 
Q 2300 3350 2112 3675 
Q 1925 4000 1612 4012 
Q 1300 4025 1062 3700 
Q 825 3375 750 2687 
z
" transform="scale(0.015625)"/>
       </defs>
       <use xlink:href="#SimHei-30"/>
      </g>
     </g>
    </g>
    <g id="xtick_2">
     <g id="line2d_2">
      <g>
       <use xlink:href="#m0061d06f6d" x="129.024" y="307.584" style="stroke: #000000; stroke-width: 0.8"/>
      </g>
     </g>
     <g id="text_2">
      <!-- 2 -->
      <g transform="translate(126.524 321.459) scale(0.1 -0.1)">
       <defs>
        <path id="SimHei-32" d="M 300 250 
Q 325 625 650 925 
Q 975 1225 1475 1862 
Q 1975 2500 2125 2850 
Q 2275 3200 2237 3450 
Q 2200 3700 2000 3862 
Q 1800 4025 1537 4000 
Q 1275 3975 1037 3800 
Q 800 3625 675 3275 
L 200 3350 
Q 400 3925 712 4187 
Q 1025 4450 1450 4475 
Q 1700 4500 1900 4462 
Q 2100 4425 2312 4287 
Q 2525 4150 2662 3875 
Q 2800 3600 2762 3212 
Q 2725 2825 2375 2287 
Q 2025 1750 1025 600 
L 2825 600 
L 2825 150 
L 300 150 
L 300 250 
z
" transform="scale(0.015625)"/>
       </defs>
       <use xlink:href="#SimHei-32"/>
      </g>
     </g>
    </g>
    <g id="xtick_3">
     <g id="line2d_3">
      <g>
       <use xlink:href="#m0061d06f6d" x="200.448" y="307.584" style="stroke: #000000; stroke-width: 0.8"/>
      </g>
     </g>
     <g id="text_3">
      <!-- 4 -->
      <g transform="translate(197.948 321.459) scale(0.1 -0.1)">
       <defs>
        <path id="SimHei-34" d="M 2000 1100 
L 75 1100 
L 75 1525 
L 2100 4450 
L 2475 4450 
L 2475 1525 
L 3075 1525 
L 3075 1100 
L 2475 1100 
L 2475 150 
L 2000 150 
L 2000 1100 
z
M 2000 1525 
L 2000 3500 
L 600 1525 
L 2000 1525 
z
" transform="scale(0.015625)"/>
       </defs>
       <use xlink:href="#SimHei-34"/>
      </g>
     </g>
    </g>
    <g id="xtick_4">
     <g id="line2d_4">
      <g>
       <use xlink:href="#m0061d06f6d" x="271.872" y="307.584" style="stroke: #000000; stroke-width: 0.8"/>
      </g>
     </g>
     <g id="text_4">
      <!-- 6 -->
      <g transform="translate(269.372 321.459) scale(0.1 -0.1)">
       <defs>
        <path id="SimHei-36" d="M 250 1612 
Q 275 1975 387 2225 
Q 500 2475 725 2850 
L 1750 4450 
L 2325 4450 
L 1275 2800 
Q 1950 2975 2350 2750 
Q 2750 2525 2887 2237 
Q 3025 1950 3037 1612 
Q 3050 1275 2937 950 
Q 2825 625 2537 362 
Q 2250 100 1737 75 
Q 1225 50 862 262 
Q 500 475 362 862 
Q 225 1250 250 1612 
z
M 1025 787 
Q 1250 550 1625 525 
Q 2000 500 2250 775 
Q 2500 1050 2500 1575 
Q 2500 2100 2187 2300 
Q 1875 2500 1487 2450 
Q 1100 2400 925 2075 
Q 750 1750 775 1387 
Q 800 1025 1025 787 
z
" transform="scale(0.015625)"/>
       </defs>
       <use xlink:href="#SimHei-36"/>
      </g>
     </g>
    </g>
    <g id="xtick_5">
     <g id="line2d_5">
      <g>
       <use xlink:href="#m0061d06f6d" x="343.296" y="307.584" style="stroke: #000000; stroke-width: 0.8"/>
      </g>
     </g>
     <g id="text_5">
      <!-- 8 -->
      <g transform="translate(340.796 321.459) scale(0.1 -0.1)">
       <defs>
        <path id="SimHei-38" d="M 175 1375 
Q 175 1675 325 1962 
Q 475 2250 825 2425 
Q 525 2600 425 2812 
Q 325 3025 312 3300 
Q 300 3575 387 3775 
Q 475 3975 650 4150 
Q 825 4325 1037 4387 
Q 1250 4450 1500 4450 
Q 1750 4450 1950 4400 
Q 2150 4350 2375 4187 
Q 2600 4025 2700 3725 
Q 2800 3425 2687 3025 
Q 2575 2625 2100 2400 
Q 2525 2275 2700 2012 
Q 2875 1750 2875 1375 
Q 2875 1000 2762 775 
Q 2650 550 2512 400 
Q 2375 250 2137 162 
Q 1900 75 1537 75 
Q 1175 75 912 162 
Q 650 250 475 425 
Q 300 600 237 837 
Q 175 1075 175 1375 
z
M 687 1400 
Q 675 1100 787 875 
Q 900 650 1200 587 
Q 1500 525 1825 600 
Q 2150 675 2275 950 
Q 2400 1225 2362 1500 
Q 2325 1775 2050 1962 
Q 1775 2150 1450 2125 
Q 1125 2100 912 1900 
Q 700 1700 687 1400 
z
M 775 3350 
Q 775 3100 950 2875 
Q 1125 2650 1500 2650 
Q 1875 2650 2062 2875 
Q 2250 3100 2237 3412 
Q 2225 3725 2012 3875 
Q 1800 4025 1437 4000 
Q 1075 3975 925 3787 
Q 775 3600 775 3350 
z
" transform="scale(0.015625)"/>
       </defs>
       <use xlink:href="#SimHei-38"/>
      </g>
     </g>
    </g>
    <g id="xtick_6">
     <g id="line2d_6">
      <g>
       <use xlink:href="#m0061d06f6d" x="414.72" y="307.584" style="stroke: #000000; stroke-width: 0.8"/>
      </g>
     </g>
     <g id="text_6">
      <!-- 10 -->
      <g transform="translate(409.72 321.459) scale(0.1 -0.1)">
       <defs>
        <path id="SimHei-31" d="M 1400 3600 
Q 1075 3275 575 2975 
L 575 3450 
Q 1200 3875 1600 4450 
L 1900 4450 
L 1900 150 
L 1400 150 
L 1400 3600 
z
" transform="scale(0.015625)"/>
       </defs>
       <use xlink:href="#SimHei-31"/>
       <use xlink:href="#SimHei-30" x="50"/>
      </g>
     </g>
    </g>
    <g id="text_7">
     <!-- xlabel -->
     <g transform="translate(221.16 333.584) scale(0.1 -0.1)">
      <defs>
       <path id="SimHei-78" d="M 2875 125 
L 2275 125 
L 1550 1200 
L 825 125 
L 225 125 
L 1250 1550 
L 300 2925 
L 900 2925 
L 1550 1875 
L 2200 2925 
L 2800 2925 
L 1850 1550 
L 2875 125 
z
" transform="scale(0.015625)"/>
       <path id="SimHei-6c" d="M 1825 125 
L 1325 125 
L 1325 4400 
L 1825 4400 
L 1825 125 
z
" transform="scale(0.015625)"/>
       <path id="SimHei-61" d="M 2875 125 
L 2275 125 
Q 2225 175 2200 262 
Q 2175 350 2175 475 
Q 2000 275 1750 175 
Q 1500 75 1225 75 
Q 825 75 550 275 
Q 275 475 275 850 
Q 275 1225 525 1450 
Q 775 1675 1300 1750 
Q 1650 1800 1912 1875 
Q 2175 1950 2175 2075 
Q 2175 2225 2062 2375 
Q 1950 2525 1575 2525 
Q 1275 2525 1137 2412 
Q 1000 2300 950 2100 
L 400 2100 
Q 450 2500 762 2737 
Q 1075 2975 1575 2975 
Q 2125 2975 2400 2725 
Q 2675 2475 2675 2025 
L 2675 650 
Q 2675 500 2725 375 
Q 2775 250 2875 125 
z
M 2175 1050 
L 2175 1550 
Q 2025 1500 1887 1462 
Q 1750 1425 1425 1375 
Q 1050 1325 937 1200 
Q 825 1075 825 900 
Q 825 750 937 637 
Q 1050 525 1275 525 
Q 1500 525 1762 650 
Q 2025 775 2175 1050 
z
" transform="scale(0.015625)"/>
       <path id="SimHei-62" d="M 2825 1525 
Q 2825 800 2475 437 
Q 2125 75 1625 75 
Q 1350 75 1150 175 
Q 950 275 800 500 
L 800 125 
L 300 125 
L 300 4400 
L 800 4400 
L 800 2550 
Q 950 2775 1150 2887 
Q 1350 3000 1625 3000 
Q 2125 3000 2475 2625 
Q 2825 2250 2825 1525 
z
M 2275 1525 
Q 2275 2000 2087 2275 
Q 1900 2550 1525 2550 
Q 1225 2550 1012 2275 
Q 800 2000 800 1525 
Q 800 1050 1012 787 
Q 1225 525 1525 525 
Q 1900 525 2087 787 
Q 2275 1050 2275 1525 
z
" transform="scale(0.015625)"/>
       <path id="SimHei-65" d="M 2850 1075 
Q 2800 625 2450 350 
Q 2100 75 1625 75 
Q 1025 75 637 462 
Q 250 850 250 1525 
Q 250 2200 637 2587 
Q 1025 2975 1625 2975 
Q 2150 2975 2487 2637 
Q 2825 2300 2825 1525 
L 800 1525 
Q 800 975 1037 750 
Q 1275 525 1625 525 
Q 1900 525 2075 662 
Q 2250 800 2300 1075 
L 2850 1075 
z
M 2250 1925 
Q 2200 2275 2025 2412 
Q 1850 2550 1575 2550 
Q 1325 2550 1125 2412 
Q 925 2275 825 1925 
L 2250 1925 
z
" transform="scale(0.015625)"/>
      </defs>
      <use xlink:href="#SimHei-78"/>
      <use xlink:href="#SimHei-6c" x="50"/>
      <use xlink:href="#SimHei-61" x="100"/>
      <use xlink:href="#SimHei-62" x="150"/>
      <use xlink:href="#SimHei-65" x="200"/>
      <use xlink:href="#SimHei-6c" x="250"/>
     </g>
    </g>
   </g>
   <g id="matplotlib.axis_2">
    <g id="ytick_1">
     <g id="line2d_7">
      <defs>
       <path id="m3bbbbcc998" d="M 0 0 
L -3.5 0 
" style="stroke: #000000; stroke-width: 0.8"/>
      </defs>
      <g>
       <use xlink:href="#m3bbbbcc998" x="57.6" y="307.584" style="stroke: #000000; stroke-width: 0.8"/>
      </g>
     </g>
     <g id="text_8">
      <!-- 0 -->
      <g transform="translate(45.6 311.0215) scale(0.1 -0.1)">
       <use xlink:href="#SimHei-30"/>
      </g>
     </g>
    </g>
    <g id="ytick_2">
     <g id="line2d_8">
      <g>
       <use xlink:href="#m3bbbbcc998" x="57.6" y="254.3616" style="stroke: #000000; stroke-width: 0.8"/>
      </g>
     </g>
     <g id="text_9">
      <!-- 2 -->
      <g transform="translate(45.6 257.7991) scale(0.1 -0.1)">
       <use xlink:href="#SimHei-32"/>
      </g>
     </g>
    </g>
    <g id="ytick_3">
     <g id="line2d_9">
      <g>
       <use xlink:href="#m3bbbbcc998" x="57.6" y="201.1392" style="stroke: #000000; stroke-width: 0.8"/>
      </g>
     </g>
     <g id="text_10">
      <!-- 4 -->
      <g transform="translate(45.6 204.5767) scale(0.1 -0.1)">
       <use xlink:href="#SimHei-34"/>
      </g>
     </g>
    </g>
    <g id="ytick_4">
     <g id="line2d_10">
      <g>
       <use xlink:href="#m3bbbbcc998" x="57.6" y="147.9168" style="stroke: #000000; stroke-width: 0.8"/>
      </g>
     </g>
     <g id="text_11">
      <!-- 6 -->
      <g transform="translate(45.6 151.3543) scale(0.1 -0.1)">
       <use xlink:href="#SimHei-36"/>
      </g>
     </g>
    </g>
    <g id="ytick_5">
     <g id="line2d_11">
      <g>
       <use xlink:href="#m3bbbbcc998" x="57.6" y="94.6944" style="stroke: #000000; stroke-width: 0.8"/>
      </g>
     </g>
     <g id="text_12">
      <!-- 8 -->
      <g transform="translate(45.6 98.1319) scale(0.1 -0.1)">
       <use xlink:href="#SimHei-38"/>
      </g>
     </g>
    </g>
    <g id="ytick_6">
     <g id="line2d_12">
      <g>
       <use xlink:href="#m3bbbbcc998" x="57.6" y="41.472" style="stroke: #000000; stroke-width: 0.8"/>
      </g>
     </g>
     <g id="text_13">
      <!-- 10 -->
      <g transform="translate(40.6 44.9095) scale(0.1 -0.1)">
       <use xlink:href="#SimHei-31"/>
       <use xlink:href="#SimHei-30" x="50"/>
      </g>
     </g>
    </g>
    <g id="text_14">
     <!-- ylabel -->
     <g transform="translate(35.35 189.528) rotate(-90) scale(0.1 -0.1)">
      <defs>
       <path id="SimHei-79" d="M 2900 2925 
L 1750 -100 
Q 1650 -450 1450 -625 
Q 1250 -800 950 -800 
Q 825 -800 712 -787 
Q 600 -775 500 -725 
L 500 -225 
Q 600 -275 700 -300 
Q 800 -325 875 -325 
Q 1075 -325 1150 -262 
Q 1225 -200 1300 25 
L 200 2925 
L 750 2925 
L 1550 725 
L 1575 725 
L 2350 2925 
L 2900 2925 
z
" transform="scale(0.015625)"/>
      </defs>
      <use xlink:href="#SimHei-79"/>
      <use xlink:href="#SimHei-6c" x="50"/>
      <use xlink:href="#SimHei-61" x="100"/>
      <use xlink:href="#SimHei-62" x="150"/>
      <use xlink:href="#SimHei-65" x="200"/>
      <use xlink:href="#SimHei-6c" x="250"/>
     </g>
    </g>
   </g>
   <g id="line2d_13">
    <defs>
     <path id="m00ff26dfc3" d="M 0 3 
C 0.795609 3 1.55874 2.683901 2.12132 2.12132 
C 2.683901 1.55874 3 0.795609 3 0 
C 3 -0.795609 2.683901 -1.55874 2.12132 -2.12132 
C 1.55874 -2.683901 0.795609 -3 0 -3 
C -0.795609 -3 -1.55874 -2.683901 -2.12132 -2.12132 
C -2.683901 -1.55874 -3 -0.795609 -3 0 
C -3 0.795609 -2.683901 1.55874 -2.12132 2.12132 
C -1.55874 2.683901 -0.795609 3 0 3 
z
" style="stroke: #1f77b4"/>
    </defs>
    <g clip-path="url(#p4f9f0afb6e)">
     <use xlink:href="#m00ff26dfc3" x="129.024" y="280.9728" style="fill: #1f77b4; stroke: #1f77b4"/>
    </g>
   </g>
   <g id="patch_3">
    <path d="M 57.6 307.584 
L 57.6 41.472 
" style="fill: none; stroke: #000000; stroke-width: 0.8; stroke-linejoin: miter; stroke-linecap: square"/>
   </g>
   <g id="patch_4">
    <path d="M 414.72 307.584 
L 414.72 41.472 
" style="fill: none; stroke: #000000; stroke-width: 0.8; stroke-linejoin: miter; stroke-linecap: square"/>
   </g>
   <g id="patch_5">
    <path d="M 57.6 307.584 
L 414.72 307.584 
" style="fill: none; stroke: #000000; stroke-width: 0.8; stroke-linejoin: miter; stroke-linecap: square"/>
   </g>
   <g id="patch_6">
    <path d="M 57.6 41.472 
L 414.72 41.472 
" style="fill: none; stroke: #000000; stroke-width: 0.8; stroke-linejoin: miter; stroke-linecap: square"/>
   </g>
   <g id="text_15">
    <g id="patch_7">
     <path d="M 160.686 101.029556 
L 431.286 101.029556 
L 431.286 78.281119 
L 160.686 78.281119 
z
" style="fill: #ffff00; stroke: #000000; stroke-linejoin: miter"/>
    </g>
    <!-- C语言中网网，编程爱好者都喜欢的网站 -->
    <g transform="translate(164.736 94.6944) scale(0.15 -0.15)">
     <defs>
      <path id="SimHei-43" d="M 2975 1825 
Q 2950 875 2575 475 
Q 2200 75 1675 75 
Q 1075 75 650 562 
Q 225 1050 225 2125 
Q 225 3300 637 3875 
Q 1050 4450 1700 4450 
Q 2250 4450 2612 4037 
Q 2975 3625 2950 2875 
L 2400 2875 
Q 2400 3425 2225 3700 
Q 2050 3975 1700 3975 
Q 1300 3975 1062 3562 
Q 825 3150 825 2175 
Q 825 1275 1062 912 
Q 1300 550 1675 550 
Q 1950 550 2175 812 
Q 2400 1075 2400 1825 
L 2975 1825 
z
" transform="scale(0.015625)"/>
      <path id="SimHei-8bed" d="M 5100 5050 
Q 5500 5050 5875 5075 
L 5875 4675 
Q 5500 4700 4125 4700 
L 4000 3975 
L 5550 3975 
L 5400 2600 
Q 5775 2600 6150 2625 
L 6150 2200 
Q 5825 2225 5600 2225 
L 3000 2225 
Q 2550 2225 2075 2200 
L 2075 2625 
Q 2425 2600 3200 2600 
L 3400 3625 
Q 2900 3625 2450 3575 
L 2450 4025 
Q 2975 4000 3525 4000 
L 3625 4700 
Q 2725 4700 2250 4675 
L 2250 5075 
Q 2700 5050 3200 5050 
L 5100 5050 
z
M 5600 1650 
Q 5575 1350 5575 925 
L 5575 75 
Q 5575 -300 5600 -625 
L 5100 -625 
L 5100 -250 
L 3200 -250 
L 3200 -650 
L 2700 -650 
Q 2725 -325 2725 25 
L 2725 800 
Q 2725 1350 2700 1650 
L 5600 1650 
z
M 2050 1400 
Q 2175 1200 2375 925 
Q 2050 600 1812 312 
Q 1575 25 1275 -425 
Q 1100 -225 825 -25 
Q 975 125 1062 250 
Q 1150 375 1150 650 
L 1150 2875 
L 925 2875 
Q 600 2875 225 2850 
L 225 3325 
Q 575 3300 925 3300 
L 1650 3300 
Q 1625 2800 1625 2275 
L 1625 825 
Q 1900 1150 2050 1400 
z
M 5100 150 
L 5100 1225 
L 3200 1225 
L 3200 150 
L 5100 150 
z
M 4850 2600 
L 5000 3600 
L 3900 3600 
L 3700 2600 
L 4850 2600 
z
M 1425 3975 
Q 1000 4575 725 4825 
Q 875 5000 1075 5150 
Q 1300 4900 1800 4300 
Q 1600 4150 1425 3975 
z
" transform="scale(0.015625)"/>
      <path id="SimHei-8a00" d="M 5150 1500 
Q 5125 1000 5125 475 
Q 5125 -50 5150 -575 
L 4625 -575 
L 4625 -175 
L 1725 -175 
L 1725 -575 
L 1225 -575 
Q 1250 -75 1250 450 
Q 1250 975 1225 1500 
L 5150 1500 
z
M 4625 225 
L 4625 1125 
L 1725 1125 
L 1725 225 
L 4625 225 
z
M 3125 5225 
Q 3325 4800 3450 4425 
L 4925 4425 
Q 5325 4425 5850 4450 
L 5850 4000 
Q 5325 4025 5075 4025 
L 1425 4025 
Q 1050 4025 500 4000 
L 500 4450 
Q 1050 4425 1275 4425 
L 2875 4425 
Q 2825 4650 2600 5050 
Q 2825 5075 3125 5225 
z
M 4300 3425 
Q 4625 3425 5125 3450 
L 5125 3000 
Q 4650 3050 4300 3050 
L 2000 3050 
Q 1650 3050 1200 3025 
L 1200 3450 
Q 1650 3425 2000 3425 
L 4300 3425 
z
M 4275 2450 
Q 4625 2450 5100 2475 
L 5100 2050 
Q 4625 2075 4250 2075 
L 2100 2075 
Q 1725 2075 1175 2050 
L 1175 2475 
Q 1725 2450 2100 2450 
L 4275 2450 
z
" transform="scale(0.015625)"/>
      <path id="SimHei-4e2d" d="M 3475 5200 
Q 3450 4500 3450 3875 
L 5625 3875 
Q 5600 3375 5600 2500 
Q 5600 1650 5625 1225 
L 5075 1225 
L 5075 1600 
L 3450 1600 
L 3450 525 
Q 3450 225 3475 -600 
L 2875 -600 
Q 2925 -150 2925 450 
L 2925 1600 
L 1300 1600 
L 1300 1225 
L 750 1225 
Q 775 1600 775 2500 
Q 775 3425 750 3875 
L 2925 3875 
Q 2925 4550 2900 5200 
L 3475 5200 
z
M 5075 2000 
L 5075 3475 
L 3450 3475 
L 3450 2000 
L 5075 2000 
z
M 2925 2000 
L 2925 3475 
L 1300 3475 
L 1300 2000 
L 2925 2000 
z
" transform="scale(0.015625)"/>
      <path id="SimHei-7f51" d="M 5875 4900 
Q 5825 4575 5825 3975 
L 5825 0 
Q 5825 -400 5537 -462 
Q 5250 -525 4775 -600 
Q 4725 -350 4525 -50 
Q 5025 -75 5175 -25 
Q 5325 25 5325 250 
L 5325 4475 
L 1100 4475 
L 1100 -600 
L 550 -600 
Q 600 -100 600 250 
L 600 3975 
Q 600 4375 550 4900 
L 5875 4900 
z
M 3675 3525 
Q 4050 2800 4175 2600 
Q 4475 3625 4550 4050 
Q 4825 3900 5100 3775 
Q 4975 3600 4825 3150 
Q 4675 2700 4450 2100 
Q 4725 1575 5125 875 
Q 4850 800 4625 675 
L 4175 1575 
Q 4000 1225 3825 962 
Q 3650 700 3350 300 
Q 3175 500 2850 575 
Q 3075 800 3337 1125 
Q 3600 1450 3925 2075 
Q 3575 2800 3200 3300 
Q 3400 3375 3675 3525 
z
M 1725 3800 
Q 1875 3525 2037 3237 
Q 2200 2950 2375 2675 
Q 2675 3675 2725 4050 
Q 3000 3950 3325 3850 
Q 3175 3675 3050 3312 
Q 2925 2950 2650 2200 
Q 2875 1850 3200 1300 
Q 2950 1150 2775 975 
Q 2525 1500 2400 1700 
Q 1950 775 1600 325 
Q 1400 500 1175 575 
Q 1575 1000 2150 2175 
Q 1550 3250 1250 3600 
Q 1475 3700 1725 3800 
z
" transform="scale(0.015625)"/>
      <path id="SimHei-ff0c" d="M 875 950 
L 1775 950 
L 1775 -50 
Q 1700 -675 1150 -975 
L 900 -750 
Q 1350 -500 1350 0 
L 875 0 
L 875 950 
z
" transform="scale(0.015625)"/>
      <path id="SimHei-7f16" d="M 4275 5250 
Q 4375 4850 4475 4500 
L 5775 4500 
Q 5750 4200 5750 3825 
Q 5750 3450 5775 3175 
L 3100 3175 
Q 3075 2800 3050 2550 
L 6000 2550 
Q 5975 2150 5975 1700 
L 5975 -25 
Q 5975 -400 5812 -500 
Q 5650 -600 5275 -700 
Q 5200 -400 5050 -150 
Q 5400 -150 5475 -112 
Q 5550 -75 5550 150 
L 5550 1000 
L 5050 1000 
Q 5050 450 5075 -50 
L 4625 -50 
Q 4650 450 4650 1000 
L 4150 1000 
Q 4150 225 4175 -75 
L 3725 -75 
Q 3750 225 3750 1000 
L 3250 1000 
L 3250 -650 
L 2775 -650 
Q 2825 -175 2825 275 
L 2825 1625 
Q 2625 1075 2350 600 
Q 2175 925 2025 1100 
Q 2250 1400 2375 1700 
Q 2500 2000 2575 2525 
Q 2650 3050 2650 3575 
Q 2650 4100 2625 4500 
L 3925 4500 
Q 3875 4775 3750 5100 
Q 4075 5175 4275 5250 
z
M 1825 4875 
Q 1675 4725 1387 4150 
Q 1100 3575 875 3150 
L 1575 3175 
Q 1725 3475 1875 3850 
Q 2100 3675 2375 3500 
Q 2150 3275 1862 2812 
Q 1575 2350 1075 1675 
Q 1600 1725 2075 1800 
L 2025 1350 
Q 1725 1325 1350 1275 
Q 975 1225 550 1050 
Q 500 1325 400 1575 
Q 600 1600 825 1925 
Q 1050 2250 1400 2800 
Q 1175 2800 950 2775 
Q 725 2750 450 2650 
Q 375 2950 275 3175 
Q 525 3225 800 3862 
Q 1075 4500 1225 5125 
Q 1525 4950 1825 4875 
z
M 5325 3525 
L 5325 4150 
L 3100 4150 
L 3100 3525 
L 5325 3525 
z
M 2100 800 
Q 2075 525 2100 300 
Q 1575 175 1212 50 
Q 850 -75 400 -300 
L 200 300 
Q 500 325 1037 462 
Q 1575 600 2100 800 
z
M 4650 1350 
L 4650 2200 
L 4150 2200 
L 4150 1350 
L 4650 1350 
z
M 5550 1350 
L 5550 2200 
L 5050 2200 
L 5050 1350 
L 5550 1350 
z
M 3750 1350 
L 3750 2200 
L 3250 2200 
L 3250 1350 
L 3750 1350 
z
" transform="scale(0.015625)"/>
      <path id="SimHei-7a0b" d="M 5825 4975 
Q 5800 4425 5800 3975 
Q 5800 3550 5825 3125 
L 3025 3125 
Q 3050 3600 3050 4025 
Q 3050 4450 3025 4975 
L 5825 4975 
z
M 400 4825 
Q 825 4875 1362 4987 
Q 1900 5100 2275 5275 
Q 2450 4950 2625 4725 
Q 2450 4750 2262 4712 
Q 2075 4675 1850 4650 
L 1850 3425 
Q 2200 3425 2600 3450 
L 2600 2975 
Q 2200 3000 1850 3000 
L 1850 800 
Q 1850 250 1875 -675 
L 1375 -675 
Q 1400 250 1400 775 
L 1400 1925 
Q 1050 1225 625 600 
Q 450 850 225 1050 
Q 575 1400 850 1850 
Q 1125 2300 1350 3000 
Q 725 3000 425 2975 
L 425 3450 
Q 850 3425 1050 3425 
L 1400 3425 
L 1400 4550 
Q 1075 4475 575 4400 
Q 500 4625 400 4825 
z
M 5100 2500 
Q 5500 2500 5950 2525 
L 5950 2075 
Q 5500 2100 5100 2100 
L 4625 2100 
L 4625 1300 
L 4900 1300 
Q 5275 1300 5775 1325 
L 5775 850 
Q 5275 875 4975 875 
L 4625 875 
L 4625 0 
L 5225 0 
Q 5675 0 6175 25 
L 6175 -450 
Q 5775 -425 5225 -425 
L 3550 -425 
Q 3000 -425 2600 -475 
L 2600 25 
Q 3000 0 3550 0 
L 4150 0 
L 4150 875 
L 3800 875 
Q 3400 875 3050 825 
L 3050 1325 
Q 3400 1300 3800 1300 
L 4150 1300 
L 4150 2100 
L 3750 2100 
Q 3300 2100 2900 2075 
L 2900 2525 
Q 3300 2500 3750 2500 
L 5100 2500 
z
M 5275 3575 
L 5275 4550 
L 3500 4550 
L 3500 3575 
L 5275 3575 
z
M 2300 2400 
Q 2550 2025 2825 1525 
Q 2675 1425 2425 1225 
Q 2175 1775 1925 2125 
Q 2075 2250 2300 2400 
z
" transform="scale(0.015625)"/>
      <path id="SimHei-7231" d="M 2900 2375 
L 4525 2375 
Q 4925 2375 5450 2400 
L 5450 1975 
Q 4975 2000 4500 2000 
L 2750 2000 
Q 2525 1650 2350 1425 
L 5125 1425 
Q 4625 650 3900 125 
Q 4175 25 4775 -50 
Q 5375 -125 5925 -100 
Q 5775 -275 5600 -600 
Q 5375 -600 4712 -500 
Q 4050 -400 3425 -150 
Q 2750 -400 2287 -500 
Q 1825 -600 1275 -675 
Q 1200 -400 1000 -225 
Q 1375 -225 2025 -125 
Q 2675 -25 3025 125 
Q 2575 500 2075 1100 
Q 1875 900 1550 612 
Q 1225 325 650 -50 
Q 475 150 275 300 
Q 800 550 1300 950 
Q 1800 1350 2225 2000 
L 1900 2000 
Q 1500 2000 1025 1975 
L 1025 2400 
Q 1450 2375 1900 2375 
L 2425 2375 
Q 2550 2625 2625 2975 
Q 2950 2825 3150 2775 
L 2900 2375 
z
M 5350 4225 
Q 5125 4000 4725 3400 
L 5900 3400 
Q 5875 3075 5875 2825 
Q 5875 2600 5900 2475 
L 5400 2475 
L 5400 3025 
L 1050 3025 
L 1050 2450 
L 525 2450 
Q 550 2650 550 2900 
Q 550 3150 525 3375 
L 1750 3375 
Q 1450 3875 1225 4100 
Q 1325 4150 1550 4325 
Q 1225 4300 900 4300 
L 700 4750 
Q 1625 4700 3037 4800 
Q 4450 4900 5375 5150 
Q 5500 4775 5700 4625 
Q 5250 4600 3775 4475 
Q 3425 4450 3075 4425 
Q 3375 4025 3625 3625 
Q 3475 3575 3250 3375 
L 4225 3375 
Q 4550 3800 4825 4525 
Q 5050 4375 5350 4225 
z
M 2675 4175 
Q 2850 4275 3025 4425 
Q 2325 4375 1625 4325 
Q 1825 4100 2175 3625 
Q 1975 3500 1800 3375 
L 3200 3375 
Q 2950 3875 2675 4175 
z
M 3450 325 
Q 3925 600 4325 1075 
L 2600 1075 
Q 2975 625 3450 325 
z
" transform="scale(0.015625)"/>
      <path id="SimHei-597d" d="M 2025 5050 
Q 1875 4775 1800 4437 
Q 1725 4100 1650 3775 
L 2900 3775 
Q 2775 3025 2625 2425 
Q 2475 1825 2150 1175 
Q 2550 825 3075 325 
Q 2850 150 2675 -50 
Q 2300 425 1900 775 
Q 1575 375 1250 62 
Q 925 -250 575 -525 
Q 475 -350 200 -150 
Q 575 75 912 362 
Q 1250 650 1550 1075 
Q 1100 1425 575 1750 
Q 900 2500 1100 3375 
Q 700 3375 400 3350 
L 400 3800 
Q 700 3775 1200 3775 
Q 1350 4375 1450 5200 
Q 1700 5125 2025 5050 
z
M 5900 4600 
L 5900 4150 
Q 5650 3950 5350 3712 
Q 5050 3475 4725 3200 
L 4725 2425 
L 5400 2425 
Q 5725 2425 6125 2450 
L 6125 1975 
Q 5725 2000 5400 2000 
L 4725 2000 
L 4725 200 
Q 4725 -275 4437 -400 
Q 4150 -525 3650 -600 
Q 3575 -325 3425 -25 
Q 3975 -25 4112 37 
Q 4250 100 4250 400 
L 4250 2000 
L 3875 2000 
Q 3350 2000 2850 1975 
L 2850 2450 
Q 3350 2425 3800 2425 
L 4250 2425 
Q 4250 2800 4237 3012 
Q 4225 3225 4175 3350 
Q 4400 3500 4700 3737 
Q 5000 3975 5225 4200 
L 3725 4200 
Q 3475 4200 3050 4175 
L 3050 4625 
Q 3475 4600 3725 4600 
L 5900 4600 
z
M 1125 1925 
Q 1500 1675 1775 1475 
Q 1950 1775 2100 2275 
Q 2250 2775 2350 3375 
L 1575 3375 
Q 1350 2550 1125 1925 
z
" transform="scale(0.015625)"/>
      <path id="SimHei-8005" d="M 5650 4325 
Q 5450 4150 5187 3875 
Q 4925 3600 4450 3125 
L 5150 3125 
Q 5575 3125 6025 3150 
L 6025 2700 
Q 5575 2725 5125 2725 
L 3950 2725 
Q 3550 2425 3050 2075 
L 5175 2075 
Q 5150 1625 5150 1250 
L 5150 375 
Q 5150 -75 5175 -600 
L 4675 -600 
L 4675 -225 
L 2275 -225 
L 2275 -600 
L 1750 -600 
Q 1775 -200 1775 150 
L 1775 1300 
Q 1275 1025 650 750 
Q 400 1100 300 1175 
Q 475 1225 962 1412 
Q 1450 1600 1775 1825 
L 1775 2075 
L 2250 2075 
Q 2800 2375 3225 2725 
L 1450 2725 
Q 925 2725 475 2700 
L 475 3150 
Q 975 3125 1450 3125 
L 2775 3125 
L 2775 3900 
L 2025 3900 
Q 1600 3900 1250 3875 
L 1250 4325 
Q 1600 4300 2025 4300 
L 2775 4300 
Q 2775 4675 2750 5150 
L 3300 5150 
Q 3275 4800 3275 4300 
L 3650 4300 
Q 3975 4300 4400 4325 
L 4400 3875 
Q 3975 3900 3650 3900 
L 3275 3900 
L 3275 3125 
L 3775 3125 
Q 4125 3400 4475 3775 
Q 4825 4150 5200 4725 
Q 5475 4450 5650 4325 
z
M 4675 175 
L 4675 750 
L 2275 750 
L 2275 175 
L 4675 175 
z
M 4675 1150 
L 4675 1675 
L 2275 1675 
L 2275 1150 
L 4675 1150 
z
" transform="scale(0.015625)"/>
      <path id="SimHei-90fd" d="M 3425 2175 
Q 3400 1550 3400 900 
Q 3400 250 3425 -475 
L 2975 -475 
L 2975 -125 
L 1525 -125 
L 1525 -500 
L 1075 -500 
Q 1100 0 1100 475 
L 1100 1500 
Q 825 1300 600 1175 
Q 450 1425 250 1550 
Q 750 1825 1162 2125 
Q 1575 2425 1950 2825 
Q 1000 2825 375 2800 
L 375 3225 
Q 975 3200 1650 3200 
L 1650 3950 
Q 1050 3950 675 3925 
L 675 4325 
Q 1050 4300 1650 4300 
Q 1650 4875 1625 5100 
L 2150 5100 
Q 2125 4950 2125 4300 
Q 2450 4300 2750 4325 
L 2750 3925 
Q 2425 3950 2125 3950 
L 2125 3200 
L 2275 3200 
Q 2875 4025 3250 4875 
Q 3400 4775 3725 4575 
Q 3500 4325 3262 3925 
Q 3025 3525 2775 3200 
Q 3225 3200 3800 3225 
L 3800 2800 
Q 3225 2825 2500 2825 
Q 2175 2475 1850 2175 
L 3425 2175 
z
M 5275 2575 
Q 5750 2100 5937 1700 
Q 6125 1300 6075 937 
Q 6025 575 5787 425 
Q 5550 275 4975 125 
Q 4925 350 4750 700 
Q 5225 700 5425 800 
Q 5625 900 5600 1212 
Q 5575 1525 5287 1900 
Q 5000 2275 4775 2525 
Q 4975 3000 5325 4375 
L 4425 4375 
L 4425 -625 
L 3950 -625 
Q 3975 -75 3975 500 
L 3975 3600 
Q 3975 4200 3950 4775 
L 5950 4775 
Q 5525 3425 5275 2575 
z
M 2975 1200 
L 2975 1825 
L 1525 1825 
L 1525 1200 
L 2975 1200 
z
M 2975 250 
L 2975 825 
L 1525 825 
L 1525 250 
L 2975 250 
z
" transform="scale(0.015625)"/>
      <path id="SimHei-559c" d="M 5700 1625 
Q 5975 1625 6200 1650 
L 6200 1200 
Q 5950 1225 5650 1225 
L 900 1225 
Q 550 1225 275 1200 
L 275 1650 
Q 500 1625 925 1625 
L 2050 1625 
Q 1975 1775 1825 2000 
Q 2075 2050 2275 2150 
L 1250 2150 
Q 1275 2475 1275 2725 
Q 1275 3000 1250 3275 
L 5200 3275 
Q 5175 3000 5175 2725 
Q 5175 2475 5200 2150 
L 4125 2150 
Q 4325 2050 4600 2000 
Q 4450 1775 4400 1625 
L 5700 1625 
z
M 5175 900 
Q 5150 575 5150 225 
Q 5150 -125 5175 -525 
L 4650 -525 
L 4650 -325 
L 1750 -325 
L 1750 -575 
L 1225 -575 
Q 1250 -150 1250 175 
Q 1250 525 1225 900 
L 5175 900 
z
M 2975 4775 
Q 2975 4950 2950 5225 
L 3475 5225 
Q 3450 4950 3450 4775 
L 4975 4775 
Q 5450 4775 5975 4800 
L 5975 4350 
Q 5475 4375 4975 4375 
L 3450 4375 
L 3450 3975 
L 4550 3975 
Q 5025 3975 5400 4000 
L 5400 3575 
Q 5025 3600 4575 3600 
L 1850 3600 
Q 1325 3600 975 3575 
L 975 4000 
Q 1325 3975 1825 3975 
L 2975 3975 
L 2975 4375 
L 1400 4375 
Q 925 4375 500 4350 
L 500 4800 
Q 900 4775 1400 4775 
L 2975 4775 
z
M 4650 50 
L 4650 525 
L 1750 525 
L 1750 50 
L 4650 50 
z
M 4700 2525 
L 4700 2900 
L 1775 2900 
L 1775 2525 
L 4700 2525 
z
M 2325 2150 
Q 2475 1900 2625 1625 
L 3875 1625 
Q 3975 1825 4050 2150 
L 2325 2150 
z
" transform="scale(0.015625)"/>
      <path id="SimHei-6b22" d="M 2650 4350 
Q 2600 4025 2525 3687 
Q 2450 3350 2375 3025 
Q 2300 2700 2200 2425 
L 2075 2025 
Q 2225 1825 2425 1487 
Q 2625 1150 2825 800 
Q 2600 675 2400 525 
Q 2250 800 2125 1012 
Q 2000 1225 1825 1550 
Q 1650 1125 1400 687 
Q 1150 250 850 -175 
Q 600 25 375 150 
Q 725 525 962 900 
Q 1200 1275 1500 1925 
Q 1325 2225 1137 2475 
Q 950 2725 650 3075 
Q 825 3225 1050 3375 
Q 1175 3200 1362 2962 
Q 1550 2725 1750 2425 
Q 1850 2750 1950 3100 
Q 2050 3450 2125 3950 
L 1350 3950 
Q 925 3950 500 3925 
L 500 4375 
Q 950 4350 1325 4350 
L 2650 4350 
z
M 4500 3000 
Q 4425 2525 4425 2200 
Q 4425 1875 4625 1450 
Q 4825 1025 5100 725 
Q 5375 425 5675 250 
Q 5975 75 6200 25 
Q 6000 -200 5850 -500 
Q 4875 125 4600 575 
Q 4325 1025 4200 1400 
Q 3950 725 3600 287 
Q 3250 -150 2600 -600 
Q 2400 -375 2150 -175 
Q 2700 50 3037 387 
Q 3375 725 3562 1087 
Q 3750 1450 3812 1800 
Q 3875 2150 3887 2387 
Q 3900 2625 3900 3075 
Q 4150 3050 4500 3000 
z
M 4050 5050 
Q 3900 4825 3837 4575 
Q 3775 4325 3700 4075 
L 5925 4075 
Q 5850 3875 5737 3587 
Q 5625 3300 5500 2775 
Q 5225 2850 5000 2875 
Q 5075 3125 5137 3287 
Q 5200 3450 5250 3675 
L 3575 3675 
Q 3475 3375 3375 3112 
Q 3275 2850 3150 2500 
Q 2875 2625 2675 2675 
Q 2825 2950 2950 3250 
Q 3075 3550 3150 3875 
Q 3225 4200 3300 4550 
Q 3375 4900 3425 5200 
Q 3700 5125 4050 5050 
z
" transform="scale(0.015625)"/>
      <path id="SimHei-7684" d="M 2100 4975 
Q 1975 4750 1750 3950 
L 2875 3950 
Q 2850 3525 2850 2875 
L 2850 675 
Q 2850 300 2875 -400 
L 2375 -400 
L 2375 100 
L 1100 100 
L 1100 -450 
L 600 -450 
Q 625 350 625 550 
L 625 2850 
Q 625 3525 600 3950 
L 1325 3950 
Q 1450 4525 1525 5150 
Q 1875 5025 2100 4975 
z
M 5825 3075 
Q 5800 1550 5700 175 
Q 5650 -275 5225 -425 
Q 4800 -575 4275 -625 
Q 4250 -350 4050 -50 
Q 4550 -75 4837 -25 
Q 5125 25 5200 200 
Q 5275 375 5312 1225 
Q 5350 2075 5375 3600 
L 3925 3600 
Q 3725 3125 3350 2475 
Q 3175 2650 2925 2750 
Q 3150 3050 3350 3475 
Q 3550 3900 3700 4400 
Q 3850 4900 3875 5175 
Q 4225 5025 4475 4950 
Q 4350 4750 4262 4512 
Q 4175 4275 4075 4050 
L 5850 4050 
Q 5825 3525 5825 3075 
z
M 2375 525 
L 2375 1850 
L 1100 1850 
L 1100 525 
L 2375 525 
z
M 2375 2275 
L 2375 3525 
L 1100 3525 
L 1100 2275 
L 2375 2275 
z
M 4350 2050 
Q 4500 1750 4700 1275 
Q 4525 1200 4225 1025 
Q 4050 1500 3900 1837 
Q 3750 2175 3600 2400 
Q 3775 2500 4050 2650 
L 4350 2050 
z
" transform="scale(0.015625)"/>
      <path id="SimHei-7ad9" d="M 4450 3925 
L 5175 3925 
Q 5575 3925 6050 3950 
L 6050 3475 
Q 5575 3500 5175 3500 
L 4450 3500 
L 4450 2275 
L 5700 2275 
Q 5675 1900 5675 1575 
L 5675 350 
Q 5675 -100 5700 -575 
L 5175 -575 
L 5175 -50 
L 3500 -50 
L 3500 -600 
L 3025 -600 
Q 3025 -150 3050 200 
L 3050 1525 
Q 3025 1850 3025 2275 
L 3975 2275 
L 3975 4550 
Q 3975 4775 3950 5225 
L 4475 5225 
Q 4450 4750 4450 4600 
L 4450 3925 
z
M 5175 350 
L 5175 1875 
L 3500 1875 
L 3500 350 
L 5175 350 
z
M 2725 2875 
Q 2575 2500 2450 1912 
Q 2325 1325 2200 775 
Q 2675 875 2875 925 
Q 2875 725 2925 525 
Q 2150 350 1587 212 
Q 1025 75 550 -100 
Q 500 150 325 450 
Q 1400 600 1750 700 
Q 1850 1025 1987 1662 
Q 2125 2300 2175 3025 
Q 2450 2925 2725 2875 
z
M 1900 3875 
Q 2250 3875 2950 3900 
L 2950 3425 
Q 2250 3450 1900 3450 
L 1400 3450 
Q 1000 3450 375 3425 
L 375 3900 
Q 1000 3875 1400 3875 
L 1900 3875 
z
M 1075 2950 
Q 1475 1650 1550 1250 
Q 1300 1175 1075 1125 
Q 975 1725 600 2800 
Q 800 2875 1075 2950 
z
M 1525 4050 
Q 1425 4475 1125 5000 
Q 1325 5075 1550 5200 
Q 1775 4875 2000 4225 
Q 1800 4125 1525 4050 
z
" transform="scale(0.015625)"/>
     </defs>
     <use xlink:href="#SimHei-43"/>
     <use xlink:href="#SimHei-8bed" x="50"/>
     <use xlink:href="#SimHei-8a00" x="150"/>
     <use xlink:href="#SimHei-4e2d" x="250"/>
     <use xlink:href="#SimHei-7f51" x="350"/>
     <use xlink:href="#SimHei-7f51" x="450"/>
     <use xlink:href="#SimHei-ff0c" x="550"/>
     <use xlink:href="#SimHei-7f16" x="650"/>
     <use xlink:href="#SimHei-7a0b" x="750"/>
     <use xlink:href="#SimHei-7231" x="850"/>
     <use xlink:href="#SimHei-597d" x="950"/>
     <use xlink:href="#SimHei-8005" x="1050"/>
     <use xlink:href="#SimHei-90fd" x="1150"/>
     <use xlink:href="#SimHei-559c" x="1250"/>
     <use xlink:href="#SimHei-6b22" x="1350"/>
     <use xlink:href="#SimHei-7684" x="1450"/>
     <use xlink:href="#SimHei-7f51" x="1550"/>
     <use xlink:href="#SimHei-7ad9" x="1650"/>
    </g>
   </g>
   <g id="text_16">
    <!-- an equation: $E = mc^2$ -->
    <g transform="translate(129.024 147.9168) scale(0.15 -0.15)">
     <defs>
      <path id="SimHei-6e" d="M 2800 125 
L 2300 125 
L 2300 1925 
Q 2300 2225 2150 2400 
Q 2000 2575 1750 2575 
Q 1425 2575 1137 2237 
Q 850 1900 850 1400 
L 850 125 
L 350 125 
L 350 2925 
L 850 2925 
L 850 2400 
Q 1050 2675 1287 2825 
Q 1525 2975 1900 2975 
Q 2350 2975 2575 2725 
Q 2800 2475 2800 2100 
L 2800 125 
z
" transform="scale(0.015625)"/>
      <path id="SimHei-20" transform="scale(0.015625)"/>
      <path id="SimHei-71" d="M 2750 -800 
L 2250 -800 
L 2250 500 
Q 2100 275 1900 162 
Q 1700 50 1425 50 
Q 925 50 575 425 
Q 225 800 225 1525 
Q 225 2250 575 2612 
Q 925 2975 1425 2975 
Q 1700 2975 1900 2875 
Q 2100 2775 2250 2550 
L 2250 2925 
L 2750 2925 
L 2750 -800 
z
M 2250 1525 
Q 2250 2000 2037 2262 
Q 1825 2525 1525 2525 
Q 1150 2525 962 2262 
Q 775 2000 775 1525 
Q 775 1050 962 775 
Q 1150 500 1525 500 
Q 1825 500 2037 775 
Q 2250 1050 2250 1525 
z
" transform="scale(0.015625)"/>
      <path id="SimHei-75" d="M 2800 125 
L 2300 125 
L 2300 650 
Q 2100 375 1862 225 
Q 1625 75 1250 75 
Q 800 75 575 325 
Q 350 575 350 950 
L 350 2925 
L 850 2925 
L 850 1125 
Q 850 825 1000 650 
Q 1150 475 1400 475 
Q 1725 475 2012 812 
Q 2300 1150 2300 1650 
L 2300 2925 
L 2800 2925 
L 2800 125 
z
" transform="scale(0.015625)"/>
      <path id="SimHei-74" d="M 2750 200 
Q 2625 150 2462 112 
Q 2300 75 2025 75 
Q 1575 75 1300 325 
Q 1025 575 1025 1025 
L 1025 2525 
L 175 2525 
L 175 2925 
L 1025 2925 
L 1025 3900 
L 1525 3900 
L 1525 2925 
L 2550 2925 
L 2550 2525 
L 1525 2525 
L 1525 1000 
Q 1525 800 1625 662 
Q 1725 525 2000 525 
Q 2275 525 2450 575 
Q 2625 625 2750 700 
L 2750 200 
z
" transform="scale(0.015625)"/>
      <path id="SimHei-69" d="M 1800 3725 
L 1300 3725 
L 1300 4375 
L 1800 4375 
L 1800 3725 
z
M 1800 125 
L 1300 125 
L 1300 2925 
L 1800 2925 
L 1800 125 
z
" transform="scale(0.015625)"/>
      <path id="SimHei-6f" d="M 2925 1525 
Q 2925 875 2525 475 
Q 2125 75 1575 75 
Q 1025 75 625 475 
Q 225 875 225 1525 
Q 225 2175 625 2575 
Q 1025 2975 1575 2975 
Q 2125 2975 2525 2575 
Q 2925 2175 2925 1525 
z
M 2375 1525 
Q 2375 2025 2125 2275 
Q 1875 2525 1575 2525 
Q 1275 2525 1025 2275 
Q 775 2025 775 1525 
Q 775 1025 1025 775 
Q 1275 525 1575 525 
Q 1875 525 2125 775 
Q 2375 1025 2375 1525 
z
" transform="scale(0.015625)"/>
      <path id="SimHei-3a" d="M 1825 2425 
L 1250 2425 
L 1250 2975 
L 1825 2975 
L 1825 2425 
z
M 1825 125 
L 1250 125 
L 1250 675 
L 1825 675 
L 1825 125 
z
" transform="scale(0.015625)"/>
      <path id="DejaVuSans-Oblique-45" d="M 1081 4666 
L 4031 4666 
L 3928 4134 
L 1606 4134 
L 1338 2753 
L 3566 2753 
L 3463 2222 
L 1234 2222 
L 909 531 
L 3284 531 
L 3181 0 
L 172 0 
L 1081 4666 
z
" transform="scale(0.015625)"/>
      <path id="DejaVuSans-3d" d="M 678 2906 
L 4684 2906 
L 4684 2381 
L 678 2381 
L 678 2906 
z
M 678 1631 
L 4684 1631 
L 4684 1100 
L 678 1100 
L 678 1631 
z
" transform="scale(0.015625)"/>
      <path id="DejaVuSans-Oblique-6d" d="M 5747 2113 
L 5338 0 
L 4763 0 
L 5166 2094 
Q 5191 2228 5203 2325 
Q 5216 2422 5216 2491 
Q 5216 2772 5059 2928 
Q 4903 3084 4622 3084 
Q 4203 3084 3875 2770 
Q 3547 2456 3450 1953 
L 3066 0 
L 2491 0 
L 2900 2094 
Q 2925 2209 2937 2307 
Q 2950 2406 2950 2484 
Q 2950 2769 2794 2926 
Q 2638 3084 2363 3084 
Q 1938 3084 1609 2770 
Q 1281 2456 1184 1953 
L 800 0 
L 225 0 
L 909 3500 
L 1484 3500 
L 1375 2956 
Q 1609 3263 1923 3423 
Q 2238 3584 2597 3584 
Q 2978 3584 3223 3384 
Q 3469 3184 3519 2828 
Q 3781 3197 4126 3390 
Q 4472 3584 4856 3584 
Q 5306 3584 5551 3325 
Q 5797 3066 5797 2591 
Q 5797 2488 5784 2364 
Q 5772 2241 5747 2113 
z
" transform="scale(0.015625)"/>
      <path id="DejaVuSans-Oblique-63" d="M 3431 3366 
L 3316 2797 
Q 3109 2947 2876 3022 
Q 2644 3097 2394 3097 
Q 2119 3097 1870 3000 
Q 1622 2903 1453 2725 
Q 1184 2453 1037 2087 
Q 891 1722 891 1331 
Q 891 859 1127 628 
Q 1363 397 1844 397 
Q 2081 397 2348 469 
Q 2616 541 2906 684 
L 2797 116 
Q 2547 13 2283 -39 
Q 2019 -91 1741 -91 
Q 1044 -91 669 257 
Q 294 606 294 1253 
Q 294 1797 489 2255 
Q 684 2713 1069 3078 
Q 1331 3328 1684 3456 
Q 2038 3584 2456 3584 
Q 2700 3584 2940 3529 
Q 3181 3475 3431 3366 
z
" transform="scale(0.015625)"/>
      <path id="DejaVuSans-32" d="M 1228 531 
L 3431 531 
L 3431 0 
L 469 0 
L 469 531 
Q 828 903 1448 1529 
Q 2069 2156 2228 2338 
Q 2531 2678 2651 2914 
Q 2772 3150 2772 3378 
Q 2772 3750 2511 3984 
Q 2250 4219 1831 4219 
Q 1534 4219 1204 4116 
Q 875 4013 500 3803 
L 500 4441 
Q 881 4594 1212 4672 
Q 1544 4750 1819 4750 
Q 2544 4750 2975 4387 
Q 3406 4025 3406 3419 
Q 3406 3131 3298 2873 
Q 3191 2616 2906 2266 
Q 2828 2175 2409 1742 
Q 1991 1309 1228 531 
z
" transform="scale(0.015625)"/>
     </defs>
     <use xlink:href="#SimHei-61" transform="translate(0 0.765625)"/>
     <use xlink:href="#SimHei-6e" transform="translate(50 0.765625)"/>
     <use xlink:href="#SimHei-20" transform="translate(100 0.765625)"/>
     <use xlink:href="#SimHei-65" transform="translate(150 0.765625)"/>
     <use xlink:href="#SimHei-71" transform="translate(200 0.765625)"/>
     <use xlink:href="#SimHei-75" transform="translate(250 0.765625)"/>
     <use xlink:href="#SimHei-61" transform="translate(300 0.765625)"/>
     <use xlink:href="#SimHei-74" transform="translate(350 0.765625)"/>
     <use xlink:href="#SimHei-69" transform="translate(400 0.765625)"/>
     <use xlink:href="#SimHei-6f" transform="translate(450 0.765625)"/>
     <use xlink:href="#SimHei-6e" transform="translate(500 0.765625)"/>
     <use xlink:href="#SimHei-3a" transform="translate(550 0.765625)"/>
     <use xlink:href="#SimHei-20" transform="translate(600 0.765625)"/>
     <use xlink:href="#DejaVuSans-Oblique-45" transform="translate(650 0.765625)"/>
     <use xlink:href="#DejaVuSans-3d" transform="translate(732.666016 0.765625)"/>
     <use xlink:href="#DejaVuSans-Oblique-6d" transform="translate(835.9375 0.765625)"/>
     <use xlink:href="#DejaVuSans-Oblique-63" transform="translate(933.349609 0.765625)"/>
     <use xlink:href="#DejaVuSans-32" transform="translate(992.979974 39.046875) scale(0.7)"/>
    </g>
   </g>
   <g id="text_17">
    <!-- 网址：c.biancheng.net -->
    <g style="fill: #008000" transform="translate(200.448 304.37844) scale(0.15 -0.15)">
     <defs>
      <path id="SimHei-5740" d="M 3350 3900 
Q 3325 3525 3300 2925 
L 3300 175 
L 4150 175 
L 4150 4225 
Q 4150 4675 4125 5150 
L 4675 5150 
Q 4650 4675 4650 4225 
L 4650 3250 
Q 5375 3250 5900 3275 
L 5900 2800 
Q 5400 2825 4650 2825 
L 4650 175 
L 5150 175 
Q 5625 175 6150 200 
L 6150 -275 
Q 5625 -250 5175 -250 
L 2975 -250 
Q 2375 -250 1900 -275 
L 1900 200 
Q 2375 175 2825 175 
L 2825 2950 
Q 2825 3500 2800 3900 
L 3350 3900 
z
M 2350 800 
Q 1625 550 1225 412 
Q 825 275 400 75 
Q 325 400 225 700 
Q 450 750 687 812 
Q 925 875 1075 925 
L 1075 3000 
L 675 3000 
Q 475 3000 300 2975 
L 300 3475 
Q 450 3450 650 3450 
L 1075 3450 
L 1075 4250 
Q 1075 4675 1050 5050 
L 1600 5050 
Q 1575 4675 1575 4250 
L 1575 3450 
L 1700 3450 
Q 1975 3450 2350 3475 
L 2350 3000 
Q 1975 3025 1700 3025 
L 1575 3025 
L 1575 1050 
Q 1850 1150 2400 1325 
Q 2350 1100 2350 800 
z
" transform="scale(0.015625)"/>
      <path id="SimHei-ff1a" d="M 1200 2425 
L 2025 2425 
L 2025 1600 
L 1200 1600 
L 1200 2425 
z
M 1200 825 
L 2025 825 
L 2025 0 
L 1200 0 
L 1200 825 
z
" transform="scale(0.015625)"/>
      <path id="SimHei-63" d="M 2850 1250 
Q 2850 725 2487 400 
Q 2125 75 1575 75 
Q 1025 75 625 462 
Q 225 850 225 1525 
Q 225 2200 625 2587 
Q 1025 2975 1575 2975 
Q 2125 2975 2450 2687 
Q 2775 2400 2775 2000 
L 2225 2000 
Q 2200 2300 2012 2412 
Q 1825 2525 1575 2525 
Q 1275 2525 1025 2287 
Q 775 2050 775 1525 
Q 775 1000 1025 762 
Q 1275 525 1575 525 
Q 1900 525 2100 700 
Q 2300 875 2300 1250 
L 2850 1250 
z
" transform="scale(0.015625)"/>
      <path id="SimHei-2e" d="M 1075 125 
L 500 125 
L 500 675 
L 1075 675 
L 1075 125 
z
" transform="scale(0.015625)"/>
      <path id="SimHei-68" d="M 2800 125 
L 2300 125 
L 2300 1925 
Q 2300 2225 2150 2400 
Q 2000 2575 1750 2575 
Q 1425 2575 1137 2237 
Q 850 1900 850 1400 
L 850 125 
L 350 125 
L 350 4400 
L 850 4400 
L 850 2400 
Q 1050 2675 1287 2825 
Q 1525 2975 1900 2975 
Q 2350 2975 2575 2725 
Q 2800 2475 2800 2100 
L 2800 125 
z
" transform="scale(0.015625)"/>
      <path id="SimHei-67" d="M 2975 2500 
Q 2800 2550 2637 2562 
Q 2475 2575 2300 2525 
Q 2375 2450 2425 2337 
Q 2475 2225 2475 2000 
Q 2475 1575 2187 1300 
Q 1900 1025 1475 1025 
Q 1375 1025 1212 1062 
Q 1050 1100 950 1150 
Q 875 1100 850 1050 
Q 825 1000 825 925 
Q 825 800 1000 737 
Q 1175 675 1625 675 
Q 2350 675 2612 475 
Q 2875 275 2875 -25 
Q 2875 -425 2487 -612 
Q 2100 -800 1575 -800 
Q 900 -800 575 -625 
Q 250 -450 250 -150 
Q 250 0 375 150 
Q 500 300 700 400 
Q 550 475 462 587 
Q 375 700 375 875 
Q 375 1025 487 1137 
Q 600 1250 750 1325 
Q 625 1450 550 1625 
Q 475 1800 475 2000 
Q 475 2425 762 2700 
Q 1050 2975 1475 2975 
Q 1700 2975 1862 2912 
Q 2025 2850 2150 2725 
Q 2350 2875 2550 2937 
Q 2750 3000 2975 2975 
L 2975 2500 
z
M 1975 2000 
Q 1975 2250 1850 2400 
Q 1725 2550 1475 2550 
Q 1225 2550 1100 2400 
Q 975 2250 975 2000 
Q 975 1750 1100 1600 
Q 1225 1450 1475 1450 
Q 1725 1450 1850 1600 
Q 1975 1750 1975 2000 
z
M 2400 -75 
Q 2400 25 2287 125 
Q 2175 225 1725 225 
Q 1625 225 1450 237 
Q 1275 250 1050 275 
Q 850 200 775 100 
Q 700 0 700 -100 
Q 700 -250 900 -350 
Q 1100 -450 1600 -450 
Q 2025 -450 2212 -337 
Q 2400 -225 2400 -75 
z
" transform="scale(0.015625)"/>
     </defs>
     <use xlink:href="#SimHei-7f51"/>
     <use xlink:href="#SimHei-5740" x="100"/>
     <use xlink:href="#SimHei-ff1a" x="200"/>
     <use xlink:href="#SimHei-63" x="300"/>
     <use xlink:href="#SimHei-2e" x="350"/>
     <use xlink:href="#SimHei-62" x="400"/>
     <use xlink:href="#SimHei-69" x="450"/>
     <use xlink:href="#SimHei-61" x="500"/>
     <use xlink:href="#SimHei-6e" x="550"/>
     <use xlink:href="#SimHei-63" x="600"/>
     <use xlink:href="#SimHei-68" x="650"/>
     <use xlink:href="#SimHei-65" x="700"/>
     <use xlink:href="#SimHei-6e" x="750"/>
     <use xlink:href="#SimHei-67" x="800"/>
     <use xlink:href="#SimHei-2e" x="850"/>
     <use xlink:href="#SimHei-6e" x="900"/>
     <use xlink:href="#SimHei-65" x="950"/>
     <use xlink:href="#SimHei-74" x="1000"/>
    </g>
   </g>
   <g id="patch_8">
    <path d="M 162.076989 213.0744 
Q 150.728813 238.045854 139.380636 263.017307 
L 143.022239 264.672219 
Q 137.808333 268.894179 132.594428 273.116139 
Q 132.34593 266.411812 132.097432 259.707484 
L 135.739034 261.362396 
Q 147.08721 236.390942 158.435387 211.419489 
L 162.076989 213.0744 
z
" style="fill: #0000ff; stroke: #000000; stroke-linecap: round"/>
   </g>
   <g id="text_18">
    <!-- C语言中文网 -->
    <g transform="translate(164.736 201.1392) scale(0.1 -0.1)">
     <defs>
      <path id="SimHei-6587" d="M 1250 3450 
Q 725 3450 350 3400 
L 350 3925 
Q 925 3900 1400 3900 
L 4950 3900 
Q 5400 3900 6025 3925 
L 6025 3400 
Q 5400 3425 4625 3425 
Q 4500 2650 4175 1987 
Q 3850 1325 3475 900 
Q 3950 475 4725 212 
Q 5500 -50 6075 -100 
Q 5850 -275 5675 -625 
Q 5250 -525 4575 -275 
Q 3900 -25 3125 575 
Q 2100 -275 675 -675 
Q 625 -450 325 -175 
Q 750 -125 1487 137 
Q 2225 400 2750 875 
Q 1875 1775 1500 3450 
L 1250 3450 
z
M 2025 3425 
Q 2225 2075 3100 1200 
Q 3900 2175 4100 3425 
L 2025 3425 
z
M 2850 5250 
Q 3125 4825 3500 4175 
Q 3300 4125 3050 3925 
Q 2700 4575 2425 5000 
Q 2600 5050 2850 5250 
z
" transform="scale(0.015625)"/>
     </defs>
     <use xlink:href="#SimHei-43"/>
     <use xlink:href="#SimHei-8bed" x="50"/>
     <use xlink:href="#SimHei-8a00" x="150"/>
     <use xlink:href="#SimHei-4e2d" x="250"/>
     <use xlink:href="#SimHei-6587" x="350"/>
     <use xlink:href="#SimHei-7f51" x="450"/>
    </g>
   </g>
   <g id="text_19">
    <!-- axes title -->
    <g transform="translate(206.16 35.472) scale(0.12 -0.12)">
     <defs>
      <path id="SimHei-73" d="M 2750 900 
Q 2750 500 2437 287 
Q 2125 75 1650 75 
Q 1050 75 725 312 
Q 400 550 400 1000 
L 900 1000 
Q 900 700 1112 600 
Q 1325 500 1625 500 
Q 1925 500 2075 612 
Q 2225 725 2225 900 
Q 2225 1025 2100 1150 
Q 1975 1275 1475 1350 
Q 900 1425 687 1637 
Q 475 1850 475 2200 
Q 475 2500 762 2737 
Q 1050 2975 1600 2975 
Q 2100 2975 2387 2750 
Q 2675 2525 2675 2150 
L 2175 2150 
Q 2175 2375 2012 2462 
Q 1850 2550 1600 2550 
Q 1275 2550 1137 2437 
Q 1000 2325 1000 2175 
Q 1000 2000 1125 1900 
Q 1250 1800 1650 1750 
Q 2300 1650 2525 1437 
Q 2750 1225 2750 900 
z
" transform="scale(0.015625)"/>
     </defs>
     <use xlink:href="#SimHei-61"/>
     <use xlink:href="#SimHei-78" x="50"/>
     <use xlink:href="#SimHei-65" x="100"/>
     <use xlink:href="#SimHei-73" x="150"/>
     <use xlink:href="#SimHei-20" x="200"/>
     <use xlink:href="#SimHei-74" x="250"/>
     <use xlink:href="#SimHei-69" x="300"/>
     <use xlink:href="#SimHei-74" x="350"/>
     <use xlink:href="#SimHei-6c" x="400"/>
     <use xlink:href="#SimHei-65" x="450"/>
    </g>
   </g>
  </g>
 </g>
 <defs>
  <clipPath id="p4f9f0afb6e">
   <rect x="57.6" y="41.472" width="357.12" height="266.112"/>
  </clipPath>
 </defs>
</svg>
