<?xml version="1.0" encoding="utf-8" standalone="no"?>
<!DOCTYPE svg PUBLIC "-//W3C//DTD SVG 1.1//EN"
  "http://www.w3.org/Graphics/SVG/1.1/DTD/svg11.dtd">
<svg xmlns:xlink="http://www.w3.org/1999/xlink" width="460.8pt" height="345.6pt" viewBox="0 0 460.8 345.6" xmlns="http://www.w3.org/2000/svg" version="1.1">
 <metadata>
  <rdf:RDF xmlns:dc="http://purl.org/dc/elements/1.1/" xmlns:cc="http://creativecommons.org/ns#" xmlns:rdf="http://www.w3.org/1999/02/22-rdf-syntax-ns#">
   <cc:Work>
    <dc:type rdf:resource="http://purl.org/dc/dcmitype/StillImage"/>
    <dc:date>2024-12-22T21:15:44.037659</dc:date>
    <dc:format>image/svg+xml</dc:format>
    <dc:creator>
     <cc:Agent>
      <dc:title>Matplotlib v3.9.4, https://matplotlib.org/</dc:title>
     </cc:Agent>
    </dc:creator>
   </cc:Work>
  </rdf:RDF>
 </metadata>
 <defs>
  <style type="text/css">*{stroke-linejoin: round; stroke-linecap: butt}</style>
 </defs>
 <g id="figure_1">
  <g id="patch_1">
   <path d="M 0 345.6 
L 460.8 345.6 
L 460.8 0 
L 0 0 
z
" style="fill: #ffffff"/>
  </g>
  <g id="axes_1">
   <g id="patch_2">
    <path d="M 57.6 307.584 
L 414.72 307.584 
L 414.72 41.472 
L 57.6 41.472 
z
" style="fill: #ffffff"/>
   </g>
   <g id="PolyCollection_1">
    <defs>
     <path id="m943ddd69bb" d="M 57.6 -171.072 
L 57.6 -171.072 
L 61.207273 -175.291467 
L 64.814545 -179.493943 
L 68.421818 -183.662507 
L 72.029091 -187.780373 
L 75.636364 -191.830961 
L 79.243636 -195.79796 
L 82.850909 -199.665396 
L 86.458182 -203.417696 
L 90.065455 -207.039752 
L 93.672727 -210.516979 
L 97.28 -213.835374 
L 100.887273 -216.981576 
L 104.494545 -219.942917 
L 108.101818 -222.707472 
L 111.709091 -225.264109 
L 115.316364 -227.602533 
L 118.923636 -229.713329 
L 122.530909 -231.587997 
L 126.138182 -233.218989 
L 129.745455 -234.599736 
L 133.352727 -235.72468 
L 136.96 -236.58929 
L 140.567273 -237.190085 
L 144.174545 -237.524646 
L 147.781818 -237.591626 
L 151.389091 -237.390755 
L 154.996364 -236.922841 
L 158.603636 -236.189769 
L 162.210909 -235.194491 
L 165.818182 -233.941014 
L 169.425455 -232.434386 
L 173.032727 -230.680674 
L 176.64 -228.686938 
L 180.247273 -226.461207 
L 183.854545 -224.012444 
L 187.461818 -221.350508 
L 191.069091 -218.486118 
L 194.676364 -215.430808 
L 198.283636 -212.196881 
L 201.890909 -208.797359 
L 205.498182 -205.24593 
L 209.105455 -201.556894 
L 212.712727 -197.745107 
L 216.32 -193.825916 
L 219.927273 -189.815104 
L 223.534545 -185.728819 
L 227.141818 -181.583517 
L 230.749091 -177.395888 
L 234.356364 -173.182796 
L 237.963636 -168.961204 
L 241.570909 -164.748112 
L 245.178182 -160.560483 
L 248.785455 -156.415181 
L 252.392727 -152.328896 
L 256 -148.318084 
L 259.607273 -144.398893 
L 263.214545 -140.587106 
L 266.821818 -136.89807 
L 270.429091 -133.346641 
L 274.036364 -129.947119 
L 277.643636 -126.713192 
L 281.250909 -123.657882 
L 284.858182 -120.793492 
L 288.465455 -118.131556 
L 292.072727 -115.682793 
L 295.68 -113.457062 
L 299.287273 -111.463326 
L 302.894545 -109.709614 
L 306.501818 -108.202986 
L 310.109091 -106.949509 
L 313.716364 -105.954231 
L 317.323636 -105.221159 
L 320.930909 -104.753245 
L 324.538182 -104.552374 
L 328.145455 -104.619354 
L 331.752727 -104.953915 
L 335.36 -105.55471 
L 338.967273 -106.41932 
L 342.574545 -107.544264 
L 346.181818 -108.925011 
L 349.789091 -110.556003 
L 353.396364 -112.430671 
L 357.003636 -114.541467 
L 360.610909 -116.879891 
L 364.218182 -119.436528 
L 367.825455 -122.201083 
L 371.432727 -125.162424 
L 375.04 -128.308626 
L 378.647273 -131.627021 
L 382.254545 -135.104248 
L 385.861818 -138.726304 
L 389.469091 -142.478604 
L 393.076364 -146.34604 
L 396.683636 -150.313039 
L 400.290909 -154.363627 
L 403.898182 -158.481493 
L 407.505455 -162.650057 
L 411.112727 -166.852533 
L 414.72 -171.072 
L 414.72 -171.072 
L 414.72 -171.072 
L 411.112727 -171.072 
L 407.505455 -171.072 
L 403.898182 -171.072 
L 400.290909 -171.072 
L 396.683636 -171.072 
L 393.076364 -171.072 
L 389.469091 -171.072 
L 385.861818 -171.072 
L 382.254545 -171.072 
L 378.647273 -171.072 
L 375.04 -171.072 
L 371.432727 -171.072 
L 367.825455 -171.072 
L 364.218182 -171.072 
L 360.610909 -171.072 
L 357.003636 -171.072 
L 353.396364 -171.072 
L 349.789091 -171.072 
L 346.181818 -171.072 
L 342.574545 -171.072 
L 338.967273 -171.072 
L 335.36 -171.072 
L 331.752727 -171.072 
L 328.145455 -171.072 
L 324.538182 -171.072 
L 320.930909 -171.072 
L 317.323636 -171.072 
L 313.716364 -171.072 
L 310.109091 -171.072 
L 306.501818 -171.072 
L 302.894545 -171.072 
L 299.287273 -171.072 
L 295.68 -171.072 
L 292.072727 -171.072 
L 288.465455 -171.072 
L 284.858182 -171.072 
L 281.250909 -171.072 
L 277.643636 -171.072 
L 274.036364 -171.072 
L 270.429091 -171.072 
L 266.821818 -171.072 
L 263.214545 -171.072 
L 259.607273 -171.072 
L 256 -171.072 
L 252.392727 -171.072 
L 248.785455 -171.072 
L 245.178182 -171.072 
L 241.570909 -171.072 
L 237.963636 -171.072 
L 234.356364 -171.072 
L 230.749091 -171.072 
L 227.141818 -171.072 
L 223.534545 -171.072 
L 219.927273 -171.072 
L 216.32 -171.072 
L 212.712727 -171.072 
L 209.105455 -171.072 
L 205.498182 -171.072 
L 201.890909 -171.072 
L 198.283636 -171.072 
L 194.676364 -171.072 
L 191.069091 -171.072 
L 187.461818 -171.072 
L 183.854545 -171.072 
L 180.247273 -171.072 
L 176.64 -171.072 
L 173.032727 -171.072 
L 169.425455 -171.072 
L 165.818182 -171.072 
L 162.210909 -171.072 
L 158.603636 -171.072 
L 154.996364 -171.072 
L 151.389091 -171.072 
L 147.781818 -171.072 
L 144.174545 -171.072 
L 140.567273 -171.072 
L 136.96 -171.072 
L 133.352727 -171.072 
L 129.745455 -171.072 
L 126.138182 -171.072 
L 122.530909 -171.072 
L 118.923636 -171.072 
L 115.316364 -171.072 
L 111.709091 -171.072 
L 108.101818 -171.072 
L 104.494545 -171.072 
L 100.887273 -171.072 
L 97.28 -171.072 
L 93.672727 -171.072 
L 90.065455 -171.072 
L 86.458182 -171.072 
L 82.850909 -171.072 
L 79.243636 -171.072 
L 75.636364 -171.072 
L 72.029091 -171.072 
L 68.421818 -171.072 
L 64.814545 -171.072 
L 61.207273 -171.072 
L 57.6 -171.072 
z
" style="stroke: #ff0000"/>
    </defs>
    <g clip-path="url(#pfcb3a57990)">
     <use xlink:href="#m943ddd69bb" x="0" y="345.6" style="fill: #ff0000; stroke: #ff0000"/>
    </g>
   </g>
   <g id="matplotlib.axis_1">
    <g id="xtick_1">
     <g id="line2d_1">
      <defs>
       <path id="mb605153ae6" d="M 0 0 
L 0 3.5 
" style="stroke: #000000; stroke-width: 0.8"/>
      </defs>
      <g>
       <use xlink:href="#mb605153ae6" x="57.6" y="307.584" style="stroke: #000000; stroke-width: 0.8"/>
      </g>
     </g>
     <g id="text_1">
      <!-- 0 -->
      <g transform="translate(55.1 321.459) scale(0.1 -0.1)">
       <defs>
        <path id="SimHei-30" d="M 225 2537 
Q 250 3200 412 3587 
Q 575 3975 875 4225 
Q 1175 4475 1612 4475 
Q 2050 4475 2375 4112 
Q 2700 3750 2800 3200 
Q 2900 2650 2862 1937 
Q 2825 1225 2612 775 
Q 2400 325 1975 150 
Q 1550 -25 1125 187 
Q 700 400 525 750 
Q 350 1100 275 1487 
Q 200 1875 225 2537 
z
M 750 2687 
Q 675 2000 800 1462 
Q 925 925 1212 700 
Q 1500 475 1800 612 
Q 2100 750 2237 1162 
Q 2375 1575 2375 2062 
Q 2375 2550 2337 2950 
Q 2300 3350 2112 3675 
Q 1925 4000 1612 4012 
Q 1300 4025 1062 3700 
Q 825 3375 750 2687 
z
" transform="scale(0.015625)"/>
       </defs>
       <use xlink:href="#SimHei-30"/>
      </g>
     </g>
    </g>
    <g id="xtick_2">
     <g id="line2d_2">
      <g>
       <use xlink:href="#mb605153ae6" x="114.437413" y="307.584" style="stroke: #000000; stroke-width: 0.8"/>
      </g>
     </g>
     <g id="text_2">
      <!-- 1 -->
      <g transform="translate(111.937413 321.459) scale(0.1 -0.1)">
       <defs>
        <path id="SimHei-31" d="M 1400 3600 
Q 1075 3275 575 2975 
L 575 3450 
Q 1200 3875 1600 4450 
L 1900 4450 
L 1900 150 
L 1400 150 
L 1400 3600 
z
" transform="scale(0.015625)"/>
       </defs>
       <use xlink:href="#SimHei-31"/>
      </g>
     </g>
    </g>
    <g id="xtick_3">
     <g id="line2d_3">
      <g>
       <use xlink:href="#mb605153ae6" x="171.274827" y="307.584" style="stroke: #000000; stroke-width: 0.8"/>
      </g>
     </g>
     <g id="text_3">
      <!-- 2 -->
      <g transform="translate(168.774827 321.459) scale(0.1 -0.1)">
       <defs>
        <path id="SimHei-32" d="M 300 250 
Q 325 625 650 925 
Q 975 1225 1475 1862 
Q 1975 2500 2125 2850 
Q 2275 3200 2237 3450 
Q 2200 3700 2000 3862 
Q 1800 4025 1537 4000 
Q 1275 3975 1037 3800 
Q 800 3625 675 3275 
L 200 3350 
Q 400 3925 712 4187 
Q 1025 4450 1450 4475 
Q 1700 4500 1900 4462 
Q 2100 4425 2312 4287 
Q 2525 4150 2662 3875 
Q 2800 3600 2762 3212 
Q 2725 2825 2375 2287 
Q 2025 1750 1025 600 
L 2825 600 
L 2825 150 
L 300 150 
L 300 250 
z
" transform="scale(0.015625)"/>
       </defs>
       <use xlink:href="#SimHei-32"/>
      </g>
     </g>
    </g>
    <g id="xtick_4">
     <g id="line2d_4">
      <g>
       <use xlink:href="#mb605153ae6" x="228.11224" y="307.584" style="stroke: #000000; stroke-width: 0.8"/>
      </g>
     </g>
     <g id="text_4">
      <!-- 3 -->
      <g transform="translate(225.61224 321.459) scale(0.1 -0.1)">
       <defs>
        <path id="SimHei-33" d="M 250 1225 
L 700 1300 
Q 800 975 1025 762 
Q 1250 550 1587 562 
Q 1925 575 2125 837 
Q 2325 1100 2300 1437 
Q 2275 1775 2037 1962 
Q 1800 2150 1275 2225 
L 1275 2550 
Q 1800 2600 2037 2825 
Q 2275 3050 2250 3412 
Q 2225 3775 1925 3937 
Q 1625 4100 1287 3975 
Q 950 3850 750 3275 
L 300 3350 
Q 450 3800 712 4100 
Q 975 4400 1425 4450 
Q 1875 4500 2212 4337 
Q 2550 4175 2687 3837 
Q 2825 3500 2725 3100 
Q 2625 2700 2150 2400 
Q 2500 2250 2687 1950 
Q 2875 1650 2812 1162 
Q 2750 675 2375 375 
Q 2000 75 1525 87 
Q 1050 100 700 387 
Q 350 675 250 1225 
z
" transform="scale(0.015625)"/>
       </defs>
       <use xlink:href="#SimHei-33"/>
      </g>
     </g>
    </g>
    <g id="xtick_5">
     <g id="line2d_5">
      <g>
       <use xlink:href="#mb605153ae6" x="284.949653" y="307.584" style="stroke: #000000; stroke-width: 0.8"/>
      </g>
     </g>
     <g id="text_5">
      <!-- 4 -->
      <g transform="translate(282.449653 321.459) scale(0.1 -0.1)">
       <defs>
        <path id="SimHei-34" d="M 2000 1100 
L 75 1100 
L 75 1525 
L 2100 4450 
L 2475 4450 
L 2475 1525 
L 3075 1525 
L 3075 1100 
L 2475 1100 
L 2475 150 
L 2000 150 
L 2000 1100 
z
M 2000 1525 
L 2000 3500 
L 600 1525 
L 2000 1525 
z
" transform="scale(0.015625)"/>
       </defs>
       <use xlink:href="#SimHei-34"/>
      </g>
     </g>
    </g>
    <g id="xtick_6">
     <g id="line2d_6">
      <g>
       <use xlink:href="#mb605153ae6" x="341.787066" y="307.584" style="stroke: #000000; stroke-width: 0.8"/>
      </g>
     </g>
     <g id="text_6">
      <!-- 5 -->
      <g transform="translate(339.287066 321.459) scale(0.1 -0.1)">
       <defs>
        <path id="SimHei-35" d="M 550 1325 
Q 725 650 1150 575 
Q 1575 500 1837 662 
Q 2100 825 2212 1087 
Q 2325 1350 2312 1675 
Q 2300 2000 2137 2225 
Q 1975 2450 1725 2525 
Q 1475 2600 1162 2525 
Q 850 2450 650 2175 
L 225 2225 
Q 275 2375 700 4375 
L 2675 4375 
L 2675 3925 
L 1075 3925 
Q 950 3250 825 2850 
Q 1200 3025 1525 3012 
Q 1850 3000 2150 2862 
Q 2450 2725 2587 2487 
Q 2725 2250 2787 2012 
Q 2850 1775 2837 1500 
Q 2825 1225 2725 937 
Q 2625 650 2425 462 
Q 2225 275 1937 162 
Q 1650 50 1275 75 
Q 900 100 562 350 
Q 225 600 100 1200 
L 550 1325 
z
" transform="scale(0.015625)"/>
       </defs>
       <use xlink:href="#SimHei-35"/>
      </g>
     </g>
    </g>
    <g id="xtick_7">
     <g id="line2d_7">
      <g>
       <use xlink:href="#mb605153ae6" x="398.62448" y="307.584" style="stroke: #000000; stroke-width: 0.8"/>
      </g>
     </g>
     <g id="text_7">
      <!-- 6 -->
      <g transform="translate(396.12448 321.459) scale(0.1 -0.1)">
       <defs>
        <path id="SimHei-36" d="M 250 1612 
Q 275 1975 387 2225 
Q 500 2475 725 2850 
L 1750 4450 
L 2325 4450 
L 1275 2800 
Q 1950 2975 2350 2750 
Q 2750 2525 2887 2237 
Q 3025 1950 3037 1612 
Q 3050 1275 2937 950 
Q 2825 625 2537 362 
Q 2250 100 1737 75 
Q 1225 50 862 262 
Q 500 475 362 862 
Q 225 1250 250 1612 
z
M 1025 787 
Q 1250 550 1625 525 
Q 2000 500 2250 775 
Q 2500 1050 2500 1575 
Q 2500 2100 2187 2300 
Q 1875 2500 1487 2450 
Q 1100 2400 925 2075 
Q 750 1750 775 1387 
Q 800 1025 1025 787 
z
" transform="scale(0.015625)"/>
       </defs>
       <use xlink:href="#SimHei-36"/>
      </g>
     </g>
    </g>
   </g>
   <g id="matplotlib.axis_2">
    <g id="ytick_1">
     <g id="line2d_8">
      <defs>
       <path id="m7691ce131f" d="M 0 0 
L -3.5 0 
" style="stroke: #000000; stroke-width: 0.8"/>
      </defs>
      <g>
       <use xlink:href="#m7691ce131f" x="57.6" y="307.584" style="stroke: #000000; stroke-width: 0.8"/>
      </g>
     </g>
     <g id="text_8">
      <!-- -2.0 -->
      <g transform="translate(30.6 311.0215) scale(0.1 -0.1)">
       <defs>
        <path id="SimHei-2d" d="M 2975 2125 
L 125 2125 
L 125 2525 
L 2975 2525 
L 2975 2125 
z
" transform="scale(0.015625)"/>
        <path id="SimHei-2e" d="M 1075 125 
L 500 125 
L 500 675 
L 1075 675 
L 1075 125 
z
" transform="scale(0.015625)"/>
       </defs>
       <use xlink:href="#SimHei-2d"/>
       <use xlink:href="#SimHei-32" x="50"/>
       <use xlink:href="#SimHei-2e" x="100"/>
       <use xlink:href="#SimHei-30" x="150"/>
      </g>
     </g>
    </g>
    <g id="ytick_2">
     <g id="line2d_9">
      <g>
       <use xlink:href="#m7691ce131f" x="57.6" y="274.32" style="stroke: #000000; stroke-width: 0.8"/>
      </g>
     </g>
     <g id="text_9">
      <!-- -1.5 -->
      <g transform="translate(30.6 277.7575) scale(0.1 -0.1)">
       <use xlink:href="#SimHei-2d"/>
       <use xlink:href="#SimHei-31" x="50"/>
       <use xlink:href="#SimHei-2e" x="100"/>
       <use xlink:href="#SimHei-35" x="150"/>
      </g>
     </g>
    </g>
    <g id="ytick_3">
     <g id="line2d_10">
      <g>
       <use xlink:href="#m7691ce131f" x="57.6" y="241.056" style="stroke: #000000; stroke-width: 0.8"/>
      </g>
     </g>
     <g id="text_10">
      <!-- -1.0 -->
      <g transform="translate(30.6 244.4935) scale(0.1 -0.1)">
       <use xlink:href="#SimHei-2d"/>
       <use xlink:href="#SimHei-31" x="50"/>
       <use xlink:href="#SimHei-2e" x="100"/>
       <use xlink:href="#SimHei-30" x="150"/>
      </g>
     </g>
    </g>
    <g id="ytick_4">
     <g id="line2d_11">
      <g>
       <use xlink:href="#m7691ce131f" x="57.6" y="207.792" style="stroke: #000000; stroke-width: 0.8"/>
      </g>
     </g>
     <g id="text_11">
      <!-- -0.5 -->
      <g transform="translate(30.6 211.2295) scale(0.1 -0.1)">
       <use xlink:href="#SimHei-2d"/>
       <use xlink:href="#SimHei-30" x="50"/>
       <use xlink:href="#SimHei-2e" x="100"/>
       <use xlink:href="#SimHei-35" x="150"/>
      </g>
     </g>
    </g>
    <g id="ytick_5">
     <g id="line2d_12">
      <g>
       <use xlink:href="#m7691ce131f" x="57.6" y="174.528" style="stroke: #000000; stroke-width: 0.8"/>
      </g>
     </g>
     <g id="text_12">
      <!-- 0.0 -->
      <g transform="translate(35.6 177.9655) scale(0.1 -0.1)">
       <use xlink:href="#SimHei-30"/>
       <use xlink:href="#SimHei-2e" x="50"/>
       <use xlink:href="#SimHei-30" x="100"/>
      </g>
     </g>
    </g>
    <g id="ytick_6">
     <g id="line2d_13">
      <g>
       <use xlink:href="#m7691ce131f" x="57.6" y="141.264" style="stroke: #000000; stroke-width: 0.8"/>
      </g>
     </g>
     <g id="text_13">
      <!-- 0.5 -->
      <g transform="translate(35.6 144.7015) scale(0.1 -0.1)">
       <use xlink:href="#SimHei-30"/>
       <use xlink:href="#SimHei-2e" x="50"/>
       <use xlink:href="#SimHei-35" x="100"/>
      </g>
     </g>
    </g>
    <g id="ytick_7">
     <g id="line2d_14">
      <g>
       <use xlink:href="#m7691ce131f" x="57.6" y="108" style="stroke: #000000; stroke-width: 0.8"/>
      </g>
     </g>
     <g id="text_14">
      <!-- 1.0 -->
      <g transform="translate(35.6 111.4375) scale(0.1 -0.1)">
       <use xlink:href="#SimHei-31"/>
       <use xlink:href="#SimHei-2e" x="50"/>
       <use xlink:href="#SimHei-30" x="100"/>
      </g>
     </g>
    </g>
    <g id="ytick_8">
     <g id="line2d_15">
      <g>
       <use xlink:href="#m7691ce131f" x="57.6" y="74.736" style="stroke: #000000; stroke-width: 0.8"/>
      </g>
     </g>
     <g id="text_15">
      <!-- 1.5 -->
      <g transform="translate(35.6 78.1735) scale(0.1 -0.1)">
       <use xlink:href="#SimHei-31"/>
       <use xlink:href="#SimHei-2e" x="50"/>
       <use xlink:href="#SimHei-35" x="100"/>
      </g>
     </g>
    </g>
    <g id="ytick_9">
     <g id="line2d_16">
      <g>
       <use xlink:href="#m7691ce131f" x="57.6" y="41.472" style="stroke: #000000; stroke-width: 0.8"/>
      </g>
     </g>
     <g id="text_16">
      <!-- 2.0 -->
      <g transform="translate(35.6 44.9095) scale(0.1 -0.1)">
       <use xlink:href="#SimHei-32"/>
       <use xlink:href="#SimHei-2e" x="50"/>
       <use xlink:href="#SimHei-30" x="100"/>
      </g>
     </g>
    </g>
   </g>
   <g id="line2d_17">
    <path d="M 57.6 174.528 
L 61.207273 170.308533 
L 64.814545 166.106057 
L 68.421818 161.937493 
L 72.029091 157.819627 
L 75.636364 153.769039 
L 79.243636 149.80204 
L 82.850909 145.934604 
L 86.458182 142.182304 
L 90.065455 138.560248 
L 93.672727 135.083021 
L 97.28 131.764626 
L 100.887273 128.618424 
L 104.494545 125.657083 
L 108.101818 122.892528 
L 111.709091 120.335891 
L 115.316364 117.997467 
L 118.923636 115.886671 
L 122.530909 114.012003 
L 126.138182 112.381011 
L 129.745455 111.000264 
L 133.352727 109.87532 
L 136.96 109.01071 
L 140.567273 108.409915 
L 144.174545 108.075354 
L 147.781818 108.008374 
L 151.389091 108.209245 
L 154.996364 108.677159 
L 158.603636 109.410231 
L 162.210909 110.405509 
L 165.818182 111.658986 
L 169.425455 113.165614 
L 173.032727 114.919326 
L 176.64 116.913062 
L 180.247273 119.138793 
L 183.854545 121.587556 
L 187.461818 124.249492 
L 191.069091 127.113882 
L 194.676364 130.169192 
L 198.283636 133.403119 
L 201.890909 136.802641 
L 205.498182 140.35407 
L 209.105455 144.043106 
L 212.712727 147.854893 
L 216.32 151.774084 
L 219.927273 155.784896 
L 223.534545 159.871181 
L 227.141818 164.016483 
L 230.749091 168.204112 
L 234.356364 172.417204 
L 237.963636 176.638796 
L 241.570909 180.851888 
L 245.178182 185.039517 
L 248.785455 189.184819 
L 252.392727 193.271104 
L 256 197.281916 
L 259.607273 201.201107 
L 263.214545 205.012894 
L 266.821818 208.70193 
L 270.429091 212.253359 
L 274.036364 215.652881 
L 277.643636 218.886808 
L 281.250909 221.942118 
L 284.858182 224.806508 
L 288.465455 227.468444 
L 292.072727 229.917207 
L 295.68 232.142938 
L 299.287273 234.136674 
L 302.894545 235.890386 
L 306.501818 237.397014 
L 310.109091 238.650491 
L 313.716364 239.645769 
L 317.323636 240.378841 
L 320.930909 240.846755 
L 324.538182 241.047626 
L 328.145455 240.980646 
L 331.752727 240.646085 
L 335.36 240.04529 
L 338.967273 239.18068 
L 342.574545 238.055736 
L 346.181818 236.674989 
L 349.789091 235.043997 
L 353.396364 233.169329 
L 357.003636 231.058533 
L 360.610909 228.720109 
L 364.218182 226.163472 
L 367.825455 223.398917 
L 371.432727 220.437576 
L 375.04 217.291374 
L 378.647273 213.972979 
L 382.254545 210.495752 
L 385.861818 206.873696 
L 389.469091 203.121396 
L 393.076364 199.25396 
L 396.683636 195.286961 
L 400.290909 191.236373 
L 403.898182 187.118507 
L 407.505455 182.949943 
L 411.112727 178.747467 
L 414.72 174.528 
" clip-path="url(#pfcb3a57990)" style="fill: none; stroke: #0000ff; stroke-opacity: 0.8; stroke-width: 1.5; stroke-linecap: square"/>
   </g>
   <g id="line2d_18">
    <path d="M 57.6 174.528 
L 414.72 174.528 
" clip-path="url(#pfcb3a57990)" style="fill: none; stroke: #0000ff; stroke-opacity: 0.8; stroke-width: 1.5; stroke-linecap: square"/>
   </g>
   <g id="patch_3">
    <path d="M 57.6 307.584 
L 57.6 41.472 
" style="fill: none; stroke: #000000; stroke-width: 0.8; stroke-linejoin: miter; stroke-linecap: square"/>
   </g>
   <g id="patch_4">
    <path d="M 414.72 307.584 
L 414.72 41.472 
" style="fill: none; stroke: #000000; stroke-width: 0.8; stroke-linejoin: miter; stroke-linecap: square"/>
   </g>
   <g id="patch_5">
    <path d="M 57.6 307.584 
L 414.72 307.584 
" style="fill: none; stroke: #000000; stroke-width: 0.8; stroke-linejoin: miter; stroke-linecap: square"/>
   </g>
   <g id="patch_6">
    <path d="M 57.6 41.472 
L 414.72 41.472 
" style="fill: none; stroke: #000000; stroke-width: 0.8; stroke-linejoin: miter; stroke-linecap: square"/>
   </g>
  </g>
 </g>
 <defs>
  <clipPath id="pfcb3a57990">
   <rect x="57.6" y="41.472" width="357.12" height="266.112"/>
  </clipPath>
 </defs>
</svg>
