<?xml version="1.0" encoding="utf-8" standalone="no"?>
<!DOCTYPE svg PUBLIC "-//W3C//DTD SVG 1.1//EN"
  "http://www.w3.org/Graphics/SVG/1.1/DTD/svg11.dtd">
<svg xmlns:xlink="http://www.w3.org/1999/xlink" width="460.8pt" height="345.6pt" viewBox="0 0 460.8 345.6" xmlns="http://www.w3.org/2000/svg" version="1.1">
 <metadata>
  <rdf:RDF xmlns:dc="http://purl.org/dc/elements/1.1/" xmlns:cc="http://creativecommons.org/ns#" xmlns:rdf="http://www.w3.org/1999/02/22-rdf-syntax-ns#">
   <cc:Work>
    <dc:type rdf:resource="http://purl.org/dc/dcmitype/StillImage"/>
    <dc:date>2024-12-22T21:18:21.357619</dc:date>
    <dc:format>image/svg+xml</dc:format>
    <dc:creator>
     <cc:Agent>
      <dc:title>Matplotlib v3.9.4, https://matplotlib.org/</dc:title>
     </cc:Agent>
    </dc:creator>
   </cc:Work>
  </rdf:RDF>
 </metadata>
 <defs>
  <style type="text/css">*{stroke-linejoin: round; stroke-linecap: butt}</style>
 </defs>
 <g id="figure_1">
  <g id="patch_1">
   <path d="M 0 345.6 
L 460.8 345.6 
L 460.8 0 
L 0 0 
z
" style="fill: #ffffff"/>
  </g>
  <g id="axes_1">
   <g id="patch_2">
    <path d="M 57.6 307.584 
L 414.72 307.584 
L 414.72 41.472 
L 57.6 41.472 
z
" style="fill: #ffffff"/>
   </g>
   <g id="PolyCollection_1"/>
   <g id="PolyCollection_2"/>
   <g id="PolyCollection_3"/>
   <g id="PolyCollection_4"/>
   <g id="matplotlib.axis_1">
    <g id="xtick_1">
     <g id="line2d_1">
      <defs>
       <path id="mc740b327bf" d="M 0 0 
L 0 3.5 
" style="stroke: #000000; stroke-width: 0.8"/>
      </defs>
      <g>
       <use xlink:href="#mc740b327bf" x="73.832727" y="307.584" style="stroke: #000000; stroke-width: 0.8"/>
      </g>
     </g>
     <g id="text_1">
      <!-- 0 -->
      <g transform="translate(71.332727 321.459) scale(0.1 -0.1)">
       <defs>
        <path id="SimHei-30" d="M 225 2537 
Q 250 3200 412 3587 
Q 575 3975 875 4225 
Q 1175 4475 1612 4475 
Q 2050 4475 2375 4112 
Q 2700 3750 2800 3200 
Q 2900 2650 2862 1937 
Q 2825 1225 2612 775 
Q 2400 325 1975 150 
Q 1550 -25 1125 187 
Q 700 400 525 750 
Q 350 1100 275 1487 
Q 200 1875 225 2537 
z
M 750 2687 
Q 675 2000 800 1462 
Q 925 925 1212 700 
Q 1500 475 1800 612 
Q 2100 750 2237 1162 
Q 2375 1575 2375 2062 
Q 2375 2550 2337 2950 
Q 2300 3350 2112 3675 
Q 1925 4000 1612 4012 
Q 1300 4025 1062 3700 
Q 825 3375 750 2687 
z
" transform="scale(0.015625)"/>
       </defs>
       <use xlink:href="#SimHei-30"/>
      </g>
     </g>
    </g>
    <g id="xtick_2">
     <g id="line2d_2">
      <g>
       <use xlink:href="#mc740b327bf" x="117.410519" y="307.584" style="stroke: #000000; stroke-width: 0.8"/>
      </g>
     </g>
     <g id="text_2">
      <!-- 20 -->
      <g transform="translate(112.410519 321.459) scale(0.1 -0.1)">
       <defs>
        <path id="SimHei-32" d="M 300 250 
Q 325 625 650 925 
Q 975 1225 1475 1862 
Q 1975 2500 2125 2850 
Q 2275 3200 2237 3450 
Q 2200 3700 2000 3862 
Q 1800 4025 1537 4000 
Q 1275 3975 1037 3800 
Q 800 3625 675 3275 
L 200 3350 
Q 400 3925 712 4187 
Q 1025 4450 1450 4475 
Q 1700 4500 1900 4462 
Q 2100 4425 2312 4287 
Q 2525 4150 2662 3875 
Q 2800 3600 2762 3212 
Q 2725 2825 2375 2287 
Q 2025 1750 1025 600 
L 2825 600 
L 2825 150 
L 300 150 
L 300 250 
z
" transform="scale(0.015625)"/>
       </defs>
       <use xlink:href="#SimHei-32"/>
       <use xlink:href="#SimHei-30" x="50"/>
      </g>
     </g>
    </g>
    <g id="xtick_3">
     <g id="line2d_3">
      <g>
       <use xlink:href="#mc740b327bf" x="160.98831" y="307.584" style="stroke: #000000; stroke-width: 0.8"/>
      </g>
     </g>
     <g id="text_3">
      <!-- 40 -->
      <g transform="translate(155.98831 321.459) scale(0.1 -0.1)">
       <defs>
        <path id="SimHei-34" d="M 2000 1100 
L 75 1100 
L 75 1525 
L 2100 4450 
L 2475 4450 
L 2475 1525 
L 3075 1525 
L 3075 1100 
L 2475 1100 
L 2475 150 
L 2000 150 
L 2000 1100 
z
M 2000 1525 
L 2000 3500 
L 600 1525 
L 2000 1525 
z
" transform="scale(0.015625)"/>
       </defs>
       <use xlink:href="#SimHei-34"/>
       <use xlink:href="#SimHei-30" x="50"/>
      </g>
     </g>
    </g>
    <g id="xtick_4">
     <g id="line2d_4">
      <g>
       <use xlink:href="#mc740b327bf" x="204.566101" y="307.584" style="stroke: #000000; stroke-width: 0.8"/>
      </g>
     </g>
     <g id="text_4">
      <!-- 60 -->
      <g transform="translate(199.566101 321.459) scale(0.1 -0.1)">
       <defs>
        <path id="SimHei-36" d="M 250 1612 
Q 275 1975 387 2225 
Q 500 2475 725 2850 
L 1750 4450 
L 2325 4450 
L 1275 2800 
Q 1950 2975 2350 2750 
Q 2750 2525 2887 2237 
Q 3025 1950 3037 1612 
Q 3050 1275 2937 950 
Q 2825 625 2537 362 
Q 2250 100 1737 75 
Q 1225 50 862 262 
Q 500 475 362 862 
Q 225 1250 250 1612 
z
M 1025 787 
Q 1250 550 1625 525 
Q 2000 500 2250 775 
Q 2500 1050 2500 1575 
Q 2500 2100 2187 2300 
Q 1875 2500 1487 2450 
Q 1100 2400 925 2075 
Q 750 1750 775 1387 
Q 800 1025 1025 787 
z
" transform="scale(0.015625)"/>
       </defs>
       <use xlink:href="#SimHei-36"/>
       <use xlink:href="#SimHei-30" x="50"/>
      </g>
     </g>
    </g>
    <g id="xtick_5">
     <g id="line2d_5">
      <g>
       <use xlink:href="#mc740b327bf" x="248.143893" y="307.584" style="stroke: #000000; stroke-width: 0.8"/>
      </g>
     </g>
     <g id="text_5">
      <!-- 80 -->
      <g transform="translate(243.143893 321.459) scale(0.1 -0.1)">
       <defs>
        <path id="SimHei-38" d="M 175 1375 
Q 175 1675 325 1962 
Q 475 2250 825 2425 
Q 525 2600 425 2812 
Q 325 3025 312 3300 
Q 300 3575 387 3775 
Q 475 3975 650 4150 
Q 825 4325 1037 4387 
Q 1250 4450 1500 4450 
Q 1750 4450 1950 4400 
Q 2150 4350 2375 4187 
Q 2600 4025 2700 3725 
Q 2800 3425 2687 3025 
Q 2575 2625 2100 2400 
Q 2525 2275 2700 2012 
Q 2875 1750 2875 1375 
Q 2875 1000 2762 775 
Q 2650 550 2512 400 
Q 2375 250 2137 162 
Q 1900 75 1537 75 
Q 1175 75 912 162 
Q 650 250 475 425 
Q 300 600 237 837 
Q 175 1075 175 1375 
z
M 687 1400 
Q 675 1100 787 875 
Q 900 650 1200 587 
Q 1500 525 1825 600 
Q 2150 675 2275 950 
Q 2400 1225 2362 1500 
Q 2325 1775 2050 1962 
Q 1775 2150 1450 2125 
Q 1125 2100 912 1900 
Q 700 1700 687 1400 
z
M 775 3350 
Q 775 3100 950 2875 
Q 1125 2650 1500 2650 
Q 1875 2650 2062 2875 
Q 2250 3100 2237 3412 
Q 2225 3725 2012 3875 
Q 1800 4025 1437 4000 
Q 1075 3975 925 3787 
Q 775 3600 775 3350 
z
" transform="scale(0.015625)"/>
       </defs>
       <use xlink:href="#SimHei-38"/>
       <use xlink:href="#SimHei-30" x="50"/>
      </g>
     </g>
    </g>
    <g id="xtick_6">
     <g id="line2d_6">
      <g>
       <use xlink:href="#mc740b327bf" x="291.721684" y="307.584" style="stroke: #000000; stroke-width: 0.8"/>
      </g>
     </g>
     <g id="text_6">
      <!-- 100 -->
      <g transform="translate(284.221684 321.459) scale(0.1 -0.1)">
       <defs>
        <path id="SimHei-31" d="M 1400 3600 
Q 1075 3275 575 2975 
L 575 3450 
Q 1200 3875 1600 4450 
L 1900 4450 
L 1900 150 
L 1400 150 
L 1400 3600 
z
" transform="scale(0.015625)"/>
       </defs>
       <use xlink:href="#SimHei-31"/>
       <use xlink:href="#SimHei-30" x="50"/>
       <use xlink:href="#SimHei-30" x="100"/>
      </g>
     </g>
    </g>
    <g id="xtick_7">
     <g id="line2d_7">
      <g>
       <use xlink:href="#mc740b327bf" x="335.299475" y="307.584" style="stroke: #000000; stroke-width: 0.8"/>
      </g>
     </g>
     <g id="text_7">
      <!-- 120 -->
      <g transform="translate(327.799475 321.459) scale(0.1 -0.1)">
       <use xlink:href="#SimHei-31"/>
       <use xlink:href="#SimHei-32" x="50"/>
       <use xlink:href="#SimHei-30" x="100"/>
      </g>
     </g>
    </g>
    <g id="xtick_8">
     <g id="line2d_8">
      <g>
       <use xlink:href="#mc740b327bf" x="378.877267" y="307.584" style="stroke: #000000; stroke-width: 0.8"/>
      </g>
     </g>
     <g id="text_8">
      <!-- 140 -->
      <g transform="translate(371.377267 321.459) scale(0.1 -0.1)">
       <use xlink:href="#SimHei-31"/>
       <use xlink:href="#SimHei-34" x="50"/>
       <use xlink:href="#SimHei-30" x="100"/>
      </g>
     </g>
    </g>
   </g>
   <g id="matplotlib.axis_2">
    <g id="ytick_1">
     <g id="line2d_9">
      <defs>
       <path id="m20c1cbd34a" d="M 0 0 
L -3.5 0 
" style="stroke: #000000; stroke-width: 0.8"/>
      </defs>
      <g>
       <use xlink:href="#m20c1cbd34a" x="57.6" y="298.589538" style="stroke: #000000; stroke-width: 0.8"/>
      </g>
     </g>
     <g id="text_9">
      <!-- 0 -->
      <g transform="translate(45.6 302.027038) scale(0.1 -0.1)">
       <use xlink:href="#SimHei-30"/>
      </g>
     </g>
    </g>
    <g id="ytick_2">
     <g id="line2d_10">
      <g>
       <use xlink:href="#m20c1cbd34a" x="57.6" y="267.574154" style="stroke: #000000; stroke-width: 0.8"/>
      </g>
     </g>
     <g id="text_10">
      <!-- 1 -->
      <g transform="translate(45.6 271.011654) scale(0.1 -0.1)">
       <use xlink:href="#SimHei-31"/>
      </g>
     </g>
    </g>
    <g id="ytick_3">
     <g id="line2d_11">
      <g>
       <use xlink:href="#m20c1cbd34a" x="57.6" y="236.558769" style="stroke: #000000; stroke-width: 0.8"/>
      </g>
     </g>
     <g id="text_11">
      <!-- 2 -->
      <g transform="translate(45.6 239.996269) scale(0.1 -0.1)">
       <use xlink:href="#SimHei-32"/>
      </g>
     </g>
    </g>
    <g id="ytick_4">
     <g id="line2d_12">
      <g>
       <use xlink:href="#m20c1cbd34a" x="57.6" y="205.543385" style="stroke: #000000; stroke-width: 0.8"/>
      </g>
     </g>
     <g id="text_12">
      <!-- 3 -->
      <g transform="translate(45.6 208.980885) scale(0.1 -0.1)">
       <defs>
        <path id="SimHei-33" d="M 250 1225 
L 700 1300 
Q 800 975 1025 762 
Q 1250 550 1587 562 
Q 1925 575 2125 837 
Q 2325 1100 2300 1437 
Q 2275 1775 2037 1962 
Q 1800 2150 1275 2225 
L 1275 2550 
Q 1800 2600 2037 2825 
Q 2275 3050 2250 3412 
Q 2225 3775 1925 3937 
Q 1625 4100 1287 3975 
Q 950 3850 750 3275 
L 300 3350 
Q 450 3800 712 4100 
Q 975 4400 1425 4450 
Q 1875 4500 2212 4337 
Q 2550 4175 2687 3837 
Q 2825 3500 2725 3100 
Q 2625 2700 2150 2400 
Q 2500 2250 2687 1950 
Q 2875 1650 2812 1162 
Q 2750 675 2375 375 
Q 2000 75 1525 87 
Q 1050 100 700 387 
Q 350 675 250 1225 
z
" transform="scale(0.015625)"/>
       </defs>
       <use xlink:href="#SimHei-33"/>
      </g>
     </g>
    </g>
    <g id="ytick_5">
     <g id="line2d_13">
      <g>
       <use xlink:href="#m20c1cbd34a" x="57.6" y="174.528" style="stroke: #000000; stroke-width: 0.8"/>
      </g>
     </g>
     <g id="text_13">
      <!-- 4 -->
      <g transform="translate(45.6 177.9655) scale(0.1 -0.1)">
       <use xlink:href="#SimHei-34"/>
      </g>
     </g>
    </g>
    <g id="ytick_6">
     <g id="line2d_14">
      <g>
       <use xlink:href="#m20c1cbd34a" x="57.6" y="143.512615" style="stroke: #000000; stroke-width: 0.8"/>
      </g>
     </g>
     <g id="text_14">
      <!-- 5 -->
      <g transform="translate(45.6 146.950115) scale(0.1 -0.1)">
       <defs>
        <path id="SimHei-35" d="M 550 1325 
Q 725 650 1150 575 
Q 1575 500 1837 662 
Q 2100 825 2212 1087 
Q 2325 1350 2312 1675 
Q 2300 2000 2137 2225 
Q 1975 2450 1725 2525 
Q 1475 2600 1162 2525 
Q 850 2450 650 2175 
L 225 2225 
Q 275 2375 700 4375 
L 2675 4375 
L 2675 3925 
L 1075 3925 
Q 950 3250 825 2850 
Q 1200 3025 1525 3012 
Q 1850 3000 2150 2862 
Q 2450 2725 2587 2487 
Q 2725 2250 2787 2012 
Q 2850 1775 2837 1500 
Q 2825 1225 2725 937 
Q 2625 650 2425 462 
Q 2225 275 1937 162 
Q 1650 50 1275 75 
Q 900 100 562 350 
Q 225 600 100 1200 
L 550 1325 
z
" transform="scale(0.015625)"/>
       </defs>
       <use xlink:href="#SimHei-35"/>
      </g>
     </g>
    </g>
    <g id="ytick_7">
     <g id="line2d_15">
      <g>
       <use xlink:href="#m20c1cbd34a" x="57.6" y="112.497231" style="stroke: #000000; stroke-width: 0.8"/>
      </g>
     </g>
     <g id="text_15">
      <!-- 6 -->
      <g transform="translate(45.6 115.934731) scale(0.1 -0.1)">
       <use xlink:href="#SimHei-36"/>
      </g>
     </g>
    </g>
    <g id="ytick_8">
     <g id="line2d_16">
      <g>
       <use xlink:href="#m20c1cbd34a" x="57.6" y="81.481846" style="stroke: #000000; stroke-width: 0.8"/>
      </g>
     </g>
     <g id="text_16">
      <!-- 7 -->
      <g transform="translate(45.6 84.919346) scale(0.1 -0.1)">
       <defs>
        <path id="SimHei-37" d="M 850 150 
Q 1300 2050 2425 3925 
L 275 3925 
L 275 4375 
L 2950 4375 
L 2950 3950 
Q 1775 2050 1400 150 
L 850 150 
z
" transform="scale(0.015625)"/>
       </defs>
       <use xlink:href="#SimHei-37"/>
      </g>
     </g>
    </g>
    <g id="ytick_9">
     <g id="line2d_17">
      <g>
       <use xlink:href="#m20c1cbd34a" x="57.6" y="50.466462" style="stroke: #000000; stroke-width: 0.8"/>
      </g>
     </g>
     <g id="text_17">
      <!-- 8 -->
      <g transform="translate(45.6 53.903962) scale(0.1 -0.1)">
       <use xlink:href="#SimHei-38"/>
      </g>
     </g>
    </g>
   </g>
   <g id="line2d_18">
    <path d="M 73.832727 140.411077 
L 78.190506 152.817231 
L 80.369396 155.918769 
L 84.727175 131.106462 
L 86.906065 155.918769 
L 89.084954 143.512615 
L 91.263844 162.121846 
L 95.621623 131.106462 
L 97.800513 149.715692 
L 99.979402 149.715692 
L 102.158292 165.223385 
L 104.337181 118.700308 
L 106.516071 121.801846 
L 110.87385 140.411077 
L 113.052739 121.801846 
L 115.231629 140.411077 
L 117.410519 131.106462 
L 119.589408 140.411077 
L 121.768298 155.918769 
L 123.947187 140.411077 
L 126.126077 149.715692 
L 128.304966 143.512615 
L 130.483856 143.512615 
L 132.662746 137.309538 
L 134.841635 137.309538 
L 137.020525 152.817231 
L 139.199414 149.715692 
L 141.378304 131.106462 
L 143.557193 137.309538 
L 145.736083 128.004923 
L 147.914973 146.614154 
L 150.093862 143.512615 
L 152.272752 128.004923 
L 154.451641 146.614154 
L 156.630531 162.121846 
L 158.80942 140.411077 
L 160.98831 143.512615 
L 163.1672 159.020308 
L 165.346089 162.121846 
L 167.524979 143.512615 
L 169.703868 140.411077 
L 171.882758 149.715692 
L 174.061647 140.411077 
L 176.240537 155.918769 
L 178.419426 134.208 
L 180.598316 143.512615 
L 182.777206 81.481846 
L 184.956095 100.091077 
L 187.134985 84.583385 
L 189.313874 128.004923 
L 191.492764 96.989538 
L 193.671653 121.801846 
L 195.850543 103.192615 
L 198.029433 146.614154 
L 200.208322 93.888 
L 202.387212 137.309538 
L 204.566101 143.512615 
L 206.744991 115.598769 
L 211.10277 109.395692 
L 213.28166 124.903385 
L 215.460549 90.786462 
L 217.639439 124.903385 
L 219.818328 118.700308 
L 221.997218 106.294154 
L 224.176107 124.903385 
L 226.354997 115.598769 
L 230.712776 103.192615 
L 232.891666 109.395692 
L 235.070555 100.091077 
L 239.428334 87.684923 
L 241.607224 90.786462 
L 243.786113 112.497231 
L 245.965003 121.801846 
L 248.143893 128.004923 
L 250.322782 128.004923 
L 252.501672 118.700308 
L 254.680561 112.497231 
L 256.859451 131.106462 
L 259.03834 112.497231 
L 261.21723 90.786462 
L 263.39612 103.192615 
L 265.575009 124.903385 
L 267.753899 128.004923 
L 269.932788 128.004923 
L 272.111678 109.395692 
L 274.290567 118.700308 
L 276.469457 143.512615 
L 278.648347 124.903385 
L 280.827236 121.801846 
L 283.006126 121.801846 
L 285.185015 106.294154 
L 287.363905 140.411077 
L 291.721684 103.192615 
L 293.900574 118.700308 
L 296.079463 78.380308 
L 298.258353 103.192615 
L 300.437242 96.989538 
L 302.616132 62.872615 
L 304.795021 146.614154 
L 306.973911 72.177231 
L 309.1528 90.786462 
L 311.33169 75.278769 
L 313.51058 96.989538 
L 315.689469 100.091077 
L 317.868359 87.684923 
L 320.047248 121.801846 
L 322.226138 118.700308 
L 324.405027 100.091077 
L 326.583917 96.989538 
L 328.762807 59.771077 
L 330.941696 59.771077 
L 333.120586 112.497231 
L 335.299475 84.583385 
L 337.478365 124.903385 
L 339.657254 59.771077 
L 341.836144 103.192615 
L 344.015034 90.786462 
L 346.193923 75.278769 
L 348.372813 106.294154 
L 350.551702 109.395692 
L 352.730592 100.091077 
L 354.909481 75.278769 
L 357.088371 69.075692 
L 359.267261 53.568 
L 361.44615 100.091077 
L 363.62504 103.192615 
L 365.803929 109.395692 
L 367.982819 59.771077 
L 370.161708 103.192615 
L 372.340598 100.091077 
L 374.519487 112.497231 
L 376.698377 84.583385 
L 378.877267 90.786462 
L 381.056156 84.583385 
L 383.235046 118.700308 
L 385.413935 87.684923 
L 387.592825 90.786462 
L 389.771714 90.786462 
L 391.950604 103.192615 
L 394.129494 96.989538 
L 398.487273 115.598769 
L 398.487273 115.598769 
" clip-path="url(#p81dc2d6401)" style="fill: none; stroke: #1f77b4; stroke-width: 1.5; stroke-linecap: square"/>
   </g>
   <g id="line2d_19">
    <path d="M 73.832727 190.035692 
L 76.011617 205.543385 
L 78.190506 199.340308 
L 80.369396 202.441846 
L 82.548286 186.934154 
L 84.727175 177.629538 
L 86.906065 193.137231 
L 89.084954 193.137231 
L 91.263844 208.644923 
L 93.442733 202.441846 
L 95.621623 183.832615 
L 97.800513 193.137231 
L 99.979402 205.543385 
L 102.158292 205.543385 
L 104.337181 174.528 
L 106.516071 162.121846 
L 108.69496 177.629538 
L 110.87385 190.035692 
L 113.052739 180.731077 
L 115.231629 180.731077 
L 117.410519 193.137231 
L 119.589408 183.832615 
L 121.768298 186.934154 
L 123.947187 196.238769 
L 126.126077 193.137231 
L 128.304966 205.543385 
L 130.483856 193.137231 
L 132.662746 190.035692 
L 134.841635 193.137231 
L 137.020525 199.340308 
L 139.199414 202.441846 
L 141.378304 193.137231 
L 143.557193 171.426462 
L 145.736083 168.324923 
L 147.914973 202.441846 
L 150.093862 199.340308 
L 152.272752 190.035692 
L 154.451641 202.441846 
L 156.630531 205.543385 
L 158.80942 193.137231 
L 160.98831 190.035692 
L 163.1672 227.254154 
L 165.346089 199.340308 
L 169.703868 180.731077 
L 171.882758 205.543385 
L 174.061647 180.731077 
L 176.240537 199.340308 
L 178.419426 183.832615 
L 180.598316 196.238769 
L 182.777206 199.340308 
L 184.956095 199.340308 
L 187.134985 202.441846 
L 189.313874 227.254154 
L 191.492764 211.746462 
L 193.671653 211.746462 
L 195.850543 196.238769 
L 198.029433 224.152615 
L 200.208322 208.644923 
L 202.387212 214.848 
L 204.566101 236.558769 
L 206.744991 205.543385 
L 208.92388 230.355692 
L 211.10277 208.644923 
L 213.28166 208.644923 
L 215.460549 202.441846 
L 217.639439 205.543385 
L 219.818328 214.848 
L 221.997218 230.355692 
L 224.176107 221.051077 
L 226.354997 199.340308 
L 228.533887 211.746462 
L 230.712776 221.051077 
L 232.891666 211.746462 
L 237.249445 205.543385 
L 239.428334 211.746462 
L 241.607224 205.543385 
L 243.786113 208.644923 
L 245.965003 217.949538 
L 248.143893 224.152615 
L 250.322782 224.152615 
L 252.501672 214.848 
L 254.680561 214.848 
L 256.859451 205.543385 
L 259.03834 193.137231 
L 261.21723 202.441846 
L 263.39612 227.254154 
L 265.575009 205.543385 
L 267.753899 221.051077 
L 269.932788 217.949538 
L 272.111678 205.543385 
L 274.290567 217.949538 
L 276.469457 227.254154 
L 278.648347 214.848 
L 280.827236 205.543385 
L 283.006126 208.644923 
L 285.185015 208.644923 
L 287.363905 221.051077 
L 289.542794 211.746462 
L 291.721684 196.238769 
L 293.900574 214.848 
L 296.079463 205.543385 
L 298.258353 208.644923 
L 300.437242 205.543385 
L 302.616132 205.543385 
L 304.795021 221.051077 
L 306.973911 208.644923 
L 309.1528 221.051077 
L 311.33169 186.934154 
L 313.51058 199.340308 
L 315.689469 214.848 
L 317.868359 205.543385 
L 320.047248 221.051077 
L 322.226138 211.746462 
L 324.405027 199.340308 
L 326.583917 205.543385 
L 328.762807 180.731077 
L 330.941696 217.949538 
L 333.120586 230.355692 
L 335.299475 199.340308 
L 337.478365 211.746462 
L 339.657254 211.746462 
L 341.836144 214.848 
L 344.015034 196.238769 
L 346.193923 199.340308 
L 348.372813 211.746462 
L 350.551702 205.543385 
L 352.730592 211.746462 
L 354.909481 205.543385 
L 357.088371 211.746462 
L 359.267261 180.731077 
L 361.44615 211.746462 
L 363.62504 211.746462 
L 365.803929 217.949538 
L 370.161708 193.137231 
L 372.340598 202.441846 
L 374.519487 205.543385 
L 376.698377 202.441846 
L 381.056156 202.441846 
L 383.235046 214.848 
L 385.413935 199.340308 
L 387.592825 196.238769 
L 389.771714 205.543385 
L 391.950604 221.051077 
L 394.129494 205.543385 
L 396.308383 193.137231 
L 398.487273 205.543385 
L 398.487273 205.543385 
" clip-path="url(#p81dc2d6401)" style="fill: none; stroke-dasharray: 6,2.25; stroke-dashoffset: 0; stroke: #ff7f0e; stroke-width: 1.5"/>
   </g>
   <g id="line2d_20">
    <path d="M 73.832727 255.168 
L 76.011617 255.168 
L 78.190506 258.269538 
L 80.369396 252.066462 
L 82.548286 255.168 
L 84.727175 245.863385 
L 86.906065 255.168 
L 89.084954 252.066462 
L 91.263844 255.168 
L 93.442733 252.066462 
L 95.621623 252.066462 
L 97.800513 248.964923 
L 99.979402 255.168 
L 102.158292 264.472615 
L 104.337181 261.371077 
L 106.516071 252.066462 
L 108.69496 258.269538 
L 110.87385 255.168 
L 113.052739 245.863385 
L 115.231629 252.066462 
L 117.410519 245.863385 
L 119.589408 252.066462 
L 121.768298 267.574154 
L 123.947187 245.863385 
L 126.126077 239.660308 
L 128.304966 248.964923 
L 130.483856 248.964923 
L 134.841635 255.168 
L 137.020525 248.964923 
L 139.199414 248.964923 
L 141.378304 252.066462 
L 143.557193 252.066462 
L 145.736083 255.168 
L 147.914973 252.066462 
L 150.093862 261.371077 
L 152.272752 258.269538 
L 154.451641 252.066462 
L 156.630531 258.269538 
L 158.80942 252.066462 
L 160.98831 258.269538 
L 165.346089 258.269538 
L 169.703868 239.660308 
L 171.882758 255.168 
L 174.061647 248.964923 
L 176.240537 255.168 
L 178.419426 252.066462 
L 180.598316 255.168 
L 182.777206 152.817231 
L 184.956095 159.020308 
L 187.134985 146.614154 
L 189.313874 174.528 
L 191.492764 155.918769 
L 193.671653 159.020308 
L 195.850543 152.817231 
L 198.029433 196.238769 
L 200.208322 155.918769 
L 202.387212 177.629538 
L 204.566101 190.035692 
L 206.744991 168.324923 
L 208.92388 174.528 
L 211.10277 152.817231 
L 213.28166 186.934154 
L 215.460549 162.121846 
L 217.639439 159.020308 
L 219.818328 171.426462 
L 221.997218 159.020308 
L 224.176107 177.629538 
L 226.354997 149.715692 
L 228.533887 174.528 
L 230.712776 146.614154 
L 232.891666 152.817231 
L 235.070555 165.223385 
L 237.249445 162.121846 
L 239.428334 149.715692 
L 241.607224 143.512615 
L 243.786113 159.020308 
L 245.965003 190.035692 
L 248.143893 180.731077 
L 250.322782 183.832615 
L 252.501672 177.629538 
L 254.680561 140.411077 
L 256.859451 159.020308 
L 259.03834 159.020308 
L 261.21723 152.817231 
L 265.575009 171.426462 
L 267.753899 174.528 
L 269.932788 162.121846 
L 272.111678 155.918769 
L 274.290567 174.528 
L 276.469457 196.238769 
L 278.648347 168.324923 
L 283.006126 168.324923 
L 285.185015 165.223385 
L 287.363905 205.543385 
L 289.542794 171.426462 
L 291.721684 112.497231 
L 293.900574 140.411077 
L 296.079463 115.598769 
L 298.258353 124.903385 
L 300.437242 118.700308 
L 302.616132 93.888 
L 304.795021 159.020308 
L 306.973911 103.192615 
L 309.1528 118.700308 
L 311.33169 109.395692 
L 313.51058 140.411077 
L 317.868359 128.004923 
L 320.047248 143.512615 
L 322.226138 140.411077 
L 326.583917 128.004923 
L 328.762807 90.786462 
L 330.941696 84.583385 
L 333.120586 143.512615 
L 335.299475 121.801846 
L 337.478365 146.614154 
L 339.657254 90.786462 
L 341.836144 146.614154 
L 344.015034 121.801846 
L 346.193923 112.497231 
L 348.372813 149.715692 
L 350.551702 146.614154 
L 352.730592 124.903385 
L 354.909481 118.700308 
L 359.267261 100.091077 
L 361.44615 124.903385 
L 363.62504 140.411077 
L 367.982819 109.395692 
L 370.161708 124.903385 
L 372.340598 128.004923 
L 374.519487 149.715692 
L 376.698377 131.106462 
L 378.877267 124.903385 
L 381.056156 140.411077 
L 383.235046 140.411077 
L 385.413935 115.598769 
L 387.592825 121.801846 
L 389.771714 137.309538 
L 391.950604 143.512615 
L 396.308383 131.106462 
L 398.487273 140.411077 
L 398.487273 140.411077 
" clip-path="url(#p81dc2d6401)" style="fill: none; stroke-dasharray: 1.5,1.5; stroke-dashoffset: 0; stroke: #2ca02c; stroke-width: 1.5"/>
   </g>
   <g id="line2d_21">
    <path d="M 73.832727 292.386462 
L 82.548286 292.386462 
L 84.727175 286.183385 
L 89.084954 292.386462 
L 91.263844 292.386462 
L 93.442733 295.488 
L 95.621623 292.386462 
L 97.800513 292.386462 
L 99.979402 295.488 
L 102.158292 295.488 
L 104.337181 292.386462 
L 106.516071 286.183385 
L 108.69496 286.183385 
L 110.87385 289.284923 
L 115.231629 289.284923 
L 117.410519 292.386462 
L 119.589408 286.183385 
L 121.768298 292.386462 
L 123.947187 283.081846 
L 126.126077 292.386462 
L 128.304966 292.386462 
L 130.483856 286.183385 
L 132.662746 292.386462 
L 139.199414 292.386462 
L 141.378304 286.183385 
L 143.557193 295.488 
L 145.736083 292.386462 
L 147.914973 295.488 
L 150.093862 292.386462 
L 152.272752 292.386462 
L 154.451641 295.488 
L 156.630531 292.386462 
L 158.80942 292.386462 
L 160.98831 289.284923 
L 163.1672 289.284923 
L 165.346089 292.386462 
L 167.524979 279.980308 
L 169.703868 286.183385 
L 174.061647 292.386462 
L 180.598316 292.386462 
L 182.777206 255.168 
L 184.956095 252.066462 
L 187.134985 252.066462 
L 189.313874 258.269538 
L 191.492764 252.066462 
L 193.671653 258.269538 
L 195.850543 248.964923 
L 198.029433 267.574154 
L 200.208322 258.269538 
L 202.387212 255.168 
L 204.566101 267.574154 
L 206.744991 252.066462 
L 208.92388 267.574154 
L 211.10277 255.168 
L 213.28166 258.269538 
L 217.639439 252.066462 
L 219.818328 267.574154 
L 221.997218 252.066462 
L 224.176107 264.472615 
L 226.354997 242.761846 
L 228.533887 258.269538 
L 230.712776 252.066462 
L 232.891666 261.371077 
L 237.249445 255.168 
L 239.428334 255.168 
L 241.607224 245.863385 
L 243.786113 252.066462 
L 245.965003 267.574154 
L 248.143893 264.472615 
L 250.322782 267.574154 
L 252.501672 261.371077 
L 254.680561 248.964923 
L 256.859451 252.066462 
L 259.03834 248.964923 
L 261.21723 252.066462 
L 263.39612 258.269538 
L 267.753899 258.269538 
L 269.932788 261.371077 
L 272.111678 255.168 
L 276.469457 267.574154 
L 278.648347 258.269538 
L 280.827236 261.371077 
L 283.006126 258.269538 
L 285.185015 258.269538 
L 287.363905 264.472615 
L 289.542794 258.269538 
L 291.721684 221.051077 
L 293.900574 239.660308 
L 296.079463 233.457231 
L 298.258353 242.761846 
L 300.437242 230.355692 
L 302.616132 233.457231 
L 304.795021 245.863385 
L 306.973911 242.761846 
L 309.1528 242.761846 
L 311.33169 221.051077 
L 313.51058 236.558769 
L 315.689469 239.660308 
L 317.868359 233.457231 
L 320.047248 236.558769 
L 322.226138 224.152615 
L 324.405027 227.254154 
L 326.583917 242.761846 
L 328.762807 230.355692 
L 330.941696 227.254154 
L 333.120586 252.066462 
L 335.299475 227.254154 
L 337.478365 236.558769 
L 339.657254 236.558769 
L 341.836144 242.761846 
L 344.015034 233.457231 
L 346.193923 242.761846 
L 350.551702 242.761846 
L 352.730592 233.457231 
L 354.909481 248.964923 
L 357.088371 239.660308 
L 359.267261 236.558769 
L 361.44615 230.355692 
L 363.62504 252.066462 
L 365.803929 255.168 
L 367.982819 227.254154 
L 370.161708 224.152615 
L 372.340598 242.761846 
L 374.519487 242.761846 
L 378.877267 224.152615 
L 381.056156 227.254154 
L 383.235046 239.660308 
L 385.413935 227.254154 
L 387.592825 221.051077 
L 389.771714 227.254154 
L 391.950604 239.660308 
L 394.129494 236.558769 
L 396.308383 227.254154 
L 398.487273 242.761846 
L 398.487273 242.761846 
" clip-path="url(#p81dc2d6401)" style="fill: none; stroke-dasharray: 4.5,1.875,2.25,1.875; stroke-dashoffset: 0; stroke: #d62728; stroke-width: 1.5"/>
   </g>
   <g id="line2d_22"/>
   <g id="line2d_23"/>
   <g id="line2d_24"/>
   <g id="line2d_25"/>
   <g id="patch_3">
    <path d="M 57.6 307.584 
L 57.6 41.472 
" style="fill: none; stroke: #000000; stroke-width: 0.8; stroke-linejoin: miter; stroke-linecap: square"/>
   </g>
   <g id="patch_4">
    <path d="M 414.72 307.584 
L 414.72 41.472 
" style="fill: none; stroke: #000000; stroke-width: 0.8; stroke-linejoin: miter; stroke-linecap: square"/>
   </g>
   <g id="patch_5">
    <path d="M 57.6 307.584 
L 414.72 307.584 
" style="fill: none; stroke: #000000; stroke-width: 0.8; stroke-linejoin: miter; stroke-linecap: square"/>
   </g>
   <g id="patch_6">
    <path d="M 57.6 41.472 
L 414.72 41.472 
" style="fill: none; stroke: #000000; stroke-width: 0.8; stroke-linejoin: miter; stroke-linecap: square"/>
   </g>
   <g id="legend_1">
    <g id="patch_7">
     <path d="M 64.6 102.7845 
L 156.6 102.7845 
Q 158.6 102.7845 158.6 100.7845 
L 158.6 48.472 
Q 158.6 46.472 156.6 46.472 
L 64.6 46.472 
Q 62.6 46.472 62.6 48.472 
L 62.6 100.7845 
Q 62.6 102.7845 64.6 102.7845 
z
" style="fill: #ffffff; opacity: 0.8; stroke: #cccccc; stroke-linejoin: miter"/>
    </g>
    <g id="line2d_26">
     <path d="M 66.6 53.972 
L 76.6 53.972 
L 86.6 53.972 
" style="fill: none; stroke: #1f77b4; stroke-width: 1.5; stroke-linecap: square"/>
    </g>
    <g id="text_18">
     <!-- sepal_length -->
     <g transform="translate(94.6 57.472) scale(0.1 -0.1)">
      <defs>
       <path id="SimHei-73" d="M 2750 900 
Q 2750 500 2437 287 
Q 2125 75 1650 75 
Q 1050 75 725 312 
Q 400 550 400 1000 
L 900 1000 
Q 900 700 1112 600 
Q 1325 500 1625 500 
Q 1925 500 2075 612 
Q 2225 725 2225 900 
Q 2225 1025 2100 1150 
Q 1975 1275 1475 1350 
Q 900 1425 687 1637 
Q 475 1850 475 2200 
Q 475 2500 762 2737 
Q 1050 2975 1600 2975 
Q 2100 2975 2387 2750 
Q 2675 2525 2675 2150 
L 2175 2150 
Q 2175 2375 2012 2462 
Q 1850 2550 1600 2550 
Q 1275 2550 1137 2437 
Q 1000 2325 1000 2175 
Q 1000 2000 1125 1900 
Q 1250 1800 1650 1750 
Q 2300 1650 2525 1437 
Q 2750 1225 2750 900 
z
" transform="scale(0.015625)"/>
       <path id="SimHei-65" d="M 2850 1075 
Q 2800 625 2450 350 
Q 2100 75 1625 75 
Q 1025 75 637 462 
Q 250 850 250 1525 
Q 250 2200 637 2587 
Q 1025 2975 1625 2975 
Q 2150 2975 2487 2637 
Q 2825 2300 2825 1525 
L 800 1525 
Q 800 975 1037 750 
Q 1275 525 1625 525 
Q 1900 525 2075 662 
Q 2250 800 2300 1075 
L 2850 1075 
z
M 2250 1925 
Q 2200 2275 2025 2412 
Q 1850 2550 1575 2550 
Q 1325 2550 1125 2412 
Q 925 2275 825 1925 
L 2250 1925 
z
" transform="scale(0.015625)"/>
       <path id="SimHei-70" d="M 2825 1525 
Q 2825 800 2475 425 
Q 2125 50 1625 50 
Q 1350 50 1150 162 
Q 950 275 800 500 
L 800 -800 
L 300 -800 
L 300 2925 
L 800 2925 
L 800 2550 
Q 950 2775 1150 2875 
Q 1350 2975 1625 2975 
Q 2125 2975 2475 2612 
Q 2825 2250 2825 1525 
z
M 2275 1525 
Q 2275 2000 2087 2262 
Q 1900 2525 1525 2525 
Q 1225 2525 1012 2262 
Q 800 2000 800 1525 
Q 800 1050 1012 775 
Q 1225 500 1525 500 
Q 1900 500 2087 775 
Q 2275 1050 2275 1525 
z
" transform="scale(0.015625)"/>
       <path id="SimHei-61" d="M 2875 125 
L 2275 125 
Q 2225 175 2200 262 
Q 2175 350 2175 475 
Q 2000 275 1750 175 
Q 1500 75 1225 75 
Q 825 75 550 275 
Q 275 475 275 850 
Q 275 1225 525 1450 
Q 775 1675 1300 1750 
Q 1650 1800 1912 1875 
Q 2175 1950 2175 2075 
Q 2175 2225 2062 2375 
Q 1950 2525 1575 2525 
Q 1275 2525 1137 2412 
Q 1000 2300 950 2100 
L 400 2100 
Q 450 2500 762 2737 
Q 1075 2975 1575 2975 
Q 2125 2975 2400 2725 
Q 2675 2475 2675 2025 
L 2675 650 
Q 2675 500 2725 375 
Q 2775 250 2875 125 
z
M 2175 1050 
L 2175 1550 
Q 2025 1500 1887 1462 
Q 1750 1425 1425 1375 
Q 1050 1325 937 1200 
Q 825 1075 825 900 
Q 825 750 937 637 
Q 1050 525 1275 525 
Q 1500 525 1762 650 
Q 2025 775 2175 1050 
z
" transform="scale(0.015625)"/>
       <path id="SimHei-6c" d="M 1825 125 
L 1325 125 
L 1325 4400 
L 1825 4400 
L 1825 125 
z
" transform="scale(0.015625)"/>
       <path id="SimHei-5f" d="M 3150 -850 
L 0 -850 
L 0 -550 
L 3150 -550 
L 3150 -850 
z
" transform="scale(0.015625)"/>
       <path id="SimHei-6e" d="M 2800 125 
L 2300 125 
L 2300 1925 
Q 2300 2225 2150 2400 
Q 2000 2575 1750 2575 
Q 1425 2575 1137 2237 
Q 850 1900 850 1400 
L 850 125 
L 350 125 
L 350 2925 
L 850 2925 
L 850 2400 
Q 1050 2675 1287 2825 
Q 1525 2975 1900 2975 
Q 2350 2975 2575 2725 
Q 2800 2475 2800 2100 
L 2800 125 
z
" transform="scale(0.015625)"/>
       <path id="SimHei-67" d="M 2975 2500 
Q 2800 2550 2637 2562 
Q 2475 2575 2300 2525 
Q 2375 2450 2425 2337 
Q 2475 2225 2475 2000 
Q 2475 1575 2187 1300 
Q 1900 1025 1475 1025 
Q 1375 1025 1212 1062 
Q 1050 1100 950 1150 
Q 875 1100 850 1050 
Q 825 1000 825 925 
Q 825 800 1000 737 
Q 1175 675 1625 675 
Q 2350 675 2612 475 
Q 2875 275 2875 -25 
Q 2875 -425 2487 -612 
Q 2100 -800 1575 -800 
Q 900 -800 575 -625 
Q 250 -450 250 -150 
Q 250 0 375 150 
Q 500 300 700 400 
Q 550 475 462 587 
Q 375 700 375 875 
Q 375 1025 487 1137 
Q 600 1250 750 1325 
Q 625 1450 550 1625 
Q 475 1800 475 2000 
Q 475 2425 762 2700 
Q 1050 2975 1475 2975 
Q 1700 2975 1862 2912 
Q 2025 2850 2150 2725 
Q 2350 2875 2550 2937 
Q 2750 3000 2975 2975 
L 2975 2500 
z
M 1975 2000 
Q 1975 2250 1850 2400 
Q 1725 2550 1475 2550 
Q 1225 2550 1100 2400 
Q 975 2250 975 2000 
Q 975 1750 1100 1600 
Q 1225 1450 1475 1450 
Q 1725 1450 1850 1600 
Q 1975 1750 1975 2000 
z
M 2400 -75 
Q 2400 25 2287 125 
Q 2175 225 1725 225 
Q 1625 225 1450 237 
Q 1275 250 1050 275 
Q 850 200 775 100 
Q 700 0 700 -100 
Q 700 -250 900 -350 
Q 1100 -450 1600 -450 
Q 2025 -450 2212 -337 
Q 2400 -225 2400 -75 
z
" transform="scale(0.015625)"/>
       <path id="SimHei-74" d="M 2750 200 
Q 2625 150 2462 112 
Q 2300 75 2025 75 
Q 1575 75 1300 325 
Q 1025 575 1025 1025 
L 1025 2525 
L 175 2525 
L 175 2925 
L 1025 2925 
L 1025 3900 
L 1525 3900 
L 1525 2925 
L 2550 2925 
L 2550 2525 
L 1525 2525 
L 1525 1000 
Q 1525 800 1625 662 
Q 1725 525 2000 525 
Q 2275 525 2450 575 
Q 2625 625 2750 700 
L 2750 200 
z
" transform="scale(0.015625)"/>
       <path id="SimHei-68" d="M 2800 125 
L 2300 125 
L 2300 1925 
Q 2300 2225 2150 2400 
Q 2000 2575 1750 2575 
Q 1425 2575 1137 2237 
Q 850 1900 850 1400 
L 850 125 
L 350 125 
L 350 4400 
L 850 4400 
L 850 2400 
Q 1050 2675 1287 2825 
Q 1525 2975 1900 2975 
Q 2350 2975 2575 2725 
Q 2800 2475 2800 2100 
L 2800 125 
z
" transform="scale(0.015625)"/>
      </defs>
      <use xlink:href="#SimHei-73"/>
      <use xlink:href="#SimHei-65" x="50"/>
      <use xlink:href="#SimHei-70" x="100"/>
      <use xlink:href="#SimHei-61" x="150"/>
      <use xlink:href="#SimHei-6c" x="200"/>
      <use xlink:href="#SimHei-5f" x="250"/>
      <use xlink:href="#SimHei-6c" x="300"/>
      <use xlink:href="#SimHei-65" x="350"/>
      <use xlink:href="#SimHei-6e" x="400"/>
      <use xlink:href="#SimHei-67" x="450"/>
      <use xlink:href="#SimHei-74" x="500"/>
      <use xlink:href="#SimHei-68" x="550"/>
     </g>
    </g>
    <g id="line2d_27">
     <path d="M 66.6 67.300125 
L 76.6 67.300125 
L 86.6 67.300125 
" style="fill: none; stroke-dasharray: 6,2.25; stroke-dashoffset: 0; stroke: #ff7f0e; stroke-width: 1.5"/>
    </g>
    <g id="text_19">
     <!-- sepal_width -->
     <g transform="translate(94.6 70.800125) scale(0.1 -0.1)">
      <defs>
       <path id="SimHei-77" d="M 3075 2925 
L 2450 75 
L 1975 75 
L 1575 2250 
L 1525 2250 
L 1125 75 
L 650 75 
L 25 2925 
L 550 2925 
L 875 1050 
L 925 1050 
L 1275 2925 
L 1825 2925 
L 2175 1050 
L 2225 1050 
L 2550 2925 
L 3075 2925 
z
" transform="scale(0.015625)"/>
       <path id="SimHei-69" d="M 1800 3725 
L 1300 3725 
L 1300 4375 
L 1800 4375 
L 1800 3725 
z
M 1800 125 
L 1300 125 
L 1300 2925 
L 1800 2925 
L 1800 125 
z
" transform="scale(0.015625)"/>
       <path id="SimHei-64" d="M 2750 125 
L 2250 125 
L 2250 500 
Q 2100 275 1900 175 
Q 1700 75 1425 75 
Q 925 75 575 437 
Q 225 800 225 1525 
Q 225 2250 575 2625 
Q 925 3000 1425 3000 
Q 1700 3000 1900 2887 
Q 2100 2775 2250 2550 
L 2250 4400 
L 2750 4400 
L 2750 125 
z
M 2250 1525 
Q 2250 2000 2037 2275 
Q 1825 2550 1525 2550 
Q 1150 2550 962 2275 
Q 775 2000 775 1525 
Q 775 1050 962 787 
Q 1150 525 1525 525 
Q 1825 525 2037 787 
Q 2250 1050 2250 1525 
z
" transform="scale(0.015625)"/>
      </defs>
      <use xlink:href="#SimHei-73"/>
      <use xlink:href="#SimHei-65" x="50"/>
      <use xlink:href="#SimHei-70" x="100"/>
      <use xlink:href="#SimHei-61" x="150"/>
      <use xlink:href="#SimHei-6c" x="200"/>
      <use xlink:href="#SimHei-5f" x="250"/>
      <use xlink:href="#SimHei-77" x="300"/>
      <use xlink:href="#SimHei-69" x="350"/>
      <use xlink:href="#SimHei-64" x="400"/>
      <use xlink:href="#SimHei-74" x="450"/>
      <use xlink:href="#SimHei-68" x="500"/>
     </g>
    </g>
    <g id="line2d_28">
     <path d="M 66.6 80.62825 
L 76.6 80.62825 
L 86.6 80.62825 
" style="fill: none; stroke-dasharray: 1.5,1.5; stroke-dashoffset: 0; stroke: #2ca02c; stroke-width: 1.5"/>
    </g>
    <g id="text_20">
     <!-- petal_length -->
     <g transform="translate(94.6 84.12825) scale(0.1 -0.1)">
      <use xlink:href="#SimHei-70"/>
      <use xlink:href="#SimHei-65" x="50"/>
      <use xlink:href="#SimHei-74" x="100"/>
      <use xlink:href="#SimHei-61" x="150"/>
      <use xlink:href="#SimHei-6c" x="200"/>
      <use xlink:href="#SimHei-5f" x="250"/>
      <use xlink:href="#SimHei-6c" x="300"/>
      <use xlink:href="#SimHei-65" x="350"/>
      <use xlink:href="#SimHei-6e" x="400"/>
      <use xlink:href="#SimHei-67" x="450"/>
      <use xlink:href="#SimHei-74" x="500"/>
      <use xlink:href="#SimHei-68" x="550"/>
     </g>
    </g>
    <g id="line2d_29">
     <path d="M 66.6 93.956375 
L 76.6 93.956375 
L 86.6 93.956375 
" style="fill: none; stroke-dasharray: 4.5,1.875,2.25,1.875; stroke-dashoffset: 0; stroke: #d62728; stroke-width: 1.5"/>
    </g>
    <g id="text_21">
     <!-- petal_width -->
     <g transform="translate(94.6 97.456375) scale(0.1 -0.1)">
      <use xlink:href="#SimHei-70"/>
      <use xlink:href="#SimHei-65" x="50"/>
      <use xlink:href="#SimHei-74" x="100"/>
      <use xlink:href="#SimHei-61" x="150"/>
      <use xlink:href="#SimHei-6c" x="200"/>
      <use xlink:href="#SimHei-5f" x="250"/>
      <use xlink:href="#SimHei-77" x="300"/>
      <use xlink:href="#SimHei-69" x="350"/>
      <use xlink:href="#SimHei-64" x="400"/>
      <use xlink:href="#SimHei-74" x="450"/>
      <use xlink:href="#SimHei-68" x="500"/>
     </g>
    </g>
   </g>
  </g>
 </g>
 <defs>
  <clipPath id="p81dc2d6401">
   <rect x="57.6" y="41.472" width="357.12" height="266.112"/>
  </clipPath>
 </defs>
</svg>
