<?xml version="1.0" encoding="utf-8" standalone="no"?>
<!DOCTYPE svg PUBLIC "-//W3C//DTD SVG 1.1//EN"
  "http://www.w3.org/Graphics/SVG/1.1/DTD/svg11.dtd">
<svg xmlns:xlink="http://www.w3.org/1999/xlink" width="460.8pt" height="345.6pt" viewBox="0 0 460.8 345.6" xmlns="http://www.w3.org/2000/svg" version="1.1">
 <metadata>
  <rdf:RDF xmlns:dc="http://purl.org/dc/elements/1.1/" xmlns:cc="http://creativecommons.org/ns#" xmlns:rdf="http://www.w3.org/1999/02/22-rdf-syntax-ns#">
   <cc:Work>
    <dc:type rdf:resource="http://purl.org/dc/dcmitype/StillImage"/>
    <dc:date>2024-12-22T21:19:04.607337</dc:date>
    <dc:format>image/svg+xml</dc:format>
    <dc:creator>
     <cc:Agent>
      <dc:title>Matplotlib v3.9.4, https://matplotlib.org/</dc:title>
     </cc:Agent>
    </dc:creator>
   </cc:Work>
  </rdf:RDF>
 </metadata>
 <defs>
  <style type="text/css">*{stroke-linejoin: round; stroke-linecap: butt}</style>
 </defs>
 <g id="figure_1">
  <g id="patch_1">
   <path d="M 0 345.6 
L 460.8 345.6 
L 460.8 0 
L 0 0 
z
" style="fill: #ffffff"/>
  </g>
  <g id="axes_1">
   <g id="patch_2">
    <path d="M 57.6 307.584 
L 414.72 307.584 
L 414.72 41.472 
L 57.6 41.472 
z
" style="fill: #ffffff"/>
   </g>
   <g id="matplotlib.axis_1">
    <g id="xtick_1">
     <g id="line2d_1">
      <defs>
       <path id="m50ac02a5bf" d="M 0 0 
L 0 3.5 
" style="stroke: #000000; stroke-width: 0.8"/>
      </defs>
      <g>
       <use xlink:href="#m50ac02a5bf" x="87.36" y="307.584" style="stroke: #000000; stroke-width: 0.8"/>
      </g>
     </g>
     <g id="text_1">
      <!-- 95 -->
      <g transform="translate(82.36 321.459) scale(0.1 -0.1)">
       <defs>
        <path id="SimHei-39" d="M 800 75 
Q 1350 1000 1700 1750 
Q 1075 1650 662 1912 
Q 250 2175 162 2625 
Q 75 3075 175 3437 
Q 275 3800 487 4037 
Q 700 4275 1000 4375 
Q 1300 4475 1537 4475 
Q 1775 4475 2025 4375 
Q 2275 4275 2475 4075 
Q 2675 3875 2750 3662 
Q 2825 3450 2825 3112 
Q 2825 2775 2575 2250 
Q 2325 1725 1350 75 
L 800 75 
z
M 662 2875 
Q 700 2550 937 2337 
Q 1175 2125 1450 2150 
Q 1725 2175 1887 2300 
Q 2050 2425 2200 2725 
Q 2300 3100 2250 3362 
Q 2200 3625 1987 3800 
Q 1775 3975 1525 3975 
Q 1375 4000 1137 3900 
Q 900 3800 762 3500 
Q 625 3200 662 2875 
z
" transform="scale(0.015625)"/>
        <path id="SimHei-35" d="M 550 1325 
Q 725 650 1150 575 
Q 1575 500 1837 662 
Q 2100 825 2212 1087 
Q 2325 1350 2312 1675 
Q 2300 2000 2137 2225 
Q 1975 2450 1725 2525 
Q 1475 2600 1162 2525 
Q 850 2450 650 2175 
L 225 2225 
Q 275 2375 700 4375 
L 2675 4375 
L 2675 3925 
L 1075 3925 
Q 950 3250 825 2850 
Q 1200 3025 1525 3012 
Q 1850 3000 2150 2862 
Q 2450 2725 2587 2487 
Q 2725 2250 2787 2012 
Q 2850 1775 2837 1500 
Q 2825 1225 2725 937 
Q 2625 650 2425 462 
Q 2225 275 1937 162 
Q 1650 50 1275 75 
Q 900 100 562 350 
Q 225 600 100 1200 
L 550 1325 
z
" transform="scale(0.015625)"/>
       </defs>
       <use xlink:href="#SimHei-39"/>
       <use xlink:href="#SimHei-35" x="50"/>
      </g>
     </g>
    </g>
    <g id="xtick_2">
     <g id="line2d_2">
      <g>
       <use xlink:href="#m50ac02a5bf" x="146.88" y="307.584" style="stroke: #000000; stroke-width: 0.8"/>
      </g>
     </g>
     <g id="text_2">
      <!-- 96 -->
      <g transform="translate(141.88 321.459) scale(0.1 -0.1)">
       <defs>
        <path id="SimHei-36" d="M 250 1612 
Q 275 1975 387 2225 
Q 500 2475 725 2850 
L 1750 4450 
L 2325 4450 
L 1275 2800 
Q 1950 2975 2350 2750 
Q 2750 2525 2887 2237 
Q 3025 1950 3037 1612 
Q 3050 1275 2937 950 
Q 2825 625 2537 362 
Q 2250 100 1737 75 
Q 1225 50 862 262 
Q 500 475 362 862 
Q 225 1250 250 1612 
z
M 1025 787 
Q 1250 550 1625 525 
Q 2000 500 2250 775 
Q 2500 1050 2500 1575 
Q 2500 2100 2187 2300 
Q 1875 2500 1487 2450 
Q 1100 2400 925 2075 
Q 750 1750 775 1387 
Q 800 1025 1025 787 
z
" transform="scale(0.015625)"/>
       </defs>
       <use xlink:href="#SimHei-39"/>
       <use xlink:href="#SimHei-36" x="50"/>
      </g>
     </g>
    </g>
    <g id="xtick_3">
     <g id="line2d_3">
      <g>
       <use xlink:href="#m50ac02a5bf" x="206.4" y="307.584" style="stroke: #000000; stroke-width: 0.8"/>
      </g>
     </g>
     <g id="text_3">
      <!-- 97 -->
      <g transform="translate(201.4 321.459) scale(0.1 -0.1)">
       <defs>
        <path id="SimHei-37" d="M 850 150 
Q 1300 2050 2425 3925 
L 275 3925 
L 275 4375 
L 2950 4375 
L 2950 3950 
Q 1775 2050 1400 150 
L 850 150 
z
" transform="scale(0.015625)"/>
       </defs>
       <use xlink:href="#SimHei-39"/>
       <use xlink:href="#SimHei-37" x="50"/>
      </g>
     </g>
    </g>
    <g id="xtick_4">
     <g id="line2d_4">
      <g>
       <use xlink:href="#m50ac02a5bf" x="265.92" y="307.584" style="stroke: #000000; stroke-width: 0.8"/>
      </g>
     </g>
     <g id="text_4">
      <!-- 98 -->
      <g transform="translate(260.92 321.459) scale(0.1 -0.1)">
       <defs>
        <path id="SimHei-38" d="M 175 1375 
Q 175 1675 325 1962 
Q 475 2250 825 2425 
Q 525 2600 425 2812 
Q 325 3025 312 3300 
Q 300 3575 387 3775 
Q 475 3975 650 4150 
Q 825 4325 1037 4387 
Q 1250 4450 1500 4450 
Q 1750 4450 1950 4400 
Q 2150 4350 2375 4187 
Q 2600 4025 2700 3725 
Q 2800 3425 2687 3025 
Q 2575 2625 2100 2400 
Q 2525 2275 2700 2012 
Q 2875 1750 2875 1375 
Q 2875 1000 2762 775 
Q 2650 550 2512 400 
Q 2375 250 2137 162 
Q 1900 75 1537 75 
Q 1175 75 912 162 
Q 650 250 475 425 
Q 300 600 237 837 
Q 175 1075 175 1375 
z
M 687 1400 
Q 675 1100 787 875 
Q 900 650 1200 587 
Q 1500 525 1825 600 
Q 2150 675 2275 950 
Q 2400 1225 2362 1500 
Q 2325 1775 2050 1962 
Q 1775 2150 1450 2125 
Q 1125 2100 912 1900 
Q 700 1700 687 1400 
z
M 775 3350 
Q 775 3100 950 2875 
Q 1125 2650 1500 2650 
Q 1875 2650 2062 2875 
Q 2250 3100 2237 3412 
Q 2225 3725 2012 3875 
Q 1800 4025 1437 4000 
Q 1075 3975 925 3787 
Q 775 3600 775 3350 
z
" transform="scale(0.015625)"/>
       </defs>
       <use xlink:href="#SimHei-39"/>
       <use xlink:href="#SimHei-38" x="50"/>
      </g>
     </g>
    </g>
    <g id="xtick_5">
     <g id="line2d_5">
      <g>
       <use xlink:href="#m50ac02a5bf" x="325.44" y="307.584" style="stroke: #000000; stroke-width: 0.8"/>
      </g>
     </g>
     <g id="text_5">
      <!-- 99 -->
      <g transform="translate(320.44 321.459) scale(0.1 -0.1)">
       <use xlink:href="#SimHei-39"/>
       <use xlink:href="#SimHei-39" x="50"/>
      </g>
     </g>
    </g>
    <g id="xtick_6">
     <g id="line2d_6">
      <g>
       <use xlink:href="#m50ac02a5bf" x="384.96" y="307.584" style="stroke: #000000; stroke-width: 0.8"/>
      </g>
     </g>
     <g id="text_6">
      <!-- 100 -->
      <g transform="translate(377.46 321.459) scale(0.1 -0.1)">
       <defs>
        <path id="SimHei-31" d="M 1400 3600 
Q 1075 3275 575 2975 
L 575 3450 
Q 1200 3875 1600 4450 
L 1900 4450 
L 1900 150 
L 1400 150 
L 1400 3600 
z
" transform="scale(0.015625)"/>
        <path id="SimHei-30" d="M 225 2537 
Q 250 3200 412 3587 
Q 575 3975 875 4225 
Q 1175 4475 1612 4475 
Q 2050 4475 2375 4112 
Q 2700 3750 2800 3200 
Q 2900 2650 2862 1937 
Q 2825 1225 2612 775 
Q 2400 325 1975 150 
Q 1550 -25 1125 187 
Q 700 400 525 750 
Q 350 1100 275 1487 
Q 200 1875 225 2537 
z
M 750 2687 
Q 675 2000 800 1462 
Q 925 925 1212 700 
Q 1500 475 1800 612 
Q 2100 750 2237 1162 
Q 2375 1575 2375 2062 
Q 2375 2550 2337 2950 
Q 2300 3350 2112 3675 
Q 1925 4000 1612 4012 
Q 1300 4025 1062 3700 
Q 825 3375 750 2687 
z
" transform="scale(0.015625)"/>
       </defs>
       <use xlink:href="#SimHei-31"/>
       <use xlink:href="#SimHei-30" x="50"/>
       <use xlink:href="#SimHei-30" x="100"/>
      </g>
     </g>
    </g>
    <g id="text_7">
     <!-- points -->
     <g transform="translate(221.16 333.584) scale(0.1 -0.1)">
      <defs>
       <path id="SimHei-70" d="M 2825 1525 
Q 2825 800 2475 425 
Q 2125 50 1625 50 
Q 1350 50 1150 162 
Q 950 275 800 500 
L 800 -800 
L 300 -800 
L 300 2925 
L 800 2925 
L 800 2550 
Q 950 2775 1150 2875 
Q 1350 2975 1625 2975 
Q 2125 2975 2475 2612 
Q 2825 2250 2825 1525 
z
M 2275 1525 
Q 2275 2000 2087 2262 
Q 1900 2525 1525 2525 
Q 1225 2525 1012 2262 
Q 800 2000 800 1525 
Q 800 1050 1012 775 
Q 1225 500 1525 500 
Q 1900 500 2087 775 
Q 2275 1050 2275 1525 
z
" transform="scale(0.015625)"/>
       <path id="SimHei-6f" d="M 2925 1525 
Q 2925 875 2525 475 
Q 2125 75 1575 75 
Q 1025 75 625 475 
Q 225 875 225 1525 
Q 225 2175 625 2575 
Q 1025 2975 1575 2975 
Q 2125 2975 2525 2575 
Q 2925 2175 2925 1525 
z
M 2375 1525 
Q 2375 2025 2125 2275 
Q 1875 2525 1575 2525 
Q 1275 2525 1025 2275 
Q 775 2025 775 1525 
Q 775 1025 1025 775 
Q 1275 525 1575 525 
Q 1875 525 2125 775 
Q 2375 1025 2375 1525 
z
" transform="scale(0.015625)"/>
       <path id="SimHei-69" d="M 1800 3725 
L 1300 3725 
L 1300 4375 
L 1800 4375 
L 1800 3725 
z
M 1800 125 
L 1300 125 
L 1300 2925 
L 1800 2925 
L 1800 125 
z
" transform="scale(0.015625)"/>
       <path id="SimHei-6e" d="M 2800 125 
L 2300 125 
L 2300 1925 
Q 2300 2225 2150 2400 
Q 2000 2575 1750 2575 
Q 1425 2575 1137 2237 
Q 850 1900 850 1400 
L 850 125 
L 350 125 
L 350 2925 
L 850 2925 
L 850 2400 
Q 1050 2675 1287 2825 
Q 1525 2975 1900 2975 
Q 2350 2975 2575 2725 
Q 2800 2475 2800 2100 
L 2800 125 
z
" transform="scale(0.015625)"/>
       <path id="SimHei-74" d="M 2750 200 
Q 2625 150 2462 112 
Q 2300 75 2025 75 
Q 1575 75 1300 325 
Q 1025 575 1025 1025 
L 1025 2525 
L 175 2525 
L 175 2925 
L 1025 2925 
L 1025 3900 
L 1525 3900 
L 1525 2925 
L 2550 2925 
L 2550 2525 
L 1525 2525 
L 1525 1000 
Q 1525 800 1625 662 
Q 1725 525 2000 525 
Q 2275 525 2450 575 
Q 2625 625 2750 700 
L 2750 200 
z
" transform="scale(0.015625)"/>
       <path id="SimHei-73" d="M 2750 900 
Q 2750 500 2437 287 
Q 2125 75 1650 75 
Q 1050 75 725 312 
Q 400 550 400 1000 
L 900 1000 
Q 900 700 1112 600 
Q 1325 500 1625 500 
Q 1925 500 2075 612 
Q 2225 725 2225 900 
Q 2225 1025 2100 1150 
Q 1975 1275 1475 1350 
Q 900 1425 687 1637 
Q 475 1850 475 2200 
Q 475 2500 762 2737 
Q 1050 2975 1600 2975 
Q 2100 2975 2387 2750 
Q 2675 2525 2675 2150 
L 2175 2150 
Q 2175 2375 2012 2462 
Q 1850 2550 1600 2550 
Q 1275 2550 1137 2437 
Q 1000 2325 1000 2175 
Q 1000 2000 1125 1900 
Q 1250 1800 1650 1750 
Q 2300 1650 2525 1437 
Q 2750 1225 2750 900 
z
" transform="scale(0.015625)"/>
      </defs>
      <use xlink:href="#SimHei-70"/>
      <use xlink:href="#SimHei-6f" x="50"/>
      <use xlink:href="#SimHei-69" x="100"/>
      <use xlink:href="#SimHei-6e" x="150"/>
      <use xlink:href="#SimHei-74" x="200"/>
      <use xlink:href="#SimHei-73" x="250"/>
     </g>
    </g>
   </g>
   <g id="matplotlib.axis_2">
    <g id="ytick_1">
     <g id="line2d_7">
      <defs>
       <path id="mcf12915506" d="M 0 0 
L -3.5 0 
" style="stroke: #000000; stroke-width: 0.8"/>
      </defs>
      <g>
       <use xlink:href="#mcf12915506" x="57.6" y="300.56502" style="stroke: #000000; stroke-width: 0.8"/>
      </g>
     </g>
     <g id="text_8">
      <!-- 0 -->
      <g transform="translate(45.6 304.00252) scale(0.1 -0.1)">
       <use xlink:href="#SimHei-30"/>
      </g>
     </g>
    </g>
    <g id="ytick_2">
     <g id="line2d_8">
      <g>
       <use xlink:href="#mcf12915506" x="57.6" y="249.794821" style="stroke: #000000; stroke-width: 0.8"/>
      </g>
     </g>
     <g id="text_9">
      <!-- 200 -->
      <g transform="translate(35.6 253.232321) scale(0.1 -0.1)">
       <defs>
        <path id="SimHei-32" d="M 300 250 
Q 325 625 650 925 
Q 975 1225 1475 1862 
Q 1975 2500 2125 2850 
Q 2275 3200 2237 3450 
Q 2200 3700 2000 3862 
Q 1800 4025 1537 4000 
Q 1275 3975 1037 3800 
Q 800 3625 675 3275 
L 200 3350 
Q 400 3925 712 4187 
Q 1025 4450 1450 4475 
Q 1700 4500 1900 4462 
Q 2100 4425 2312 4287 
Q 2525 4150 2662 3875 
Q 2800 3600 2762 3212 
Q 2725 2825 2375 2287 
Q 2025 1750 1025 600 
L 2825 600 
L 2825 150 
L 300 150 
L 300 250 
z
" transform="scale(0.015625)"/>
       </defs>
       <use xlink:href="#SimHei-32"/>
       <use xlink:href="#SimHei-30" x="50"/>
       <use xlink:href="#SimHei-30" x="100"/>
      </g>
     </g>
    </g>
    <g id="ytick_3">
     <g id="line2d_9">
      <g>
       <use xlink:href="#mcf12915506" x="57.6" y="199.024621" style="stroke: #000000; stroke-width: 0.8"/>
      </g>
     </g>
     <g id="text_10">
      <!-- 400 -->
      <g transform="translate(35.6 202.462121) scale(0.1 -0.1)">
       <defs>
        <path id="SimHei-34" d="M 2000 1100 
L 75 1100 
L 75 1525 
L 2100 4450 
L 2475 4450 
L 2475 1525 
L 3075 1525 
L 3075 1100 
L 2475 1100 
L 2475 150 
L 2000 150 
L 2000 1100 
z
M 2000 1525 
L 2000 3500 
L 600 1525 
L 2000 1525 
z
" transform="scale(0.015625)"/>
       </defs>
       <use xlink:href="#SimHei-34"/>
       <use xlink:href="#SimHei-30" x="50"/>
       <use xlink:href="#SimHei-30" x="100"/>
      </g>
     </g>
    </g>
    <g id="ytick_4">
     <g id="line2d_10">
      <g>
       <use xlink:href="#mcf12915506" x="57.6" y="148.254422" style="stroke: #000000; stroke-width: 0.8"/>
      </g>
     </g>
     <g id="text_11">
      <!-- 600 -->
      <g transform="translate(35.6 151.691922) scale(0.1 -0.1)">
       <use xlink:href="#SimHei-36"/>
       <use xlink:href="#SimHei-30" x="50"/>
       <use xlink:href="#SimHei-30" x="100"/>
      </g>
     </g>
    </g>
    <g id="ytick_5">
     <g id="line2d_11">
      <g>
       <use xlink:href="#mcf12915506" x="57.6" y="97.484222" style="stroke: #000000; stroke-width: 0.8"/>
      </g>
     </g>
     <g id="text_12">
      <!-- 800 -->
      <g transform="translate(35.6 100.921722) scale(0.1 -0.1)">
       <use xlink:href="#SimHei-38"/>
       <use xlink:href="#SimHei-30" x="50"/>
       <use xlink:href="#SimHei-30" x="100"/>
      </g>
     </g>
    </g>
    <g id="ytick_6">
     <g id="line2d_12">
      <g>
       <use xlink:href="#mcf12915506" x="57.6" y="46.714023" style="stroke: #000000; stroke-width: 0.8"/>
      </g>
     </g>
     <g id="text_13">
      <!-- 1000 -->
      <g transform="translate(30.6 50.151523) scale(0.1 -0.1)">
       <use xlink:href="#SimHei-31"/>
       <use xlink:href="#SimHei-30" x="50"/>
       <use xlink:href="#SimHei-30" x="100"/>
       <use xlink:href="#SimHei-30" x="150"/>
      </g>
     </g>
    </g>
    <g id="text_14">
     <!-- price -->
     <g transform="translate(25.35 187.028) rotate(-90) scale(0.1 -0.1)">
      <defs>
       <path id="SimHei-72" d="M 2500 2425 
Q 2025 2500 1700 2287 
Q 1375 2075 1150 1550 
L 1150 125 
L 650 125 
L 650 2925 
L 1150 2925 
L 1150 2200 
Q 1375 2600 1712 2787 
Q 2050 2975 2500 2975 
L 2500 2425 
z
" transform="scale(0.015625)"/>
       <path id="SimHei-63" d="M 2850 1250 
Q 2850 725 2487 400 
Q 2125 75 1575 75 
Q 1025 75 625 462 
Q 225 850 225 1525 
Q 225 2200 625 2587 
Q 1025 2975 1575 2975 
Q 2125 2975 2450 2687 
Q 2775 2400 2775 2000 
L 2225 2000 
Q 2200 2300 2012 2412 
Q 1825 2525 1575 2525 
Q 1275 2525 1025 2287 
Q 775 2050 775 1525 
Q 775 1000 1025 762 
Q 1275 525 1575 525 
Q 1900 525 2100 700 
Q 2300 875 2300 1250 
L 2850 1250 
z
" transform="scale(0.015625)"/>
       <path id="SimHei-65" d="M 2850 1075 
Q 2800 625 2450 350 
Q 2100 75 1625 75 
Q 1025 75 637 462 
Q 250 850 250 1525 
Q 250 2200 637 2587 
Q 1025 2975 1625 2975 
Q 2150 2975 2487 2637 
Q 2825 2300 2825 1525 
L 800 1525 
Q 800 975 1037 750 
Q 1275 525 1625 525 
Q 1900 525 2075 662 
Q 2250 800 2300 1075 
L 2850 1075 
z
M 2250 1925 
Q 2200 2275 2025 2412 
Q 1850 2550 1575 2550 
Q 1325 2550 1125 2412 
Q 925 2275 825 1925 
L 2250 1925 
z
" transform="scale(0.015625)"/>
      </defs>
      <use xlink:href="#SimHei-70"/>
      <use xlink:href="#SimHei-72" x="50"/>
      <use xlink:href="#SimHei-69" x="100"/>
      <use xlink:href="#SimHei-63" x="150"/>
      <use xlink:href="#SimHei-65" x="200"/>
     </g>
    </g>
   </g>
   <g id="patch_3">
    <path d="M 63.552 286.603215 
L 111.168 286.603215 
L 111.168 270.1029 
L 63.552 270.1029 
L 63.552 286.603215 
z
" clip-path="url(#p7bd13728d9)" style="fill: #3274a1; stroke: #3d3d3d; stroke-linejoin: miter"/>
   </g>
   <g id="line2d_13">
    <path d="M 87.36 286.603215 
L 87.36 295.488 
" clip-path="url(#p7bd13728d9)" style="fill: none; stroke: #3d3d3d"/>
   </g>
   <g id="line2d_14">
    <path d="M 87.36 270.1029 
L 87.36 246.240907 
" clip-path="url(#p7bd13728d9)" style="fill: none; stroke: #3d3d3d"/>
   </g>
   <g id="line2d_15">
    <path d="M 75.456 295.488 
L 99.264 295.488 
" clip-path="url(#p7bd13728d9)" style="fill: none; stroke: #3d3d3d; stroke-linecap: square"/>
   </g>
   <g id="line2d_16">
    <path d="M 75.456 246.240907 
L 99.264 246.240907 
" clip-path="url(#p7bd13728d9)" style="fill: none; stroke: #3d3d3d; stroke-linecap: square"/>
   </g>
   <g id="line2d_17">
    <defs>
     <path id="mfcf05cd359" d="M 0 3 
C 0.795609 3 1.55874 2.683901 2.12132 2.12132 
C 2.683901 1.55874 3 0.795609 3 0 
C 3 -0.795609 2.683901 -1.55874 2.12132 -2.12132 
C 1.55874 -2.683901 0.795609 -3 0 -3 
C -0.795609 -3 -1.55874 -2.683901 -2.12132 -2.12132 
C -2.683901 -1.55874 -3 -0.795609 -3 0 
C -3 0.795609 -2.683901 1.55874 -2.12132 2.12132 
C -1.55874 2.683901 -0.795609 3 0 3 
z
" style="stroke: #3d3d3d"/>
    </defs>
    <g clip-path="url(#p7bd13728d9)">
     <use xlink:href="#mfcf05cd359" x="87.36" y="173.639522" style="fill-opacity: 0; stroke: #3d3d3d"/>
     <use xlink:href="#mfcf05cd359" x="87.36" y="205.370896" style="fill-opacity: 0; stroke: #3d3d3d"/>
     <use xlink:href="#mfcf05cd359" x="87.36" y="234.563761" style="fill-opacity: 0; stroke: #3d3d3d"/>
     <use xlink:href="#mfcf05cd359" x="87.36" y="234.563761" style="fill-opacity: 0; stroke: #3d3d3d"/>
     <use xlink:href="#mfcf05cd359" x="87.36" y="225.678976" style="fill-opacity: 0; stroke: #3d3d3d"/>
     <use xlink:href="#mfcf05cd359" x="87.36" y="173.639522" style="fill-opacity: 0; stroke: #3d3d3d"/>
     <use xlink:href="#mfcf05cd359" x="87.36" y="237.102271" style="fill-opacity: 0; stroke: #3d3d3d"/>
     <use xlink:href="#mfcf05cd359" x="87.36" y="199.532323" style="fill-opacity: 0; stroke: #3d3d3d"/>
     <use xlink:href="#mfcf05cd359" x="87.36" y="231.517549" style="fill-opacity: 0; stroke: #3d3d3d"/>
     <use xlink:href="#mfcf05cd359" x="87.36" y="209.178661" style="fill-opacity: 0; stroke: #3d3d3d"/>
     <use xlink:href="#mfcf05cd359" x="87.36" y="223.648168" style="fill-opacity: 0; stroke: #3d3d3d"/>
     <use xlink:href="#mfcf05cd359" x="87.36" y="237.102271" style="fill-opacity: 0; stroke: #3d3d3d"/>
     <use xlink:href="#mfcf05cd359" x="87.36" y="224.409721" style="fill-opacity: 0; stroke: #3d3d3d"/>
     <use xlink:href="#mfcf05cd359" x="87.36" y="160.946972" style="fill-opacity: 0; stroke: #3d3d3d"/>
     <use xlink:href="#mfcf05cd359" x="87.36" y="206.640151" style="fill-opacity: 0; stroke: #3d3d3d"/>
     <use xlink:href="#mfcf05cd359" x="87.36" y="239.640781" style="fill-opacity: 0; stroke: #3d3d3d"/>
     <use xlink:href="#mfcf05cd359" x="87.36" y="218.063446" style="fill-opacity: 0; stroke: #3d3d3d"/>
     <use xlink:href="#mfcf05cd359" x="87.36" y="223.394317" style="fill-opacity: 0; stroke: #3d3d3d"/>
     <use xlink:href="#mfcf05cd359" x="87.36" y="201.563131" style="fill-opacity: 0; stroke: #3d3d3d"/>
     <use xlink:href="#mfcf05cd359" x="87.36" y="237.356122" style="fill-opacity: 0; stroke: #3d3d3d"/>
     <use xlink:href="#mfcf05cd359" x="87.36" y="237.356122" style="fill-opacity: 0; stroke: #3d3d3d"/>
     <use xlink:href="#mfcf05cd359" x="87.36" y="230.502145" style="fill-opacity: 0; stroke: #3d3d3d"/>
     <use xlink:href="#mfcf05cd359" x="87.36" y="194.201452" style="fill-opacity: 0; stroke: #3d3d3d"/>
     <use xlink:href="#mfcf05cd359" x="87.36" y="240.910036" style="fill-opacity: 0; stroke: #3d3d3d"/>
     <use xlink:href="#mfcf05cd359" x="87.36" y="224.409721" style="fill-opacity: 0; stroke: #3d3d3d"/>
     <use xlink:href="#mfcf05cd359" x="87.36" y="221.363509" style="fill-opacity: 0; stroke: #3d3d3d"/>
     <use xlink:href="#mfcf05cd359" x="87.36" y="211.717171" style="fill-opacity: 0; stroke: #3d3d3d"/>
     <use xlink:href="#mfcf05cd359" x="87.36" y="209.940214" style="fill-opacity: 0; stroke: #3d3d3d"/>
     <use xlink:href="#mfcf05cd359" x="87.36" y="183.793561" style="fill-opacity: 0; stroke: #3d3d3d"/>
     <use xlink:href="#mfcf05cd359" x="87.36" y="244.717801" style="fill-opacity: 0; stroke: #3d3d3d"/>
     <use xlink:href="#mfcf05cd359" x="87.36" y="226.948231" style="fill-opacity: 0; stroke: #3d3d3d"/>
     <use xlink:href="#mfcf05cd359" x="87.36" y="174.908776" style="fill-opacity: 0; stroke: #3d3d3d"/>
     <use xlink:href="#mfcf05cd359" x="87.36" y="166.023992" style="fill-opacity: 0; stroke: #3d3d3d"/>
     <use xlink:href="#mfcf05cd359" x="87.36" y="239.640781" style="fill-opacity: 0; stroke: #3d3d3d"/>
     <use xlink:href="#mfcf05cd359" x="87.36" y="103.830497" style="fill-opacity: 0; stroke: #3d3d3d"/>
     <use xlink:href="#mfcf05cd359" x="87.36" y="239.133079" style="fill-opacity: 0; stroke: #3d3d3d"/>
     <use xlink:href="#mfcf05cd359" x="87.36" y="148.254422" style="fill-opacity: 0; stroke: #3d3d3d"/>
     <use xlink:href="#mfcf05cd359" x="87.36" y="229.740592" style="fill-opacity: 0; stroke: #3d3d3d"/>
     <use xlink:href="#mfcf05cd359" x="87.36" y="211.717171" style="fill-opacity: 0; stroke: #3d3d3d"/>
     <use xlink:href="#mfcf05cd359" x="87.36" y="224.409721" style="fill-opacity: 0; stroke: #3d3d3d"/>
     <use xlink:href="#mfcf05cd359" x="87.36" y="232.025251" style="fill-opacity: 0; stroke: #3d3d3d"/>
     <use xlink:href="#mfcf05cd359" x="87.36" y="209.178661" style="fill-opacity: 0; stroke: #3d3d3d"/>
     <use xlink:href="#mfcf05cd359" x="87.36" y="183.793561" style="fill-opacity: 0; stroke: #3d3d3d"/>
     <use xlink:href="#mfcf05cd359" x="87.36" y="235.833016" style="fill-opacity: 0; stroke: #3d3d3d"/>
     <use xlink:href="#mfcf05cd359" x="87.36" y="173.893373" style="fill-opacity: 0; stroke: #3d3d3d"/>
     <use xlink:href="#mfcf05cd359" x="87.36" y="240.656185" style="fill-opacity: 0; stroke: #3d3d3d"/>
     <use xlink:href="#mfcf05cd359" x="87.36" y="224.409721" style="fill-opacity: 0; stroke: #3d3d3d"/>
     <use xlink:href="#mfcf05cd359" x="87.36" y="239.894632" style="fill-opacity: 0; stroke: #3d3d3d"/>
     <use xlink:href="#mfcf05cd359" x="87.36" y="205.370896" style="fill-opacity: 0; stroke: #3d3d3d"/>
     <use xlink:href="#mfcf05cd359" x="87.36" y="239.640781" style="fill-opacity: 0; stroke: #3d3d3d"/>
     <use xlink:href="#mfcf05cd359" x="87.36" y="160.946972" style="fill-opacity: 0; stroke: #3d3d3d"/>
     <use xlink:href="#mfcf05cd359" x="87.36" y="230.755996" style="fill-opacity: 0; stroke: #3d3d3d"/>
     <use xlink:href="#mfcf05cd359" x="87.36" y="195.978409" style="fill-opacity: 0; stroke: #3d3d3d"/>
     <use xlink:href="#mfcf05cd359" x="87.36" y="236.594569" style="fill-opacity: 0; stroke: #3d3d3d"/>
     <use xlink:href="#mfcf05cd359" x="87.36" y="224.409721" style="fill-opacity: 0; stroke: #3d3d3d"/>
     <use xlink:href="#mfcf05cd359" x="87.36" y="219.332701" style="fill-opacity: 0; stroke: #3d3d3d"/>
     <use xlink:href="#mfcf05cd359" x="87.36" y="224.409721" style="fill-opacity: 0; stroke: #3d3d3d"/>
     <use xlink:href="#mfcf05cd359" x="87.36" y="237.102271" style="fill-opacity: 0; stroke: #3d3d3d"/>
     <use xlink:href="#mfcf05cd359" x="87.36" y="186.839773" style="fill-opacity: 0; stroke: #3d3d3d"/>
     <use xlink:href="#mfcf05cd359" x="87.36" y="216.794191" style="fill-opacity: 0; stroke: #3d3d3d"/>
     <use xlink:href="#mfcf05cd359" x="87.36" y="182.016604" style="fill-opacity: 0; stroke: #3d3d3d"/>
     <use xlink:href="#mfcf05cd359" x="87.36" y="103.830497" style="fill-opacity: 0; stroke: #3d3d3d"/>
     <use xlink:href="#mfcf05cd359" x="87.36" y="211.717171" style="fill-opacity: 0; stroke: #3d3d3d"/>
     <use xlink:href="#mfcf05cd359" x="87.36" y="216.032638" style="fill-opacity: 0; stroke: #3d3d3d"/>
     <use xlink:href="#mfcf05cd359" x="87.36" y="216.794191" style="fill-opacity: 0; stroke: #3d3d3d"/>
     <use xlink:href="#mfcf05cd359" x="87.36" y="243.448546" style="fill-opacity: 0; stroke: #3d3d3d"/>
     <use xlink:href="#mfcf05cd359" x="87.36" y="156.123803" style="fill-opacity: 0; stroke: #3d3d3d"/>
     <use xlink:href="#mfcf05cd359" x="87.36" y="216.794191" style="fill-opacity: 0; stroke: #3d3d3d"/>
     <use xlink:href="#mfcf05cd359" x="87.36" y="239.640781" style="fill-opacity: 0; stroke: #3d3d3d"/>
     <use xlink:href="#mfcf05cd359" x="87.36" y="53.568" style="fill-opacity: 0; stroke: #3d3d3d"/>
     <use xlink:href="#mfcf05cd359" x="87.36" y="211.717171" style="fill-opacity: 0; stroke: #3d3d3d"/>
     <use xlink:href="#mfcf05cd359" x="87.36" y="151.300634" style="fill-opacity: 0; stroke: #3d3d3d"/>
     <use xlink:href="#mfcf05cd359" x="87.36" y="193.947601" style="fill-opacity: 0; stroke: #3d3d3d"/>
     <use xlink:href="#mfcf05cd359" x="87.36" y="186.332071" style="fill-opacity: 0; stroke: #3d3d3d"/>
     <use xlink:href="#mfcf05cd359" x="87.36" y="234.056059" style="fill-opacity: 0; stroke: #3d3d3d"/>
     <use xlink:href="#mfcf05cd359" x="87.36" y="226.948231" style="fill-opacity: 0; stroke: #3d3d3d"/>
     <use xlink:href="#mfcf05cd359" x="87.36" y="243.448546" style="fill-opacity: 0; stroke: #3d3d3d"/>
     <use xlink:href="#mfcf05cd359" x="87.36" y="243.448546" style="fill-opacity: 0; stroke: #3d3d3d"/>
     <use xlink:href="#mfcf05cd359" x="87.36" y="226.948231" style="fill-opacity: 0; stroke: #3d3d3d"/>
     <use xlink:href="#mfcf05cd359" x="87.36" y="240.402334" style="fill-opacity: 0; stroke: #3d3d3d"/>
     <use xlink:href="#mfcf05cd359" x="87.36" y="186.332071" style="fill-opacity: 0; stroke: #3d3d3d"/>
     <use xlink:href="#mfcf05cd359" x="87.36" y="173.639522" style="fill-opacity: 0; stroke: #3d3d3d"/>
     <use xlink:href="#mfcf05cd359" x="87.36" y="244.717801" style="fill-opacity: 0; stroke: #3d3d3d"/>
     <use xlink:href="#mfcf05cd359" x="87.36" y="199.024621" style="fill-opacity: 0; stroke: #3d3d3d"/>
     <use xlink:href="#mfcf05cd359" x="87.36" y="234.563761" style="fill-opacity: 0; stroke: #3d3d3d"/>
     <use xlink:href="#mfcf05cd359" x="87.36" y="225.678976" style="fill-opacity: 0; stroke: #3d3d3d"/>
     <use xlink:href="#mfcf05cd359" x="87.36" y="181.508902" style="fill-opacity: 0; stroke: #3d3d3d"/>
     <use xlink:href="#mfcf05cd359" x="87.36" y="217.301893" style="fill-opacity: 0; stroke: #3d3d3d"/>
     <use xlink:href="#mfcf05cd359" x="87.36" y="226.440529" style="fill-opacity: 0; stroke: #3d3d3d"/>
     <use xlink:href="#mfcf05cd359" x="87.36" y="243.448546" style="fill-opacity: 0; stroke: #3d3d3d"/>
     <use xlink:href="#mfcf05cd359" x="87.36" y="188.870581" style="fill-opacity: 0; stroke: #3d3d3d"/>
     <use xlink:href="#mfcf05cd359" x="87.36" y="216.032638" style="fill-opacity: 0; stroke: #3d3d3d"/>
     <use xlink:href="#mfcf05cd359" x="87.36" y="224.409721" style="fill-opacity: 0; stroke: #3d3d3d"/>
     <use xlink:href="#mfcf05cd359" x="87.36" y="237.102271" style="fill-opacity: 0; stroke: #3d3d3d"/>
     <use xlink:href="#mfcf05cd359" x="87.36" y="179.985796" style="fill-opacity: 0; stroke: #3d3d3d"/>
     <use xlink:href="#mfcf05cd359" x="87.36" y="221.363509" style="fill-opacity: 0; stroke: #3d3d3d"/>
     <use xlink:href="#mfcf05cd359" x="87.36" y="237.102271" style="fill-opacity: 0; stroke: #3d3d3d"/>
     <use xlink:href="#mfcf05cd359" x="87.36" y="120.330812" style="fill-opacity: 0; stroke: #3d3d3d"/>
     <use xlink:href="#mfcf05cd359" x="87.36" y="186.332071" style="fill-opacity: 0; stroke: #3d3d3d"/>
     <use xlink:href="#mfcf05cd359" x="87.36" y="205.370896" style="fill-opacity: 0; stroke: #3d3d3d"/>
     <use xlink:href="#mfcf05cd359" x="87.36" y="148.254422" style="fill-opacity: 0; stroke: #3d3d3d"/>
     <use xlink:href="#mfcf05cd359" x="87.36" y="173.639522" style="fill-opacity: 0; stroke: #3d3d3d"/>
     <use xlink:href="#mfcf05cd359" x="87.36" y="204.101641" style="fill-opacity: 0; stroke: #3d3d3d"/>
     <use xlink:href="#mfcf05cd359" x="87.36" y="225.678976" style="fill-opacity: 0; stroke: #3d3d3d"/>
     <use xlink:href="#mfcf05cd359" x="87.36" y="227.963635" style="fill-opacity: 0; stroke: #3d3d3d"/>
     <use xlink:href="#mfcf05cd359" x="87.36" y="216.794191" style="fill-opacity: 0; stroke: #3d3d3d"/>
     <use xlink:href="#mfcf05cd359" x="87.36" y="230.755996" style="fill-opacity: 0; stroke: #3d3d3d"/>
     <use xlink:href="#mfcf05cd359" x="87.36" y="221.871211" style="fill-opacity: 0; stroke: #3d3d3d"/>
     <use xlink:href="#mfcf05cd359" x="87.36" y="199.532323" style="fill-opacity: 0; stroke: #3d3d3d"/>
     <use xlink:href="#mfcf05cd359" x="87.36" y="240.910036" style="fill-opacity: 0; stroke: #3d3d3d"/>
     <use xlink:href="#mfcf05cd359" x="87.36" y="222.632764" style="fill-opacity: 0; stroke: #3d3d3d"/>
     <use xlink:href="#mfcf05cd359" x="87.36" y="237.102271" style="fill-opacity: 0; stroke: #3d3d3d"/>
     <use xlink:href="#mfcf05cd359" x="87.36" y="218.063446" style="fill-opacity: 0; stroke: #3d3d3d"/>
     <use xlink:href="#mfcf05cd359" x="87.36" y="219.332701" style="fill-opacity: 0; stroke: #3d3d3d"/>
     <use xlink:href="#mfcf05cd359" x="87.36" y="204.101641" style="fill-opacity: 0; stroke: #3d3d3d"/>
     <use xlink:href="#mfcf05cd359" x="87.36" y="199.278472" style="fill-opacity: 0; stroke: #3d3d3d"/>
     <use xlink:href="#mfcf05cd359" x="87.36" y="168.562502" style="fill-opacity: 0; stroke: #3d3d3d"/>
     <use xlink:href="#mfcf05cd359" x="87.36" y="211.717171" style="fill-opacity: 0; stroke: #3d3d3d"/>
     <use xlink:href="#mfcf05cd359" x="87.36" y="202.832386" style="fill-opacity: 0; stroke: #3d3d3d"/>
     <use xlink:href="#mfcf05cd359" x="87.36" y="224.409721" style="fill-opacity: 0; stroke: #3d3d3d"/>
     <use xlink:href="#mfcf05cd359" x="87.36" y="135.561872" style="fill-opacity: 0; stroke: #3d3d3d"/>
     <use xlink:href="#mfcf05cd359" x="87.36" y="230.755996" style="fill-opacity: 0; stroke: #3d3d3d"/>
     <use xlink:href="#mfcf05cd359" x="87.36" y="210.955618" style="fill-opacity: 0; stroke: #3d3d3d"/>
     <use xlink:href="#mfcf05cd359" x="87.36" y="185.062816" style="fill-opacity: 0; stroke: #3d3d3d"/>
     <use xlink:href="#mfcf05cd359" x="87.36" y="126.677087" style="fill-opacity: 0; stroke: #3d3d3d"/>
     <use xlink:href="#mfcf05cd359" x="87.36" y="191.409091" style="fill-opacity: 0; stroke: #3d3d3d"/>
     <use xlink:href="#mfcf05cd359" x="87.36" y="200.293876" style="fill-opacity: 0; stroke: #3d3d3d"/>
     <use xlink:href="#mfcf05cd359" x="87.36" y="207.909406" style="fill-opacity: 0; stroke: #3d3d3d"/>
     <use xlink:href="#mfcf05cd359" x="87.36" y="222.632764" style="fill-opacity: 0; stroke: #3d3d3d"/>
     <use xlink:href="#mfcf05cd359" x="87.36" y="224.409721" style="fill-opacity: 0; stroke: #3d3d3d"/>
     <use xlink:href="#mfcf05cd359" x="87.36" y="243.448546" style="fill-opacity: 0; stroke: #3d3d3d"/>
     <use xlink:href="#mfcf05cd359" x="87.36" y="147.74672" style="fill-opacity: 0; stroke: #3d3d3d"/>
     <use xlink:href="#mfcf05cd359" x="87.36" y="244.971652" style="fill-opacity: 0; stroke: #3d3d3d"/>
     <use xlink:href="#mfcf05cd359" x="87.36" y="218.571148" style="fill-opacity: 0; stroke: #3d3d3d"/>
     <use xlink:href="#mfcf05cd359" x="87.36" y="84.791673" style="fill-opacity: 0; stroke: #3d3d3d"/>
     <use xlink:href="#mfcf05cd359" x="87.36" y="240.148483" style="fill-opacity: 0; stroke: #3d3d3d"/>
     <use xlink:href="#mfcf05cd359" x="87.36" y="211.717171" style="fill-opacity: 0; stroke: #3d3d3d"/>
    </g>
   </g>
   <g id="patch_4">
    <path d="M 123.072 284.064705 
L 170.688 284.064705 
L 170.688 260.900802 
L 123.072 260.900802 
L 123.072 284.064705 
z
" clip-path="url(#p7bd13728d9)" style="fill: #e1812c; stroke: #3d3d3d; stroke-linejoin: miter"/>
   </g>
   <g id="line2d_18">
    <path d="M 146.88 284.064705 
L 146.88 295.488 
" clip-path="url(#p7bd13728d9)" style="fill: none; stroke: #3d3d3d"/>
   </g>
   <g id="line2d_19">
    <path d="M 146.88 260.900802 
L 146.88 226.948231 
" clip-path="url(#p7bd13728d9)" style="fill: none; stroke: #3d3d3d"/>
   </g>
   <g id="line2d_20">
    <path d="M 134.976 295.488 
L 158.784 295.488 
" clip-path="url(#p7bd13728d9)" style="fill: none; stroke: #3d3d3d; stroke-linecap: square"/>
   </g>
   <g id="line2d_21">
    <path d="M 134.976 226.948231 
L 158.784 226.948231 
" clip-path="url(#p7bd13728d9)" style="fill: none; stroke: #3d3d3d; stroke-linecap: square"/>
   </g>
   <g id="line2d_22">
    <g clip-path="url(#p7bd13728d9)">
     <use xlink:href="#mfcf05cd359" x="146.88" y="149.523677" style="fill-opacity: 0; stroke: #3d3d3d"/>
     <use xlink:href="#mfcf05cd359" x="146.88" y="179.985796" style="fill-opacity: 0; stroke: #3d3d3d"/>
     <use xlink:href="#mfcf05cd359" x="146.88" y="186.332071" style="fill-opacity: 0; stroke: #3d3d3d"/>
     <use xlink:href="#mfcf05cd359" x="146.88" y="224.409721" style="fill-opacity: 0; stroke: #3d3d3d"/>
     <use xlink:href="#mfcf05cd359" x="146.88" y="171.101012" style="fill-opacity: 0; stroke: #3d3d3d"/>
     <use xlink:href="#mfcf05cd359" x="146.88" y="173.639522" style="fill-opacity: 0; stroke: #3d3d3d"/>
     <use xlink:href="#mfcf05cd359" x="146.88" y="211.717171" style="fill-opacity: 0; stroke: #3d3d3d"/>
     <use xlink:href="#mfcf05cd359" x="146.88" y="163.485482" style="fill-opacity: 0; stroke: #3d3d3d"/>
     <use xlink:href="#mfcf05cd359" x="146.88" y="181.508902" style="fill-opacity: 0; stroke: #3d3d3d"/>
     <use xlink:href="#mfcf05cd359" x="146.88" y="199.024621" style="fill-opacity: 0; stroke: #3d3d3d"/>
     <use xlink:href="#mfcf05cd359" x="146.88" y="154.600697" style="fill-opacity: 0; stroke: #3d3d3d"/>
     <use xlink:href="#mfcf05cd359" x="146.88" y="167.293247" style="fill-opacity: 0; stroke: #3d3d3d"/>
     <use xlink:href="#mfcf05cd359" x="146.88" y="220.601956" style="fill-opacity: 0; stroke: #3d3d3d"/>
     <use xlink:href="#mfcf05cd359" x="146.88" y="209.178661" style="fill-opacity: 0; stroke: #3d3d3d"/>
     <use xlink:href="#mfcf05cd359" x="146.88" y="211.46332" style="fill-opacity: 0; stroke: #3d3d3d"/>
     <use xlink:href="#mfcf05cd359" x="146.88" y="220.348105" style="fill-opacity: 0; stroke: #3d3d3d"/>
     <use xlink:href="#mfcf05cd359" x="146.88" y="129.97715" style="fill-opacity: 0; stroke: #3d3d3d"/>
     <use xlink:href="#mfcf05cd359" x="146.88" y="199.024621" style="fill-opacity: 0; stroke: #3d3d3d"/>
     <use xlink:href="#mfcf05cd359" x="146.88" y="220.601956" style="fill-opacity: 0; stroke: #3d3d3d"/>
     <use xlink:href="#mfcf05cd359" x="146.88" y="148.254422" style="fill-opacity: 0; stroke: #3d3d3d"/>
     <use xlink:href="#mfcf05cd359" x="146.88" y="92.407203" style="fill-opacity: 0; stroke: #3d3d3d"/>
     <use xlink:href="#mfcf05cd359" x="146.88" y="223.648168" style="fill-opacity: 0; stroke: #3d3d3d"/>
     <use xlink:href="#mfcf05cd359" x="146.88" y="207.909406" style="fill-opacity: 0; stroke: #3d3d3d"/>
     <use xlink:href="#mfcf05cd359" x="146.88" y="181.255051" style="fill-opacity: 0; stroke: #3d3d3d"/>
     <use xlink:href="#mfcf05cd359" x="146.88" y="180.239647" style="fill-opacity: 0; stroke: #3d3d3d"/>
     <use xlink:href="#mfcf05cd359" x="146.88" y="216.794191" style="fill-opacity: 0; stroke: #3d3d3d"/>
     <use xlink:href="#mfcf05cd359" x="146.88" y="215.524936" style="fill-opacity: 0; stroke: #3d3d3d"/>
     <use xlink:href="#mfcf05cd359" x="146.88" y="202.070833" style="fill-opacity: 0; stroke: #3d3d3d"/>
     <use xlink:href="#mfcf05cd359" x="146.88" y="186.332071" style="fill-opacity: 0; stroke: #3d3d3d"/>
     <use xlink:href="#mfcf05cd359" x="146.88" y="199.024621" style="fill-opacity: 0; stroke: #3d3d3d"/>
     <use xlink:href="#mfcf05cd359" x="146.88" y="126.677087" style="fill-opacity: 0; stroke: #3d3d3d"/>
     <use xlink:href="#mfcf05cd359" x="146.88" y="174.908776" style="fill-opacity: 0; stroke: #3d3d3d"/>
     <use xlink:href="#mfcf05cd359" x="146.88" y="199.024621" style="fill-opacity: 0; stroke: #3d3d3d"/>
     <use xlink:href="#mfcf05cd359" x="146.88" y="219.332701" style="fill-opacity: 0; stroke: #3d3d3d"/>
     <use xlink:href="#mfcf05cd359" x="146.88" y="140.638892" style="fill-opacity: 0; stroke: #3d3d3d"/>
     <use xlink:href="#mfcf05cd359" x="146.88" y="201.563131" style="fill-opacity: 0; stroke: #3d3d3d"/>
     <use xlink:href="#mfcf05cd359" x="146.88" y="199.024621" style="fill-opacity: 0; stroke: #3d3d3d"/>
     <use xlink:href="#mfcf05cd359" x="146.88" y="199.024621" style="fill-opacity: 0; stroke: #3d3d3d"/>
     <use xlink:href="#mfcf05cd359" x="146.88" y="218.063446" style="fill-opacity: 0; stroke: #3d3d3d"/>
     <use xlink:href="#mfcf05cd359" x="146.88" y="195.216856" style="fill-opacity: 0; stroke: #3d3d3d"/>
     <use xlink:href="#mfcf05cd359" x="146.88" y="105.861305" style="fill-opacity: 0; stroke: #3d3d3d"/>
     <use xlink:href="#mfcf05cd359" x="146.88" y="174.654925" style="fill-opacity: 0; stroke: #3d3d3d"/>
     <use xlink:href="#mfcf05cd359" x="146.88" y="105.099752" style="fill-opacity: 0; stroke: #3d3d3d"/>
     <use xlink:href="#mfcf05cd359" x="146.88" y="188.870581" style="fill-opacity: 0; stroke: #3d3d3d"/>
     <use xlink:href="#mfcf05cd359" x="146.88" y="178.716541" style="fill-opacity: 0; stroke: #3d3d3d"/>
     <use xlink:href="#mfcf05cd359" x="146.88" y="166.023992" style="fill-opacity: 0; stroke: #3d3d3d"/>
     <use xlink:href="#mfcf05cd359" x="146.88" y="179.731945" style="fill-opacity: 0; stroke: #3d3d3d"/>
     <use xlink:href="#mfcf05cd359" x="146.88" y="223.394317" style="fill-opacity: 0; stroke: #3d3d3d"/>
     <use xlink:href="#mfcf05cd359" x="146.88" y="207.909406" style="fill-opacity: 0; stroke: #3d3d3d"/>
     <use xlink:href="#mfcf05cd359" x="146.88" y="206.640151" style="fill-opacity: 0; stroke: #3d3d3d"/>
     <use xlink:href="#mfcf05cd359" x="146.88" y="179.985796" style="fill-opacity: 0; stroke: #3d3d3d"/>
     <use xlink:href="#mfcf05cd359" x="146.88" y="199.024621" style="fill-opacity: 0; stroke: #3d3d3d"/>
    </g>
   </g>
   <g id="patch_5">
    <path d="M 182.592 279.749238 
L 230.208 279.749238 
L 230.208 243.194695 
L 182.592 243.194695 
L 182.592 279.749238 
z
" clip-path="url(#p7bd13728d9)" style="fill: #3a923a; stroke: #3d3d3d; stroke-linejoin: miter"/>
   </g>
   <g id="line2d_23">
    <path d="M 206.4 279.749238 
L 206.4 291.680235 
" clip-path="url(#p7bd13728d9)" style="fill: none; stroke: #3d3d3d"/>
   </g>
   <g id="line2d_24">
    <path d="M 206.4 243.194695 
L 206.4 188.870581 
" clip-path="url(#p7bd13728d9)" style="fill: none; stroke: #3d3d3d"/>
   </g>
   <g id="line2d_25">
    <path d="M 194.496 291.680235 
L 218.304 291.680235 
" clip-path="url(#p7bd13728d9)" style="fill: none; stroke: #3d3d3d; stroke-linecap: square"/>
   </g>
   <g id="line2d_26">
    <path d="M 194.496 188.870581 
L 218.304 188.870581 
" clip-path="url(#p7bd13728d9)" style="fill: none; stroke: #3d3d3d; stroke-linecap: square"/>
   </g>
   <g id="line2d_27">
    <g clip-path="url(#p7bd13728d9)">
     <use xlink:href="#mfcf05cd359" x="206.4" y="138.354233" style="fill-opacity: 0; stroke: #3d3d3d"/>
     <use xlink:href="#mfcf05cd359" x="206.4" y="160.946972" style="fill-opacity: 0; stroke: #3d3d3d"/>
     <use xlink:href="#mfcf05cd359" x="206.4" y="186.332071" style="fill-opacity: 0; stroke: #3d3d3d"/>
     <use xlink:href="#mfcf05cd359" x="206.4" y="133.023362" style="fill-opacity: 0; stroke: #3d3d3d"/>
     <use xlink:href="#mfcf05cd359" x="206.4" y="186.332071" style="fill-opacity: 0; stroke: #3d3d3d"/>
     <use xlink:href="#mfcf05cd359" x="206.4" y="103.830497" style="fill-opacity: 0; stroke: #3d3d3d"/>
     <use xlink:href="#mfcf05cd359" x="206.4" y="187.601326" style="fill-opacity: 0; stroke: #3d3d3d"/>
     <use xlink:href="#mfcf05cd359" x="206.4" y="145.20821" style="fill-opacity: 0; stroke: #3d3d3d"/>
     <use xlink:href="#mfcf05cd359" x="206.4" y="186.332071" style="fill-opacity: 0; stroke: #3d3d3d"/>
     <use xlink:href="#mfcf05cd359" x="206.4" y="177.193435" style="fill-opacity: 0; stroke: #3d3d3d"/>
     <use xlink:href="#mfcf05cd359" x="206.4" y="154.854548" style="fill-opacity: 0; stroke: #3d3d3d"/>
     <use xlink:href="#mfcf05cd359" x="206.4" y="186.332071" style="fill-opacity: 0; stroke: #3d3d3d"/>
     <use xlink:href="#mfcf05cd359" x="206.4" y="186.07822" style="fill-opacity: 0; stroke: #3d3d3d"/>
     <use xlink:href="#mfcf05cd359" x="206.4" y="141.908147" style="fill-opacity: 0; stroke: #3d3d3d"/>
     <use xlink:href="#mfcf05cd359" x="206.4" y="160.946972" style="fill-opacity: 0; stroke: #3d3d3d"/>
     <use xlink:href="#mfcf05cd359" x="206.4" y="63.975891" style="fill-opacity: 0; stroke: #3d3d3d"/>
     <use xlink:href="#mfcf05cd359" x="206.4" y="186.332071" style="fill-opacity: 0; stroke: #3d3d3d"/>
     <use xlink:href="#mfcf05cd359" x="206.4" y="166.023992" style="fill-opacity: 0; stroke: #3d3d3d"/>
     <use xlink:href="#mfcf05cd359" x="206.4" y="179.731945" style="fill-opacity: 0; stroke: #3d3d3d"/>
     <use xlink:href="#mfcf05cd359" x="206.4" y="186.332071" style="fill-opacity: 0; stroke: #3d3d3d"/>
     <use xlink:href="#mfcf05cd359" x="206.4" y="97.484222" style="fill-opacity: 0; stroke: #3d3d3d"/>
     <use xlink:href="#mfcf05cd359" x="206.4" y="135.561872" style="fill-opacity: 0; stroke: #3d3d3d"/>
     <use xlink:href="#mfcf05cd359" x="206.4" y="75.653037" style="fill-opacity: 0; stroke: #3d3d3d"/>
     <use xlink:href="#mfcf05cd359" x="206.4" y="181.762753" style="fill-opacity: 0; stroke: #3d3d3d"/>
     <use xlink:href="#mfcf05cd359" x="206.4" y="183.793561" style="fill-opacity: 0; stroke: #3d3d3d"/>
     <use xlink:href="#mfcf05cd359" x="206.4" y="123.377024" style="fill-opacity: 0; stroke: #3d3d3d"/>
    </g>
   </g>
   <g id="patch_6">
    <path d="M 242.112 278.797297 
L 289.728 278.797297 
L 289.728 232.659878 
L 242.112 232.659878 
L 242.112 278.797297 
z
" clip-path="url(#p7bd13728d9)" style="fill: #c03d3e; stroke: #3d3d3d; stroke-linejoin: miter"/>
   </g>
   <g id="line2d_28">
    <path d="M 265.92 278.797297 
L 265.92 287.87247 
" clip-path="url(#p7bd13728d9)" style="fill: none; stroke: #3d3d3d"/>
   </g>
   <g id="line2d_29">
    <path d="M 265.92 232.659878 
L 265.92 168.562502 
" clip-path="url(#p7bd13728d9)" style="fill: none; stroke: #3d3d3d"/>
   </g>
   <g id="line2d_30">
    <path d="M 254.016 287.87247 
L 277.824 287.87247 
" clip-path="url(#p7bd13728d9)" style="fill: none; stroke: #3d3d3d; stroke-linecap: square"/>
   </g>
   <g id="line2d_31">
    <path d="M 254.016 168.562502 
L 277.824 168.562502 
" clip-path="url(#p7bd13728d9)" style="fill: none; stroke: #3d3d3d; stroke-linecap: square"/>
   </g>
   <g id="line2d_32">
    <g clip-path="url(#p7bd13728d9)">
     <use xlink:href="#mfcf05cd359" x="265.92" y="108.399815" style="fill-opacity: 0; stroke: #3d3d3d"/>
     <use xlink:href="#mfcf05cd359" x="265.92" y="149.523677" style="fill-opacity: 0; stroke: #3d3d3d"/>
     <use xlink:href="#mfcf05cd359" x="265.92" y="97.484222" style="fill-opacity: 0; stroke: #3d3d3d"/>
     <use xlink:href="#mfcf05cd359" x="265.92" y="84.791673" style="fill-opacity: 0; stroke: #3d3d3d"/>
     <use xlink:href="#mfcf05cd359" x="265.92" y="141.908147" style="fill-opacity: 0; stroke: #3d3d3d"/>
     <use xlink:href="#mfcf05cd359" x="265.92" y="103.830497" style="fill-opacity: 0; stroke: #3d3d3d"/>
    </g>
   </g>
   <g id="patch_7">
    <path d="M 301.632 268.833645 
L 349.248 268.833645 
L 349.248 212.60565 
L 301.632 212.60565 
L 301.632 268.833645 
z
" clip-path="url(#p7bd13728d9)" style="fill: #9372b2; stroke: #3d3d3d; stroke-linejoin: miter"/>
   </g>
   <g id="line2d_33">
    <path d="M 325.44 268.833645 
L 325.44 289.395576 
" clip-path="url(#p7bd13728d9)" style="fill: none; stroke: #3d3d3d"/>
   </g>
   <g id="line2d_34">
    <path d="M 325.44 212.60565 
L 325.44 149.523677 
" clip-path="url(#p7bd13728d9)" style="fill: none; stroke: #3d3d3d"/>
   </g>
   <g id="line2d_35">
    <path d="M 313.536 289.395576 
L 337.344 289.395576 
" clip-path="url(#p7bd13728d9)" style="fill: none; stroke: #3d3d3d; stroke-linecap: square"/>
   </g>
   <g id="line2d_36">
    <path d="M 313.536 149.523677 
L 337.344 149.523677 
" clip-path="url(#p7bd13728d9)" style="fill: none; stroke: #3d3d3d; stroke-linecap: square"/>
   </g>
   <g id="line2d_37">
    <g clip-path="url(#p7bd13728d9)">
     <use xlink:href="#mfcf05cd359" x="325.44" y="97.484222" style="fill-opacity: 0; stroke: #3d3d3d"/>
     <use xlink:href="#mfcf05cd359" x="325.44" y="84.791673" style="fill-opacity: 0; stroke: #3d3d3d"/>
    </g>
   </g>
   <g id="patch_8">
    <path d="M 361.152 247.256311 
L 408.768 247.256311 
L 408.768 183.793561 
L 361.152 183.793561 
L 361.152 247.256311 
z
" clip-path="url(#p7bd13728d9)" style="fill: #845b53; stroke: #3d3d3d; stroke-linejoin: miter"/>
   </g>
   <g id="line2d_38">
    <path d="M 384.96 247.256311 
L 384.96 280.25694 
" clip-path="url(#p7bd13728d9)" style="fill: none; stroke: #3d3d3d"/>
   </g>
   <g id="line2d_39">
    <path d="M 384.96 183.793561 
L 384.96 135.561872 
" clip-path="url(#p7bd13728d9)" style="fill: none; stroke: #3d3d3d"/>
   </g>
   <g id="line2d_40">
    <path d="M 373.056 280.25694 
L 396.864 280.25694 
" clip-path="url(#p7bd13728d9)" style="fill: none; stroke: #3d3d3d; stroke-linecap: square"/>
   </g>
   <g id="line2d_41">
    <path d="M 373.056 135.561872 
L 396.864 135.561872 
" clip-path="url(#p7bd13728d9)" style="fill: none; stroke: #3d3d3d; stroke-linecap: square"/>
   </g>
   <g id="line2d_42">
    <g clip-path="url(#p7bd13728d9)">
     <use xlink:href="#mfcf05cd359" x="384.96" y="85.299375" style="fill-opacity: 0; stroke: #3d3d3d"/>
    </g>
   </g>
   <g id="line2d_43">
    <path d="M 63.552 281.526195 
L 111.168 281.526195 
" clip-path="url(#p7bd13728d9)" style="fill: none; stroke: #3d3d3d"/>
   </g>
   <g id="line2d_44">
    <path d="M 123.072 276.32225 
L 170.688 276.32225 
" clip-path="url(#p7bd13728d9)" style="fill: none; stroke: #3d3d3d"/>
   </g>
   <g id="line2d_45">
    <path d="M 182.592 270.1029 
L 230.208 270.1029 
" clip-path="url(#p7bd13728d9)" style="fill: none; stroke: #3d3d3d"/>
   </g>
   <g id="line2d_46">
    <path d="M 242.112 265.279731 
L 289.728 265.279731 
" clip-path="url(#p7bd13728d9)" style="fill: none; stroke: #3d3d3d"/>
   </g>
   <g id="line2d_47">
    <path d="M 301.632 238.752302 
L 349.248 238.752302 
" clip-path="url(#p7bd13728d9)" style="fill: none; stroke: #3d3d3d"/>
   </g>
   <g id="line2d_48">
    <path d="M 361.152 211.717171 
L 408.768 211.717171 
" clip-path="url(#p7bd13728d9)" style="fill: none; stroke: #3d3d3d"/>
   </g>
   <g id="patch_9">
    <path d="M 57.6 307.584 
L 57.6 41.472 
" style="fill: none; stroke: #000000; stroke-width: 0.8; stroke-linejoin: miter; stroke-linecap: square"/>
   </g>
   <g id="patch_10">
    <path d="M 414.72 307.584 
L 414.72 41.472 
" style="fill: none; stroke: #000000; stroke-width: 0.8; stroke-linejoin: miter; stroke-linecap: square"/>
   </g>
   <g id="patch_11">
    <path d="M 57.6 307.584 
L 414.72 307.584 
" style="fill: none; stroke: #000000; stroke-width: 0.8; stroke-linejoin: miter; stroke-linecap: square"/>
   </g>
   <g id="patch_12">
    <path d="M 57.6 41.472 
L 414.72 41.472 
" style="fill: none; stroke: #000000; stroke-width: 0.8; stroke-linejoin: miter; stroke-linecap: square"/>
   </g>
  </g>
 </g>
 <defs>
  <clipPath id="p7bd13728d9">
   <rect x="57.6" y="41.472" width="357.12" height="266.112"/>
  </clipPath>
 </defs>
</svg>
