<?xml version="1.0" encoding="utf-8" standalone="no"?>
<!DOCTYPE svg PUBLIC "-//W3C//DTD SVG 1.1//EN"
  "http://www.w3.org/Graphics/SVG/1.1/DTD/svg11.dtd">
<svg xmlns:xlink="http://www.w3.org/1999/xlink" width="1629.51125pt" height="948.27pt" viewBox="0 0 1629.51125 948.27" xmlns="http://www.w3.org/2000/svg" version="1.1">
 <metadata>
  <rdf:RDF xmlns:dc="http://purl.org/dc/elements/1.1/" xmlns:cc="http://creativecommons.org/ns#" xmlns:rdf="http://www.w3.org/1999/02/22-rdf-syntax-ns#">
   <cc:Work>
    <dc:type rdf:resource="http://purl.org/dc/dcmitype/StillImage"/>
    <dc:date>2024-12-14T00:35:43.263602</dc:date>
    <dc:format>image/svg+xml</dc:format>
    <dc:creator>
     <cc:Agent>
      <dc:title>Matplotlib v3.9.2, https://matplotlib.org/</dc:title>
     </cc:Agent>
    </dc:creator>
   </cc:Work>
  </rdf:RDF>
 </metadata>
 <defs>
  <style type="text/css">*{stroke-linejoin: round; stroke-linecap: butt}</style>
 </defs>
 <g id="figure_1">
  <g id="patch_1">
   <path d="M 0 948.27 
L 1629.51125 948.27 
L 1629.51125 0 
L 0 0 
z
" style="fill: #ffffff"/>
  </g>
  <g id="axes_1">
   <g id="patch_2">
    <path d="M 506.31125 941.07 
L 1622.31125 941.07 
L 1622.31125 54.03 
L 506.31125 54.03 
z
" style="fill: #ffffff"/>
   </g>
   <g id="patch_3">
    <path d="M 506.31125 900.75 
L 639.42438 900.75 
L 639.42438 872.540591 
L 506.31125 872.540591 
z
" clip-path="url(#pf5698dca45)" style="fill: #592a7d"/>
   </g>
   <g id="patch_4">
    <path d="M 506.31125 852.113088 
L 681.406213 852.113088 
L 681.406213 823.903679 
L 506.31125 823.903679 
z
" clip-path="url(#pf5698dca45)" style="fill: #592a7d"/>
   </g>
   <g id="patch_5">
    <path d="M 506.31125 803.476176 
L 686.013975 803.476176 
L 686.013975 775.266767 
L 506.31125 775.266767 
z
" clip-path="url(#pf5698dca45)" style="fill: #592a7d"/>
   </g>
   <g id="patch_6">
    <path d="M 506.31125 754.839264 
L 701.373182 754.839264 
L 701.373182 726.629855 
L 506.31125 726.629855 
z
" clip-path="url(#pf5698dca45)" style="fill: #592a7d"/>
   </g>
   <g id="patch_7">
    <path d="M 506.31125 706.202352 
L 714.684495 706.202352 
L 714.684495 677.992943 
L 506.31125 677.992943 
z
" clip-path="url(#pf5698dca45)" style="fill: #592a7d"/>
   </g>
   <g id="patch_8">
    <path d="M 506.31125 657.56544 
L 714.684495 657.56544 
L 714.684495 629.356031 
L 506.31125 629.356031 
z
" clip-path="url(#pf5698dca45)" style="fill: #592a7d"/>
   </g>
   <g id="patch_9">
    <path d="M 506.31125 608.928528 
L 717.244363 608.928528 
L 717.244363 580.719119 
L 506.31125 580.719119 
z
" clip-path="url(#pf5698dca45)" style="fill: #592a7d"/>
   </g>
   <g id="patch_10">
    <path d="M 506.31125 560.291616 
L 744.378963 560.291616 
L 744.378963 532.082207 
L 506.31125 532.082207 
z
" clip-path="url(#pf5698dca45)" style="fill: #592a7d"/>
   </g>
   <g id="patch_11">
    <path d="M 506.31125 511.654704 
L 759.73817 511.654704 
L 759.73817 483.445296 
L 506.31125 483.445296 
z
" clip-path="url(#pf5698dca45)" style="fill: #592a7d"/>
   </g>
   <g id="patch_12">
    <path d="M 506.31125 463.017793 
L 774.07343 463.017793 
L 774.07343 434.808384 
L 506.31125 434.808384 
z
" clip-path="url(#pf5698dca45)" style="fill: #592a7d"/>
   </g>
   <g id="patch_13">
    <path d="M 506.31125 414.380881 
L 803.767897 414.380881 
L 803.767897 386.171472 
L 506.31125 386.171472 
z
" clip-path="url(#pf5698dca45)" style="fill: #592a7d"/>
   </g>
   <g id="patch_14">
    <path d="M 506.31125 365.743969 
L 842.677889 365.743969 
L 842.677889 337.53456 
L 506.31125 337.53456 
z
" clip-path="url(#pf5698dca45)" style="fill: #592a7d"/>
   </g>
   <g id="patch_15">
    <path d="M 506.31125 317.107057 
L 858.54907 317.107057 
L 858.54907 288.897648 
L 506.31125 288.897648 
z
" clip-path="url(#pf5698dca45)" style="fill: #592a7d"/>
   </g>
   <g id="patch_16">
    <path d="M 506.31125 268.470145 
L 871.860383 268.470145 
L 871.860383 240.260736 
L 506.31125 240.260736 
z
" clip-path="url(#pf5698dca45)" style="fill: #592a7d"/>
   </g>
   <g id="patch_17">
    <path d="M 506.31125 219.833233 
L 942.512736 219.833233 
L 942.512736 191.623824 
L 506.31125 191.623824 
z
" clip-path="url(#pf5698dca45)" style="fill: #592a7d"/>
   </g>
   <g id="patch_18">
    <path d="M 506.31125 171.196321 
L 964.5276 171.196321 
L 964.5276 142.986912 
L 506.31125 142.986912 
z
" clip-path="url(#pf5698dca45)" style="fill: #592a7d"/>
   </g>
   <g id="patch_19">
    <path d="M 506.31125 122.559409 
L 972.207204 122.559409 
L 972.207204 94.35 
L 506.31125 94.35 
z
" clip-path="url(#pf5698dca45)" style="fill: #592a7d"/>
   </g>
   <g id="patch_20">
    <path d="M 639.42438 900.75 
L 698.301341 900.75 
L 698.301341 872.540591 
L 639.42438 872.540591 
z
" clip-path="url(#pf5698dca45)" style="fill: #e87766"/>
   </g>
   <g id="patch_21">
    <path d="M 681.406213 852.113088 
L 773.049483 852.113088 
L 773.049483 823.903679 
L 681.406213 823.903679 
z
" clip-path="url(#pf5698dca45)" style="fill: #e87766"/>
   </g>
   <g id="patch_22">
    <path d="M 686.013975 803.476176 
L 786.360796 803.476176 
L 786.360796 775.266767 
L 686.013975 775.266767 
z
" clip-path="url(#pf5698dca45)" style="fill: #e87766"/>
   </g>
   <g id="patch_23">
    <path d="M 701.373182 754.839264 
L 854.453281 754.839264 
L 854.453281 726.629855 
L 701.373182 726.629855 
z
" clip-path="url(#pf5698dca45)" style="fill: #e87766"/>
   </g>
   <g id="patch_24">
    <path d="M 714.684495 706.202352 
L 838.070127 706.202352 
L 838.070127 677.992943 
L 714.684495 677.992943 
z
" clip-path="url(#pf5698dca45)" style="fill: #e87766"/>
   </g>
   <g id="patch_25">
    <path d="M 714.684495 657.56544 
L 830.902497 657.56544 
L 830.902497 629.356031 
L 714.684495 629.356031 
z
" clip-path="url(#pf5698dca45)" style="fill: #e87766"/>
   </g>
   <g id="patch_26">
    <path d="M 717.244363 608.928528 
L 849.333546 608.928528 
L 849.333546 580.719119 
L 717.244363 580.719119 
z
" clip-path="url(#pf5698dca45)" style="fill: #e87766"/>
   </g>
   <g id="patch_27">
    <path d="M 744.378963 560.291616 
L 896.947088 560.291616 
L 896.947088 532.082207 
L 744.378963 532.082207 
z
" clip-path="url(#pf5698dca45)" style="fill: #e87766"/>
   </g>
   <g id="patch_28">
    <path d="M 759.73817 511.654704 
L 895.411167 511.654704 
L 895.411167 483.445296 
L 759.73817 483.445296 
z
" clip-path="url(#pf5698dca45)" style="fill: #e87766"/>
   </g>
   <g id="patch_29">
    <path d="M 774.07343 463.017793 
L 933.809186 463.017793 
L 933.809186 434.808384 
L 774.07343 434.808384 
z
" clip-path="url(#pf5698dca45)" style="fill: #e87766"/>
   </g>
   <g id="patch_30">
    <path d="M 803.767897 414.380881 
L 1005.485486 414.380881 
L 1005.485486 386.171472 
L 803.767897 386.171472 
z
" clip-path="url(#pf5698dca45)" style="fill: #e87766"/>
   </g>
   <g id="patch_31">
    <path d="M 842.677889 365.743969 
L 1088.425205 365.743969 
L 1088.425205 337.53456 
L 842.677889 337.53456 
z
" clip-path="url(#pf5698dca45)" style="fill: #e87766"/>
   </g>
   <g id="patch_32">
    <path d="M 858.54907 317.107057 
L 1102.248492 317.107057 
L 1102.248492 288.897648 
L 858.54907 288.897648 
z
" clip-path="url(#pf5698dca45)" style="fill: #e87766"/>
   </g>
   <g id="patch_33">
    <path d="M 871.860383 268.470145 
L 1137.062695 268.470145 
L 1137.062695 240.260736 
L 871.860383 240.260736 
z
" clip-path="url(#pf5698dca45)" style="fill: #e87766"/>
   </g>
   <g id="patch_34">
    <path d="M 942.512736 219.833233 
L 1296.286477 219.833233 
L 1296.286477 191.623824 
L 942.512736 191.623824 
z
" clip-path="url(#pf5698dca45)" style="fill: #e87766"/>
   </g>
   <g id="patch_35">
    <path d="M 964.5276 171.196321 
L 1354.651465 171.196321 
L 1354.651465 142.986912 
L 964.5276 142.986912 
z
" clip-path="url(#pf5698dca45)" style="fill: #e87766"/>
   </g>
   <g id="patch_36">
    <path d="M 972.207204 122.559409 
L 1345.43594 122.559409 
L 1345.43594 94.35 
L 972.207204 94.35 
z
" clip-path="url(#pf5698dca45)" style="fill: #e87766"/>
   </g>
   <g id="patch_37">
    <path d="M 698.301341 900.75 
L 709.052786 900.75 
L 709.052786 872.540591 
L 698.301341 872.540591 
z
" clip-path="url(#pf5698dca45)" style="fill: #a881ba"/>
   </g>
   <g id="patch_38">
    <path d="M 773.049483 852.113088 
L 815.031316 852.113088 
L 815.031316 823.903679 
L 773.049483 823.903679 
z
" clip-path="url(#pf5698dca45)" style="fill: #a881ba"/>
   </g>
   <g id="patch_39">
    <path d="M 786.360796 803.476176 
L 818.103158 803.476176 
L 818.103158 775.266767 
L 786.360796 775.266767 
z
" clip-path="url(#pf5698dca45)" style="fill: #a881ba"/>
   </g>
   <g id="patch_40">
    <path d="M 854.453281 754.839264 
L 960.943785 754.839264 
L 960.943785 726.629855 
L 854.453281 726.629855 
z
" clip-path="url(#pf5698dca45)" style="fill: #a881ba"/>
   </g>
   <g id="patch_41">
    <path d="M 838.070127 706.202352 
L 889.779458 706.202352 
L 889.779458 677.992943 
L 838.070127 677.992943 
z
" clip-path="url(#pf5698dca45)" style="fill: #a881ba"/>
   </g>
   <g id="patch_42">
    <path d="M 830.902497 657.56544 
L 883.635775 657.56544 
L 883.635775 629.356031 
L 830.902497 629.356031 
z
" clip-path="url(#pf5698dca45)" style="fill: #a881ba"/>
   </g>
   <g id="patch_43">
    <path d="M 849.333546 608.928528 
L 888.755511 608.928528 
L 888.755511 580.719119 
L 849.333546 580.719119 
z
" clip-path="url(#pf5698dca45)" style="fill: #a881ba"/>
   </g>
   <g id="patch_44">
    <path d="M 896.947088 560.291616 
L 972.207204 560.291616 
L 972.207204 532.082207 
L 896.947088 532.082207 
z
" clip-path="url(#pf5698dca45)" style="fill: #a881ba"/>
   </g>
   <g id="patch_45">
    <path d="M 895.411167 511.654704 
L 921.52182 511.654704 
L 921.52182 483.445296 
L 895.411167 483.445296 
z
" clip-path="url(#pf5698dca45)" style="fill: #a881ba"/>
   </g>
   <g id="patch_46">
    <path d="M 933.809186 463.017793 
L 990.638252 463.017793 
L 990.638252 434.808384 
L 933.809186 434.808384 
z
" clip-path="url(#pf5698dca45)" style="fill: #a881ba"/>
   </g>
   <g id="patch_47">
    <path d="M 1005.485486 414.380881 
L 1081.257575 414.380881 
L 1081.257575 386.171472 
L 1005.485486 386.171472 
z
" clip-path="url(#pf5698dca45)" style="fill: #a881ba"/>
   </g>
   <g id="patch_48">
    <path d="M 1088.425205 365.743969 
L 1217.95452 365.743969 
L 1217.95452 337.53456 
L 1088.425205 337.53456 
z
" clip-path="url(#pf5698dca45)" style="fill: #a881ba"/>
   </g>
   <g id="patch_49">
    <path d="M 1102.248492 317.107057 
L 1232.801754 317.107057 
L 1232.801754 288.897648 
L 1102.248492 288.897648 
z
" clip-path="url(#pf5698dca45)" style="fill: #a881ba"/>
   </g>
   <g id="patch_50">
    <path d="M 1137.062695 268.470145 
L 1260.448327 268.470145 
L 1260.448327 240.260736 
L 1137.062695 240.260736 
z
" clip-path="url(#pf5698dca45)" style="fill: #a881ba"/>
   </g>
   <g id="patch_51">
    <path d="M 1296.286477 219.833233 
L 1508.243537 219.833233 
L 1508.243537 191.623824 
L 1296.286477 191.623824 
z
" clip-path="url(#pf5698dca45)" style="fill: #a881ba"/>
   </g>
   <g id="patch_52">
    <path d="M 1354.651465 171.196321 
L 1569.168393 171.196321 
L 1569.168393 142.986912 
L 1354.651465 142.986912 
z
" clip-path="url(#pf5698dca45)" style="fill: #a881ba"/>
   </g>
   <g id="patch_53">
    <path d="M 1345.43594 122.559409 
L 1515.923141 122.559409 
L 1515.923141 94.35 
L 1345.43594 94.35 
z
" clip-path="url(#pf5698dca45)" style="fill: #a881ba"/>
   </g>
   <g id="matplotlib.axis_1"/>
   <g id="matplotlib.axis_2">
    <g id="ytick_1">
     <g id="line2d_1"/>
     <g id="text_1">
      <!-- Made a purchase -->
      <g style="fill: #2b1146" transform="translate(297.27375 895.763421) scale(0.24 -0.24)">
       <defs>
        <path id="DejaVuSans-4d" d="M 628 4666 
L 1569 4666 
L 2759 1491 
L 3956 4666 
L 4897 4666 
L 4897 0 
L 4281 0 
L 4281 4097 
L 3078 897 
L 2444 897 
L 1241 4097 
L 1241 0 
L 628 0 
L 628 4666 
z
" transform="scale(0.015625)"/>
        <path id="DejaVuSans-61" d="M 2194 1759 
Q 1497 1759 1228 1600 
Q 959 1441 959 1056 
Q 959 750 1161 570 
Q 1363 391 1709 391 
Q 2188 391 2477 730 
Q 2766 1069 2766 1631 
L 2766 1759 
L 2194 1759 
z
M 3341 1997 
L 3341 0 
L 2766 0 
L 2766 531 
Q 2569 213 2275 61 
Q 1981 -91 1556 -91 
Q 1019 -91 701 211 
Q 384 513 384 1019 
Q 384 1609 779 1909 
Q 1175 2209 1959 2209 
L 2766 2209 
L 2766 2266 
Q 2766 2663 2505 2880 
Q 2244 3097 1772 3097 
Q 1472 3097 1187 3025 
Q 903 2953 641 2809 
L 641 3341 
Q 956 3463 1253 3523 
Q 1550 3584 1831 3584 
Q 2591 3584 2966 3190 
Q 3341 2797 3341 1997 
z
" transform="scale(0.015625)"/>
        <path id="DejaVuSans-64" d="M 2906 2969 
L 2906 4863 
L 3481 4863 
L 3481 0 
L 2906 0 
L 2906 525 
Q 2725 213 2448 61 
Q 2172 -91 1784 -91 
Q 1150 -91 751 415 
Q 353 922 353 1747 
Q 353 2572 751 3078 
Q 1150 3584 1784 3584 
Q 2172 3584 2448 3432 
Q 2725 3281 2906 2969 
z
M 947 1747 
Q 947 1113 1208 752 
Q 1469 391 1925 391 
Q 2381 391 2643 752 
Q 2906 1113 2906 1747 
Q 2906 2381 2643 2742 
Q 2381 3103 1925 3103 
Q 1469 3103 1208 2742 
Q 947 2381 947 1747 
z
" transform="scale(0.015625)"/>
        <path id="DejaVuSans-65" d="M 3597 1894 
L 3597 1613 
L 953 1613 
Q 991 1019 1311 708 
Q 1631 397 2203 397 
Q 2534 397 2845 478 
Q 3156 559 3463 722 
L 3463 178 
Q 3153 47 2828 -22 
Q 2503 -91 2169 -91 
Q 1331 -91 842 396 
Q 353 884 353 1716 
Q 353 2575 817 3079 
Q 1281 3584 2069 3584 
Q 2775 3584 3186 3129 
Q 3597 2675 3597 1894 
z
M 3022 2063 
Q 3016 2534 2758 2815 
Q 2500 3097 2075 3097 
Q 1594 3097 1305 2825 
Q 1016 2553 972 2059 
L 3022 2063 
z
" transform="scale(0.015625)"/>
        <path id="DejaVuSans-20" transform="scale(0.015625)"/>
        <path id="DejaVuSans-70" d="M 1159 525 
L 1159 -1331 
L 581 -1331 
L 581 3500 
L 1159 3500 
L 1159 2969 
Q 1341 3281 1617 3432 
Q 1894 3584 2278 3584 
Q 2916 3584 3314 3078 
Q 3713 2572 3713 1747 
Q 3713 922 3314 415 
Q 2916 -91 2278 -91 
Q 1894 -91 1617 61 
Q 1341 213 1159 525 
z
M 3116 1747 
Q 3116 2381 2855 2742 
Q 2594 3103 2138 3103 
Q 1681 3103 1420 2742 
Q 1159 2381 1159 1747 
Q 1159 1113 1420 752 
Q 1681 391 2138 391 
Q 2594 391 2855 752 
Q 3116 1113 3116 1747 
z
" transform="scale(0.015625)"/>
        <path id="DejaVuSans-75" d="M 544 1381 
L 544 3500 
L 1119 3500 
L 1119 1403 
Q 1119 906 1312 657 
Q 1506 409 1894 409 
Q 2359 409 2629 706 
Q 2900 1003 2900 1516 
L 2900 3500 
L 3475 3500 
L 3475 0 
L 2900 0 
L 2900 538 
Q 2691 219 2414 64 
Q 2138 -91 1772 -91 
Q 1169 -91 856 284 
Q 544 659 544 1381 
z
M 1991 3584 
L 1991 3584 
z
" transform="scale(0.015625)"/>
        <path id="DejaVuSans-72" d="M 2631 2963 
Q 2534 3019 2420 3045 
Q 2306 3072 2169 3072 
Q 1681 3072 1420 2755 
Q 1159 2438 1159 1844 
L 1159 0 
L 581 0 
L 581 3500 
L 1159 3500 
L 1159 2956 
Q 1341 3275 1631 3429 
Q 1922 3584 2338 3584 
Q 2397 3584 2469 3576 
Q 2541 3569 2628 3553 
L 2631 2963 
z
" transform="scale(0.015625)"/>
        <path id="DejaVuSans-63" d="M 3122 3366 
L 3122 2828 
Q 2878 2963 2633 3030 
Q 2388 3097 2138 3097 
Q 1578 3097 1268 2742 
Q 959 2388 959 1747 
Q 959 1106 1268 751 
Q 1578 397 2138 397 
Q 2388 397 2633 464 
Q 2878 531 3122 666 
L 3122 134 
Q 2881 22 2623 -34 
Q 2366 -91 2075 -91 
Q 1284 -91 818 406 
Q 353 903 353 1747 
Q 353 2603 823 3093 
Q 1294 3584 2113 3584 
Q 2378 3584 2631 3529 
Q 2884 3475 3122 3366 
z
" transform="scale(0.015625)"/>
        <path id="DejaVuSans-68" d="M 3513 2113 
L 3513 0 
L 2938 0 
L 2938 2094 
Q 2938 2591 2744 2837 
Q 2550 3084 2163 3084 
Q 1697 3084 1428 2787 
Q 1159 2491 1159 1978 
L 1159 0 
L 581 0 
L 581 4863 
L 1159 4863 
L 1159 2956 
Q 1366 3272 1645 3428 
Q 1925 3584 2291 3584 
Q 2894 3584 3203 3211 
Q 3513 2838 3513 2113 
z
" transform="scale(0.015625)"/>
        <path id="DejaVuSans-73" d="M 2834 3397 
L 2834 2853 
Q 2591 2978 2328 3040 
Q 2066 3103 1784 3103 
Q 1356 3103 1142 2972 
Q 928 2841 928 2578 
Q 928 2378 1081 2264 
Q 1234 2150 1697 2047 
L 1894 2003 
Q 2506 1872 2764 1633 
Q 3022 1394 3022 966 
Q 3022 478 2636 193 
Q 2250 -91 1575 -91 
Q 1294 -91 989 -36 
Q 684 19 347 128 
L 347 722 
Q 666 556 975 473 
Q 1284 391 1588 391 
Q 1994 391 2212 530 
Q 2431 669 2431 922 
Q 2431 1156 2273 1281 
Q 2116 1406 1581 1522 
L 1381 1569 
Q 847 1681 609 1914 
Q 372 2147 372 2553 
Q 372 3047 722 3315 
Q 1072 3584 1716 3584 
Q 2034 3584 2315 3537 
Q 2597 3491 2834 3397 
z
" transform="scale(0.015625)"/>
       </defs>
       <use xlink:href="#DejaVuSans-4d"/>
       <use xlink:href="#DejaVuSans-61" x="86.279297"/>
       <use xlink:href="#DejaVuSans-64" x="147.558594"/>
       <use xlink:href="#DejaVuSans-65" x="211.035156"/>
       <use xlink:href="#DejaVuSans-20" x="272.558594"/>
       <use xlink:href="#DejaVuSans-61" x="304.345703"/>
       <use xlink:href="#DejaVuSans-20" x="365.625"/>
       <use xlink:href="#DejaVuSans-70" x="397.412109"/>
       <use xlink:href="#DejaVuSans-75" x="460.888672"/>
       <use xlink:href="#DejaVuSans-72" x="524.267578"/>
       <use xlink:href="#DejaVuSans-63" x="563.130859"/>
       <use xlink:href="#DejaVuSans-68" x="618.111328"/>
       <use xlink:href="#DejaVuSans-61" x="681.490234"/>
       <use xlink:href="#DejaVuSans-73" x="742.769531"/>
       <use xlink:href="#DejaVuSans-65" x="794.869141"/>
      </g>
     </g>
    </g>
    <g id="ytick_2">
     <g id="line2d_2"/>
     <g id="text_2">
      <!-- Message someone -->
      <g style="fill: #2b1146" transform="translate(279.9975 847.126509) scale(0.24 -0.24)">
       <defs>
        <path id="DejaVuSans-67" d="M 2906 1791 
Q 2906 2416 2648 2759 
Q 2391 3103 1925 3103 
Q 1463 3103 1205 2759 
Q 947 2416 947 1791 
Q 947 1169 1205 825 
Q 1463 481 1925 481 
Q 2391 481 2648 825 
Q 2906 1169 2906 1791 
z
M 3481 434 
Q 3481 -459 3084 -895 
Q 2688 -1331 1869 -1331 
Q 1566 -1331 1297 -1286 
Q 1028 -1241 775 -1147 
L 775 -588 
Q 1028 -725 1275 -790 
Q 1522 -856 1778 -856 
Q 2344 -856 2625 -561 
Q 2906 -266 2906 331 
L 2906 616 
Q 2728 306 2450 153 
Q 2172 0 1784 0 
Q 1141 0 747 490 
Q 353 981 353 1791 
Q 353 2603 747 3093 
Q 1141 3584 1784 3584 
Q 2172 3584 2450 3431 
Q 2728 3278 2906 2969 
L 2906 3500 
L 3481 3500 
L 3481 434 
z
" transform="scale(0.015625)"/>
        <path id="DejaVuSans-6f" d="M 1959 3097 
Q 1497 3097 1228 2736 
Q 959 2375 959 1747 
Q 959 1119 1226 758 
Q 1494 397 1959 397 
Q 2419 397 2687 759 
Q 2956 1122 2956 1747 
Q 2956 2369 2687 2733 
Q 2419 3097 1959 3097 
z
M 1959 3584 
Q 2709 3584 3137 3096 
Q 3566 2609 3566 1747 
Q 3566 888 3137 398 
Q 2709 -91 1959 -91 
Q 1206 -91 779 398 
Q 353 888 353 1747 
Q 353 2609 779 3096 
Q 1206 3584 1959 3584 
z
" transform="scale(0.015625)"/>
        <path id="DejaVuSans-6d" d="M 3328 2828 
Q 3544 3216 3844 3400 
Q 4144 3584 4550 3584 
Q 5097 3584 5394 3201 
Q 5691 2819 5691 2113 
L 5691 0 
L 5113 0 
L 5113 2094 
Q 5113 2597 4934 2840 
Q 4756 3084 4391 3084 
Q 3944 3084 3684 2787 
Q 3425 2491 3425 1978 
L 3425 0 
L 2847 0 
L 2847 2094 
Q 2847 2600 2669 2842 
Q 2491 3084 2119 3084 
Q 1678 3084 1418 2786 
Q 1159 2488 1159 1978 
L 1159 0 
L 581 0 
L 581 3500 
L 1159 3500 
L 1159 2956 
Q 1356 3278 1631 3431 
Q 1906 3584 2284 3584 
Q 2666 3584 2933 3390 
Q 3200 3197 3328 2828 
z
" transform="scale(0.015625)"/>
        <path id="DejaVuSans-6e" d="M 3513 2113 
L 3513 0 
L 2938 0 
L 2938 2094 
Q 2938 2591 2744 2837 
Q 2550 3084 2163 3084 
Q 1697 3084 1428 2787 
Q 1159 2491 1159 1978 
L 1159 0 
L 581 0 
L 581 3500 
L 1159 3500 
L 1159 2956 
Q 1366 3272 1645 3428 
Q 1925 3584 2291 3584 
Q 2894 3584 3203 3211 
Q 3513 2838 3513 2113 
z
" transform="scale(0.015625)"/>
       </defs>
       <use xlink:href="#DejaVuSans-4d"/>
       <use xlink:href="#DejaVuSans-65" x="86.279297"/>
       <use xlink:href="#DejaVuSans-73" x="147.802734"/>
       <use xlink:href="#DejaVuSans-73" x="199.902344"/>
       <use xlink:href="#DejaVuSans-61" x="252.001953"/>
       <use xlink:href="#DejaVuSans-67" x="313.28125"/>
       <use xlink:href="#DejaVuSans-65" x="376.757812"/>
       <use xlink:href="#DejaVuSans-20" x="438.28125"/>
       <use xlink:href="#DejaVuSans-73" x="470.068359"/>
       <use xlink:href="#DejaVuSans-6f" x="522.167969"/>
       <use xlink:href="#DejaVuSans-6d" x="583.349609"/>
       <use xlink:href="#DejaVuSans-65" x="680.761719"/>
       <use xlink:href="#DejaVuSans-6f" x="742.285156"/>
       <use xlink:href="#DejaVuSans-6e" x="803.466797"/>
       <use xlink:href="#DejaVuSans-65" x="866.845703"/>
      </g>
     </g>
    </g>
    <g id="ytick_3">
     <g id="line2d_3"/>
     <g id="text_3">
      <!-- Access my calendar -->
      <g style="fill: #2b1146" transform="translate(263.4525 798.489597) scale(0.24 -0.24)">
       <defs>
        <path id="DejaVuSans-41" d="M 2188 4044 
L 1331 1722 
L 3047 1722 
L 2188 4044 
z
M 1831 4666 
L 2547 4666 
L 4325 0 
L 3669 0 
L 3244 1197 
L 1141 1197 
L 716 0 
L 50 0 
L 1831 4666 
z
" transform="scale(0.015625)"/>
        <path id="DejaVuSans-79" d="M 2059 -325 
Q 1816 -950 1584 -1140 
Q 1353 -1331 966 -1331 
L 506 -1331 
L 506 -850 
L 844 -850 
Q 1081 -850 1212 -737 
Q 1344 -625 1503 -206 
L 1606 56 
L 191 3500 
L 800 3500 
L 1894 763 
L 2988 3500 
L 3597 3500 
L 2059 -325 
z
" transform="scale(0.015625)"/>
        <path id="DejaVuSans-6c" d="M 603 4863 
L 1178 4863 
L 1178 0 
L 603 0 
L 603 4863 
z
" transform="scale(0.015625)"/>
       </defs>
       <use xlink:href="#DejaVuSans-41"/>
       <use xlink:href="#DejaVuSans-63" x="66.658203"/>
       <use xlink:href="#DejaVuSans-63" x="121.638672"/>
       <use xlink:href="#DejaVuSans-65" x="176.619141"/>
       <use xlink:href="#DejaVuSans-73" x="238.142578"/>
       <use xlink:href="#DejaVuSans-73" x="290.242188"/>
       <use xlink:href="#DejaVuSans-20" x="342.341797"/>
       <use xlink:href="#DejaVuSans-6d" x="374.128906"/>
       <use xlink:href="#DejaVuSans-79" x="471.541016"/>
       <use xlink:href="#DejaVuSans-20" x="530.720703"/>
       <use xlink:href="#DejaVuSans-63" x="562.507812"/>
       <use xlink:href="#DejaVuSans-61" x="617.488281"/>
       <use xlink:href="#DejaVuSans-6c" x="678.767578"/>
       <use xlink:href="#DejaVuSans-65" x="706.550781"/>
       <use xlink:href="#DejaVuSans-6e" x="768.074219"/>
       <use xlink:href="#DejaVuSans-64" x="831.453125"/>
       <use xlink:href="#DejaVuSans-61" x="894.929688"/>
       <use xlink:href="#DejaVuSans-72" x="956.208984"/>
      </g>
     </g>
    </g>
    <g id="ytick_4">
     <g id="line2d_4"/>
     <g id="text_4">
      <!-- Control smart home devices -->
      <g style="fill: #2b1146" transform="translate(163.9425 749.852685) scale(0.24 -0.24)">
       <defs>
        <path id="DejaVuSans-43" d="M 4122 4306 
L 4122 3641 
Q 3803 3938 3442 4084 
Q 3081 4231 2675 4231 
Q 1875 4231 1450 3742 
Q 1025 3253 1025 2328 
Q 1025 1406 1450 917 
Q 1875 428 2675 428 
Q 3081 428 3442 575 
Q 3803 722 4122 1019 
L 4122 359 
Q 3791 134 3420 21 
Q 3050 -91 2638 -91 
Q 1578 -91 968 557 
Q 359 1206 359 2328 
Q 359 3453 968 4101 
Q 1578 4750 2638 4750 
Q 3056 4750 3426 4639 
Q 3797 4528 4122 4306 
z
" transform="scale(0.015625)"/>
        <path id="DejaVuSans-74" d="M 1172 4494 
L 1172 3500 
L 2356 3500 
L 2356 3053 
L 1172 3053 
L 1172 1153 
Q 1172 725 1289 603 
Q 1406 481 1766 481 
L 2356 481 
L 2356 0 
L 1766 0 
Q 1100 0 847 248 
Q 594 497 594 1153 
L 594 3053 
L 172 3053 
L 172 3500 
L 594 3500 
L 594 4494 
L 1172 4494 
z
" transform="scale(0.015625)"/>
        <path id="DejaVuSans-76" d="M 191 3500 
L 800 3500 
L 1894 563 
L 2988 3500 
L 3597 3500 
L 2284 0 
L 1503 0 
L 191 3500 
z
" transform="scale(0.015625)"/>
        <path id="DejaVuSans-69" d="M 603 3500 
L 1178 3500 
L 1178 0 
L 603 0 
L 603 3500 
z
M 603 4863 
L 1178 4863 
L 1178 4134 
L 603 4134 
L 603 4863 
z
" transform="scale(0.015625)"/>
       </defs>
       <use xlink:href="#DejaVuSans-43"/>
       <use xlink:href="#DejaVuSans-6f" x="69.824219"/>
       <use xlink:href="#DejaVuSans-6e" x="131.005859"/>
       <use xlink:href="#DejaVuSans-74" x="194.384766"/>
       <use xlink:href="#DejaVuSans-72" x="233.59375"/>
       <use xlink:href="#DejaVuSans-6f" x="272.457031"/>
       <use xlink:href="#DejaVuSans-6c" x="333.638672"/>
       <use xlink:href="#DejaVuSans-20" x="361.421875"/>
       <use xlink:href="#DejaVuSans-73" x="393.208984"/>
       <use xlink:href="#DejaVuSans-6d" x="445.308594"/>
       <use xlink:href="#DejaVuSans-61" x="542.720703"/>
       <use xlink:href="#DejaVuSans-72" x="604"/>
       <use xlink:href="#DejaVuSans-74" x="645.113281"/>
       <use xlink:href="#DejaVuSans-20" x="684.322266"/>
       <use xlink:href="#DejaVuSans-68" x="716.109375"/>
       <use xlink:href="#DejaVuSans-6f" x="779.488281"/>
       <use xlink:href="#DejaVuSans-6d" x="840.669922"/>
       <use xlink:href="#DejaVuSans-65" x="938.082031"/>
       <use xlink:href="#DejaVuSans-20" x="999.605469"/>
       <use xlink:href="#DejaVuSans-64" x="1031.392578"/>
       <use xlink:href="#DejaVuSans-65" x="1094.869141"/>
       <use xlink:href="#DejaVuSans-76" x="1156.392578"/>
       <use xlink:href="#DejaVuSans-69" x="1215.572266"/>
       <use xlink:href="#DejaVuSans-63" x="1243.355469"/>
       <use xlink:href="#DejaVuSans-65" x="1298.335938"/>
       <use xlink:href="#DejaVuSans-73" x="1359.859375"/>
      </g>
     </g>
    </g>
    <g id="ytick_5">
     <g id="line2d_5"/>
     <g id="text_5">
      <!-- Listen to podcasts and other talk formats -->
      <g style="fill: #2b1146" transform="translate(7.2 701.215773) scale(0.24 -0.24)">
       <defs>
        <path id="DejaVuSans-4c" d="M 628 4666 
L 1259 4666 
L 1259 531 
L 3531 531 
L 3531 0 
L 628 0 
L 628 4666 
z
" transform="scale(0.015625)"/>
        <path id="DejaVuSans-6b" d="M 581 4863 
L 1159 4863 
L 1159 1991 
L 2875 3500 
L 3609 3500 
L 1753 1863 
L 3688 0 
L 2938 0 
L 1159 1709 
L 1159 0 
L 581 0 
L 581 4863 
z
" transform="scale(0.015625)"/>
        <path id="DejaVuSans-66" d="M 2375 4863 
L 2375 4384 
L 1825 4384 
Q 1516 4384 1395 4259 
Q 1275 4134 1275 3809 
L 1275 3500 
L 2222 3500 
L 2222 3053 
L 1275 3053 
L 1275 0 
L 697 0 
L 697 3053 
L 147 3053 
L 147 3500 
L 697 3500 
L 697 3744 
Q 697 4328 969 4595 
Q 1241 4863 1831 4863 
L 2375 4863 
z
" transform="scale(0.015625)"/>
       </defs>
       <use xlink:href="#DejaVuSans-4c"/>
       <use xlink:href="#DejaVuSans-69" x="55.712891"/>
       <use xlink:href="#DejaVuSans-73" x="83.496094"/>
       <use xlink:href="#DejaVuSans-74" x="135.595703"/>
       <use xlink:href="#DejaVuSans-65" x="174.804688"/>
       <use xlink:href="#DejaVuSans-6e" x="236.328125"/>
       <use xlink:href="#DejaVuSans-20" x="299.707031"/>
       <use xlink:href="#DejaVuSans-74" x="331.494141"/>
       <use xlink:href="#DejaVuSans-6f" x="370.703125"/>
       <use xlink:href="#DejaVuSans-20" x="431.884766"/>
       <use xlink:href="#DejaVuSans-70" x="463.671875"/>
       <use xlink:href="#DejaVuSans-6f" x="527.148438"/>
       <use xlink:href="#DejaVuSans-64" x="588.330078"/>
       <use xlink:href="#DejaVuSans-63" x="651.806641"/>
       <use xlink:href="#DejaVuSans-61" x="706.787109"/>
       <use xlink:href="#DejaVuSans-73" x="768.066406"/>
       <use xlink:href="#DejaVuSans-74" x="820.166016"/>
       <use xlink:href="#DejaVuSans-73" x="859.375"/>
       <use xlink:href="#DejaVuSans-20" x="911.474609"/>
       <use xlink:href="#DejaVuSans-61" x="943.261719"/>
       <use xlink:href="#DejaVuSans-6e" x="1004.541016"/>
       <use xlink:href="#DejaVuSans-64" x="1067.919922"/>
       <use xlink:href="#DejaVuSans-20" x="1131.396484"/>
       <use xlink:href="#DejaVuSans-6f" x="1163.183594"/>
       <use xlink:href="#DejaVuSans-74" x="1224.365234"/>
       <use xlink:href="#DejaVuSans-68" x="1263.574219"/>
       <use xlink:href="#DejaVuSans-65" x="1326.953125"/>
       <use xlink:href="#DejaVuSans-72" x="1388.476562"/>
       <use xlink:href="#DejaVuSans-20" x="1429.589844"/>
       <use xlink:href="#DejaVuSans-74" x="1461.376953"/>
       <use xlink:href="#DejaVuSans-61" x="1500.585938"/>
       <use xlink:href="#DejaVuSans-6c" x="1561.865234"/>
       <use xlink:href="#DejaVuSans-6b" x="1589.648438"/>
       <use xlink:href="#DejaVuSans-20" x="1647.558594"/>
       <use xlink:href="#DejaVuSans-66" x="1679.345703"/>
       <use xlink:href="#DejaVuSans-6f" x="1714.550781"/>
       <use xlink:href="#DejaVuSans-72" x="1775.732422"/>
       <use xlink:href="#DejaVuSans-6d" x="1815.095703"/>
       <use xlink:href="#DejaVuSans-61" x="1912.507812"/>
       <use xlink:href="#DejaVuSans-74" x="1973.787109"/>
       <use xlink:href="#DejaVuSans-73" x="2012.996094"/>
      </g>
     </g>
    </g>
    <g id="ytick_6">
     <g id="line2d_6"/>
     <g id="text_6">
      <!-- Call someone -->
      <g style="fill: #2b1146" transform="translate(340.3875 652.578861) scale(0.24 -0.24)">
       <use xlink:href="#DejaVuSans-43"/>
       <use xlink:href="#DejaVuSans-61" x="69.824219"/>
       <use xlink:href="#DejaVuSans-6c" x="131.103516"/>
       <use xlink:href="#DejaVuSans-6c" x="158.886719"/>
       <use xlink:href="#DejaVuSans-20" x="186.669922"/>
       <use xlink:href="#DejaVuSans-73" x="218.457031"/>
       <use xlink:href="#DejaVuSans-6f" x="270.556641"/>
       <use xlink:href="#DejaVuSans-6d" x="331.738281"/>
       <use xlink:href="#DejaVuSans-65" x="429.150391"/>
       <use xlink:href="#DejaVuSans-6f" x="490.673828"/>
       <use xlink:href="#DejaVuSans-6e" x="551.855469"/>
       <use xlink:href="#DejaVuSans-65" x="615.234375"/>
      </g>
     </g>
    </g>
    <g id="ytick_7">
     <g id="line2d_7"/>
     <g id="text_7">
      <!-- Check traffic -->
      <g style="fill: #2b1146" transform="translate(350.61 603.941949) scale(0.24 -0.24)">
       <use xlink:href="#DejaVuSans-43"/>
       <use xlink:href="#DejaVuSans-68" x="69.824219"/>
       <use xlink:href="#DejaVuSans-65" x="133.203125"/>
       <use xlink:href="#DejaVuSans-63" x="194.726562"/>
       <use xlink:href="#DejaVuSans-6b" x="249.707031"/>
       <use xlink:href="#DejaVuSans-20" x="307.617188"/>
       <use xlink:href="#DejaVuSans-74" x="339.404297"/>
       <use xlink:href="#DejaVuSans-72" x="378.613281"/>
       <use xlink:href="#DejaVuSans-61" x="419.726562"/>
       <use xlink:href="#DejaVuSans-66" x="481.005859"/>
       <use xlink:href="#DejaVuSans-66" x="516.210938"/>
       <use xlink:href="#DejaVuSans-69" x="551.416016"/>
       <use xlink:href="#DejaVuSans-63" x="579.199219"/>
      </g>
     </g>
    </g>
    <g id="ytick_8">
     <g id="line2d_8"/>
     <g id="text_8">
      <!-- Use a favorite skill or assistant app -->
      <g style="fill: #2b1146" transform="translate(80.99625 555.305037) scale(0.24 -0.24)">
       <defs>
        <path id="DejaVuSans-55" d="M 556 4666 
L 1191 4666 
L 1191 1831 
Q 1191 1081 1462 751 
Q 1734 422 2344 422 
Q 2950 422 3222 751 
Q 3494 1081 3494 1831 
L 3494 4666 
L 4128 4666 
L 4128 1753 
Q 4128 841 3676 375 
Q 3225 -91 2344 -91 
Q 1459 -91 1007 375 
Q 556 841 556 1753 
L 556 4666 
z
" transform="scale(0.015625)"/>
       </defs>
       <use xlink:href="#DejaVuSans-55"/>
       <use xlink:href="#DejaVuSans-73" x="73.193359"/>
       <use xlink:href="#DejaVuSans-65" x="125.292969"/>
       <use xlink:href="#DejaVuSans-20" x="186.816406"/>
       <use xlink:href="#DejaVuSans-61" x="218.603516"/>
       <use xlink:href="#DejaVuSans-20" x="279.882812"/>
       <use xlink:href="#DejaVuSans-66" x="311.669922"/>
       <use xlink:href="#DejaVuSans-61" x="346.875"/>
       <use xlink:href="#DejaVuSans-76" x="408.154297"/>
       <use xlink:href="#DejaVuSans-6f" x="467.333984"/>
       <use xlink:href="#DejaVuSans-72" x="528.515625"/>
       <use xlink:href="#DejaVuSans-69" x="569.628906"/>
       <use xlink:href="#DejaVuSans-74" x="597.412109"/>
       <use xlink:href="#DejaVuSans-65" x="636.621094"/>
       <use xlink:href="#DejaVuSans-20" x="698.144531"/>
       <use xlink:href="#DejaVuSans-73" x="729.931641"/>
       <use xlink:href="#DejaVuSans-6b" x="782.03125"/>
       <use xlink:href="#DejaVuSans-69" x="839.941406"/>
       <use xlink:href="#DejaVuSans-6c" x="867.724609"/>
       <use xlink:href="#DejaVuSans-6c" x="895.507812"/>
       <use xlink:href="#DejaVuSans-20" x="923.291016"/>
       <use xlink:href="#DejaVuSans-6f" x="955.078125"/>
       <use xlink:href="#DejaVuSans-72" x="1016.259766"/>
       <use xlink:href="#DejaVuSans-20" x="1057.373047"/>
       <use xlink:href="#DejaVuSans-61" x="1089.160156"/>
       <use xlink:href="#DejaVuSans-73" x="1150.439453"/>
       <use xlink:href="#DejaVuSans-73" x="1202.539062"/>
       <use xlink:href="#DejaVuSans-69" x="1254.638672"/>
       <use xlink:href="#DejaVuSans-73" x="1282.421875"/>
       <use xlink:href="#DejaVuSans-74" x="1334.521484"/>
       <use xlink:href="#DejaVuSans-61" x="1373.730469"/>
       <use xlink:href="#DejaVuSans-6e" x="1435.009766"/>
       <use xlink:href="#DejaVuSans-74" x="1498.388672"/>
       <use xlink:href="#DejaVuSans-20" x="1537.597656"/>
       <use xlink:href="#DejaVuSans-61" x="1569.384766"/>
       <use xlink:href="#DejaVuSans-70" x="1630.664062"/>
       <use xlink:href="#DejaVuSans-70" x="1694.140625"/>
      </g>
     </g>
    </g>
    <g id="ytick_9">
     <g id="line2d_9"/>
     <g id="text_9">
      <!-- Find a recipe or cooking instructions -->
      <g style="fill: #2b1146" transform="translate(68.16375 506.668125) scale(0.24 -0.24)">
       <defs>
        <path id="DejaVuSans-46" d="M 628 4666 
L 3309 4666 
L 3309 4134 
L 1259 4134 
L 1259 2759 
L 3109 2759 
L 3109 2228 
L 1259 2228 
L 1259 0 
L 628 0 
L 628 4666 
z
" transform="scale(0.015625)"/>
       </defs>
       <use xlink:href="#DejaVuSans-46"/>
       <use xlink:href="#DejaVuSans-69" x="50.269531"/>
       <use xlink:href="#DejaVuSans-6e" x="78.052734"/>
       <use xlink:href="#DejaVuSans-64" x="141.431641"/>
       <use xlink:href="#DejaVuSans-20" x="204.908203"/>
       <use xlink:href="#DejaVuSans-61" x="236.695312"/>
       <use xlink:href="#DejaVuSans-20" x="297.974609"/>
       <use xlink:href="#DejaVuSans-72" x="329.761719"/>
       <use xlink:href="#DejaVuSans-65" x="368.625"/>
       <use xlink:href="#DejaVuSans-63" x="430.148438"/>
       <use xlink:href="#DejaVuSans-69" x="485.128906"/>
       <use xlink:href="#DejaVuSans-70" x="512.912109"/>
       <use xlink:href="#DejaVuSans-65" x="576.388672"/>
       <use xlink:href="#DejaVuSans-20" x="637.912109"/>
       <use xlink:href="#DejaVuSans-6f" x="669.699219"/>
       <use xlink:href="#DejaVuSans-72" x="730.880859"/>
       <use xlink:href="#DejaVuSans-20" x="771.994141"/>
       <use xlink:href="#DejaVuSans-63" x="803.78125"/>
       <use xlink:href="#DejaVuSans-6f" x="858.761719"/>
       <use xlink:href="#DejaVuSans-6f" x="919.943359"/>
       <use xlink:href="#DejaVuSans-6b" x="981.125"/>
       <use xlink:href="#DejaVuSans-69" x="1039.035156"/>
       <use xlink:href="#DejaVuSans-6e" x="1066.818359"/>
       <use xlink:href="#DejaVuSans-67" x="1130.197266"/>
       <use xlink:href="#DejaVuSans-20" x="1193.673828"/>
       <use xlink:href="#DejaVuSans-69" x="1225.460938"/>
       <use xlink:href="#DejaVuSans-6e" x="1253.244141"/>
       <use xlink:href="#DejaVuSans-73" x="1316.623047"/>
       <use xlink:href="#DejaVuSans-74" x="1368.722656"/>
       <use xlink:href="#DejaVuSans-72" x="1407.931641"/>
       <use xlink:href="#DejaVuSans-75" x="1449.044922"/>
       <use xlink:href="#DejaVuSans-63" x="1512.423828"/>
       <use xlink:href="#DejaVuSans-74" x="1567.404297"/>
       <use xlink:href="#DejaVuSans-69" x="1606.613281"/>
       <use xlink:href="#DejaVuSans-6f" x="1634.396484"/>
       <use xlink:href="#DejaVuSans-6e" x="1695.578125"/>
       <use xlink:href="#DejaVuSans-73" x="1758.957031"/>
      </g>
     </g>
    </g>
    <g id="ytick_10">
     <g id="line2d_10"/>
     <g id="text_10">
      <!-- Play game or answer trivia -->
      <g style="fill: #2b1146" transform="translate(181.40625 458.031213) scale(0.24 -0.24)">
       <defs>
        <path id="DejaVuSans-50" d="M 1259 4147 
L 1259 2394 
L 2053 2394 
Q 2494 2394 2734 2622 
Q 2975 2850 2975 3272 
Q 2975 3691 2734 3919 
Q 2494 4147 2053 4147 
L 1259 4147 
z
M 628 4666 
L 2053 4666 
Q 2838 4666 3239 4311 
Q 3641 3956 3641 3272 
Q 3641 2581 3239 2228 
Q 2838 1875 2053 1875 
L 1259 1875 
L 1259 0 
L 628 0 
L 628 4666 
z
" transform="scale(0.015625)"/>
        <path id="DejaVuSans-77" d="M 269 3500 
L 844 3500 
L 1563 769 
L 2278 3500 
L 2956 3500 
L 3675 769 
L 4391 3500 
L 4966 3500 
L 4050 0 
L 3372 0 
L 2619 2869 
L 1863 0 
L 1184 0 
L 269 3500 
z
" transform="scale(0.015625)"/>
       </defs>
       <use xlink:href="#DejaVuSans-50"/>
       <use xlink:href="#DejaVuSans-6c" x="60.302734"/>
       <use xlink:href="#DejaVuSans-61" x="88.085938"/>
       <use xlink:href="#DejaVuSans-79" x="149.365234"/>
       <use xlink:href="#DejaVuSans-20" x="208.544922"/>
       <use xlink:href="#DejaVuSans-67" x="240.332031"/>
       <use xlink:href="#DejaVuSans-61" x="303.808594"/>
       <use xlink:href="#DejaVuSans-6d" x="365.087891"/>
       <use xlink:href="#DejaVuSans-65" x="462.5"/>
       <use xlink:href="#DejaVuSans-20" x="524.023438"/>
       <use xlink:href="#DejaVuSans-6f" x="555.810547"/>
       <use xlink:href="#DejaVuSans-72" x="616.992188"/>
       <use xlink:href="#DejaVuSans-20" x="658.105469"/>
       <use xlink:href="#DejaVuSans-61" x="689.892578"/>
       <use xlink:href="#DejaVuSans-6e" x="751.171875"/>
       <use xlink:href="#DejaVuSans-73" x="814.550781"/>
       <use xlink:href="#DejaVuSans-77" x="866.650391"/>
       <use xlink:href="#DejaVuSans-65" x="948.4375"/>
       <use xlink:href="#DejaVuSans-72" x="1009.960938"/>
       <use xlink:href="#DejaVuSans-20" x="1051.074219"/>
       <use xlink:href="#DejaVuSans-74" x="1082.861328"/>
       <use xlink:href="#DejaVuSans-72" x="1122.070312"/>
       <use xlink:href="#DejaVuSans-69" x="1163.183594"/>
       <use xlink:href="#DejaVuSans-76" x="1190.966797"/>
       <use xlink:href="#DejaVuSans-69" x="1250.146484"/>
       <use xlink:href="#DejaVuSans-61" x="1277.929688"/>
      </g>
     </g>
    </g>
    <g id="ytick_11">
     <g id="line2d_11"/>
     <g id="text_11">
      <!-- Listen to news / sports -->
      <g style="fill: #2b1146" transform="translate(231.885 409.394301) scale(0.24 -0.24)">
       <defs>
        <path id="DejaVuSans-2f" d="M 1625 4666 
L 2156 4666 
L 531 -594 
L 0 -594 
L 1625 4666 
z
" transform="scale(0.015625)"/>
       </defs>
       <use xlink:href="#DejaVuSans-4c"/>
       <use xlink:href="#DejaVuSans-69" x="55.712891"/>
       <use xlink:href="#DejaVuSans-73" x="83.496094"/>
       <use xlink:href="#DejaVuSans-74" x="135.595703"/>
       <use xlink:href="#DejaVuSans-65" x="174.804688"/>
       <use xlink:href="#DejaVuSans-6e" x="236.328125"/>
       <use xlink:href="#DejaVuSans-20" x="299.707031"/>
       <use xlink:href="#DejaVuSans-74" x="331.494141"/>
       <use xlink:href="#DejaVuSans-6f" x="370.703125"/>
       <use xlink:href="#DejaVuSans-20" x="431.884766"/>
       <use xlink:href="#DejaVuSans-6e" x="463.671875"/>
       <use xlink:href="#DejaVuSans-65" x="527.050781"/>
       <use xlink:href="#DejaVuSans-77" x="588.574219"/>
       <use xlink:href="#DejaVuSans-73" x="670.361328"/>
       <use xlink:href="#DejaVuSans-20" x="722.460938"/>
       <use xlink:href="#DejaVuSans-2f" x="754.248047"/>
       <use xlink:href="#DejaVuSans-20" x="787.939453"/>
       <use xlink:href="#DejaVuSans-73" x="819.726562"/>
       <use xlink:href="#DejaVuSans-70" x="871.826172"/>
       <use xlink:href="#DejaVuSans-6f" x="935.302734"/>
       <use xlink:href="#DejaVuSans-72" x="996.484375"/>
       <use xlink:href="#DejaVuSans-74" x="1037.597656"/>
       <use xlink:href="#DejaVuSans-73" x="1076.806641"/>
      </g>
     </g>
    </g>
    <g id="ytick_12">
     <g id="line2d_12"/>
     <g id="text_12">
      <!-- Set an alarm -->
      <g style="fill: #2b1146" transform="translate(349.32 360.757389) scale(0.24 -0.24)">
       <defs>
        <path id="DejaVuSans-53" d="M 3425 4513 
L 3425 3897 
Q 3066 4069 2747 4153 
Q 2428 4238 2131 4238 
Q 1616 4238 1336 4038 
Q 1056 3838 1056 3469 
Q 1056 3159 1242 3001 
Q 1428 2844 1947 2747 
L 2328 2669 
Q 3034 2534 3370 2195 
Q 3706 1856 3706 1288 
Q 3706 609 3251 259 
Q 2797 -91 1919 -91 
Q 1588 -91 1214 -16 
Q 841 59 441 206 
L 441 856 
Q 825 641 1194 531 
Q 1563 422 1919 422 
Q 2459 422 2753 634 
Q 3047 847 3047 1241 
Q 3047 1584 2836 1778 
Q 2625 1972 2144 2069 
L 1759 2144 
Q 1053 2284 737 2584 
Q 422 2884 422 3419 
Q 422 4038 858 4394 
Q 1294 4750 2059 4750 
Q 2388 4750 2728 4690 
Q 3069 4631 3425 4513 
z
" transform="scale(0.015625)"/>
       </defs>
       <use xlink:href="#DejaVuSans-53"/>
       <use xlink:href="#DejaVuSans-65" x="63.476562"/>
       <use xlink:href="#DejaVuSans-74" x="125"/>
       <use xlink:href="#DejaVuSans-20" x="164.208984"/>
       <use xlink:href="#DejaVuSans-61" x="195.996094"/>
       <use xlink:href="#DejaVuSans-6e" x="257.275391"/>
       <use xlink:href="#DejaVuSans-20" x="320.654297"/>
       <use xlink:href="#DejaVuSans-61" x="352.441406"/>
       <use xlink:href="#DejaVuSans-6c" x="413.720703"/>
       <use xlink:href="#DejaVuSans-61" x="441.503906"/>
       <use xlink:href="#DejaVuSans-72" x="502.783203"/>
       <use xlink:href="#DejaVuSans-6d" x="542.146484"/>
      </g>
     </g>
    </g>
    <g id="ytick_13">
     <g id="line2d_13"/>
     <g id="text_13">
      <!-- Listen to radio -->
      <g style="fill: #2b1146" transform="translate(330.37125 312.120477) scale(0.24 -0.24)">
       <use xlink:href="#DejaVuSans-4c"/>
       <use xlink:href="#DejaVuSans-69" x="55.712891"/>
       <use xlink:href="#DejaVuSans-73" x="83.496094"/>
       <use xlink:href="#DejaVuSans-74" x="135.595703"/>
       <use xlink:href="#DejaVuSans-65" x="174.804688"/>
       <use xlink:href="#DejaVuSans-6e" x="236.328125"/>
       <use xlink:href="#DejaVuSans-20" x="299.707031"/>
       <use xlink:href="#DejaVuSans-74" x="331.494141"/>
       <use xlink:href="#DejaVuSans-6f" x="370.703125"/>
       <use xlink:href="#DejaVuSans-20" x="431.884766"/>
       <use xlink:href="#DejaVuSans-72" x="463.671875"/>
       <use xlink:href="#DejaVuSans-61" x="504.785156"/>
       <use xlink:href="#DejaVuSans-64" x="566.064453"/>
       <use xlink:href="#DejaVuSans-69" x="629.541016"/>
       <use xlink:href="#DejaVuSans-6f" x="657.324219"/>
      </g>
     </g>
    </g>
    <g id="ytick_14">
     <g id="line2d_14"/>
     <g id="text_14">
      <!-- Set a time -->
      <g style="fill: #2b1146" transform="translate(379.215 263.483565) scale(0.24 -0.24)">
       <use xlink:href="#DejaVuSans-53"/>
       <use xlink:href="#DejaVuSans-65" x="63.476562"/>
       <use xlink:href="#DejaVuSans-74" x="125"/>
       <use xlink:href="#DejaVuSans-20" x="164.208984"/>
       <use xlink:href="#DejaVuSans-61" x="195.996094"/>
       <use xlink:href="#DejaVuSans-20" x="257.275391"/>
       <use xlink:href="#DejaVuSans-74" x="289.0625"/>
       <use xlink:href="#DejaVuSans-69" x="328.271484"/>
       <use xlink:href="#DejaVuSans-6d" x="356.054688"/>
       <use xlink:href="#DejaVuSans-65" x="453.466797"/>
      </g>
     </g>
    </g>
    <g id="ytick_15">
     <g id="line2d_15"/>
     <g id="text_15">
      <!-- Check the weather -->
      <g style="fill: #2b1146" transform="translate(275.985 214.846653) scale(0.24 -0.24)">
       <use xlink:href="#DejaVuSans-43"/>
       <use xlink:href="#DejaVuSans-68" x="69.824219"/>
       <use xlink:href="#DejaVuSans-65" x="133.203125"/>
       <use xlink:href="#DejaVuSans-63" x="194.726562"/>
       <use xlink:href="#DejaVuSans-6b" x="249.707031"/>
       <use xlink:href="#DejaVuSans-20" x="307.617188"/>
       <use xlink:href="#DejaVuSans-74" x="339.404297"/>
       <use xlink:href="#DejaVuSans-68" x="378.613281"/>
       <use xlink:href="#DejaVuSans-65" x="441.992188"/>
       <use xlink:href="#DejaVuSans-20" x="503.515625"/>
       <use xlink:href="#DejaVuSans-77" x="535.302734"/>
       <use xlink:href="#DejaVuSans-65" x="617.089844"/>
       <use xlink:href="#DejaVuSans-61" x="678.613281"/>
       <use xlink:href="#DejaVuSans-74" x="739.892578"/>
       <use xlink:href="#DejaVuSans-68" x="779.101562"/>
       <use xlink:href="#DejaVuSans-65" x="842.480469"/>
       <use xlink:href="#DejaVuSans-72" x="904.003906"/>
      </g>
     </g>
    </g>
    <g id="ytick_16">
     <g id="line2d_16"/>
     <g id="text_16">
      <!-- Listen to streaming music service -->
      <g style="fill: #2b1146" transform="translate(98.14875 166.209741) scale(0.24 -0.24)">
       <use xlink:href="#DejaVuSans-4c"/>
       <use xlink:href="#DejaVuSans-69" x="55.712891"/>
       <use xlink:href="#DejaVuSans-73" x="83.496094"/>
       <use xlink:href="#DejaVuSans-74" x="135.595703"/>
       <use xlink:href="#DejaVuSans-65" x="174.804688"/>
       <use xlink:href="#DejaVuSans-6e" x="236.328125"/>
       <use xlink:href="#DejaVuSans-20" x="299.707031"/>
       <use xlink:href="#DejaVuSans-74" x="331.494141"/>
       <use xlink:href="#DejaVuSans-6f" x="370.703125"/>
       <use xlink:href="#DejaVuSans-20" x="431.884766"/>
       <use xlink:href="#DejaVuSans-73" x="463.671875"/>
       <use xlink:href="#DejaVuSans-74" x="515.771484"/>
       <use xlink:href="#DejaVuSans-72" x="554.980469"/>
       <use xlink:href="#DejaVuSans-65" x="593.84375"/>
       <use xlink:href="#DejaVuSans-61" x="655.367188"/>
       <use xlink:href="#DejaVuSans-6d" x="716.646484"/>
       <use xlink:href="#DejaVuSans-69" x="814.058594"/>
       <use xlink:href="#DejaVuSans-6e" x="841.841797"/>
       <use xlink:href="#DejaVuSans-67" x="905.220703"/>
       <use xlink:href="#DejaVuSans-20" x="968.697266"/>
       <use xlink:href="#DejaVuSans-6d" x="1000.484375"/>
       <use xlink:href="#DejaVuSans-75" x="1097.896484"/>
       <use xlink:href="#DejaVuSans-73" x="1161.275391"/>
       <use xlink:href="#DejaVuSans-69" x="1213.375"/>
       <use xlink:href="#DejaVuSans-63" x="1241.158203"/>
       <use xlink:href="#DejaVuSans-20" x="1296.138672"/>
       <use xlink:href="#DejaVuSans-73" x="1327.925781"/>
       <use xlink:href="#DejaVuSans-65" x="1380.025391"/>
       <use xlink:href="#DejaVuSans-72" x="1441.548828"/>
       <use xlink:href="#DejaVuSans-76" x="1482.662109"/>
       <use xlink:href="#DejaVuSans-69" x="1541.841797"/>
       <use xlink:href="#DejaVuSans-63" x="1569.625"/>
       <use xlink:href="#DejaVuSans-65" x="1624.605469"/>
      </g>
     </g>
    </g>
    <g id="ytick_17">
     <g id="line2d_17"/>
     <g id="text_17">
      <!-- Ask a question -->
      <g style="fill: #2b1146" transform="translate(326.34375 117.572829) scale(0.24 -0.24)">
       <defs>
        <path id="DejaVuSans-71" d="M 947 1747 
Q 947 1113 1208 752 
Q 1469 391 1925 391 
Q 2381 391 2643 752 
Q 2906 1113 2906 1747 
Q 2906 2381 2643 2742 
Q 2381 3103 1925 3103 
Q 1469 3103 1208 2742 
Q 947 2381 947 1747 
z
M 2906 525 
Q 2725 213 2448 61 
Q 2172 -91 1784 -91 
Q 1150 -91 751 415 
Q 353 922 353 1747 
Q 353 2572 751 3078 
Q 1150 3584 1784 3584 
Q 2172 3584 2448 3432 
Q 2725 3281 2906 2969 
L 2906 3500 
L 3481 3500 
L 3481 -1331 
L 2906 -1331 
L 2906 525 
z
" transform="scale(0.015625)"/>
       </defs>
       <use xlink:href="#DejaVuSans-41"/>
       <use xlink:href="#DejaVuSans-73" x="68.408203"/>
       <use xlink:href="#DejaVuSans-6b" x="120.507812"/>
       <use xlink:href="#DejaVuSans-20" x="178.417969"/>
       <use xlink:href="#DejaVuSans-61" x="210.205078"/>
       <use xlink:href="#DejaVuSans-20" x="271.484375"/>
       <use xlink:href="#DejaVuSans-71" x="303.271484"/>
       <use xlink:href="#DejaVuSans-75" x="366.748047"/>
       <use xlink:href="#DejaVuSans-65" x="430.126953"/>
       <use xlink:href="#DejaVuSans-73" x="491.650391"/>
       <use xlink:href="#DejaVuSans-74" x="543.75"/>
       <use xlink:href="#DejaVuSans-69" x="582.958984"/>
       <use xlink:href="#DejaVuSans-6f" x="610.742188"/>
       <use xlink:href="#DejaVuSans-6e" x="671.923828"/>
      </g>
     </g>
    </g>
   </g>
   <g id="text_18">
    <!-- 26.0% -->
    <g style="fill: #ffffff" transform="translate(572.657192 894.109522) scale(0.2 -0.2)">
     <defs>
      <path id="DejaVuSans-32" d="M 1228 531 
L 3431 531 
L 3431 0 
L 469 0 
L 469 531 
Q 828 903 1448 1529 
Q 2069 2156 2228 2338 
Q 2531 2678 2651 2914 
Q 2772 3150 2772 3378 
Q 2772 3750 2511 3984 
Q 2250 4219 1831 4219 
Q 1534 4219 1204 4116 
Q 875 4013 500 3803 
L 500 4441 
Q 881 4594 1212 4672 
Q 1544 4750 1819 4750 
Q 2544 4750 2975 4387 
Q 3406 4025 3406 3419 
Q 3406 3131 3298 2873 
Q 3191 2616 2906 2266 
Q 2828 2175 2409 1742 
Q 1991 1309 1228 531 
z
" transform="scale(0.015625)"/>
      <path id="DejaVuSans-36" d="M 2113 2584 
Q 1688 2584 1439 2293 
Q 1191 2003 1191 1497 
Q 1191 994 1439 701 
Q 1688 409 2113 409 
Q 2538 409 2786 701 
Q 3034 994 3034 1497 
Q 3034 2003 2786 2293 
Q 2538 2584 2113 2584 
z
M 3366 4563 
L 3366 3988 
Q 3128 4100 2886 4159 
Q 2644 4219 2406 4219 
Q 1781 4219 1451 3797 
Q 1122 3375 1075 2522 
Q 1259 2794 1537 2939 
Q 1816 3084 2150 3084 
Q 2853 3084 3261 2657 
Q 3669 2231 3669 1497 
Q 3669 778 3244 343 
Q 2819 -91 2113 -91 
Q 1303 -91 875 529 
Q 447 1150 447 2328 
Q 447 3434 972 4092 
Q 1497 4750 2381 4750 
Q 2619 4750 2861 4703 
Q 3103 4656 3366 4563 
z
" transform="scale(0.015625)"/>
      <path id="DejaVuSans-2e" d="M 684 794 
L 1344 794 
L 1344 0 
L 684 0 
L 684 794 
z
" transform="scale(0.015625)"/>
      <path id="DejaVuSans-30" d="M 2034 4250 
Q 1547 4250 1301 3770 
Q 1056 3291 1056 2328 
Q 1056 1369 1301 889 
Q 1547 409 2034 409 
Q 2525 409 2770 889 
Q 3016 1369 3016 2328 
Q 3016 3291 2770 3770 
Q 2525 4250 2034 4250 
z
M 2034 4750 
Q 2819 4750 3233 4129 
Q 3647 3509 3647 2328 
Q 3647 1150 3233 529 
Q 2819 -91 2034 -91 
Q 1250 -91 836 529 
Q 422 1150 422 2328 
Q 422 3509 836 4129 
Q 1250 4750 2034 4750 
z
" transform="scale(0.015625)"/>
      <path id="DejaVuSans-25" d="M 4653 2053 
Q 4381 2053 4226 1822 
Q 4072 1591 4072 1178 
Q 4072 772 4226 539 
Q 4381 306 4653 306 
Q 4919 306 5073 539 
Q 5228 772 5228 1178 
Q 5228 1588 5073 1820 
Q 4919 2053 4653 2053 
z
M 4653 2450 
Q 5147 2450 5437 2106 
Q 5728 1763 5728 1178 
Q 5728 594 5436 251 
Q 5144 -91 4653 -91 
Q 4153 -91 3862 251 
Q 3572 594 3572 1178 
Q 3572 1766 3864 2108 
Q 4156 2450 4653 2450 
z
M 1428 4353 
Q 1159 4353 1004 4120 
Q 850 3888 850 3481 
Q 850 3069 1003 2837 
Q 1156 2606 1428 2606 
Q 1700 2606 1854 2837 
Q 2009 3069 2009 3481 
Q 2009 3884 1853 4118 
Q 1697 4353 1428 4353 
z
M 4250 4750 
L 4750 4750 
L 1831 -91 
L 1331 -91 
L 4250 4750 
z
M 1428 4750 
Q 1922 4750 2215 4408 
Q 2509 4066 2509 3481 
Q 2509 2891 2217 2550 
Q 1925 2209 1428 2209 
Q 931 2209 642 2551 
Q 353 2894 353 3481 
Q 353 4063 643 4406 
Q 934 4750 1428 4750 
z
" transform="scale(0.015625)"/>
     </defs>
     <use xlink:href="#DejaVuSans-32"/>
     <use xlink:href="#DejaVuSans-36" x="63.623047"/>
     <use xlink:href="#DejaVuSans-2e" x="127.246094"/>
     <use xlink:href="#DejaVuSans-30" x="159.033203"/>
     <use xlink:href="#DejaVuSans-25" x="222.65625"/>
    </g>
   </g>
   <g id="text_19">
    <!-- 34.2% -->
    <g style="fill: #ffffff" transform="translate(614.639025 845.47261) scale(0.2 -0.2)">
     <defs>
      <path id="DejaVuSans-33" d="M 2597 2516 
Q 3050 2419 3304 2112 
Q 3559 1806 3559 1356 
Q 3559 666 3084 287 
Q 2609 -91 1734 -91 
Q 1441 -91 1130 -33 
Q 819 25 488 141 
L 488 750 
Q 750 597 1062 519 
Q 1375 441 1716 441 
Q 2309 441 2620 675 
Q 2931 909 2931 1356 
Q 2931 1769 2642 2001 
Q 2353 2234 1838 2234 
L 1294 2234 
L 1294 2753 
L 1863 2753 
Q 2328 2753 2575 2939 
Q 2822 3125 2822 3475 
Q 2822 3834 2567 4026 
Q 2313 4219 1838 4219 
Q 1578 4219 1281 4162 
Q 984 4106 628 3988 
L 628 4550 
Q 988 4650 1302 4700 
Q 1616 4750 1894 4750 
Q 2613 4750 3031 4423 
Q 3450 4097 3450 3541 
Q 3450 3153 3228 2886 
Q 3006 2619 2597 2516 
z
" transform="scale(0.015625)"/>
      <path id="DejaVuSans-34" d="M 2419 4116 
L 825 1625 
L 2419 1625 
L 2419 4116 
z
M 2253 4666 
L 3047 4666 
L 3047 1625 
L 3713 1625 
L 3713 1100 
L 3047 1100 
L 3047 0 
L 2419 0 
L 2419 1100 
L 313 1100 
L 313 1709 
L 2253 4666 
z
" transform="scale(0.015625)"/>
     </defs>
     <use xlink:href="#DejaVuSans-33"/>
     <use xlink:href="#DejaVuSans-34" x="63.623047"/>
     <use xlink:href="#DejaVuSans-2e" x="127.246094"/>
     <use xlink:href="#DejaVuSans-32" x="159.033203"/>
     <use xlink:href="#DejaVuSans-25" x="222.65625"/>
    </g>
   </g>
   <g id="text_20">
    <!-- 35.1% -->
    <g style="fill: #ffffff" transform="translate(619.246788 796.835698) scale(0.2 -0.2)">
     <defs>
      <path id="DejaVuSans-35" d="M 691 4666 
L 3169 4666 
L 3169 4134 
L 1269 4134 
L 1269 2991 
Q 1406 3038 1543 3061 
Q 1681 3084 1819 3084 
Q 2600 3084 3056 2656 
Q 3513 2228 3513 1497 
Q 3513 744 3044 326 
Q 2575 -91 1722 -91 
Q 1428 -91 1123 -41 
Q 819 9 494 109 
L 494 744 
Q 775 591 1075 516 
Q 1375 441 1709 441 
Q 2250 441 2565 725 
Q 2881 1009 2881 1497 
Q 2881 1984 2565 2268 
Q 2250 2553 1709 2553 
Q 1456 2553 1204 2497 
Q 953 2441 691 2322 
L 691 4666 
z
" transform="scale(0.015625)"/>
      <path id="DejaVuSans-31" d="M 794 531 
L 1825 531 
L 1825 4091 
L 703 3866 
L 703 4441 
L 1819 4666 
L 2450 4666 
L 2450 531 
L 3481 531 
L 3481 0 
L 794 0 
L 794 531 
z
" transform="scale(0.015625)"/>
     </defs>
     <use xlink:href="#DejaVuSans-33"/>
     <use xlink:href="#DejaVuSans-35" x="63.623047"/>
     <use xlink:href="#DejaVuSans-2e" x="127.246094"/>
     <use xlink:href="#DejaVuSans-31" x="159.033203"/>
     <use xlink:href="#DejaVuSans-25" x="222.65625"/>
    </g>
   </g>
   <g id="text_21">
    <!-- 38.1% -->
    <g style="fill: #ffffff" transform="translate(634.605995 748.198786) scale(0.2 -0.2)">
     <defs>
      <path id="DejaVuSans-38" d="M 2034 2216 
Q 1584 2216 1326 1975 
Q 1069 1734 1069 1313 
Q 1069 891 1326 650 
Q 1584 409 2034 409 
Q 2484 409 2743 651 
Q 3003 894 3003 1313 
Q 3003 1734 2745 1975 
Q 2488 2216 2034 2216 
z
M 1403 2484 
Q 997 2584 770 2862 
Q 544 3141 544 3541 
Q 544 4100 942 4425 
Q 1341 4750 2034 4750 
Q 2731 4750 3128 4425 
Q 3525 4100 3525 3541 
Q 3525 3141 3298 2862 
Q 3072 2584 2669 2484 
Q 3125 2378 3379 2068 
Q 3634 1759 3634 1313 
Q 3634 634 3220 271 
Q 2806 -91 2034 -91 
Q 1263 -91 848 271 
Q 434 634 434 1313 
Q 434 1759 690 2068 
Q 947 2378 1403 2484 
z
M 1172 3481 
Q 1172 3119 1398 2916 
Q 1625 2713 2034 2713 
Q 2441 2713 2670 2916 
Q 2900 3119 2900 3481 
Q 2900 3844 2670 4047 
Q 2441 4250 2034 4250 
Q 1625 4250 1398 4047 
Q 1172 3844 1172 3481 
z
" transform="scale(0.015625)"/>
     </defs>
     <use xlink:href="#DejaVuSans-33"/>
     <use xlink:href="#DejaVuSans-38" x="63.623047"/>
     <use xlink:href="#DejaVuSans-2e" x="127.246094"/>
     <use xlink:href="#DejaVuSans-31" x="159.033203"/>
     <use xlink:href="#DejaVuSans-25" x="222.65625"/>
    </g>
   </g>
   <g id="text_22">
    <!-- 40.7% -->
    <g style="fill: #ffffff" transform="translate(647.917308 699.561874) scale(0.2 -0.2)">
     <defs>
      <path id="DejaVuSans-37" d="M 525 4666 
L 3525 4666 
L 3525 4397 
L 1831 0 
L 1172 0 
L 2766 4134 
L 525 4134 
L 525 4666 
z
" transform="scale(0.015625)"/>
     </defs>
     <use xlink:href="#DejaVuSans-34"/>
     <use xlink:href="#DejaVuSans-30" x="63.623047"/>
     <use xlink:href="#DejaVuSans-2e" x="127.246094"/>
     <use xlink:href="#DejaVuSans-37" x="159.033203"/>
     <use xlink:href="#DejaVuSans-25" x="222.65625"/>
    </g>
   </g>
   <g id="text_23">
    <!-- 40.7% -->
    <g style="fill: #ffffff" transform="translate(647.917308 650.924962) scale(0.2 -0.2)">
     <use xlink:href="#DejaVuSans-34"/>
     <use xlink:href="#DejaVuSans-30" x="63.623047"/>
     <use xlink:href="#DejaVuSans-2e" x="127.246094"/>
     <use xlink:href="#DejaVuSans-37" x="159.033203"/>
     <use xlink:href="#DejaVuSans-25" x="222.65625"/>
    </g>
   </g>
   <g id="text_24">
    <!-- 41.2% -->
    <g style="fill: #ffffff" transform="translate(650.477176 602.28805) scale(0.2 -0.2)">
     <use xlink:href="#DejaVuSans-34"/>
     <use xlink:href="#DejaVuSans-31" x="63.623047"/>
     <use xlink:href="#DejaVuSans-2e" x="127.246094"/>
     <use xlink:href="#DejaVuSans-32" x="159.033203"/>
     <use xlink:href="#DejaVuSans-25" x="222.65625"/>
    </g>
   </g>
   <g id="text_25">
    <!-- 46.5% -->
    <g style="fill: #ffffff" transform="translate(677.611775 553.651138) scale(0.2 -0.2)">
     <use xlink:href="#DejaVuSans-34"/>
     <use xlink:href="#DejaVuSans-36" x="63.623047"/>
     <use xlink:href="#DejaVuSans-2e" x="127.246094"/>
     <use xlink:href="#DejaVuSans-35" x="159.033203"/>
     <use xlink:href="#DejaVuSans-25" x="222.65625"/>
    </g>
   </g>
   <g id="text_26">
    <!-- 49.5% -->
    <g style="fill: #ffffff" transform="translate(692.970982 505.014226) scale(0.2 -0.2)">
     <defs>
      <path id="DejaVuSans-39" d="M 703 97 
L 703 672 
Q 941 559 1184 500 
Q 1428 441 1663 441 
Q 2288 441 2617 861 
Q 2947 1281 2994 2138 
Q 2813 1869 2534 1725 
Q 2256 1581 1919 1581 
Q 1219 1581 811 2004 
Q 403 2428 403 3163 
Q 403 3881 828 4315 
Q 1253 4750 1959 4750 
Q 2769 4750 3195 4129 
Q 3622 3509 3622 2328 
Q 3622 1225 3098 567 
Q 2575 -91 1691 -91 
Q 1453 -91 1209 -44 
Q 966 3 703 97 
z
M 1959 2075 
Q 2384 2075 2632 2365 
Q 2881 2656 2881 3163 
Q 2881 3666 2632 3958 
Q 2384 4250 1959 4250 
Q 1534 4250 1286 3958 
Q 1038 3666 1038 3163 
Q 1038 2656 1286 2365 
Q 1534 2075 1959 2075 
z
" transform="scale(0.015625)"/>
     </defs>
     <use xlink:href="#DejaVuSans-34"/>
     <use xlink:href="#DejaVuSans-39" x="63.623047"/>
     <use xlink:href="#DejaVuSans-2e" x="127.246094"/>
     <use xlink:href="#DejaVuSans-35" x="159.033203"/>
     <use xlink:href="#DejaVuSans-25" x="222.65625"/>
    </g>
   </g>
   <g id="text_27">
    <!-- 52.3% -->
    <g style="fill: #ffffff" transform="translate(707.306243 456.377315) scale(0.2 -0.2)">
     <use xlink:href="#DejaVuSans-35"/>
     <use xlink:href="#DejaVuSans-32" x="63.623047"/>
     <use xlink:href="#DejaVuSans-2e" x="127.246094"/>
     <use xlink:href="#DejaVuSans-33" x="159.033203"/>
     <use xlink:href="#DejaVuSans-25" x="222.65625"/>
    </g>
   </g>
   <g id="text_28">
    <!-- 58.1% -->
    <g style="fill: #ffffff" transform="translate(737.00071 407.740403) scale(0.2 -0.2)">
     <use xlink:href="#DejaVuSans-35"/>
     <use xlink:href="#DejaVuSans-38" x="63.623047"/>
     <use xlink:href="#DejaVuSans-2e" x="127.246094"/>
     <use xlink:href="#DejaVuSans-31" x="159.033203"/>
     <use xlink:href="#DejaVuSans-25" x="222.65625"/>
    </g>
   </g>
   <g id="text_29">
    <!-- 65.7% -->
    <g style="fill: #ffffff" transform="translate(775.910702 359.103491) scale(0.2 -0.2)">
     <use xlink:href="#DejaVuSans-36"/>
     <use xlink:href="#DejaVuSans-35" x="63.623047"/>
     <use xlink:href="#DejaVuSans-2e" x="127.246094"/>
     <use xlink:href="#DejaVuSans-37" x="159.033203"/>
     <use xlink:href="#DejaVuSans-25" x="222.65625"/>
    </g>
   </g>
   <g id="text_30">
    <!-- 68.8% -->
    <g style="fill: #ffffff" transform="translate(791.781882 310.466579) scale(0.2 -0.2)">
     <use xlink:href="#DejaVuSans-36"/>
     <use xlink:href="#DejaVuSans-38" x="63.623047"/>
     <use xlink:href="#DejaVuSans-2e" x="127.246094"/>
     <use xlink:href="#DejaVuSans-38" x="159.033203"/>
     <use xlink:href="#DejaVuSans-25" x="222.65625"/>
    </g>
   </g>
   <g id="text_31">
    <!-- 71.4% -->
    <g style="fill: #ffffff" transform="translate(805.093195 261.829667) scale(0.2 -0.2)">
     <use xlink:href="#DejaVuSans-37"/>
     <use xlink:href="#DejaVuSans-31" x="63.623047"/>
     <use xlink:href="#DejaVuSans-2e" x="127.246094"/>
     <use xlink:href="#DejaVuSans-34" x="159.033203"/>
     <use xlink:href="#DejaVuSans-25" x="222.65625"/>
    </g>
   </g>
   <g id="text_32">
    <!-- 85.2% -->
    <g style="fill: #ffffff" transform="translate(875.745549 213.192755) scale(0.2 -0.2)">
     <use xlink:href="#DejaVuSans-38"/>
     <use xlink:href="#DejaVuSans-35" x="63.623047"/>
     <use xlink:href="#DejaVuSans-2e" x="127.246094"/>
     <use xlink:href="#DejaVuSans-32" x="159.033203"/>
     <use xlink:href="#DejaVuSans-25" x="222.65625"/>
    </g>
   </g>
   <g id="text_33">
    <!-- 89.5% -->
    <g style="fill: #ffffff" transform="translate(897.760413 164.555843) scale(0.2 -0.2)">
     <use xlink:href="#DejaVuSans-38"/>
     <use xlink:href="#DejaVuSans-39" x="63.623047"/>
     <use xlink:href="#DejaVuSans-2e" x="127.246094"/>
     <use xlink:href="#DejaVuSans-35" x="159.033203"/>
     <use xlink:href="#DejaVuSans-25" x="222.65625"/>
    </g>
   </g>
   <g id="text_34">
    <!-- 91.0% -->
    <g style="fill: #ffffff" transform="translate(905.440016 115.918931) scale(0.2 -0.2)">
     <use xlink:href="#DejaVuSans-39"/>
     <use xlink:href="#DejaVuSans-31" x="63.623047"/>
     <use xlink:href="#DejaVuSans-2e" x="127.246094"/>
     <use xlink:href="#DejaVuSans-30" x="159.033203"/>
     <use xlink:href="#DejaVuSans-25" x="222.65625"/>
    </g>
   </g>
   <g id="text_35">
    <!-- 11.5% -->
    <g style="fill: #e87766" transform="translate(716.534153 894.109522) scale(0.2 -0.2)">
     <use xlink:href="#DejaVuSans-31"/>
     <use xlink:href="#DejaVuSans-31" x="63.623047"/>
     <use xlink:href="#DejaVuSans-2e" x="127.246094"/>
     <use xlink:href="#DejaVuSans-35" x="159.033203"/>
     <use xlink:href="#DejaVuSans-25" x="222.65625"/>
    </g>
   </g>
   <g id="text_36">
    <!-- 17.9% -->
    <g style="fill: #ffffff" transform="translate(706.282295 845.47261) scale(0.2 -0.2)">
     <use xlink:href="#DejaVuSans-31"/>
     <use xlink:href="#DejaVuSans-37" x="63.623047"/>
     <use xlink:href="#DejaVuSans-2e" x="127.246094"/>
     <use xlink:href="#DejaVuSans-39" x="159.033203"/>
     <use xlink:href="#DejaVuSans-25" x="222.65625"/>
    </g>
   </g>
   <g id="text_37">
    <!-- 19.6% -->
    <g style="fill: #ffffff" transform="translate(719.593608 796.835698) scale(0.2 -0.2)">
     <use xlink:href="#DejaVuSans-31"/>
     <use xlink:href="#DejaVuSans-39" x="63.623047"/>
     <use xlink:href="#DejaVuSans-2e" x="127.246094"/>
     <use xlink:href="#DejaVuSans-36" x="159.033203"/>
     <use xlink:href="#DejaVuSans-25" x="222.65625"/>
    </g>
   </g>
   <g id="text_38">
    <!-- 29.9% -->
    <g style="fill: #ffffff" transform="translate(787.686094 748.198786) scale(0.2 -0.2)">
     <use xlink:href="#DejaVuSans-32"/>
     <use xlink:href="#DejaVuSans-39" x="63.623047"/>
     <use xlink:href="#DejaVuSans-2e" x="127.246094"/>
     <use xlink:href="#DejaVuSans-39" x="159.033203"/>
     <use xlink:href="#DejaVuSans-25" x="222.65625"/>
    </g>
   </g>
   <g id="text_39">
    <!-- 24.1% -->
    <g style="fill: #ffffff" transform="translate(771.302939 699.561874) scale(0.2 -0.2)">
     <use xlink:href="#DejaVuSans-32"/>
     <use xlink:href="#DejaVuSans-34" x="63.623047"/>
     <use xlink:href="#DejaVuSans-2e" x="127.246094"/>
     <use xlink:href="#DejaVuSans-31" x="159.033203"/>
     <use xlink:href="#DejaVuSans-25" x="222.65625"/>
    </g>
   </g>
   <g id="text_40">
    <!-- 22.7% -->
    <g style="fill: #ffffff" transform="translate(764.135309 650.924962) scale(0.2 -0.2)">
     <use xlink:href="#DejaVuSans-32"/>
     <use xlink:href="#DejaVuSans-32" x="63.623047"/>
     <use xlink:href="#DejaVuSans-2e" x="127.246094"/>
     <use xlink:href="#DejaVuSans-37" x="159.033203"/>
     <use xlink:href="#DejaVuSans-25" x="222.65625"/>
    </g>
   </g>
   <g id="text_41">
    <!-- 25.8% -->
    <g style="fill: #ffffff" transform="translate(782.566358 602.28805) scale(0.2 -0.2)">
     <use xlink:href="#DejaVuSans-32"/>
     <use xlink:href="#DejaVuSans-35" x="63.623047"/>
     <use xlink:href="#DejaVuSans-2e" x="127.246094"/>
     <use xlink:href="#DejaVuSans-38" x="159.033203"/>
     <use xlink:href="#DejaVuSans-25" x="222.65625"/>
    </g>
   </g>
   <g id="text_42">
    <!-- 29.8% -->
    <g style="fill: #ffffff" transform="translate(830.179901 553.651138) scale(0.2 -0.2)">
     <use xlink:href="#DejaVuSans-32"/>
     <use xlink:href="#DejaVuSans-39" x="63.623047"/>
     <use xlink:href="#DejaVuSans-2e" x="127.246094"/>
     <use xlink:href="#DejaVuSans-38" x="159.033203"/>
     <use xlink:href="#DejaVuSans-25" x="222.65625"/>
    </g>
   </g>
   <g id="text_43">
    <!-- 26.5% -->
    <g style="fill: #ffffff" transform="translate(828.64398 505.014226) scale(0.2 -0.2)">
     <use xlink:href="#DejaVuSans-32"/>
     <use xlink:href="#DejaVuSans-36" x="63.623047"/>
     <use xlink:href="#DejaVuSans-2e" x="127.246094"/>
     <use xlink:href="#DejaVuSans-35" x="159.033203"/>
     <use xlink:href="#DejaVuSans-25" x="222.65625"/>
    </g>
   </g>
   <g id="text_44">
    <!-- 31.2% -->
    <g style="fill: #ffffff" transform="translate(867.041998 456.377315) scale(0.2 -0.2)">
     <use xlink:href="#DejaVuSans-33"/>
     <use xlink:href="#DejaVuSans-31" x="63.623047"/>
     <use xlink:href="#DejaVuSans-2e" x="127.246094"/>
     <use xlink:href="#DejaVuSans-32" x="159.033203"/>
     <use xlink:href="#DejaVuSans-25" x="222.65625"/>
    </g>
   </g>
   <g id="text_45">
    <!-- 39.4% -->
    <g style="fill: #ffffff" transform="translate(938.718299 407.740403) scale(0.2 -0.2)">
     <use xlink:href="#DejaVuSans-33"/>
     <use xlink:href="#DejaVuSans-39" x="63.623047"/>
     <use xlink:href="#DejaVuSans-2e" x="127.246094"/>
     <use xlink:href="#DejaVuSans-34" x="159.033203"/>
     <use xlink:href="#DejaVuSans-25" x="222.65625"/>
    </g>
   </g>
   <g id="text_46">
    <!-- 48.0% -->
    <g style="fill: #ffffff" transform="translate(1021.658018 359.103491) scale(0.2 -0.2)">
     <use xlink:href="#DejaVuSans-34"/>
     <use xlink:href="#DejaVuSans-38" x="63.623047"/>
     <use xlink:href="#DejaVuSans-2e" x="127.246094"/>
     <use xlink:href="#DejaVuSans-30" x="159.033203"/>
     <use xlink:href="#DejaVuSans-25" x="222.65625"/>
    </g>
   </g>
   <g id="text_47">
    <!-- 47.6% -->
    <g style="fill: #ffffff" transform="translate(1035.481304 310.466579) scale(0.2 -0.2)">
     <use xlink:href="#DejaVuSans-34"/>
     <use xlink:href="#DejaVuSans-37" x="63.623047"/>
     <use xlink:href="#DejaVuSans-2e" x="127.246094"/>
     <use xlink:href="#DejaVuSans-36" x="159.033203"/>
     <use xlink:href="#DejaVuSans-25" x="222.65625"/>
    </g>
   </g>
   <g id="text_48">
    <!-- 51.8% -->
    <g style="fill: #ffffff" transform="translate(1070.295508 261.829667) scale(0.2 -0.2)">
     <use xlink:href="#DejaVuSans-35"/>
     <use xlink:href="#DejaVuSans-31" x="63.623047"/>
     <use xlink:href="#DejaVuSans-2e" x="127.246094"/>
     <use xlink:href="#DejaVuSans-38" x="159.033203"/>
     <use xlink:href="#DejaVuSans-25" x="222.65625"/>
    </g>
   </g>
   <g id="text_49">
    <!-- 69.1% -->
    <g style="fill: #ffffff" transform="translate(1229.51929 213.192755) scale(0.2 -0.2)">
     <use xlink:href="#DejaVuSans-36"/>
     <use xlink:href="#DejaVuSans-39" x="63.623047"/>
     <use xlink:href="#DejaVuSans-2e" x="127.246094"/>
     <use xlink:href="#DejaVuSans-31" x="159.033203"/>
     <use xlink:href="#DejaVuSans-25" x="222.65625"/>
    </g>
   </g>
   <g id="text_50">
    <!-- 76.2% -->
    <g style="fill: #ffffff" transform="translate(1287.884277 164.555843) scale(0.2 -0.2)">
     <use xlink:href="#DejaVuSans-37"/>
     <use xlink:href="#DejaVuSans-36" x="63.623047"/>
     <use xlink:href="#DejaVuSans-2e" x="127.246094"/>
     <use xlink:href="#DejaVuSans-32" x="159.033203"/>
     <use xlink:href="#DejaVuSans-25" x="222.65625"/>
    </g>
   </g>
   <g id="text_51">
    <!-- 72.9% -->
    <g style="fill: #ffffff" transform="translate(1278.668753 115.918931) scale(0.2 -0.2)">
     <use xlink:href="#DejaVuSans-37"/>
     <use xlink:href="#DejaVuSans-32" x="63.623047"/>
     <use xlink:href="#DejaVuSans-2e" x="127.246094"/>
     <use xlink:href="#DejaVuSans-39" x="159.033203"/>
     <use xlink:href="#DejaVuSans-25" x="222.65625"/>
    </g>
   </g>
   <g id="text_52">
    <!-- 2.1% -->
    <g style="fill: #a881ba" transform="translate(793.648098 894.109522) scale(0.2 -0.2)">
     <use xlink:href="#DejaVuSans-32"/>
     <use xlink:href="#DejaVuSans-2e" x="63.623047"/>
     <use xlink:href="#DejaVuSans-31" x="95.410156"/>
     <use xlink:href="#DejaVuSans-25" x="159.033203"/>
    </g>
   </g>
   <g id="text_53">
    <!-- 8.2% -->
    <g style="fill: #a881ba" transform="translate(824.626629 845.47261) scale(0.2 -0.2)">
     <use xlink:href="#DejaVuSans-38"/>
     <use xlink:href="#DejaVuSans-2e" x="63.623047"/>
     <use xlink:href="#DejaVuSans-32" x="95.410156"/>
     <use xlink:href="#DejaVuSans-25" x="159.033203"/>
    </g>
   </g>
   <g id="text_54">
    <!-- 6.2% -->
    <g style="fill: #a881ba" transform="translate(827.69847 796.835698) scale(0.2 -0.2)">
     <use xlink:href="#DejaVuSans-36"/>
     <use xlink:href="#DejaVuSans-2e" x="63.623047"/>
     <use xlink:href="#DejaVuSans-32" x="95.410156"/>
     <use xlink:href="#DejaVuSans-25" x="159.033203"/>
    </g>
   </g>
   <g id="text_55">
    <!-- 20.8% -->
    <g style="fill: #a881ba" transform="translate(964.176598 748.198786) scale(0.2 -0.2)">
     <use xlink:href="#DejaVuSans-32"/>
     <use xlink:href="#DejaVuSans-30" x="63.623047"/>
     <use xlink:href="#DejaVuSans-2e" x="127.246094"/>
     <use xlink:href="#DejaVuSans-38" x="159.033203"/>
     <use xlink:href="#DejaVuSans-25" x="222.65625"/>
    </g>
   </g>
   <g id="text_56">
    <!-- 10.1% -->
    <g style="fill: #a881ba" transform="translate(893.012271 699.561874) scale(0.2 -0.2)">
     <use xlink:href="#DejaVuSans-31"/>
     <use xlink:href="#DejaVuSans-30" x="63.623047"/>
     <use xlink:href="#DejaVuSans-2e" x="127.246094"/>
     <use xlink:href="#DejaVuSans-31" x="159.033203"/>
     <use xlink:href="#DejaVuSans-25" x="222.65625"/>
    </g>
   </g>
   <g id="text_57">
    <!-- 10.3% -->
    <g style="fill: #a881ba" transform="translate(886.868588 650.924962) scale(0.2 -0.2)">
     <use xlink:href="#DejaVuSans-31"/>
     <use xlink:href="#DejaVuSans-30" x="63.623047"/>
     <use xlink:href="#DejaVuSans-2e" x="127.246094"/>
     <use xlink:href="#DejaVuSans-33" x="159.033203"/>
     <use xlink:href="#DejaVuSans-25" x="222.65625"/>
    </g>
   </g>
   <g id="text_58">
    <!-- 7.7% -->
    <g style="fill: #a881ba" transform="translate(898.350823 602.28805) scale(0.2 -0.2)">
     <use xlink:href="#DejaVuSans-37"/>
     <use xlink:href="#DejaVuSans-2e" x="63.623047"/>
     <use xlink:href="#DejaVuSans-37" x="95.410156"/>
     <use xlink:href="#DejaVuSans-25" x="159.033203"/>
    </g>
   </g>
   <g id="text_59">
    <!-- 14.7% -->
    <g style="fill: #a881ba" transform="translate(975.440016 553.651138) scale(0.2 -0.2)">
     <use xlink:href="#DejaVuSans-31"/>
     <use xlink:href="#DejaVuSans-34" x="63.623047"/>
     <use xlink:href="#DejaVuSans-2e" x="127.246094"/>
     <use xlink:href="#DejaVuSans-37" x="159.033203"/>
     <use xlink:href="#DejaVuSans-25" x="222.65625"/>
    </g>
   </g>
   <g id="text_60">
    <!-- 5.1% -->
    <g style="fill: #a881ba" transform="translate(931.117132 505.014226) scale(0.2 -0.2)">
     <use xlink:href="#DejaVuSans-35"/>
     <use xlink:href="#DejaVuSans-2e" x="63.623047"/>
     <use xlink:href="#DejaVuSans-31" x="95.410156"/>
     <use xlink:href="#DejaVuSans-25" x="159.033203"/>
    </g>
   </g>
   <g id="text_61">
    <!-- 11.1% -->
    <g style="fill: #a881ba" transform="translate(993.871065 456.377315) scale(0.2 -0.2)">
     <use xlink:href="#DejaVuSans-31"/>
     <use xlink:href="#DejaVuSans-31" x="63.623047"/>
     <use xlink:href="#DejaVuSans-2e" x="127.246094"/>
     <use xlink:href="#DejaVuSans-31" x="159.033203"/>
     <use xlink:href="#DejaVuSans-25" x="222.65625"/>
    </g>
   </g>
   <g id="text_62">
    <!-- 14.8% -->
    <g style="fill: #a881ba" transform="translate(1084.490388 407.740403) scale(0.2 -0.2)">
     <use xlink:href="#DejaVuSans-31"/>
     <use xlink:href="#DejaVuSans-34" x="63.623047"/>
     <use xlink:href="#DejaVuSans-2e" x="127.246094"/>
     <use xlink:href="#DejaVuSans-38" x="159.033203"/>
     <use xlink:href="#DejaVuSans-25" x="222.65625"/>
    </g>
   </g>
   <g id="text_63">
    <!-- 25.3% -->
    <g style="fill: #ffffff" transform="translate(1151.187333 359.103491) scale(0.2 -0.2)">
     <use xlink:href="#DejaVuSans-32"/>
     <use xlink:href="#DejaVuSans-35" x="63.623047"/>
     <use xlink:href="#DejaVuSans-2e" x="127.246094"/>
     <use xlink:href="#DejaVuSans-33" x="159.033203"/>
     <use xlink:href="#DejaVuSans-25" x="222.65625"/>
    </g>
   </g>
   <g id="text_64">
    <!-- 25.5% -->
    <g style="fill: #ffffff" transform="translate(1166.034566 310.466579) scale(0.2 -0.2)">
     <use xlink:href="#DejaVuSans-32"/>
     <use xlink:href="#DejaVuSans-35" x="63.623047"/>
     <use xlink:href="#DejaVuSans-2e" x="127.246094"/>
     <use xlink:href="#DejaVuSans-35" x="159.033203"/>
     <use xlink:href="#DejaVuSans-25" x="222.65625"/>
    </g>
   </g>
   <g id="text_65">
    <!-- 24.1% -->
    <g style="fill: #ffffff" transform="translate(1193.681139 261.829667) scale(0.2 -0.2)">
     <use xlink:href="#DejaVuSans-32"/>
     <use xlink:href="#DejaVuSans-34" x="63.623047"/>
     <use xlink:href="#DejaVuSans-2e" x="127.246094"/>
     <use xlink:href="#DejaVuSans-31" x="159.033203"/>
     <use xlink:href="#DejaVuSans-25" x="222.65625"/>
    </g>
   </g>
   <g id="text_66">
    <!-- 41.4% -->
    <g style="fill: #ffffff" transform="translate(1441.47635 213.192755) scale(0.2 -0.2)">
     <use xlink:href="#DejaVuSans-34"/>
     <use xlink:href="#DejaVuSans-31" x="63.623047"/>
     <use xlink:href="#DejaVuSans-2e" x="127.246094"/>
     <use xlink:href="#DejaVuSans-34" x="159.033203"/>
     <use xlink:href="#DejaVuSans-25" x="222.65625"/>
    </g>
   </g>
   <g id="text_67">
    <!-- 41.9% -->
    <g style="fill: #ffffff" transform="translate(1502.401205 164.555843) scale(0.2 -0.2)">
     <use xlink:href="#DejaVuSans-34"/>
     <use xlink:href="#DejaVuSans-31" x="63.623047"/>
     <use xlink:href="#DejaVuSans-2e" x="127.246094"/>
     <use xlink:href="#DejaVuSans-39" x="159.033203"/>
     <use xlink:href="#DejaVuSans-25" x="222.65625"/>
    </g>
   </g>
   <g id="text_68">
    <!-- 33.3% -->
    <g style="fill: #ffffff" transform="translate(1449.155953 115.918931) scale(0.2 -0.2)">
     <use xlink:href="#DejaVuSans-33"/>
     <use xlink:href="#DejaVuSans-33" x="63.623047"/>
     <use xlink:href="#DejaVuSans-2e" x="127.246094"/>
     <use xlink:href="#DejaVuSans-33" x="159.033203"/>
     <use xlink:href="#DejaVuSans-25" x="222.65625"/>
    </g>
   </g>
   <g id="text_69">
    <!-- Uses of voice assistants and frequency of use -->
    <g transform="translate(221.6225 43.6725) scale(0.48 -0.48)">
     <defs>
      <path id="DejaVuSans-Bold-55" d="M 588 4666 
L 1791 4666 
L 1791 1869 
Q 1791 1291 1980 1042 
Q 2169 794 2597 794 
Q 3028 794 3217 1042 
Q 3406 1291 3406 1869 
L 3406 4666 
L 4609 4666 
L 4609 1869 
Q 4609 878 4112 393 
Q 3616 -91 2597 -91 
Q 1581 -91 1084 393 
Q 588 878 588 1869 
L 588 4666 
z
" transform="scale(0.015625)"/>
      <path id="DejaVuSans-Bold-73" d="M 3272 3391 
L 3272 2541 
Q 2913 2691 2578 2766 
Q 2244 2841 1947 2841 
Q 1628 2841 1473 2761 
Q 1319 2681 1319 2516 
Q 1319 2381 1436 2309 
Q 1553 2238 1856 2203 
L 2053 2175 
Q 2913 2066 3209 1816 
Q 3506 1566 3506 1031 
Q 3506 472 3093 190 
Q 2681 -91 1863 -91 
Q 1516 -91 1145 -36 
Q 775 19 384 128 
L 384 978 
Q 719 816 1070 734 
Q 1422 653 1784 653 
Q 2113 653 2278 743 
Q 2444 834 2444 1013 
Q 2444 1163 2330 1236 
Q 2216 1309 1875 1350 
L 1678 1375 
Q 931 1469 631 1722 
Q 331 1975 331 2491 
Q 331 3047 712 3315 
Q 1094 3584 1881 3584 
Q 2191 3584 2531 3537 
Q 2872 3491 3272 3391 
z
" transform="scale(0.015625)"/>
      <path id="DejaVuSans-Bold-65" d="M 4031 1759 
L 4031 1441 
L 1416 1441 
Q 1456 1047 1700 850 
Q 1944 653 2381 653 
Q 2734 653 3104 758 
Q 3475 863 3866 1075 
L 3866 213 
Q 3469 63 3072 -14 
Q 2675 -91 2278 -91 
Q 1328 -91 801 392 
Q 275 875 275 1747 
Q 275 2603 792 3093 
Q 1309 3584 2216 3584 
Q 3041 3584 3536 3087 
Q 4031 2591 4031 1759 
z
M 2881 2131 
Q 2881 2450 2695 2645 
Q 2509 2841 2209 2841 
Q 1884 2841 1681 2658 
Q 1478 2475 1428 2131 
L 2881 2131 
z
" transform="scale(0.015625)"/>
      <path id="DejaVuSans-Bold-20" transform="scale(0.015625)"/>
      <path id="DejaVuSans-Bold-6f" d="M 2203 2784 
Q 1831 2784 1636 2517 
Q 1441 2250 1441 1747 
Q 1441 1244 1636 976 
Q 1831 709 2203 709 
Q 2569 709 2762 976 
Q 2956 1244 2956 1747 
Q 2956 2250 2762 2517 
Q 2569 2784 2203 2784 
z
M 2203 3584 
Q 3106 3584 3614 3096 
Q 4122 2609 4122 1747 
Q 4122 884 3614 396 
Q 3106 -91 2203 -91 
Q 1297 -91 786 396 
Q 275 884 275 1747 
Q 275 2609 786 3096 
Q 1297 3584 2203 3584 
z
" transform="scale(0.015625)"/>
      <path id="DejaVuSans-Bold-66" d="M 2841 4863 
L 2841 4128 
L 2222 4128 
Q 1984 4128 1890 4042 
Q 1797 3956 1797 3744 
L 1797 3500 
L 2753 3500 
L 2753 2700 
L 1797 2700 
L 1797 0 
L 678 0 
L 678 2700 
L 122 2700 
L 122 3500 
L 678 3500 
L 678 3744 
Q 678 4316 997 4589 
Q 1316 4863 1984 4863 
L 2841 4863 
z
" transform="scale(0.015625)"/>
      <path id="DejaVuSans-Bold-76" d="M 97 3500 
L 1216 3500 
L 2088 1081 
L 2956 3500 
L 4078 3500 
L 2700 0 
L 1472 0 
L 97 3500 
z
" transform="scale(0.015625)"/>
      <path id="DejaVuSans-Bold-69" d="M 538 3500 
L 1656 3500 
L 1656 0 
L 538 0 
L 538 3500 
z
M 538 4863 
L 1656 4863 
L 1656 3950 
L 538 3950 
L 538 4863 
z
" transform="scale(0.015625)"/>
      <path id="DejaVuSans-Bold-63" d="M 3366 3391 
L 3366 2478 
Q 3138 2634 2908 2709 
Q 2678 2784 2431 2784 
Q 1963 2784 1702 2511 
Q 1441 2238 1441 1747 
Q 1441 1256 1702 982 
Q 1963 709 2431 709 
Q 2694 709 2930 787 
Q 3166 866 3366 1019 
L 3366 103 
Q 3103 6 2833 -42 
Q 2563 -91 2291 -91 
Q 1344 -91 809 395 
Q 275 881 275 1747 
Q 275 2613 809 3098 
Q 1344 3584 2291 3584 
Q 2566 3584 2833 3536 
Q 3100 3488 3366 3391 
z
" transform="scale(0.015625)"/>
      <path id="DejaVuSans-Bold-61" d="M 2106 1575 
Q 1756 1575 1579 1456 
Q 1403 1338 1403 1106 
Q 1403 894 1545 773 
Q 1688 653 1941 653 
Q 2256 653 2472 879 
Q 2688 1106 2688 1447 
L 2688 1575 
L 2106 1575 
z
M 3816 1997 
L 3816 0 
L 2688 0 
L 2688 519 
Q 2463 200 2181 54 
Q 1900 -91 1497 -91 
Q 953 -91 614 226 
Q 275 544 275 1050 
Q 275 1666 698 1953 
Q 1122 2241 2028 2241 
L 2688 2241 
L 2688 2328 
Q 2688 2594 2478 2717 
Q 2269 2841 1825 2841 
Q 1466 2841 1156 2769 
Q 847 2697 581 2553 
L 581 3406 
Q 941 3494 1303 3539 
Q 1666 3584 2028 3584 
Q 2975 3584 3395 3211 
Q 3816 2838 3816 1997 
z
" transform="scale(0.015625)"/>
      <path id="DejaVuSans-Bold-74" d="M 1759 4494 
L 1759 3500 
L 2913 3500 
L 2913 2700 
L 1759 2700 
L 1759 1216 
Q 1759 972 1856 886 
Q 1953 800 2241 800 
L 2816 800 
L 2816 0 
L 1856 0 
Q 1194 0 917 276 
Q 641 553 641 1216 
L 641 2700 
L 84 2700 
L 84 3500 
L 641 3500 
L 641 4494 
L 1759 4494 
z
" transform="scale(0.015625)"/>
      <path id="DejaVuSans-Bold-6e" d="M 4056 2131 
L 4056 0 
L 2931 0 
L 2931 347 
L 2931 1631 
Q 2931 2084 2911 2256 
Q 2891 2428 2841 2509 
Q 2775 2619 2662 2680 
Q 2550 2741 2406 2741 
Q 2056 2741 1856 2470 
Q 1656 2200 1656 1722 
L 1656 0 
L 538 0 
L 538 3500 
L 1656 3500 
L 1656 2988 
Q 1909 3294 2193 3439 
Q 2478 3584 2822 3584 
Q 3428 3584 3742 3212 
Q 4056 2841 4056 2131 
z
" transform="scale(0.015625)"/>
      <path id="DejaVuSans-Bold-64" d="M 2919 2988 
L 2919 4863 
L 4044 4863 
L 4044 0 
L 2919 0 
L 2919 506 
Q 2688 197 2409 53 
Q 2131 -91 1766 -91 
Q 1119 -91 703 423 
Q 288 938 288 1747 
Q 288 2556 703 3070 
Q 1119 3584 1766 3584 
Q 2128 3584 2408 3439 
Q 2688 3294 2919 2988 
z
M 2181 722 
Q 2541 722 2730 984 
Q 2919 1247 2919 1747 
Q 2919 2247 2730 2509 
Q 2541 2772 2181 2772 
Q 1825 2772 1636 2509 
Q 1447 2247 1447 1747 
Q 1447 1247 1636 984 
Q 1825 722 2181 722 
z
" transform="scale(0.015625)"/>
      <path id="DejaVuSans-Bold-72" d="M 3138 2547 
Q 2991 2616 2845 2648 
Q 2700 2681 2553 2681 
Q 2122 2681 1889 2404 
Q 1656 2128 1656 1613 
L 1656 0 
L 538 0 
L 538 3500 
L 1656 3500 
L 1656 2925 
Q 1872 3269 2151 3426 
Q 2431 3584 2822 3584 
Q 2878 3584 2943 3579 
Q 3009 3575 3134 3559 
L 3138 2547 
z
" transform="scale(0.015625)"/>
      <path id="DejaVuSans-Bold-71" d="M 2181 2772 
Q 1825 2772 1636 2509 
Q 1447 2247 1447 1747 
Q 1447 1247 1636 984 
Q 1825 722 2181 722 
Q 2541 722 2730 984 
Q 2919 1247 2919 1747 
Q 2919 2247 2730 2509 
Q 2541 2772 2181 2772 
z
M 2919 506 
Q 2688 197 2409 53 
Q 2131 -91 1766 -91 
Q 1119 -91 703 423 
Q 288 938 288 1747 
Q 288 2556 703 3067 
Q 1119 3578 1766 3578 
Q 2131 3578 2409 3434 
Q 2688 3291 2919 2981 
L 2919 3500 
L 4044 3500 
L 4044 -1331 
L 2919 -1331 
L 2919 506 
z
" transform="scale(0.015625)"/>
      <path id="DejaVuSans-Bold-75" d="M 500 1363 
L 500 3500 
L 1625 3500 
L 1625 3150 
Q 1625 2866 1622 2436 
Q 1619 2006 1619 1863 
Q 1619 1441 1641 1255 
Q 1663 1069 1716 984 
Q 1784 875 1895 815 
Q 2006 756 2150 756 
Q 2500 756 2700 1025 
Q 2900 1294 2900 1772 
L 2900 3500 
L 4019 3500 
L 4019 0 
L 2900 0 
L 2900 506 
Q 2647 200 2364 54 
Q 2081 -91 1741 -91 
Q 1134 -91 817 281 
Q 500 653 500 1363 
z
" transform="scale(0.015625)"/>
      <path id="DejaVuSans-Bold-79" d="M 78 3500 
L 1197 3500 
L 2138 1125 
L 2938 3500 
L 4056 3500 
L 2584 -331 
Q 2363 -916 2067 -1148 
Q 1772 -1381 1288 -1381 
L 641 -1381 
L 641 -647 
L 991 -647 
Q 1275 -647 1404 -556 
Q 1534 -466 1606 -231 
L 1638 -134 
L 78 3500 
z
" transform="scale(0.015625)"/>
     </defs>
     <use xlink:href="#DejaVuSans-Bold-55"/>
     <use xlink:href="#DejaVuSans-Bold-73" x="81.201172"/>
     <use xlink:href="#DejaVuSans-Bold-65" x="140.722656"/>
     <use xlink:href="#DejaVuSans-Bold-73" x="208.544922"/>
     <use xlink:href="#DejaVuSans-Bold-20" x="268.066406"/>
     <use xlink:href="#DejaVuSans-Bold-6f" x="302.880859"/>
     <use xlink:href="#DejaVuSans-Bold-66" x="371.582031"/>
     <use xlink:href="#DejaVuSans-Bold-20" x="415.087891"/>
     <use xlink:href="#DejaVuSans-Bold-76" x="449.902344"/>
     <use xlink:href="#DejaVuSans-Bold-6f" x="515.087891"/>
     <use xlink:href="#DejaVuSans-Bold-69" x="583.789062"/>
     <use xlink:href="#DejaVuSans-Bold-63" x="618.066406"/>
     <use xlink:href="#DejaVuSans-Bold-65" x="677.34375"/>
     <use xlink:href="#DejaVuSans-Bold-20" x="745.166016"/>
     <use xlink:href="#DejaVuSans-Bold-61" x="779.980469"/>
     <use xlink:href="#DejaVuSans-Bold-73" x="847.460938"/>
     <use xlink:href="#DejaVuSans-Bold-73" x="906.982422"/>
     <use xlink:href="#DejaVuSans-Bold-69" x="966.503906"/>
     <use xlink:href="#DejaVuSans-Bold-73" x="1000.78125"/>
     <use xlink:href="#DejaVuSans-Bold-74" x="1060.302734"/>
     <use xlink:href="#DejaVuSans-Bold-61" x="1108.105469"/>
     <use xlink:href="#DejaVuSans-Bold-6e" x="1175.585938"/>
     <use xlink:href="#DejaVuSans-Bold-74" x="1246.777344"/>
     <use xlink:href="#DejaVuSans-Bold-73" x="1294.580078"/>
     <use xlink:href="#DejaVuSans-Bold-20" x="1354.101562"/>
     <use xlink:href="#DejaVuSans-Bold-61" x="1388.916016"/>
     <use xlink:href="#DejaVuSans-Bold-6e" x="1456.396484"/>
     <use xlink:href="#DejaVuSans-Bold-64" x="1527.587891"/>
     <use xlink:href="#DejaVuSans-Bold-20" x="1599.169922"/>
     <use xlink:href="#DejaVuSans-Bold-66" x="1633.984375"/>
     <use xlink:href="#DejaVuSans-Bold-72" x="1677.490234"/>
     <use xlink:href="#DejaVuSans-Bold-65" x="1726.806641"/>
     <use xlink:href="#DejaVuSans-Bold-71" x="1794.628906"/>
     <use xlink:href="#DejaVuSans-Bold-75" x="1866.210938"/>
     <use xlink:href="#DejaVuSans-Bold-65" x="1937.402344"/>
     <use xlink:href="#DejaVuSans-Bold-6e" x="2005.224609"/>
     <use xlink:href="#DejaVuSans-Bold-63" x="2076.416016"/>
     <use xlink:href="#DejaVuSans-Bold-79" x="2135.693359"/>
     <use xlink:href="#DejaVuSans-Bold-20" x="2200.878906"/>
     <use xlink:href="#DejaVuSans-Bold-6f" x="2235.693359"/>
     <use xlink:href="#DejaVuSans-Bold-66" x="2304.394531"/>
     <use xlink:href="#DejaVuSans-Bold-20" x="2347.900391"/>
     <use xlink:href="#DejaVuSans-Bold-75" x="2382.714844"/>
     <use xlink:href="#DejaVuSans-Bold-73" x="2453.90625"/>
     <use xlink:href="#DejaVuSans-Bold-65" x="2513.427734"/>
    </g>
   </g>
   <g id="legend_1">
    <g id="patch_54">
     <path d="M 1241.82125 813.105 
L 1273.82125 813.105 
L 1273.82125 784.465 
L 1241.82125 784.465 
z
" style="fill: #592a7d"/>
    </g>
    <g id="text_70">
     <!-- Use daily -->
     <g style="fill: #2b1146" transform="translate(1299.42125 809.745) scale(0.32 -0.32)">
      <use xlink:href="#DejaVuSans-55"/>
      <use xlink:href="#DejaVuSans-73" x="73.193359"/>
      <use xlink:href="#DejaVuSans-65" x="125.292969"/>
      <use xlink:href="#DejaVuSans-20" x="186.816406"/>
      <use xlink:href="#DejaVuSans-64" x="218.603516"/>
      <use xlink:href="#DejaVuSans-61" x="282.080078"/>
      <use xlink:href="#DejaVuSans-69" x="343.359375"/>
      <use xlink:href="#DejaVuSans-6c" x="371.142578"/>
      <use xlink:href="#DejaVuSans-79" x="398.925781"/>
     </g>
    </g>
    <g id="patch_55">
     <path d="M 1241.82125 861.04 
L 1273.82125 861.04 
L 1273.82125 832.4 
L 1241.82125 832.4 
z
" style="fill: #e87766"/>
    </g>
    <g id="text_71">
     <!-- Use monthly -->
     <g style="fill: #2b1146" transform="translate(1299.42125 857.68) scale(0.32 -0.32)">
      <use xlink:href="#DejaVuSans-55"/>
      <use xlink:href="#DejaVuSans-73" x="73.193359"/>
      <use xlink:href="#DejaVuSans-65" x="125.292969"/>
      <use xlink:href="#DejaVuSans-20" x="186.816406"/>
      <use xlink:href="#DejaVuSans-6d" x="218.603516"/>
      <use xlink:href="#DejaVuSans-6f" x="316.015625"/>
      <use xlink:href="#DejaVuSans-6e" x="377.197266"/>
      <use xlink:href="#DejaVuSans-74" x="440.576172"/>
      <use xlink:href="#DejaVuSans-68" x="479.785156"/>
      <use xlink:href="#DejaVuSans-6c" x="543.164062"/>
      <use xlink:href="#DejaVuSans-79" x="570.947266"/>
     </g>
    </g>
    <g id="patch_56">
     <path d="M 1241.82125 908.975 
L 1273.82125 908.975 
L 1273.82125 880.335 
L 1241.82125 880.335 
z
" style="fill: #a881ba"/>
    </g>
    <g id="text_72">
     <!-- Tried at least once -->
     <g style="fill: #2b1146" transform="translate(1299.42125 905.615) scale(0.32 -0.32)">
      <defs>
       <path id="DejaVuSans-54" d="M -19 4666 
L 3928 4666 
L 3928 4134 
L 2272 4134 
L 2272 0 
L 1638 0 
L 1638 4134 
L -19 4134 
L -19 4666 
z
" transform="scale(0.015625)"/>
      </defs>
      <use xlink:href="#DejaVuSans-54"/>
      <use xlink:href="#DejaVuSans-72" x="46.333984"/>
      <use xlink:href="#DejaVuSans-69" x="87.447266"/>
      <use xlink:href="#DejaVuSans-65" x="115.230469"/>
      <use xlink:href="#DejaVuSans-64" x="176.753906"/>
      <use xlink:href="#DejaVuSans-20" x="240.230469"/>
      <use xlink:href="#DejaVuSans-61" x="272.017578"/>
      <use xlink:href="#DejaVuSans-74" x="333.296875"/>
      <use xlink:href="#DejaVuSans-20" x="372.505859"/>
      <use xlink:href="#DejaVuSans-6c" x="404.292969"/>
      <use xlink:href="#DejaVuSans-65" x="432.076172"/>
      <use xlink:href="#DejaVuSans-61" x="493.599609"/>
      <use xlink:href="#DejaVuSans-73" x="554.878906"/>
      <use xlink:href="#DejaVuSans-74" x="606.978516"/>
      <use xlink:href="#DejaVuSans-20" x="646.1875"/>
      <use xlink:href="#DejaVuSans-6f" x="677.974609"/>
      <use xlink:href="#DejaVuSans-6e" x="739.15625"/>
      <use xlink:href="#DejaVuSans-63" x="802.535156"/>
      <use xlink:href="#DejaVuSans-65" x="857.515625"/>
     </g>
    </g>
   </g>
  </g>
 </g>
 <defs>
  <clipPath id="pf5698dca45">
   <rect x="506.31125" y="54.03" width="1116" height="887.04"/>
  </clipPath>
 </defs>
</svg>
